%TF.GenerationSoftware,KiCad,Pcbnew,10.0.1*%
%TF.CreationDate,2026-06-12T14:10:23-05:00*%
%TF.ProjectId,wearable_IMU,77656172-6162-46c6-955f-494d552e6b69,rev?*%
%TF.SameCoordinates,Original*%
%TF.FileFunction,Copper,L1,Top*%
%TF.FilePolarity,Positive*%
%FSLAX46Y46*%
G04 Gerber Fmt 4.6, Leading zero omitted, Abs format (unit mm)*
G04 Created by KiCad (PCBNEW 10.0.1) date 2026-06-12 14:10:23*
%MOMM*%
%LPD*%
G01*
G04 APERTURE LIST*
G04 Aperture macros list*
%AMRoundRect*
0 Rectangle with rounded corners*
0 $1 Rounding radius*
0 $2 $3 $4 $5 $6 $7 $8 $9 X,Y pos of 4 corners*
0 Add a 4 corners polygon primitive as box body*
4,1,4,$2,$3,$4,$5,$6,$7,$8,$9,$2,$3,0*
0 Add four circle primitives for the rounded corners*
1,1,$1+$1,$2,$3*
1,1,$1+$1,$4,$5*
1,1,$1+$1,$6,$7*
1,1,$1+$1,$8,$9*
0 Add four rect primitives between the rounded corners*
20,1,$1+$1,$2,$3,$4,$5,0*
20,1,$1+$1,$4,$5,$6,$7,0*
20,1,$1+$1,$6,$7,$8,$9,0*
20,1,$1+$1,$8,$9,$2,$3,0*%
%AMRotRect*
0 Rectangle, with rotation*
0 The origin of the aperture is its center*
0 $1 length*
0 $2 width*
0 $3 Rotation angle, in degrees counterclockwise*
0 Add horizontal line*
21,1,$1,$2,0,0,$3*%
%AMFreePoly0*
4,1,14,-0.014661,0.215495,0.140356,0.060504,0.155004,0.025150,0.155004,-0.179883,0.140359,-0.215238,0.105004,-0.229883,-0.105004,-0.229883,-0.140359,-0.215238,-0.155004,-0.179883,-0.155004,0.180137,-0.140359,0.215492,-0.105004,0.230137,-0.050013,0.230137,-0.014661,0.215495,-0.014661,0.215495,$1*%
%AMFreePoly1*
4,1,14,0.140359,0.215492,0.155004,0.180137,0.155004,-0.179883,0.140359,-0.215238,0.105004,-0.229883,-0.105004,-0.229883,-0.140359,-0.215238,-0.155004,-0.179883,-0.155004,0.025146,-0.140359,0.060501,0.014661,0.215495,0.050013,0.230137,0.105004,0.230137,0.140359,0.215492,0.140359,0.215492,$1*%
%AMFreePoly2*
4,1,14,0.140359,0.215314,0.155004,0.179959,0.155004,-0.180035,0.140359,-0.215390,0.105004,-0.230035,0.050013,-0.230035,0.014664,-0.215396,-0.140353,-0.060431,-0.155004,-0.025078,-0.155004,0.179959,-0.140359,0.215314,-0.105004,0.229959,0.105004,0.229959,0.140359,0.215314,0.140359,0.215314,$1*%
%AMFreePoly3*
4,1,14,0.140409,0.215339,0.155054,0.179984,0.155054,-0.025044,0.140409,-0.060399,-0.014610,-0.215393,-0.049962,-0.230035,-0.104953,-0.230035,-0.140308,-0.215390,-0.154953,-0.180035,-0.154953,0.179984,-0.140308,0.215339,-0.104953,0.229984,0.105054,0.229984,0.140409,0.215339,0.140409,0.215339,$1*%
G04 Aperture macros list end*
%TA.AperFunction,SMDPad,CuDef*%
%ADD10RoundRect,0.250000X0.850000X-0.350000X0.850000X0.350000X-0.850000X0.350000X-0.850000X-0.350000X0*%
%TD*%
%TA.AperFunction,SMDPad,CuDef*%
%ADD11RoundRect,0.087500X0.225000X0.087500X-0.225000X0.087500X-0.225000X-0.087500X0.225000X-0.087500X0*%
%TD*%
%TA.AperFunction,SMDPad,CuDef*%
%ADD12RoundRect,0.087500X0.087500X0.225000X-0.087500X0.225000X-0.087500X-0.225000X0.087500X-0.225000X0*%
%TD*%
%TA.AperFunction,SMDPad,CuDef*%
%ADD13RoundRect,0.093750X-0.156250X-0.093750X0.156250X-0.093750X0.156250X0.093750X-0.156250X0.093750X0*%
%TD*%
%TA.AperFunction,SMDPad,CuDef*%
%ADD14RoundRect,0.075000X-0.250000X-0.075000X0.250000X-0.075000X0.250000X0.075000X-0.250000X0.075000X0*%
%TD*%
%TA.AperFunction,SMDPad,CuDef*%
%ADD15RoundRect,0.140000X-0.170000X0.140000X-0.170000X-0.140000X0.170000X-0.140000X0.170000X0.140000X0*%
%TD*%
%TA.AperFunction,SMDPad,CuDef*%
%ADD16RoundRect,0.225000X-0.225000X-0.250000X0.225000X-0.250000X0.225000X0.250000X-0.225000X0.250000X0*%
%TD*%
%TA.AperFunction,SMDPad,CuDef*%
%ADD17RoundRect,0.147500X-0.172500X0.147500X-0.172500X-0.147500X0.172500X-0.147500X0.172500X0.147500X0*%
%TD*%
%TA.AperFunction,SMDPad,CuDef*%
%ADD18RoundRect,0.140000X-0.140000X-0.170000X0.140000X-0.170000X0.140000X0.170000X-0.140000X0.170000X0*%
%TD*%
%TA.AperFunction,SMDPad,CuDef*%
%ADD19RoundRect,0.147500X-0.147500X-0.172500X0.147500X-0.172500X0.147500X0.172500X-0.147500X0.172500X0*%
%TD*%
%TA.AperFunction,SMDPad,CuDef*%
%ADD20RoundRect,0.140000X0.140000X0.170000X-0.140000X0.170000X-0.140000X-0.170000X0.140000X-0.170000X0*%
%TD*%
%TA.AperFunction,SMDPad,CuDef*%
%ADD21RoundRect,0.225000X-0.250000X0.225000X-0.250000X-0.225000X0.250000X-0.225000X0.250000X0.225000X0*%
%TD*%
%TA.AperFunction,SMDPad,CuDef*%
%ADD22RoundRect,0.135000X-0.135000X-0.185000X0.135000X-0.185000X0.135000X0.185000X-0.135000X0.185000X0*%
%TD*%
%TA.AperFunction,SMDPad,CuDef*%
%ADD23RoundRect,0.147500X0.147500X0.172500X-0.147500X0.172500X-0.147500X-0.172500X0.147500X-0.172500X0*%
%TD*%
%TA.AperFunction,SMDPad,CuDef*%
%ADD24RoundRect,0.135000X0.135000X0.185000X-0.135000X0.185000X-0.135000X-0.185000X0.135000X-0.185000X0*%
%TD*%
%TA.AperFunction,SMDPad,CuDef*%
%ADD25RoundRect,0.068750X0.281250X0.068750X-0.281250X0.068750X-0.281250X-0.068750X0.281250X-0.068750X0*%
%TD*%
%TA.AperFunction,SMDPad,CuDef*%
%ADD26RoundRect,0.061250X-0.061250X0.163750X-0.061250X-0.163750X0.061250X-0.163750X0.061250X0.163750X0*%
%TD*%
%TA.AperFunction,SMDPad,CuDef*%
%ADD27RoundRect,0.061250X0.061250X-0.163750X0.061250X0.163750X-0.061250X0.163750X-0.061250X-0.163750X0*%
%TD*%
%TA.AperFunction,SMDPad,CuDef*%
%ADD28RoundRect,0.140000X0.170000X-0.140000X0.170000X0.140000X-0.170000X0.140000X-0.170000X-0.140000X0*%
%TD*%
%TA.AperFunction,SMDPad,CuDef*%
%ADD29RoundRect,0.200000X0.250000X0.200000X-0.250000X0.200000X-0.250000X-0.200000X0.250000X-0.200000X0*%
%TD*%
%TA.AperFunction,SMDPad,CuDef*%
%ADD30RoundRect,0.150000X-0.425000X0.150000X-0.425000X-0.150000X0.425000X-0.150000X0.425000X0.150000X0*%
%TD*%
%TA.AperFunction,SMDPad,CuDef*%
%ADD31RoundRect,0.075000X-0.500000X0.075000X-0.500000X-0.075000X0.500000X-0.075000X0.500000X0.075000X0*%
%TD*%
%TA.AperFunction,ComponentPad*%
%ADD32O,2.100000X1.000000*%
%TD*%
%TA.AperFunction,ComponentPad*%
%ADD33O,1.800000X1.000000*%
%TD*%
%TA.AperFunction,SMDPad,CuDef*%
%ADD34FreePoly0,0.000000*%
%TD*%
%TA.AperFunction,SMDPad,CuDef*%
%ADD35FreePoly1,0.000000*%
%TD*%
%TA.AperFunction,SMDPad,CuDef*%
%ADD36FreePoly2,0.000000*%
%TD*%
%TA.AperFunction,SMDPad,CuDef*%
%ADD37FreePoly3,0.000000*%
%TD*%
%TA.AperFunction,SMDPad,CuDef*%
%ADD38RotRect,0.480000X0.480000X135.000000*%
%TD*%
%TA.AperFunction,SMDPad,CuDef*%
%ADD39RoundRect,0.135000X0.185000X-0.135000X0.185000X0.135000X-0.185000X0.135000X-0.185000X-0.135000X0*%
%TD*%
%TA.AperFunction,SMDPad,CuDef*%
%ADD40RoundRect,0.218750X-0.218750X-0.381250X0.218750X-0.381250X0.218750X0.381250X-0.218750X0.381250X0*%
%TD*%
%TA.AperFunction,SMDPad,CuDef*%
%ADD41RoundRect,0.225000X0.250000X-0.225000X0.250000X0.225000X-0.250000X0.225000X-0.250000X-0.225000X0*%
%TD*%
%TA.AperFunction,SMDPad,CuDef*%
%ADD42RoundRect,0.200000X-0.200000X-0.800000X0.200000X-0.800000X0.200000X0.800000X-0.200000X0.800000X0*%
%TD*%
%TA.AperFunction,SMDPad,CuDef*%
%ADD43RoundRect,0.147500X0.172500X-0.147500X0.172500X0.147500X-0.172500X0.147500X-0.172500X-0.147500X0*%
%TD*%
%TA.AperFunction,SMDPad,CuDef*%
%ADD44RoundRect,0.150000X-0.400000X0.150000X-0.400000X-0.150000X0.400000X-0.150000X0.400000X0.150000X0*%
%TD*%
%TA.AperFunction,SMDPad,CuDef*%
%ADD45RoundRect,0.135000X-0.185000X0.135000X-0.185000X-0.135000X0.185000X-0.135000X0.185000X0.135000X0*%
%TD*%
%TA.AperFunction,ConnectorPad*%
%ADD46C,0.787400*%
%TD*%
%TA.AperFunction,SMDPad,CuDef*%
%ADD47RoundRect,0.225000X0.225000X0.250000X-0.225000X0.250000X-0.225000X-0.250000X0.225000X-0.250000X0*%
%TD*%
%TA.AperFunction,SMDPad,CuDef*%
%ADD48RoundRect,0.030480X0.248920X0.071120X-0.248920X0.071120X-0.248920X-0.071120X0.248920X-0.071120X0*%
%TD*%
%TA.AperFunction,SMDPad,CuDef*%
%ADD49RoundRect,0.148590X0.346710X0.651510X-0.346710X0.651510X-0.346710X-0.651510X0.346710X-0.651510X0*%
%TD*%
%TA.AperFunction,SMDPad,CuDef*%
%ADD50RoundRect,0.062500X0.062500X0.410000X-0.062500X0.410000X-0.062500X-0.410000X0.062500X-0.410000X0*%
%TD*%
%TA.AperFunction,SMDPad,CuDef*%
%ADD51RoundRect,0.062500X0.287500X0.062500X-0.287500X0.062500X-0.287500X-0.062500X0.287500X-0.062500X0*%
%TD*%
%TA.AperFunction,HeatsinkPad*%
%ADD52R,0.900000X1.300000*%
%TD*%
%TA.AperFunction,BGAPad,CuDef*%
%ADD53C,0.250000*%
%TD*%
%TA.AperFunction,SMDPad,CuDef*%
%ADD54RoundRect,0.062500X0.375000X0.062500X-0.375000X0.062500X-0.375000X-0.062500X0.375000X-0.062500X0*%
%TD*%
%TA.AperFunction,SMDPad,CuDef*%
%ADD55RoundRect,0.062500X0.062500X0.375000X-0.062500X0.375000X-0.062500X-0.375000X0.062500X-0.375000X0*%
%TD*%
%TA.AperFunction,HeatsinkPad*%
%ADD56R,5.600000X5.600000*%
%TD*%
%TA.AperFunction,ViaPad*%
%ADD57C,0.400000*%
%TD*%
%TA.AperFunction,ViaPad*%
%ADD58C,0.600000*%
%TD*%
%TA.AperFunction,Conductor*%
%ADD59C,0.100000*%
%TD*%
%TA.AperFunction,Conductor*%
%ADD60C,0.200000*%
%TD*%
%TA.AperFunction,Conductor*%
%ADD61C,0.150000*%
%TD*%
%TA.AperFunction,Conductor*%
%ADD62C,0.300000*%
%TD*%
%TA.AperFunction,Conductor*%
%ADD63C,0.500000*%
%TD*%
%TA.AperFunction,Conductor*%
%ADD64C,0.261400*%
%TD*%
%TA.AperFunction,Conductor*%
%ADD65C,1.600000*%
%TD*%
G04 APERTURE END LIST*
D10*
%TO.P,SW1,1,A_1*%
%TO.N,+VSYS*%
X147483150Y-109662500D03*
%TO.P,SW1,2,B_2*%
%TO.N,/EN*%
X147483150Y-107162500D03*
%TO.P,SW1,3,C_3*%
%TO.N,GND*%
X147483150Y-104662500D03*
%TD*%
D11*
%TO.P,U6,1,SDO/SA0_1*%
%TO.N,+3V3*%
X136962469Y-94870510D03*
%TO.P,U6,2,SDX_2*%
%TO.N,unconnected-(U6-SDX-Pad2)*%
X136962469Y-94370510D03*
%TO.P,U6,3,SCX_3*%
%TO.N,unconnected-(U6-SCX-Pad3)*%
X136962469Y-93870510D03*
%TO.P,U6,4,INT1_4*%
%TO.N,/IMU_INT1*%
X136962469Y-93370510D03*
D12*
%TO.P,U6,5,VDDIO_5*%
%TO.N,+3V3*%
X136299969Y-93208010D03*
%TO.P,U6,6,GND_6*%
%TO.N,GND*%
X135799969Y-93208010D03*
%TO.P,U6,7,GND_7*%
X135299969Y-93208010D03*
D11*
%TO.P,U6,8,VDD_8*%
%TO.N,+3V3*%
X134637469Y-93370510D03*
%TO.P,U6,9,INT2_9*%
%TO.N,unconnected-(U6-INT2-Pad9)*%
X134637469Y-93870510D03*
%TO.P,U6,10,OCS_AUX_10*%
%TO.N,unconnected-(U6-OCS_AUX-Pad10)*%
X134637469Y-94370510D03*
%TO.P,U6,11,SDO_AUX_11*%
%TO.N,unconnected-(U6-SDO_AUX-Pad11)*%
X134637469Y-94870510D03*
D12*
%TO.P,U6,12,CS_12*%
%TO.N,+3V3*%
X135299969Y-95033010D03*
%TO.P,U6,13,SCL_13*%
%TO.N,/SCL*%
X135799969Y-95033010D03*
%TO.P,U6,14,SDA_14*%
%TO.N,/SDA*%
X136299969Y-95033010D03*
%TD*%
D13*
%TO.P,U1,1,I/O1_1*%
%TO.N,/USB_D-*%
X132495650Y-107327500D03*
D14*
%TO.P,U1,2,GND_2*%
%TO.N,GND*%
X132420650Y-107865000D03*
D13*
%TO.P,U1,3,I/O2_3*%
%TO.N,/USB_D+*%
X132495650Y-108402500D03*
%TO.P,U1,4,I/O2_4*%
%TO.N,/D_P*%
X134195650Y-108402500D03*
D14*
%TO.P,U1,5,VBUS_5*%
%TO.N,+VIN*%
X134270650Y-107865000D03*
D13*
%TO.P,U1,6,I/O1_6*%
%TO.N,/D_N*%
X134195650Y-107327500D03*
%TD*%
D15*
%TO.P,C31,1*%
%TO.N,/RF_MATCH2*%
X141363150Y-84690000D03*
%TO.P,C31,2*%
%TO.N,GND*%
X141363150Y-85650000D03*
%TD*%
D16*
%TO.P,C4,1*%
%TO.N,+3V3*%
X148598150Y-101250000D03*
%TO.P,C4,2*%
%TO.N,GND*%
X150148150Y-101250000D03*
%TD*%
D17*
%TO.P,D3,1,K_1*%
%TO.N,/LED3_K*%
X142070650Y-86872500D03*
%TO.P,D3,2,A_2*%
%TO.N,/LED3*%
X142070650Y-87842500D03*
%TD*%
D18*
%TO.P,C14,1*%
%TO.N,+3V3*%
X136733150Y-97370000D03*
%TO.P,C14,2*%
%TO.N,GND*%
X137693150Y-97370000D03*
%TD*%
D15*
%TO.P,C28,1*%
%TO.N,+3V3*%
X144095650Y-107457500D03*
%TO.P,C28,2*%
%TO.N,GND*%
X144095650Y-108417500D03*
%TD*%
D19*
%TO.P,D1,1,K_1*%
%TO.N,/LED1_K*%
X150018763Y-90845000D03*
%TO.P,D1,2,A_2*%
%TO.N,+3V3*%
X150988763Y-90845000D03*
%TD*%
D20*
%TO.P,C10,1*%
%TO.N,+3V3*%
X137119969Y-92110510D03*
%TO.P,C10,2*%
%TO.N,GND*%
X136159969Y-92110510D03*
%TD*%
D21*
%TO.P,C9,1*%
%TO.N,+3V3*%
X133269969Y-93365510D03*
%TO.P,C9,2*%
%TO.N,GND*%
X133269969Y-94915510D03*
%TD*%
D22*
%TO.P,R8,1*%
%TO.N,/STAT2*%
X147843763Y-91845000D03*
%TO.P,R8,2*%
%TO.N,/LED2_K*%
X148863763Y-91845000D03*
%TD*%
D18*
%TO.P,C5,1*%
%TO.N,+B*%
X147853338Y-95162500D03*
%TO.P,C5,2*%
%TO.N,GND*%
X148813338Y-95162500D03*
%TD*%
D23*
%TO.P,L1,1,1_1*%
%TO.N,/SMPSLX*%
X134718150Y-104270000D03*
%TO.P,L1,2,2_2*%
%TO.N,/SMPSLXL*%
X133748150Y-104270000D03*
%TD*%
D24*
%TO.P,R13,1*%
%TO.N,/BOOT0*%
X146013150Y-98640000D03*
%TO.P,R13,2*%
%TO.N,GND*%
X144993150Y-98640000D03*
%TD*%
D18*
%TO.P,C19,1*%
%TO.N,+3V3*%
X139223150Y-97350000D03*
%TO.P,C19,2*%
%TO.N,GND*%
X140183150Y-97350000D03*
%TD*%
%TO.P,C2,1*%
%TO.N,+B*%
X147853338Y-92819363D03*
%TO.P,C2,2*%
%TO.N,GND*%
X148813338Y-92819363D03*
%TD*%
D20*
%TO.P,C6,1*%
%TO.N,/CRST*%
X135469969Y-87900510D03*
%TO.P,C6,2*%
%TO.N,GND*%
X134509969Y-87900510D03*
%TD*%
D25*
%TO.P,FLT1,1,IN_1*%
%TO.N,/RF_MATCH1*%
X139313150Y-91695000D03*
D26*
%TO.P,FLT1,2,GND_2*%
%TO.N,GND*%
X139540650Y-91082500D03*
D25*
%TO.P,FLT1,3,OUT_3*%
%TO.N,/RF_MATCH2*%
X139313150Y-90470000D03*
D27*
%TO.P,FLT1,4,GND_4*%
%TO.N,GND*%
X139085650Y-91082500D03*
%TD*%
D28*
%TO.P,C7,1*%
%TO.N,+3V3*%
X133569969Y-90380510D03*
%TO.P,C7,2*%
%TO.N,GND*%
X133569969Y-89420510D03*
%TD*%
D19*
%TO.P,D2,1,K_1*%
%TO.N,/LED2_K*%
X150018763Y-91945000D03*
%TO.P,D2,2,A_2*%
%TO.N,+3V3*%
X150988763Y-91945000D03*
%TD*%
D20*
%TO.P,C13,1*%
%TO.N,+3V3*%
X134733150Y-105245000D03*
%TO.P,C13,2*%
%TO.N,GND*%
X133773150Y-105245000D03*
%TD*%
D22*
%TO.P,R15,1*%
%TO.N,GND*%
X133710650Y-100062500D03*
%TO.P,R15,2*%
%TO.N,/IRQ*%
X134730650Y-100062500D03*
%TD*%
D29*
%TO.P,X2,1,1_1*%
%TO.N,/HSE_OUT*%
X134720650Y-97712500D03*
%TO.P,X2,2,G_2*%
%TO.N,GND*%
X133320650Y-97712500D03*
%TO.P,X2,3,3_3*%
%TO.N,/HSE_IN*%
X133320650Y-98812500D03*
%TO.P,X2,4,G_4*%
%TO.N,GND*%
X134720650Y-98812500D03*
%TD*%
D20*
%TO.P,C1,1*%
%TO.N,+VIN*%
X142712352Y-92852259D03*
%TO.P,C1,2*%
%TO.N,GND*%
X141752352Y-92852259D03*
%TD*%
D22*
%TO.P,R10,1*%
%TO.N,+3V3*%
X141702352Y-94812500D03*
%TO.P,R10,2*%
%TO.N,/SCL*%
X142722352Y-94812500D03*
%TD*%
D18*
%TO.P,C23,1*%
%TO.N,/RF_MATCH1*%
X139313150Y-92720000D03*
%TO.P,C23,2*%
%TO.N,GND*%
X140273150Y-92720000D03*
%TD*%
D30*
%TO.P,J1,A1,GND_A1*%
%TO.N,GND*%
X128280000Y-102420000D03*
%TO.P,J1,A4,VBUS_A4*%
%TO.N,+VIN*%
X128280000Y-103220000D03*
D31*
%TO.P,J1,A5,CC1_A5*%
%TO.N,/USB_CC1*%
X128280000Y-104370000D03*
%TO.P,J1,A6,D+_A6*%
%TO.N,/USB_D+*%
X128280000Y-105370000D03*
%TO.P,J1,A7,D-_A7*%
%TO.N,/USB_D-*%
X128280000Y-105870000D03*
%TO.P,J1,A8,SBU1_A8*%
%TO.N,unconnected-(J1-SBU1-PadA8)*%
X128280000Y-106870000D03*
D30*
%TO.P,J1,A9,VBUS_A9*%
%TO.N,+VIN*%
X128280000Y-108020000D03*
%TO.P,J1,A12,GND_A12*%
%TO.N,GND*%
X128280000Y-108820000D03*
%TO.P,J1,B1,GND_B1*%
X128280000Y-108820000D03*
%TO.P,J1,B4,VBUS_B4*%
%TO.N,+VIN*%
X128280000Y-108020000D03*
D31*
%TO.P,J1,B5,CC2_B5*%
%TO.N,/USB_CC2*%
X128280000Y-107370000D03*
%TO.P,J1,B6,D+_B6*%
%TO.N,/USB_D+*%
X128280000Y-106370000D03*
%TO.P,J1,B7,D-_B7*%
%TO.N,/USB_D-*%
X128280000Y-104870000D03*
%TO.P,J1,B8,SBU2_B8*%
%TO.N,unconnected-(J1-SBU2-PadB8)*%
X128280000Y-103870000D03*
D30*
%TO.P,J1,B9,VBUS_B9*%
%TO.N,+VIN*%
X128280000Y-103220000D03*
%TO.P,J1,B12,GND_B12*%
%TO.N,GND*%
X128280000Y-102420000D03*
D32*
%TO.P,J1,SH,SHIELD_SH*%
X127705000Y-101300000D03*
D33*
X123525000Y-101300000D03*
D32*
X127705000Y-109940000D03*
D33*
X123525000Y-109940000D03*
%TD*%
D18*
%TO.P,C20,1*%
%TO.N,/RF*%
X139313150Y-95520000D03*
%TO.P,C20,2*%
%TO.N,GND*%
X140273150Y-95520000D03*
%TD*%
D34*
%TO.P,U8,1,OUT_1*%
%TO.N,+1V8*%
X136820650Y-88462500D03*
D35*
%TO.P,U8,2,GND_2*%
%TO.N,GND*%
X137480650Y-88462500D03*
D36*
%TO.P,U8,3,EN_3*%
%TO.N,+3V3*%
X137480650Y-87562500D03*
D37*
%TO.P,U8,4,IN_4*%
X136820650Y-87562500D03*
D38*
%TO.P,U8,5,PAD_5*%
%TO.N,GND*%
X137150650Y-88012500D03*
%TD*%
D28*
%TO.P,C17,1*%
%TO.N,+3V3*%
X145013150Y-101062500D03*
%TO.P,C17,2*%
%TO.N,GND*%
X145013150Y-100102500D03*
%TD*%
D39*
%TO.P,R2,1*%
%TO.N,/USB_CC1*%
X129895650Y-104370000D03*
%TO.P,R2,2*%
%TO.N,GND*%
X129895650Y-103350000D03*
%TD*%
D15*
%TO.P,C8,1*%
%TO.N,+1V8*%
X136992469Y-89420510D03*
%TO.P,C8,2*%
%TO.N,GND*%
X136992469Y-90380510D03*
%TD*%
D40*
%TO.P,L2,1,1_1*%
%TO.N,/SMPSLXL*%
X132350650Y-102920000D03*
%TO.P,L2,2,2_2*%
%TO.N,/SMPSFB*%
X134475650Y-102920000D03*
%TD*%
D41*
%TO.P,C12,1*%
%TO.N,+3V3*%
X132570650Y-106037500D03*
%TO.P,C12,2*%
%TO.N,GND*%
X132570650Y-104487500D03*
%TD*%
D42*
%TO.P,AE1,1,A_1*%
%TO.N,/RF_ANT*%
X147802510Y-84677091D03*
%TO.P,AE1,2*%
%TO.N,N/C*%
X150513150Y-84680000D03*
%TD*%
D43*
%TO.P,L3,1,1_1*%
%TO.N,/RF*%
X139313150Y-94605000D03*
%TO.P,L3,2,2_2*%
%TO.N,/RF_MATCH1*%
X139313150Y-93635000D03*
%TD*%
D22*
%TO.P,R14,1*%
%TO.N,/BOOT0*%
X144993150Y-96690000D03*
%TO.P,R14,2*%
%TO.N,Net-(JP1-A)*%
X146013150Y-96690000D03*
%TD*%
D28*
%TO.P,C27,1*%
%TO.N,/SWD_NRST*%
X146603150Y-101062500D03*
%TO.P,C27,2*%
%TO.N,GND*%
X146603150Y-100102500D03*
%TD*%
D18*
%TO.P,C18,1*%
%TO.N,/LSE_OUT*%
X145003150Y-102410000D03*
%TO.P,C18,2*%
%TO.N,GND*%
X145963150Y-102410000D03*
%TD*%
D20*
%TO.P,C25,1*%
%TO.N,/BOOT0*%
X146003150Y-97670000D03*
%TO.P,C25,2*%
%TO.N,GND*%
X145043150Y-97670000D03*
%TD*%
D39*
%TO.P,R6,1*%
%TO.N,/CE*%
X143963150Y-89780000D03*
%TO.P,R6,2*%
%TO.N,GND*%
X143963150Y-88760000D03*
%TD*%
D24*
%TO.P,R9,1*%
%TO.N,/QTSRT*%
X142722352Y-93830804D03*
%TO.P,R9,2*%
%TO.N,GND*%
X141702352Y-93830804D03*
%TD*%
D44*
%TO.P,X1,1,1_1*%
%TO.N,/LSE_OUT*%
X145273150Y-103670000D03*
%TO.P,X1,2,2_2*%
%TO.N,/LSE_IN*%
X145273150Y-105070000D03*
%TD*%
D45*
%TO.P,R1,1*%
%TO.N,/USB_CC2*%
X129895650Y-107370000D03*
%TO.P,R1,2*%
%TO.N,GND*%
X129895650Y-108390000D03*
%TD*%
D22*
%TO.P,R11,1*%
%TO.N,+3V3*%
X141710650Y-95912500D03*
%TO.P,R11,2*%
%TO.N,/SDA*%
X142730650Y-95912500D03*
%TD*%
D46*
%TO.P,J3,1,VCC_1*%
%TO.N,+3V3*%
X137693150Y-110590000D03*
%TO.P,J3,2,SWDIO_2*%
%TO.N,/SWD_DIO*%
X137693150Y-109320000D03*
%TO.P,J3,3,~{RESET}_3*%
%TO.N,/SWD_NRST*%
X138963150Y-110590000D03*
%TO.P,J3,4,SWCLK_4*%
%TO.N,/SWD_CLK*%
X138963150Y-109320000D03*
%TO.P,J3,5,GND_5*%
%TO.N,GND*%
X140233150Y-110590000D03*
%TO.P,J3,6,SWO_6*%
%TO.N,/SWD_O*%
X140233150Y-109320000D03*
%TD*%
D15*
%TO.P,C22,1*%
%TO.N,+3V3*%
X143120650Y-107457500D03*
%TO.P,C22,2*%
%TO.N,GND*%
X143120650Y-108417500D03*
%TD*%
D17*
%TO.P,L5,1,1_1*%
%TO.N,/RF_ANT*%
X144213150Y-84690000D03*
%TO.P,L5,2,2_2*%
%TO.N,GND*%
X144213150Y-85660000D03*
%TD*%
D24*
%TO.P,R3,1*%
%TO.N,/ILIM{slash}VSET*%
X142723150Y-90881405D03*
%TO.P,R3,2*%
%TO.N,GND*%
X141703150Y-90881405D03*
%TD*%
D47*
%TO.P,C30,1*%
%TO.N,+3V3*%
X137320650Y-84262500D03*
%TO.P,C30,2*%
%TO.N,GND*%
X135770650Y-84262500D03*
%TD*%
D24*
%TO.P,R4,1*%
%TO.N,/ISET*%
X142722352Y-91872209D03*
%TO.P,R4,2*%
%TO.N,GND*%
X141702352Y-91872209D03*
%TD*%
D48*
%TO.P,U2,1,SYS_1*%
%TO.N,+VSYS*%
X146292150Y-92570150D03*
%TO.P,U2,2,BAT_2*%
%TO.N,+B*%
X146292150Y-92170100D03*
%TO.P,U2,3,STAT2_3*%
%TO.N,/STAT2*%
X146292150Y-91770050D03*
%TO.P,U2,4,/CE_4*%
%TO.N,/CE*%
X146292150Y-91370000D03*
%TO.P,U2,5,GND_5*%
%TO.N,GND*%
X146292150Y-90969950D03*
%TO.P,U2,6,TS/MR_6*%
%TO.N,/TS{slash}MR*%
X144133150Y-90969950D03*
%TO.P,U2,7,ILIM/VSET_7*%
%TO.N,/ILIM{slash}VSET*%
X144133150Y-91370000D03*
%TO.P,U2,8,ISET_8*%
%TO.N,/ISET*%
X144133150Y-91770050D03*
%TO.P,U2,9,STAT1_9*%
%TO.N,/STAT1*%
X144133150Y-92170100D03*
%TO.P,U2,10,IN_10*%
%TO.N,+VIN*%
X144133150Y-92570150D03*
D49*
%TO.P,U2,11,EPAD_11*%
%TO.N,GND*%
X145212650Y-91770050D03*
%TD*%
D19*
%TO.P,L4,1,1_1*%
%TO.N,/RF_MATCH2*%
X142298150Y-84690000D03*
%TO.P,L4,2,2_2*%
%TO.N,/RF_ANT*%
X143268150Y-84690000D03*
%TD*%
D50*
%TO.P,U3,1,VIN_1*%
%TO.N,+VSYS*%
X150453150Y-98090000D03*
%TO.P,U3,2,VIN_2*%
X149953150Y-98090000D03*
%TO.P,U3,3,EN_3*%
%TO.N,/EN*%
X149453150Y-98090000D03*
%TO.P,U3,4,PG_4*%
%TO.N,unconnected-(U3-PG-Pad4)*%
X148953150Y-98090000D03*
%TO.P,U3,5,VOUT_5*%
%TO.N,+3V3*%
X148453150Y-98090000D03*
%TO.P,U3,6,VOUT_6*%
X148453150Y-99690000D03*
%TO.P,U3,7,VOUT_7*%
X148953150Y-99690000D03*
%TO.P,U3,8,FB_8*%
X149453150Y-99690000D03*
%TO.P,U3,9,GND_9*%
%TO.N,GND*%
X149953150Y-99690000D03*
%TO.P,U3,10,GND_10*%
X150453150Y-99690000D03*
%TD*%
D18*
%TO.P,C21,1*%
%TO.N,/LSE_IN*%
X145003150Y-106370000D03*
%TO.P,C21,2*%
%TO.N,GND*%
X145963150Y-106370000D03*
%TD*%
D47*
%TO.P,C24,1*%
%TO.N,/SMPSFB*%
X134445650Y-101295000D03*
%TO.P,C24,2*%
%TO.N,GND*%
X132895650Y-101295000D03*
%TD*%
D51*
%TO.P,U4,1,CTG_1*%
%TO.N,GND*%
X146233150Y-95370000D03*
%TO.P,U4,2,CELL_2*%
%TO.N,+B*%
X146233150Y-94870000D03*
%TO.P,U4,3,VDD_3*%
X146233150Y-94370000D03*
%TO.P,U4,4,GND_4*%
%TO.N,GND*%
X146233150Y-93870000D03*
%TO.P,U4,5,~{ALERT}_5*%
%TO.N,unconnected-(U4-~{ALERT}-Pad5)*%
X144233150Y-93870000D03*
%TO.P,U4,6,QSTRT_6*%
%TO.N,/QTSRT*%
X144233150Y-94370000D03*
%TO.P,U4,7,SCL_7*%
%TO.N,/SCL*%
X144233150Y-94870000D03*
%TO.P,U4,8,SDA_8*%
%TO.N,/SDA*%
X144233150Y-95370000D03*
D52*
%TO.P,U4,9,EP_9*%
%TO.N,GND*%
X145233150Y-94620000D03*
%TD*%
D39*
%TO.P,R12,1*%
%TO.N,GND*%
X141120650Y-87892500D03*
%TO.P,R12,2*%
%TO.N,/LED3_K*%
X141120650Y-86872500D03*
%TD*%
D53*
%TO.P,U5,A1,INT_A1*%
%TO.N,/MAG_INT1*%
X135682469Y-90000510D03*
%TO.P,U5,A2,SDA_A2*%
%TO.N,/SDA*%
X135282469Y-90000510D03*
%TO.P,U5,A3,SCK_A3*%
%TO.N,/SCL*%
X134882469Y-90000510D03*
%TO.P,U5,B1,GND_B1*%
%TO.N,GND*%
X135682469Y-89600510D03*
%TO.P,U5,B2,ADSEL_B2*%
X135282469Y-89600510D03*
%TO.P,U5,B3,VDDIO_B3*%
%TO.N,+3V3*%
X134882469Y-89600510D03*
%TO.P,U5,C1,VDD_C1*%
%TO.N,+1V8*%
X135682469Y-89200510D03*
%TO.P,U5,C2,CRST_C2*%
%TO.N,/CRST*%
X135282469Y-89200510D03*
%TO.P,U5,C3,BYPASS_C3*%
%TO.N,GND*%
X134882469Y-89200510D03*
%TD*%
D54*
%TO.P,U7,1,VBAT_1*%
%TO.N,+3V3*%
X143158150Y-105082500D03*
%TO.P,U7,2,PC14_2*%
%TO.N,/LSE_IN*%
X143158150Y-104582500D03*
%TO.P,U7,3,PC15_3*%
%TO.N,/LSE_OUT*%
X143158150Y-104082500D03*
%TO.P,U7,4,PH3_4*%
%TO.N,/BOOT0*%
X143158150Y-103582500D03*
%TO.P,U7,5,PB8_5*%
%TO.N,/SCL*%
X143158150Y-103082500D03*
%TO.P,U7,6,PB9_6*%
%TO.N,/SDA*%
X143158150Y-102582500D03*
%TO.P,U7,7,NRST_7*%
%TO.N,/SWD_NRST*%
X143158150Y-102082500D03*
%TO.P,U7,8,VDDA_8*%
%TO.N,+3V3*%
X143158150Y-101582500D03*
%TO.P,U7,9,PA0_9*%
%TO.N,unconnected-(U7-PA0-Pad9)*%
X143158150Y-101082500D03*
%TO.P,U7,10,PA1_10*%
%TO.N,/IMU_INT1*%
X143158150Y-100582500D03*
%TO.P,U7,11,PA2_11*%
%TO.N,/MAG_INT1*%
X143158150Y-100082500D03*
%TO.P,U7,12,PA3_12*%
%TO.N,/LED3*%
X143158150Y-99582500D03*
D55*
%TO.P,U7,13,PA4_13*%
%TO.N,/SPI1_CS*%
X142470650Y-98895000D03*
%TO.P,U7,14,PA5_14*%
%TO.N,/SPI1_CLK*%
X141970650Y-98895000D03*
%TO.P,U7,15,PA6_15*%
%TO.N,/SPI1_MISO*%
X141470650Y-98895000D03*
%TO.P,U7,16,PA7_16*%
%TO.N,/SPI1_MOSI*%
X140970650Y-98895000D03*
%TO.P,U7,17,PA8_17*%
%TO.N,unconnected-(U7-PA8-Pad17)*%
X140470650Y-98895000D03*
%TO.P,U7,18,PA9_18*%
%TO.N,unconnected-(U7-PA9-Pad18)*%
X139970650Y-98895000D03*
%TO.P,U7,19,PB2_19*%
%TO.N,unconnected-(U7-PB2-Pad19)*%
X139470650Y-98895000D03*
%TO.P,U7,20,VDD_20*%
%TO.N,+3V3*%
X138970650Y-98895000D03*
%TO.P,U7,21,RF1_21*%
%TO.N,/RF*%
X138470650Y-98895000D03*
%TO.P,U7,22,VSSRF_22*%
%TO.N,GND*%
X137970650Y-98895000D03*
%TO.P,U7,23,VDDRF_23*%
%TO.N,+3V3*%
X137470650Y-98895000D03*
%TO.P,U7,24,OSC_OUT_24*%
%TO.N,/HSE_OUT*%
X136970650Y-98895000D03*
D54*
%TO.P,U7,25,OSC_IN_25*%
%TO.N,/HSE_IN*%
X136283150Y-99582500D03*
%TO.P,U7,26,AT0_26*%
%TO.N,unconnected-(U7-AT0-Pad26)*%
X136283150Y-100082500D03*
%TO.P,U7,27,AT1_27*%
%TO.N,unconnected-(U7-AT1-Pad27)*%
X136283150Y-100582500D03*
%TO.P,U7,28,PB0_28*%
%TO.N,/RST*%
X136283150Y-101082500D03*
%TO.P,U7,29,PB1_29*%
%TO.N,/WAKEUP*%
X136283150Y-101582500D03*
%TO.P,U7,30,PE4_30*%
%TO.N,/IRQ*%
X136283150Y-102082500D03*
%TO.P,U7,31,VFBSMPS_31*%
%TO.N,/SMPSFB*%
X136283150Y-102582500D03*
%TO.P,U7,32,VSSSMPS_32*%
%TO.N,GND*%
X136283150Y-103082500D03*
%TO.P,U7,33,VLXSMPS_33*%
%TO.N,/SMPSLX*%
X136283150Y-103582500D03*
%TO.P,U7,34,VDDSMPS_34*%
%TO.N,+3V3*%
X136283150Y-104082500D03*
%TO.P,U7,35,VDD_35*%
X136283150Y-104582500D03*
%TO.P,U7,36,PA10_36*%
%TO.N,unconnected-(U7-PA10-Pad36)*%
X136283150Y-105082500D03*
D55*
%TO.P,U7,37,PA11_37*%
%TO.N,/D_N*%
X136970650Y-105770000D03*
%TO.P,U7,38,PA12_38*%
%TO.N,/D_P*%
X137470650Y-105770000D03*
%TO.P,U7,39,PA13_39*%
%TO.N,/SWD_DIO*%
X137970650Y-105770000D03*
%TO.P,U7,40,VDDUSB_40*%
%TO.N,+3V3*%
X138470650Y-105770000D03*
%TO.P,U7,41,PA14_41*%
%TO.N,/SWD_CLK*%
X138970650Y-105770000D03*
%TO.P,U7,42,PA15_42*%
%TO.N,unconnected-(U7-PA15-Pad42)*%
X139470650Y-105770000D03*
%TO.P,U7,43,PB3_43*%
%TO.N,/SWD_O*%
X139970650Y-105770000D03*
%TO.P,U7,44,PB4_44*%
%TO.N,unconnected-(U7-PB4-Pad44)*%
X140470650Y-105770000D03*
%TO.P,U7,45,PB5_45*%
%TO.N,unconnected-(U7-PB5-Pad45)*%
X140970650Y-105770000D03*
%TO.P,U7,46,PB6_46*%
%TO.N,unconnected-(U7-PB6-Pad46)*%
X141470650Y-105770000D03*
%TO.P,U7,47,PB7_47*%
%TO.N,unconnected-(U7-PB7-Pad47)*%
X141970650Y-105770000D03*
%TO.P,U7,48,VDD_48*%
%TO.N,+3V3*%
X142470650Y-105770000D03*
D56*
%TO.P,U7,49,VSS_49*%
%TO.N,GND*%
X139720650Y-102332500D03*
%TD*%
D18*
%TO.P,C11,1*%
%TO.N,+3V3*%
X134299969Y-92110510D03*
%TO.P,C11,2*%
%TO.N,GND*%
X135259969Y-92110510D03*
%TD*%
D21*
%TO.P,C29,1*%
%TO.N,+3V3*%
X145320650Y-107587500D03*
%TO.P,C29,2*%
%TO.N,GND*%
X145320650Y-109137500D03*
%TD*%
D22*
%TO.P,R7,1*%
%TO.N,/STAT1*%
X147843763Y-90845000D03*
%TO.P,R7,2*%
%TO.N,/LED1_K*%
X148863763Y-90845000D03*
%TD*%
D47*
%TO.P,C3,1*%
%TO.N,+VSYS*%
X150138150Y-96540000D03*
%TO.P,C3,2*%
%TO.N,GND*%
X148588150Y-96540000D03*
%TD*%
D24*
%TO.P,R5,1*%
%TO.N,/TS{slash}MR*%
X142723150Y-89891405D03*
%TO.P,R5,2*%
%TO.N,GND*%
X141703150Y-89891405D03*
%TD*%
D18*
%TO.P,C16,1*%
%TO.N,+3V3*%
X138533150Y-107312500D03*
%TO.P,C16,2*%
%TO.N,GND*%
X139493150Y-107312500D03*
%TD*%
D57*
%TO.N,+VSYS*%
X147120650Y-108362500D03*
D58*
X147230650Y-93352500D03*
X149960650Y-95462500D03*
D57*
%TO.N,/EN*%
X151038150Y-98895000D03*
X147920650Y-105962500D03*
%TO.N,GND*%
X144920650Y-110012500D03*
X140270650Y-94812500D03*
X145013150Y-89870000D03*
X143395650Y-89207500D03*
X142020650Y-85662500D03*
X148820650Y-95712500D03*
X134420650Y-96412500D03*
X145212650Y-91770050D03*
X141163150Y-93270000D03*
X139913150Y-89226666D03*
X144120650Y-108962500D03*
X149013150Y-89870000D03*
X140270650Y-93362500D03*
X151013150Y-100970000D03*
X133770650Y-105862500D03*
D58*
X139720650Y-102332500D03*
D57*
X131770650Y-104462500D03*
X138670650Y-91012500D03*
X140913150Y-89870000D03*
D58*
X141720650Y-104332500D03*
D57*
X138713150Y-87983333D03*
X140338357Y-85715207D03*
X139913150Y-86740000D03*
X139913150Y-87983333D03*
X145013150Y-83870000D03*
X133919969Y-87900510D03*
X138713873Y-86710560D03*
X140563150Y-96470000D03*
X138908442Y-85742061D03*
X135469969Y-91500510D03*
X138713150Y-89226666D03*
X133269969Y-95700510D03*
X136169969Y-91550510D03*
X135720650Y-98912500D03*
X133070650Y-107862500D03*
X150013150Y-89870000D03*
D58*
X139720650Y-100332500D03*
D57*
X145013150Y-85870000D03*
X146045650Y-93107500D03*
X145013150Y-86870000D03*
X143120650Y-108962500D03*
D58*
X141720650Y-100332500D03*
D57*
X133120650Y-100062500D03*
X133020650Y-96362500D03*
X145645650Y-100007500D03*
X145013150Y-88870000D03*
X138570650Y-92762500D03*
X148013150Y-89870000D03*
X145233150Y-94620000D03*
X146520650Y-105862500D03*
D58*
X139720650Y-104332500D03*
X137720650Y-104332500D03*
D57*
X151013150Y-89870000D03*
X149290022Y-97060626D03*
X137470650Y-96562500D03*
X145638150Y-90895000D03*
X147013150Y-89870000D03*
X134120650Y-89412500D03*
X145013150Y-87870000D03*
X139520650Y-107912500D03*
X145670650Y-110012500D03*
X140013150Y-90870000D03*
X132120650Y-101312500D03*
X146520650Y-102412500D03*
X143595650Y-85662500D03*
D58*
X137720650Y-100332500D03*
D57*
X151013150Y-101670000D03*
D58*
X141720650Y-102332500D03*
X137720650Y-102332500D03*
D57*
X146013150Y-89870000D03*
D58*
%TO.N,+3V3*%
X136820650Y-86962500D03*
D57*
X139606796Y-96513605D03*
X145020650Y-111012500D03*
X132920650Y-90362500D03*
X136370650Y-96562500D03*
X137719969Y-92100510D03*
X138183150Y-108210000D03*
X150988763Y-92632500D03*
D58*
X147570650Y-101562500D03*
D57*
X145620650Y-101062500D03*
X131820650Y-106037500D03*
X133619969Y-92200510D03*
D58*
X147570650Y-100812500D03*
D57*
X138620650Y-84262500D03*
X146220650Y-108262500D03*
X136983150Y-110725000D03*
X137320650Y-85462500D03*
X141120650Y-94812500D03*
%TO.N,/IMU_INT1*%
X144173150Y-100585000D03*
X137320650Y-95962500D03*
%TO.N,/SCL*%
X143420650Y-94712500D03*
X134520650Y-90762500D03*
X135669969Y-95750510D03*
X144170650Y-102820000D03*
X142220650Y-96562500D03*
%TO.N,/SDA*%
X144170650Y-102162500D03*
X135220650Y-90662500D03*
X143543150Y-95370000D03*
X136369969Y-95750510D03*
%TO.N,+VIN*%
X143330891Y-92852259D03*
X133620650Y-108812500D03*
%TO.N,/LED3*%
X142070650Y-88662500D03*
X144370650Y-96512500D03*
%TO.N,+B*%
X149020650Y-93612500D03*
%TO.N,/BOOT0*%
X146020650Y-99412500D03*
X144170650Y-103512500D03*
%TO.N,/IRQ*%
X135470650Y-101962500D03*
%TO.N,Net-(JP1-A)*%
X147538150Y-98370000D03*
%TO.N,/SWD_NRST*%
X139570650Y-111062500D03*
X146920650Y-103262500D03*
%TO.N,/SWD_CLK*%
X139211887Y-106671263D03*
X138963150Y-108430000D03*
%TO.N,/STAT1*%
X147299343Y-90420000D03*
X143383529Y-92154255D03*
%TO.N,/MAG_INT1*%
X138120650Y-96162500D03*
X136470650Y-90912500D03*
X144220650Y-99932500D03*
X138220650Y-94712500D03*
%TO.N,/SPI1_CS*%
X142820650Y-97962500D03*
%TO.N,/SPI1_CLK*%
X143770650Y-98362500D03*
%TO.N,/SPI1_MISO*%
X139920650Y-98062500D03*
%TO.N,/SPI1_MOSI*%
X141270650Y-97862500D03*
%TO.N,/RST*%
X135470650Y-100612500D03*
%TO.N,/WAKEUP*%
X135470650Y-101212500D03*
%TD*%
%TO.N,+VSYS*%
D59*
X147120650Y-108362500D02*
X147120650Y-108462500D01*
D60*
X150243150Y-96435000D02*
X150138150Y-96540000D01*
D61*
X146292150Y-92570150D02*
X146638300Y-92570150D01*
D59*
X147483150Y-108825000D02*
X147483150Y-109662500D01*
D60*
X150453150Y-96855000D02*
X150138150Y-96540000D01*
D59*
X147120650Y-108462500D02*
X147483150Y-108825000D01*
D60*
X149953150Y-98090000D02*
X149953150Y-96725000D01*
D62*
X147230650Y-93162500D02*
X146860650Y-92792500D01*
X149960650Y-96362500D02*
X150138150Y-96540000D01*
D61*
X146638300Y-92570150D02*
X146860650Y-92792500D01*
D60*
X150453150Y-98090000D02*
X150453150Y-96855000D01*
D62*
X149960650Y-95422500D02*
X149960650Y-95462500D01*
D60*
X149953150Y-96725000D02*
X150138150Y-96540000D01*
D62*
X149960650Y-95462500D02*
X149960650Y-96362500D01*
X147230650Y-93352500D02*
X147230650Y-93162500D01*
%TO.N,/EN*%
D60*
X149453150Y-98090000D02*
X149453150Y-98631886D01*
D59*
X147483150Y-106400000D02*
X147483150Y-107162500D01*
D60*
X149691264Y-98870000D02*
X150813150Y-98870000D01*
X149453150Y-98631886D02*
X149691264Y-98870000D01*
D59*
X147920650Y-105962500D02*
X147483150Y-106400000D01*
%TO.N,GND*%
D63*
X145320650Y-109137500D02*
X145320650Y-109612500D01*
D60*
X145233150Y-94620000D02*
X145233150Y-94719999D01*
X149953150Y-99690000D02*
X149953150Y-101055000D01*
D59*
X135799969Y-93208010D02*
X135799969Y-92470510D01*
D62*
X148820650Y-95712500D02*
X148820650Y-95169812D01*
D63*
X146513150Y-102420000D02*
X145978307Y-102420000D01*
X134509969Y-87900510D02*
X133919969Y-87900510D01*
D59*
X128965650Y-102420000D02*
X128280000Y-102420000D01*
D63*
X133770650Y-105812500D02*
X133773150Y-105810000D01*
X140313150Y-96720000D02*
X140313150Y-96839238D01*
D59*
X135299969Y-92150510D02*
X135259969Y-92110510D01*
D63*
X135259969Y-91710510D02*
X135259969Y-92110510D01*
X140913150Y-89870000D02*
X141632836Y-89870000D01*
X146520650Y-102412500D02*
X146513150Y-102420000D01*
D60*
X145883151Y-95370000D02*
X146233150Y-95370000D01*
D59*
X135282469Y-89600510D02*
X135682469Y-89600510D01*
D60*
X133068150Y-107865000D02*
X133070650Y-107862500D01*
D63*
X145320650Y-109662500D02*
X145670650Y-110012500D01*
D62*
X143843150Y-88760000D02*
X143395650Y-89207500D01*
D60*
X141703150Y-89941405D02*
X141703150Y-90881405D01*
D63*
X137693150Y-96835000D02*
X137693150Y-97370000D01*
D59*
X135799969Y-92470510D02*
X136159969Y-92110510D01*
D63*
X135470650Y-98912500D02*
X135370650Y-98812500D01*
D60*
X141702352Y-91872209D02*
X141702352Y-90932209D01*
D63*
X132203150Y-101295000D02*
X132895650Y-101295000D01*
X139520650Y-107477500D02*
X139513150Y-107470000D01*
D62*
X146238150Y-93865000D02*
X146233150Y-93870000D01*
D63*
X145133150Y-99982500D02*
X145013150Y-100102500D01*
D62*
X146045650Y-93107500D02*
X146045650Y-93157500D01*
D59*
X135682469Y-89600510D02*
X136462469Y-90380510D01*
D62*
X146238150Y-93350000D02*
X146238150Y-93865000D01*
D59*
X129895650Y-108390000D02*
X129465650Y-108820000D01*
D63*
X134120650Y-89412500D02*
X133577979Y-89412500D01*
D62*
X146045650Y-93157500D02*
X146238150Y-93350000D01*
D63*
X135370650Y-98812500D02*
X134720650Y-98812500D01*
X145620650Y-99982500D02*
X145133150Y-99982500D01*
X141602346Y-92830804D02*
X141672195Y-92830804D01*
X150733150Y-101250000D02*
X151013150Y-100970000D01*
D62*
X146470650Y-105862500D02*
X145963150Y-106370000D01*
X148820650Y-95169812D02*
X148813338Y-95162500D01*
D63*
X140258150Y-95470000D02*
X140258150Y-94825000D01*
X140283150Y-92705000D02*
X140283150Y-93350000D01*
D60*
X141702352Y-92902259D02*
X141752352Y-92852259D01*
D63*
X144213150Y-85660000D02*
X143598150Y-85660000D01*
X133710650Y-100062500D02*
X133120650Y-100062500D01*
X143598150Y-85660000D02*
X143595650Y-85662500D01*
X135469969Y-91500510D02*
X135259969Y-91710510D01*
D62*
X143963150Y-88760000D02*
X143843150Y-88760000D01*
D63*
X132120650Y-101312500D02*
X132185650Y-101312500D01*
D60*
X150453150Y-100945000D02*
X150148150Y-101250000D01*
D63*
X139520650Y-107912500D02*
X139520650Y-107477500D01*
X139513150Y-107470000D02*
X139493150Y-107470000D01*
D59*
X129465650Y-108820000D02*
X128280000Y-108820000D01*
D63*
X133269969Y-94915510D02*
X133269969Y-95700510D01*
D60*
X138970650Y-103082500D02*
X139720650Y-102332500D01*
X146003778Y-95370000D02*
X146233150Y-95370000D01*
D63*
X141363150Y-85650000D02*
X142008150Y-85650000D01*
X135720650Y-98912500D02*
X135470650Y-98912500D01*
X131770650Y-104462500D02*
X131795650Y-104487500D01*
D62*
X146520650Y-105862500D02*
X146470650Y-105862500D01*
D63*
X140313150Y-96839238D02*
X140183150Y-96969238D01*
X136159969Y-92110510D02*
X136159969Y-91560510D01*
D59*
X136462469Y-90380510D02*
X136992469Y-90380510D01*
D63*
X132185650Y-101312500D02*
X132203150Y-101295000D01*
D60*
X145233150Y-94719999D02*
X145883151Y-95370000D01*
D62*
X149290022Y-97060626D02*
X149290022Y-96971872D01*
D63*
X141163150Y-93270000D02*
X141602346Y-92830804D01*
X137470650Y-96612500D02*
X137693150Y-96835000D01*
D62*
X148858150Y-96540000D02*
X148588150Y-96540000D01*
D63*
X145320650Y-109137500D02*
X145320650Y-109662500D01*
X133773150Y-105810000D02*
X133773150Y-105245000D01*
D61*
X148588150Y-96540000D02*
X148933150Y-96540000D01*
D60*
X149953150Y-101055000D02*
X150148150Y-101250000D01*
D63*
X140183150Y-96969238D02*
X140183150Y-97350000D01*
D59*
X129895650Y-103350000D02*
X128965650Y-102420000D01*
D62*
X149290022Y-96971872D02*
X148858150Y-96540000D01*
X145043150Y-97670000D02*
X145043150Y-98590000D01*
D63*
X142008150Y-85650000D02*
X142020650Y-85662500D01*
X132895650Y-101145000D02*
X132895650Y-101190000D01*
X144120650Y-108962500D02*
X144120650Y-108502500D01*
D60*
X150453150Y-99690000D02*
X150453150Y-100945000D01*
D63*
X150593150Y-101250000D02*
X151013150Y-101670000D01*
X150148150Y-101250000D02*
X150733150Y-101250000D01*
D59*
X134882469Y-89200510D02*
X134332640Y-89200510D01*
D62*
X145043150Y-98590000D02*
X144993150Y-98640000D01*
D63*
X133770650Y-105862500D02*
X133770650Y-105812500D01*
D62*
X148588150Y-96540000D02*
X148502993Y-96540000D01*
D63*
X150148150Y-101250000D02*
X150593150Y-101250000D01*
X145320650Y-109612500D02*
X144920650Y-110012500D01*
X137470650Y-96562500D02*
X137470650Y-96612500D01*
D59*
X135299969Y-93208010D02*
X135299969Y-92150510D01*
D60*
X141702352Y-93800804D02*
X141702352Y-92922259D01*
D59*
X134332640Y-89200510D02*
X134120650Y-89412500D01*
D63*
X131795650Y-104487500D02*
X132570650Y-104487500D01*
X140563150Y-96470000D02*
X140313150Y-96720000D01*
D60*
X136283150Y-103082500D02*
X138970650Y-103082500D01*
D63*
X133577979Y-89412500D02*
X133569969Y-89420510D01*
D62*
X132420650Y-107865000D02*
X133068150Y-107865000D01*
D63*
X143120650Y-108962500D02*
X143120650Y-108502500D01*
%TO.N,+3V3*%
D60*
X138470650Y-105770000D02*
X138470650Y-106727500D01*
X134733150Y-105245000D02*
X135395650Y-104582500D01*
D59*
X136532640Y-96150510D02*
X136520650Y-96162500D01*
D62*
X138513150Y-106770000D02*
X138533150Y-106790000D01*
X144095650Y-107457500D02*
X144095650Y-105237500D01*
D63*
X134209969Y-92200510D02*
X134299969Y-92110510D01*
D62*
X138183150Y-107820000D02*
X138183150Y-108210000D01*
D60*
X135650650Y-104082500D02*
X136283150Y-104082500D01*
D61*
X138970650Y-98232500D02*
X138993150Y-98210000D01*
D59*
X136535655Y-96150510D02*
X136532640Y-96150510D01*
X135370650Y-96162500D02*
X135220650Y-96012500D01*
D63*
X137709969Y-92110510D02*
X137119969Y-92110510D01*
D60*
X148453150Y-98090000D02*
X148013150Y-98530000D01*
X137470650Y-98262500D02*
X137470650Y-98895000D01*
D62*
X138533150Y-106790000D02*
X138533150Y-107470000D01*
X136733150Y-97525000D02*
X137270650Y-98062500D01*
D60*
X148013150Y-99250000D02*
X148453150Y-99690000D01*
D63*
X132570650Y-106037500D02*
X133045650Y-106512500D01*
D60*
X135395650Y-104337500D02*
X135650650Y-104082500D01*
D59*
X134299969Y-92680510D02*
X134299969Y-92110510D01*
X134020650Y-94904491D02*
X134020650Y-94116191D01*
X136769969Y-95916196D02*
X136535655Y-96150510D01*
X134102469Y-90380510D02*
X134882469Y-89600510D01*
D63*
X136733150Y-97025000D02*
X136733150Y-97370000D01*
D60*
X142470650Y-106737500D02*
X142470650Y-105770000D01*
D62*
X138993150Y-97580000D02*
X139223150Y-97350000D01*
D61*
X138970650Y-98895000D02*
X138970650Y-98232500D01*
D63*
X133269969Y-93365510D02*
X133269969Y-92550510D01*
D60*
X143158150Y-101582500D02*
X143766030Y-101582500D01*
D63*
X146220650Y-108262500D02*
X146220650Y-108162500D01*
D59*
X135299969Y-95033010D02*
X135137469Y-95195510D01*
D61*
X136820650Y-87562500D02*
X136985704Y-87397446D01*
D63*
X136370650Y-96662500D02*
X136733150Y-97025000D01*
X134320650Y-106512500D02*
X134733150Y-106100000D01*
D59*
X134637469Y-93370510D02*
X134637469Y-93018010D01*
D60*
X144141030Y-101207500D02*
X144170650Y-101207500D01*
D59*
X135220650Y-95112329D02*
X135299969Y-95033010D01*
D62*
X136733150Y-97370000D02*
X136733150Y-97525000D01*
D60*
X138470650Y-106727500D02*
X138513150Y-106770000D01*
D62*
X144215650Y-101162500D02*
X144913150Y-101162500D01*
X138533150Y-107470000D02*
X138183150Y-107820000D01*
D59*
X133549969Y-90400510D02*
X133569969Y-90380510D01*
D60*
X148013150Y-98530000D02*
X148013150Y-99250000D01*
D62*
X143120650Y-107457500D02*
X143120650Y-107387500D01*
D59*
X136962469Y-95720681D02*
X136769969Y-95913181D01*
D63*
X147883150Y-101250000D02*
X147570650Y-101562500D01*
X136370650Y-96562500D02*
X136370650Y-96662500D01*
D60*
X149453150Y-99690000D02*
X149453150Y-100395000D01*
D62*
X143120650Y-107457500D02*
X144095650Y-107457500D01*
D60*
X150988763Y-90845000D02*
X150988763Y-91945000D01*
D59*
X134311669Y-95195510D02*
X134020650Y-94904491D01*
X141710650Y-94820798D02*
X141702352Y-94812500D01*
D62*
X145190650Y-107457500D02*
X145320650Y-107587500D01*
D61*
X141702352Y-94945000D02*
X141702352Y-95059202D01*
D60*
X149453150Y-100395000D02*
X148598150Y-101250000D01*
X148953150Y-99690000D02*
X148953150Y-100895000D01*
X135395650Y-104582500D02*
X135395650Y-104337500D01*
D61*
X136985704Y-87397446D02*
X137315596Y-87397446D01*
D59*
X136769969Y-95913181D02*
X136769969Y-95916196D01*
D60*
X136983150Y-110725000D02*
X137118150Y-110590000D01*
D59*
X135220650Y-96012500D02*
X135220650Y-95112329D01*
D63*
X141120650Y-94812500D02*
X141702352Y-94812500D01*
D62*
X136820650Y-87562500D02*
X136820650Y-86962500D01*
D60*
X143766030Y-101582500D02*
X144141030Y-101207500D01*
X142495650Y-106762500D02*
X142470650Y-106737500D01*
X137270650Y-98062500D02*
X137470650Y-98262500D01*
D61*
X137315596Y-87397446D02*
X137480650Y-87562500D01*
D59*
X134020650Y-94116191D02*
X133269969Y-93365510D01*
X137119969Y-92388010D02*
X137119969Y-92110510D01*
D60*
X137118150Y-110590000D02*
X137693150Y-110590000D01*
D63*
X148598150Y-101250000D02*
X148008150Y-101250000D01*
X148008150Y-101250000D02*
X147570650Y-100812500D01*
X137320650Y-84262500D02*
X137320650Y-85462500D01*
X145013150Y-101062500D02*
X145620650Y-101062500D01*
X146220650Y-108162500D02*
X145645650Y-107587500D01*
D60*
X150988763Y-92632500D02*
X150988763Y-91945000D01*
D62*
X144095650Y-107457500D02*
X145190650Y-107457500D01*
D63*
X148598150Y-101250000D02*
X147883150Y-101250000D01*
D60*
X148453150Y-101105000D02*
X148598150Y-101250000D01*
D63*
X133045650Y-106512500D02*
X134320650Y-106512500D01*
D62*
X138993150Y-98210000D02*
X138993150Y-97580000D01*
D63*
X134733150Y-106100000D02*
X134733150Y-105245000D01*
X139606796Y-96513605D02*
X139606806Y-96513615D01*
D60*
X135395650Y-104582500D02*
X136283150Y-104582500D01*
D59*
X134637469Y-93018010D02*
X134299969Y-92680510D01*
D60*
X148953150Y-100895000D02*
X148598150Y-101250000D01*
D59*
X136962469Y-94870510D02*
X136962469Y-95720681D01*
D62*
X143120650Y-107387500D02*
X142495650Y-106762500D01*
D63*
X139606806Y-96513615D02*
X139606806Y-96626344D01*
D60*
X143945650Y-105087500D02*
X143940650Y-105082500D01*
D59*
X135137469Y-95195510D02*
X134311669Y-95195510D01*
D63*
X145645650Y-107587500D02*
X145320650Y-107587500D01*
X137320650Y-84262500D02*
X138620650Y-84262500D01*
X139606806Y-96626344D02*
X139223150Y-97010000D01*
X139223150Y-97010000D02*
X139223150Y-97350000D01*
D62*
X144095650Y-105237500D02*
X143945650Y-105087500D01*
D59*
X136299969Y-93208010D02*
X137119969Y-92388010D01*
D63*
X133569969Y-90380510D02*
X132938660Y-90380510D01*
D62*
X144170650Y-101207500D02*
X144215650Y-101162500D01*
D63*
X133269969Y-92550510D02*
X133619969Y-92200510D01*
D59*
X136520650Y-96162500D02*
X135370650Y-96162500D01*
D63*
X131820650Y-106037500D02*
X132570650Y-106037500D01*
D62*
X144913150Y-101162500D02*
X145013150Y-101062500D01*
D60*
X148453150Y-99690000D02*
X148453150Y-101105000D01*
D63*
X133619969Y-92200510D02*
X134209969Y-92200510D01*
D59*
X133569969Y-90380510D02*
X134102469Y-90380510D01*
X141710650Y-95912500D02*
X141710650Y-94820798D01*
D60*
X143940650Y-105082500D02*
X143158150Y-105082500D01*
%TO.N,/IMU_INT1*%
D61*
X144173150Y-100585000D02*
X144170650Y-100582500D01*
D59*
X137320650Y-95962500D02*
X137574969Y-95962500D01*
X137770650Y-95766819D02*
X137770650Y-93866192D01*
X137770650Y-93866192D02*
X137274968Y-93370510D01*
X137574969Y-95962500D02*
X137770650Y-95766819D01*
D61*
X144170650Y-100582500D02*
X143158150Y-100582500D01*
D59*
X137274968Y-93370510D02*
X136962469Y-93370510D01*
%TO.N,/SCL*%
X144075650Y-94712500D02*
X144233150Y-94870000D01*
X134520650Y-90362329D02*
X134520650Y-90762500D01*
X142870650Y-94812500D02*
X142970650Y-94712500D01*
X135799969Y-95620510D02*
X135669969Y-95750510D01*
X142722352Y-94812500D02*
X142870650Y-94812500D01*
X134882469Y-90000510D02*
X134520650Y-90362329D01*
X143420650Y-94712500D02*
X144075650Y-94712500D01*
X143158150Y-103082500D02*
X143908150Y-103082500D01*
X142220650Y-96562500D02*
X142220650Y-95314202D01*
X142220650Y-95314202D02*
X142722352Y-94812500D01*
X135799969Y-95033010D02*
X135799969Y-95620510D01*
X142970650Y-94712500D02*
X143420650Y-94712500D01*
X143908150Y-103082500D02*
X144170650Y-102820000D01*
%TO.N,/SDA*%
X142730650Y-95912500D02*
X142730650Y-95752500D01*
X143120650Y-95362500D02*
X143535650Y-95362500D01*
X143750650Y-102582500D02*
X144170650Y-102162500D01*
X136299969Y-95033010D02*
X136299969Y-95680510D01*
X135282469Y-90000510D02*
X135282469Y-90600681D01*
X143158150Y-102582500D02*
X143750650Y-102582500D01*
X135282469Y-90600681D02*
X135220650Y-90662500D01*
X136299969Y-95680510D02*
X136369969Y-95750510D01*
D61*
X143543150Y-95370000D02*
X144233150Y-95370000D01*
D59*
X142730650Y-95752500D02*
X143120650Y-95362500D01*
X143535650Y-95362500D02*
X143543150Y-95370000D01*
%TO.N,/USB_D-*%
D60*
X129946348Y-105895000D02*
X131691348Y-107640000D01*
X128854999Y-105870000D02*
X129220650Y-105504349D01*
X128280000Y-105870000D02*
X128854999Y-105870000D01*
X129142501Y-105870000D02*
X129167501Y-105895000D01*
X131691348Y-107640000D02*
X131808149Y-107640000D01*
X129167501Y-105895000D02*
X129946348Y-105895000D01*
X129220650Y-105504349D02*
X129220650Y-105112500D01*
X128978150Y-104870000D02*
X128280000Y-104870000D01*
X129220650Y-105112500D02*
X128978150Y-104870000D01*
X128280000Y-105870000D02*
X129142501Y-105870000D01*
X132120649Y-107327500D02*
X132495650Y-107327500D01*
X131808149Y-107640000D02*
X132120649Y-107327500D01*
%TO.N,/USB_D+*%
X129759952Y-106345000D02*
X131504952Y-108090000D01*
X132120649Y-108402500D02*
X132495650Y-108402500D01*
X129142501Y-106370000D02*
X129167501Y-106345000D01*
X127030650Y-105602500D02*
X127263150Y-105370000D01*
X127030650Y-105952500D02*
X127030650Y-105602500D01*
X131504952Y-108090000D02*
X131808149Y-108090000D01*
X128280000Y-106370000D02*
X129142501Y-106370000D01*
X131808149Y-108090000D02*
X132120649Y-108402500D01*
X127263150Y-105370000D02*
X128280000Y-105370000D01*
X128280000Y-106370000D02*
X127448150Y-106370000D01*
X129167501Y-106345000D02*
X129759952Y-106345000D01*
X127448150Y-106370000D02*
X127030650Y-105952500D01*
%TO.N,/D_P*%
X136436348Y-108090000D02*
X137470650Y-107055698D01*
X134883151Y-108090000D02*
X136436348Y-108090000D01*
X137470650Y-107055698D02*
X137470650Y-105770000D01*
X134570651Y-108402500D02*
X134883151Y-108090000D01*
X134195650Y-108402500D02*
X134570651Y-108402500D01*
%TO.N,+VIN*%
X133945651Y-107865000D02*
X134270650Y-107865000D01*
X133020651Y-108790000D02*
X133598150Y-108790000D01*
D59*
X143330891Y-92852259D02*
X143613000Y-92570150D01*
D63*
X143330891Y-92852259D02*
X142712352Y-92852259D01*
D60*
X127893302Y-108020000D02*
X128280000Y-108020000D01*
X133020651Y-108790000D02*
X133945651Y-107865000D01*
D59*
X143613000Y-92570150D02*
X144133150Y-92570150D01*
D60*
X130910688Y-107920000D02*
X131780688Y-108790000D01*
X131780688Y-108790000D02*
X133020651Y-108790000D01*
X128380000Y-107920000D02*
X130910688Y-107920000D01*
X127705001Y-103220000D02*
X126370650Y-104554351D01*
X133598150Y-108790000D02*
X133620650Y-108812500D01*
X128280000Y-108020000D02*
X128380000Y-107920000D01*
X128280000Y-103220000D02*
X127705001Y-103220000D01*
X126370650Y-106497348D02*
X127893302Y-108020000D01*
X126370650Y-104554351D02*
X126370650Y-106497348D01*
%TO.N,/D_N*%
X134883151Y-107640000D02*
X136249952Y-107640000D01*
X136249952Y-107640000D02*
X136970650Y-106919302D01*
X134570651Y-107327500D02*
X134883151Y-107640000D01*
X136970650Y-106837500D02*
X136970650Y-105770000D01*
X136970650Y-106919302D02*
X136970650Y-106837500D01*
X134195650Y-107327500D02*
X134570651Y-107327500D01*
%TO.N,/RF_MATCH2*%
D64*
X139313150Y-90470000D02*
X139313150Y-86740000D01*
X141363150Y-84690000D02*
X142298150Y-84690000D01*
X139313150Y-86740000D02*
G75*
G02*
X141363150Y-84690050I2049950J0D01*
G01*
%TO.N,/LED3_K*%
D61*
X141120650Y-86872500D02*
X142070650Y-86872500D01*
%TO.N,/LED3*%
D59*
X143850650Y-99582500D02*
X143158150Y-99582500D01*
X144370650Y-96512500D02*
X144370650Y-99062500D01*
X144370650Y-99062500D02*
X143850650Y-99582500D01*
X142070650Y-87842500D02*
X142070650Y-88662500D01*
%TO.N,/LED1_K*%
D61*
X148863763Y-90845000D02*
X150018763Y-90845000D01*
%TO.N,/STAT2*%
X146292150Y-91770050D02*
X147768813Y-91770050D01*
X147768813Y-91770050D02*
X147843763Y-91845000D01*
%TO.N,/LED2_K*%
X149918763Y-91845000D02*
X150018763Y-91945000D01*
X148863763Y-91845000D02*
X149918763Y-91845000D01*
%TO.N,+B*%
D62*
X147853338Y-92819363D02*
X148646475Y-93612500D01*
D60*
X146233150Y-94370000D02*
X147060838Y-94370000D01*
D61*
X147150650Y-92352500D02*
X146968250Y-92170100D01*
X146968250Y-92170100D02*
X146292150Y-92170100D01*
D60*
X147560838Y-94870000D02*
X147853338Y-95162500D01*
D62*
X148646475Y-93612500D02*
X149020650Y-93612500D01*
X147853338Y-92819363D02*
X147617513Y-92819363D01*
X147617513Y-92819363D02*
X147150650Y-92352500D01*
X149020650Y-93995188D02*
X147853338Y-95162500D01*
D60*
X147060838Y-94370000D02*
X147853338Y-95162500D01*
D62*
X149020650Y-93612500D02*
X149020650Y-93995188D01*
D60*
X146233150Y-94870000D02*
X147560838Y-94870000D01*
%TO.N,/SMPSLX*%
X135400650Y-103582500D02*
X136283150Y-103582500D01*
D63*
X134718150Y-104270000D02*
X134718150Y-104265000D01*
D60*
X135370650Y-103612500D02*
X135400650Y-103582500D01*
D63*
X134718150Y-104265000D02*
X135370650Y-103612500D01*
%TO.N,/SMPSLXL*%
X133748150Y-103915000D02*
X132753150Y-102920000D01*
X133748150Y-104270000D02*
X133748150Y-103915000D01*
X132753150Y-102920000D02*
X132350650Y-102920000D01*
%TO.N,/BOOT0*%
D61*
X146013150Y-98640000D02*
X146013150Y-99405000D01*
D59*
X144100650Y-103582500D02*
X144170650Y-103512500D01*
D61*
X144993150Y-96690000D02*
X145023150Y-96690000D01*
X146003150Y-98630000D02*
X146013150Y-98640000D01*
X145023150Y-96690000D02*
X146003150Y-97670000D01*
D59*
X143158150Y-103582500D02*
X144100650Y-103582500D01*
D61*
X146013150Y-99405000D02*
X146020650Y-99412500D01*
X146003150Y-97670000D02*
X146003150Y-98630000D01*
%TO.N,/CRST*%
D59*
X135469969Y-89013010D02*
X135282469Y-89200510D01*
X135469969Y-87900510D02*
X135469969Y-89013010D01*
%TO.N,/RF_MATCH1*%
D64*
X139313150Y-92720000D02*
X139313150Y-91695000D01*
X139313150Y-93635000D02*
X139313150Y-92720000D01*
%TO.N,/IRQ*%
D59*
X135070650Y-101562500D02*
X135070650Y-100402500D01*
X135470650Y-101962500D02*
X135070650Y-101562500D01*
X135070650Y-100402500D02*
X134730650Y-100062500D01*
X135590650Y-102082500D02*
X135470650Y-101962500D01*
X136283150Y-102082500D02*
X135590650Y-102082500D01*
%TO.N,/HSE_OUT*%
X135788150Y-97712500D02*
X136970650Y-98895000D01*
X134720650Y-97712500D02*
X135788150Y-97712500D01*
%TO.N,/HSE_IN*%
X134090650Y-99582500D02*
X136283150Y-99582500D01*
X133320650Y-98812500D02*
X134090650Y-99582500D01*
%TO.N,/USB_CC1*%
X129895650Y-104370000D02*
X128280000Y-104370000D01*
%TO.N,/USB_CC2*%
X129895650Y-107370000D02*
X128280000Y-107370000D01*
%TO.N,/RF*%
D64*
X138813150Y-96470000D02*
X138994952Y-96288198D01*
X138470650Y-98895000D02*
X138470650Y-97296868D01*
X139313150Y-94605000D02*
X139313150Y-95520000D01*
X138470650Y-97296868D02*
G75*
G02*
X138813170Y-96470020I1169350J-32D01*
G01*
X138994952Y-96288198D02*
G75*
G03*
X139313134Y-95520000I-768252J768198D01*
G01*
%TO.N,+1V8*%
D62*
X136820650Y-89248691D02*
X136992469Y-89420510D01*
X136820650Y-88462500D02*
X136820650Y-89248691D01*
D59*
X135682469Y-89200510D02*
X135902469Y-89420510D01*
X135902469Y-89420510D02*
X136992469Y-89420510D01*
%TO.N,/SMPSFB*%
D63*
X134475650Y-102920000D02*
X134475650Y-101325000D01*
D60*
X134475650Y-102920000D02*
X134813150Y-102582500D01*
X134813150Y-102582500D02*
X136283150Y-102582500D01*
D63*
X134475650Y-101325000D02*
X134445650Y-101295000D01*
%TO.N,/RF_ANT*%
D64*
X144200241Y-84690000D02*
X144213150Y-84677091D01*
X146440650Y-84677091D02*
X147802510Y-84677091D01*
X144213150Y-84677091D02*
X146440650Y-84677091D01*
D65*
X146440650Y-84677091D02*
X147345241Y-84677091D01*
X147345241Y-84677091D02*
X147350650Y-84682500D01*
D64*
X143268150Y-84690000D02*
X144200241Y-84690000D01*
%TO.N,Net-(JP1-A)*%
D61*
X146778082Y-97795000D02*
X146523150Y-97540068D01*
X146523150Y-97200000D02*
X146013150Y-96690000D01*
X146523150Y-97540068D02*
X146523150Y-97200000D01*
X147388150Y-97795000D02*
X146778082Y-97795000D01*
X147538150Y-98370000D02*
X147538150Y-97945000D01*
X147538150Y-97945000D02*
X147388150Y-97795000D01*
%TO.N,/SWD_NRST*%
D59*
X139435650Y-111062500D02*
X139570650Y-111062500D01*
X139570650Y-111062500D02*
X139620650Y-111062500D01*
X144120650Y-101612500D02*
X143650650Y-102082500D01*
X146920650Y-101380000D02*
X146603150Y-101062500D01*
X146053150Y-101612500D02*
X144120650Y-101612500D01*
X146603150Y-101062500D02*
X146053150Y-101612500D01*
X146920650Y-103262500D02*
X146920650Y-101380000D01*
X138963150Y-110590000D02*
X139435650Y-111062500D01*
X143650650Y-102082500D02*
X143158150Y-102082500D01*
%TO.N,/LSE_OUT*%
D60*
X145273150Y-103670000D02*
X144860650Y-104082500D01*
X144860650Y-104082500D02*
X143158150Y-104082500D01*
D62*
X145003150Y-102410000D02*
X145003150Y-103400000D01*
X145003150Y-103400000D02*
X145273150Y-103670000D01*
%TO.N,/CE*%
D59*
X143963150Y-89780000D02*
X144528150Y-90345000D01*
X146820650Y-91337500D02*
X146788150Y-91370000D01*
X146820650Y-90527500D02*
X146820650Y-91337500D01*
X146638150Y-90345000D02*
X146820650Y-90527500D01*
X146788150Y-91370000D02*
X146292150Y-91370000D01*
X144528150Y-90345000D02*
X146638150Y-90345000D01*
%TO.N,/QTSRT*%
D61*
X143343955Y-93830804D02*
X142722352Y-93830804D01*
X143883151Y-94370000D02*
X143343955Y-93830804D01*
X144233150Y-94370000D02*
X143883151Y-94370000D01*
%TO.N,/LSE_IN*%
D62*
X145003150Y-106370000D02*
X145003150Y-105340000D01*
D60*
X144785650Y-104582500D02*
X145273150Y-105070000D01*
D62*
X145003150Y-105340000D02*
X145273150Y-105070000D01*
D60*
X143158150Y-104582500D02*
X144785650Y-104582500D01*
%TO.N,/SWD_DIO*%
D61*
X137970650Y-105770000D02*
X137970650Y-107112500D01*
X137693150Y-107390000D02*
X137693150Y-109320000D01*
X137970650Y-107112500D02*
X137693150Y-107390000D01*
%TO.N,/SWD_CLK*%
X138970650Y-106432166D02*
X138970650Y-105770000D01*
X139211887Y-106673403D02*
X138970650Y-106432166D01*
X138963150Y-108430000D02*
X138963150Y-108420000D01*
X138963150Y-109320000D02*
X138963150Y-108430000D01*
%TO.N,/SWD_O*%
X140195650Y-109282500D02*
X140233150Y-109320000D01*
X140195650Y-106652500D02*
X140195650Y-109282500D01*
X139970650Y-106427500D02*
X140195650Y-106652500D01*
X139970650Y-105770000D02*
X139970650Y-106427500D01*
%TO.N,/ILIM{slash}VSET*%
D59*
X143211745Y-91370000D02*
X144133150Y-91370000D01*
X142723150Y-90881405D02*
X143211745Y-91370000D01*
%TO.N,/ISET*%
X143580281Y-91679255D02*
X143671076Y-91770050D01*
X142722352Y-91872209D02*
X142915306Y-91679255D01*
X143671076Y-91770050D02*
X144133150Y-91770050D01*
X142915306Y-91679255D02*
X143580281Y-91679255D01*
%TO.N,/TS{slash}MR*%
X143473150Y-90720000D02*
X143483150Y-90720000D01*
X142723150Y-89891405D02*
X142814555Y-89891405D01*
X142814555Y-89891405D02*
X143473150Y-90550000D01*
X143473150Y-90550000D02*
X143473150Y-90720000D01*
X143733100Y-90969950D02*
X144133150Y-90969950D01*
X143483150Y-90720000D02*
X143733100Y-90969950D01*
%TO.N,/STAT1*%
X143383529Y-92154255D02*
X143447405Y-92154255D01*
X143447405Y-92154255D02*
X143463250Y-92170100D01*
D61*
X147418763Y-90420000D02*
X147843763Y-90845000D01*
X147299343Y-90420000D02*
X147418763Y-90420000D01*
D59*
X143463250Y-92170100D02*
X144133150Y-92170100D01*
%TO.N,/MAG_INT1*%
X136320650Y-90762500D02*
X136120650Y-90762500D01*
X136120650Y-90762500D02*
X135682469Y-90324319D01*
D61*
X143925650Y-100082500D02*
X143158150Y-100082500D01*
X144075650Y-99932500D02*
X143925650Y-100082500D01*
D59*
X136470650Y-90912500D02*
X136320650Y-90762500D01*
D61*
X144220650Y-99932500D02*
X144075650Y-99932500D01*
D59*
X135682469Y-90324319D02*
X135682469Y-90000510D01*
X138220650Y-94712500D02*
X138120650Y-94812500D01*
X138120650Y-94812500D02*
X138120650Y-96162500D01*
%TO.N,/SPI1_CS*%
D61*
X142620650Y-97962500D02*
X142470650Y-98112500D01*
X142820650Y-97962500D02*
X142620650Y-97962500D01*
X142470650Y-98112500D02*
X142470650Y-98895000D01*
%TO.N,/SPI1_CLK*%
X142170650Y-97712500D02*
X142370650Y-97512500D01*
X141970650Y-98223161D02*
X142170650Y-98023161D01*
X143007047Y-97512500D02*
X143770650Y-98276103D01*
X142370650Y-97512500D02*
X143007047Y-97512500D01*
X142170650Y-98023161D02*
X142170650Y-97712500D01*
X141970650Y-98895000D02*
X141970650Y-98223161D01*
X143770650Y-98276103D02*
X143770650Y-98362500D01*
%TO.N,/SPI1_MISO*%
X141084253Y-97412500D02*
X141457047Y-97412500D01*
X141470650Y-98298897D02*
X141470650Y-98895000D01*
X141457047Y-97412500D02*
X141720650Y-97676103D01*
X141720650Y-98048897D02*
X141470650Y-98298897D01*
X139920650Y-98062500D02*
X140020650Y-97962500D01*
X140534253Y-97962500D02*
X141084253Y-97412500D01*
X140020650Y-97962500D02*
X140534253Y-97962500D01*
X141720650Y-97676103D02*
X141720650Y-98048897D01*
%TO.N,/SPI1_MOSI*%
X140970650Y-98162500D02*
X141270650Y-97862500D01*
X140970650Y-98895000D02*
X140970650Y-98162500D01*
%TO.N,/RST*%
D59*
X135940650Y-101082500D02*
X135470650Y-100612500D01*
X136283150Y-101082500D02*
X135940650Y-101082500D01*
%TO.N,/WAKEUP*%
X135470650Y-101212500D02*
X135840650Y-101582500D01*
X135840650Y-101582500D02*
X136283150Y-101582500D01*
%TD*%
%TA.AperFunction,Conductor*%
%TO.N,GND*%
G36*
X145456189Y-83190185D02*
G01*
X145501944Y-83242989D01*
X145513150Y-83294500D01*
X145513150Y-84221891D01*
X145493465Y-84288930D01*
X145440661Y-84334685D01*
X145389150Y-84345891D01*
X144732551Y-84345891D01*
X144665512Y-84326206D01*
X144644870Y-84309572D01*
X144590663Y-84255365D01*
X144486321Y-84204355D01*
X144476656Y-84202947D01*
X144418678Y-84194500D01*
X144007622Y-84194500D01*
X143956890Y-84201891D01*
X143939978Y-84204355D01*
X143835636Y-84255365D01*
X143828331Y-84262671D01*
X143767008Y-84296156D01*
X143697316Y-84291172D01*
X143652969Y-84262671D01*
X143620663Y-84230365D01*
X143516321Y-84179355D01*
X143506656Y-84177947D01*
X143448678Y-84169500D01*
X143087622Y-84169500D01*
X143036890Y-84176891D01*
X143019978Y-84179355D01*
X142915636Y-84230365D01*
X142870831Y-84275171D01*
X142809508Y-84308656D01*
X142739816Y-84303672D01*
X142695469Y-84275171D01*
X142650663Y-84230365D01*
X142546321Y-84179355D01*
X142536656Y-84177947D01*
X142478678Y-84169500D01*
X142117622Y-84169500D01*
X142066890Y-84176891D01*
X142049978Y-84179355D01*
X141945636Y-84230365D01*
X141908026Y-84267975D01*
X141846703Y-84301460D01*
X141777011Y-84296474D01*
X141740391Y-84272941D01*
X141740352Y-84272998D01*
X141738922Y-84271997D01*
X141732670Y-84267979D01*
X141731468Y-84266777D01*
X141706993Y-84255364D01*
X141622637Y-84216028D01*
X141622635Y-84216027D01*
X141622636Y-84216027D01*
X141573051Y-84209500D01*
X141153255Y-84209500D01*
X141137536Y-84211569D01*
X141103663Y-84216028D01*
X141103661Y-84216029D01*
X141103659Y-84216029D01*
X140994833Y-84266776D01*
X140909924Y-84351685D01*
X140903701Y-84360573D01*
X140902697Y-84359870D01*
X140863772Y-84404075D01*
X140827243Y-84419625D01*
X140653436Y-84462465D01*
X140653435Y-84462465D01*
X140451335Y-84539112D01*
X140384089Y-84564615D01*
X140384086Y-84564616D01*
X140384082Y-84564618D01*
X140384081Y-84564618D01*
X140129017Y-84698487D01*
X139891937Y-84862130D01*
X139891931Y-84862135D01*
X139676310Y-85053158D01*
X139676308Y-85053160D01*
X139485285Y-85268781D01*
X139485280Y-85268787D01*
X139321637Y-85505867D01*
X139187768Y-85760931D01*
X139187768Y-85760932D01*
X139085615Y-86030285D01*
X139085614Y-86030289D01*
X139085614Y-86030291D01*
X139030042Y-86255758D01*
X139016674Y-86309994D01*
X138981950Y-86595961D01*
X138981950Y-90044522D01*
X138962265Y-90111561D01*
X138926841Y-90147624D01*
X138837781Y-90207131D01*
X138778272Y-90296194D01*
X138778270Y-90296198D01*
X138762650Y-90374727D01*
X138762650Y-90565265D01*
X138778272Y-90643806D01*
X138837781Y-90732868D01*
X138865461Y-90751363D01*
X138926844Y-90792378D01*
X138926847Y-90792378D01*
X138926848Y-90792379D01*
X138937904Y-90794578D01*
X139005381Y-90808000D01*
X139620918Y-90807999D01*
X139699456Y-90792378D01*
X139788518Y-90732868D01*
X139848028Y-90643806D01*
X139863650Y-90565269D01*
X139863649Y-90374732D01*
X139848028Y-90296194D01*
X139788518Y-90207132D01*
X139768248Y-90193588D01*
X139699458Y-90147623D01*
X139654654Y-90094010D01*
X139644350Y-90044521D01*
X139644350Y-86744427D01*
X139644666Y-86735580D01*
X139647341Y-86698183D01*
X140600150Y-86698183D01*
X140600150Y-87046816D01*
X140606581Y-87095671D01*
X140606582Y-87095673D01*
X140656585Y-87202904D01*
X140740246Y-87286565D01*
X140847477Y-87336568D01*
X140896333Y-87343000D01*
X140896334Y-87343000D01*
X141344967Y-87343000D01*
X141369394Y-87339784D01*
X141393823Y-87336568D01*
X141456374Y-87307399D01*
X141525449Y-87296907D01*
X141589233Y-87325426D01*
X141627474Y-87383902D01*
X141628029Y-87453769D01*
X141615126Y-87480562D01*
X141615527Y-87480758D01*
X141560005Y-87594328D01*
X141560005Y-87594330D01*
X141550150Y-87661972D01*
X141550150Y-88023028D01*
X141555832Y-88062025D01*
X141560005Y-88090671D01*
X141611015Y-88195013D01*
X141693134Y-88277132D01*
X141693137Y-88277134D01*
X141693139Y-88277136D01*
X141693140Y-88277136D01*
X141698906Y-88281253D01*
X141742030Y-88336227D01*
X141748587Y-88405788D01*
X141734243Y-88444173D01*
X141697444Y-88507910D01*
X141697443Y-88507913D01*
X141670150Y-88609773D01*
X141670150Y-88715227D01*
X141697443Y-88817087D01*
X141750170Y-88908413D01*
X141824737Y-88982980D01*
X141916063Y-89035707D01*
X142017923Y-89063000D01*
X142017925Y-89063000D01*
X142123375Y-89063000D01*
X142123377Y-89063000D01*
X142225237Y-89035707D01*
X142316563Y-88982980D01*
X142391130Y-88908413D01*
X142443857Y-88817087D01*
X142471150Y-88715227D01*
X142471150Y-88609773D01*
X142443857Y-88507913D01*
X142407055Y-88444170D01*
X142390583Y-88376274D01*
X142413435Y-88310247D01*
X142442396Y-88281251D01*
X142448154Y-88277139D01*
X142448161Y-88277136D01*
X142530286Y-88195011D01*
X142581295Y-88090670D01*
X142591150Y-88023028D01*
X142591150Y-87661972D01*
X142581295Y-87594330D01*
X142530286Y-87489989D01*
X142530284Y-87489987D01*
X142530284Y-87489986D01*
X142485479Y-87445181D01*
X142451994Y-87383858D01*
X142456978Y-87314166D01*
X142485479Y-87269819D01*
X142530284Y-87225013D01*
X142530286Y-87225011D01*
X142581295Y-87120670D01*
X142591150Y-87053028D01*
X142591150Y-86691972D01*
X142581295Y-86624330D01*
X142530286Y-86519989D01*
X142530284Y-86519987D01*
X142530284Y-86519986D01*
X142448163Y-86437865D01*
X142343821Y-86386855D01*
X142334156Y-86385447D01*
X142276178Y-86377000D01*
X141865122Y-86377000D01*
X141814390Y-86384391D01*
X141797478Y-86386855D01*
X141693137Y-86437864D01*
X141674490Y-86456512D01*
X141613166Y-86489996D01*
X141543474Y-86485010D01*
X141510518Y-86463830D01*
X141509940Y-86464657D01*
X141501055Y-86458436D01*
X141501054Y-86458435D01*
X141393823Y-86408432D01*
X141393821Y-86408431D01*
X141393822Y-86408431D01*
X141344967Y-86402000D01*
X141344966Y-86402000D01*
X140896334Y-86402000D01*
X140896333Y-86402000D01*
X140847478Y-86408431D01*
X140740245Y-86458435D01*
X140656585Y-86542095D01*
X140606581Y-86649328D01*
X140600150Y-86698183D01*
X139647341Y-86698183D01*
X139648264Y-86685278D01*
X139648264Y-86685277D01*
X139654652Y-86595961D01*
X139661212Y-86504226D01*
X139663728Y-86486728D01*
X139712089Y-86264415D01*
X139717066Y-86247464D01*
X139796578Y-86034285D01*
X139803923Y-86018203D01*
X139912958Y-85818519D01*
X139922508Y-85803659D01*
X140058862Y-85621512D01*
X140070434Y-85608158D01*
X140231308Y-85447284D01*
X140244662Y-85435712D01*
X140426809Y-85299358D01*
X140441669Y-85289808D01*
X140641353Y-85180773D01*
X140657435Y-85173428D01*
X140870614Y-85093916D01*
X140887572Y-85088938D01*
X140889934Y-85088424D01*
X140959623Y-85093416D01*
X140987403Y-85108020D01*
X140994833Y-85113223D01*
X140994834Y-85113224D01*
X141103663Y-85163972D01*
X141153249Y-85170500D01*
X141573050Y-85170499D01*
X141622637Y-85163972D01*
X141731466Y-85113224D01*
X141732665Y-85112025D01*
X141734997Y-85110751D01*
X141740352Y-85107002D01*
X141740770Y-85107599D01*
X141793988Y-85078540D01*
X141863680Y-85083524D01*
X141908027Y-85112025D01*
X141945636Y-85149634D01*
X141945637Y-85149634D01*
X141945639Y-85149636D01*
X142049980Y-85200645D01*
X142117622Y-85210500D01*
X142117628Y-85210500D01*
X142478672Y-85210500D01*
X142478678Y-85210500D01*
X142546320Y-85200645D01*
X142650661Y-85149636D01*
X142668006Y-85132291D01*
X142695469Y-85104829D01*
X142756792Y-85071344D01*
X142826484Y-85076328D01*
X142870831Y-85104829D01*
X142915636Y-85149634D01*
X142915637Y-85149634D01*
X142915639Y-85149636D01*
X143019980Y-85200645D01*
X143087622Y-85210500D01*
X143087628Y-85210500D01*
X143448672Y-85210500D01*
X143448678Y-85210500D01*
X143516320Y-85200645D01*
X143620661Y-85149636D01*
X143620663Y-85149634D01*
X143652969Y-85117329D01*
X143714292Y-85083844D01*
X143783984Y-85088828D01*
X143828331Y-85117329D01*
X143835636Y-85124634D01*
X143835637Y-85124634D01*
X143835639Y-85124636D01*
X143939980Y-85175645D01*
X144007622Y-85185500D01*
X144007628Y-85185500D01*
X144418672Y-85185500D01*
X144418678Y-85185500D01*
X144486320Y-85175645D01*
X144590661Y-85124636D01*
X144626873Y-85088424D01*
X144670688Y-85044610D01*
X144732011Y-85011125D01*
X144758369Y-85008291D01*
X145389150Y-85008291D01*
X145456189Y-85027976D01*
X145501944Y-85080780D01*
X145513150Y-85132291D01*
X145513150Y-89380000D01*
X151588650Y-89380000D01*
X151655689Y-89399685D01*
X151701444Y-89452489D01*
X151712650Y-89504000D01*
X151712650Y-90523181D01*
X151692965Y-90590220D01*
X151640161Y-90635975D01*
X151571003Y-90645919D01*
X151507447Y-90616894D01*
X151477250Y-90577642D01*
X151423398Y-90467487D01*
X151341276Y-90385365D01*
X151236934Y-90334355D01*
X151227269Y-90332947D01*
X151169291Y-90324500D01*
X150808235Y-90324500D01*
X150764088Y-90330932D01*
X150740591Y-90334355D01*
X150636249Y-90385365D01*
X150591444Y-90430171D01*
X150530121Y-90463656D01*
X150460429Y-90458672D01*
X150416082Y-90430171D01*
X150371276Y-90385365D01*
X150266934Y-90334355D01*
X150257269Y-90332947D01*
X150199291Y-90324500D01*
X149838235Y-90324500D01*
X149794088Y-90330932D01*
X149770591Y-90334355D01*
X149666249Y-90385365D01*
X149584127Y-90467487D01*
X149568252Y-90499961D01*
X149557306Y-90511940D01*
X149550565Y-90526703D01*
X149534224Y-90537204D01*
X149521124Y-90551543D01*
X149504828Y-90556095D01*
X149491787Y-90564477D01*
X149456852Y-90569500D01*
X149405742Y-90569500D01*
X149338703Y-90549815D01*
X149293360Y-90497905D01*
X149277828Y-90464596D01*
X149194167Y-90380935D01*
X149086936Y-90330932D01*
X149086934Y-90330931D01*
X149086935Y-90330931D01*
X149038080Y-90324500D01*
X149038079Y-90324500D01*
X148689447Y-90324500D01*
X148689446Y-90324500D01*
X148640591Y-90330931D01*
X148533358Y-90380935D01*
X148442027Y-90472267D01*
X148439203Y-90469443D01*
X148400721Y-90500183D01*
X148331221Y-90507352D01*
X148268877Y-90475808D01*
X148265664Y-90472101D01*
X148265499Y-90472267D01*
X148174167Y-90380935D01*
X148160865Y-90374732D01*
X148066936Y-90330932D01*
X148066934Y-90330931D01*
X148066935Y-90330931D01*
X148018080Y-90324500D01*
X148018079Y-90324500D01*
X147778255Y-90324500D01*
X147711216Y-90304815D01*
X147670868Y-90262500D01*
X147665065Y-90252449D01*
X147619823Y-90174087D01*
X147545256Y-90099520D01*
X147453930Y-90046793D01*
X147352070Y-90019500D01*
X147246616Y-90019500D01*
X147144756Y-90046793D01*
X147144753Y-90046794D01*
X147053430Y-90099520D01*
X146987861Y-90165089D01*
X146926537Y-90198573D01*
X146856846Y-90193588D01*
X146812499Y-90165088D01*
X146780047Y-90132636D01*
X146687979Y-90094500D01*
X146687978Y-90094500D01*
X144683273Y-90094500D01*
X144653835Y-90085855D01*
X144623845Y-90079332D01*
X144618828Y-90075576D01*
X144616234Y-90074815D01*
X144595591Y-90058181D01*
X144519968Y-89982557D01*
X144486484Y-89921233D01*
X144483650Y-89894876D01*
X144483650Y-89605683D01*
X144477218Y-89556828D01*
X144477218Y-89556827D01*
X144427215Y-89449596D01*
X144343554Y-89365935D01*
X144236323Y-89315932D01*
X144236321Y-89315931D01*
X144236322Y-89315931D01*
X144187467Y-89309500D01*
X144187466Y-89309500D01*
X143738834Y-89309500D01*
X143738833Y-89309500D01*
X143689978Y-89315931D01*
X143582745Y-89365935D01*
X143499085Y-89449595D01*
X143449081Y-89556828D01*
X143442650Y-89605683D01*
X143442650Y-89865877D01*
X143436411Y-89887122D01*
X143434832Y-89909211D01*
X143426759Y-89919994D01*
X143422965Y-89932916D01*
X143406231Y-89947415D01*
X143392960Y-89965144D01*
X143380339Y-89969851D01*
X143370161Y-89978671D01*
X143348243Y-89981822D01*
X143327496Y-89989561D01*
X143314335Y-89986698D01*
X143301003Y-89988615D01*
X143280859Y-89979415D01*
X143259223Y-89974709D01*
X143241497Y-89961440D01*
X143237447Y-89959590D01*
X143230969Y-89953558D01*
X143229969Y-89952558D01*
X143196484Y-89891235D01*
X143193650Y-89864877D01*
X143193650Y-89667088D01*
X143187218Y-89618233D01*
X143187218Y-89618232D01*
X143137215Y-89511001D01*
X143053554Y-89427340D01*
X142946323Y-89377337D01*
X142946321Y-89377336D01*
X142946322Y-89377336D01*
X142897467Y-89370905D01*
X142897466Y-89370905D01*
X142548834Y-89370905D01*
X142548833Y-89370905D01*
X142499978Y-89377336D01*
X142392745Y-89427340D01*
X142309085Y-89511000D01*
X142259081Y-89618233D01*
X142252650Y-89667088D01*
X142252650Y-90115721D01*
X142259081Y-90164576D01*
X142309085Y-90271809D01*
X142336000Y-90298724D01*
X142369485Y-90360047D01*
X142364501Y-90429739D01*
X142336000Y-90474086D01*
X142309085Y-90501000D01*
X142259081Y-90608233D01*
X142252650Y-90657088D01*
X142252650Y-91105721D01*
X142259081Y-91154576D01*
X142309085Y-91261809D01*
X142336002Y-91288726D01*
X142369487Y-91350049D01*
X142364503Y-91419741D01*
X142336005Y-91464086D01*
X142308286Y-91491805D01*
X142258283Y-91599037D01*
X142251852Y-91647892D01*
X142251852Y-92096525D01*
X142258283Y-92145380D01*
X142308287Y-92252613D01*
X142326691Y-92271017D01*
X142360176Y-92332340D01*
X142355192Y-92402032D01*
X142326692Y-92446378D01*
X142289128Y-92483942D01*
X142238379Y-92592773D01*
X142231852Y-92642357D01*
X142231852Y-93062153D01*
X142231853Y-93062159D01*
X142238380Y-93111746D01*
X142238381Y-93111748D01*
X142238381Y-93111749D01*
X142289128Y-93220575D01*
X142325939Y-93257386D01*
X142359424Y-93318709D01*
X142354440Y-93388401D01*
X142325939Y-93432748D01*
X142308287Y-93450399D01*
X142258283Y-93557632D01*
X142251852Y-93606487D01*
X142251852Y-94055120D01*
X142258283Y-94103975D01*
X142308287Y-94211208D01*
X142331050Y-94233971D01*
X142335268Y-94241696D01*
X142342338Y-94246945D01*
X142351756Y-94271892D01*
X142364535Y-94295294D01*
X142363907Y-94304074D01*
X142367017Y-94312312D01*
X142361452Y-94338390D01*
X142359551Y-94364986D01*
X142353891Y-94373831D01*
X142352438Y-94380643D01*
X142331935Y-94408145D01*
X142331400Y-94408982D01*
X142331275Y-94409107D01*
X142308287Y-94432096D01*
X142308124Y-94432444D01*
X142300383Y-94440248D01*
X142278675Y-94452213D01*
X142259310Y-94467683D01*
X142248611Y-94468786D01*
X142239194Y-94473978D01*
X142214466Y-94472308D01*
X142189810Y-94474852D01*
X142180213Y-94469996D01*
X142169483Y-94469272D01*
X142149581Y-94454497D01*
X142127466Y-94443308D01*
X142124253Y-94439601D01*
X142124088Y-94439767D01*
X142032756Y-94348435D01*
X142013151Y-94339293D01*
X141925525Y-94298432D01*
X141925523Y-94298431D01*
X141925524Y-94298431D01*
X141876669Y-94292000D01*
X141876668Y-94292000D01*
X141528036Y-94292000D01*
X141528035Y-94292000D01*
X141479180Y-94298431D01*
X141367773Y-94350382D01*
X141315368Y-94362000D01*
X141061341Y-94362000D01*
X140946764Y-94392701D01*
X140946762Y-94392701D01*
X140946762Y-94392702D01*
X140844037Y-94452011D01*
X140844034Y-94452013D01*
X140760163Y-94535884D01*
X140760161Y-94535887D01*
X140700851Y-94638614D01*
X140670150Y-94753191D01*
X140670150Y-94871809D01*
X140700851Y-94986386D01*
X140760161Y-95089113D01*
X140844037Y-95172989D01*
X140946764Y-95232299D01*
X141061341Y-95263000D01*
X141266319Y-95263000D01*
X141333358Y-95282685D01*
X141379113Y-95335489D01*
X141389057Y-95404647D01*
X141360032Y-95468203D01*
X141354000Y-95474681D01*
X141296585Y-95532095D01*
X141246581Y-95639328D01*
X141240150Y-95688183D01*
X141240150Y-96136816D01*
X141246581Y-96185671D01*
X141246582Y-96185673D01*
X141296585Y-96292904D01*
X141380246Y-96376565D01*
X141487477Y-96426568D01*
X141536333Y-96433000D01*
X141536334Y-96433000D01*
X141696150Y-96433000D01*
X141763189Y-96452685D01*
X141808944Y-96505489D01*
X141820150Y-96557000D01*
X141820150Y-96615227D01*
X141847443Y-96717087D01*
X141900170Y-96808413D01*
X141974737Y-96882980D01*
X142066063Y-96935707D01*
X142167923Y-96963000D01*
X142167925Y-96963000D01*
X142273375Y-96963000D01*
X142273377Y-96963000D01*
X142375237Y-96935707D01*
X142466563Y-96882980D01*
X142541130Y-96808413D01*
X142593857Y-96717087D01*
X142621150Y-96615227D01*
X142621150Y-96557000D01*
X142640835Y-96489961D01*
X142693639Y-96444206D01*
X142745150Y-96433000D01*
X142904967Y-96433000D01*
X142921251Y-96430856D01*
X142953823Y-96426568D01*
X143061054Y-96376565D01*
X143144715Y-96292904D01*
X143194718Y-96185673D01*
X143201150Y-96136816D01*
X143201150Y-95849778D01*
X143220835Y-95782739D01*
X143273639Y-95736984D01*
X143342797Y-95727040D01*
X143380985Y-95740257D01*
X143381053Y-95740096D01*
X143383770Y-95741221D01*
X143387150Y-95742391D01*
X143388563Y-95743207D01*
X143490423Y-95770500D01*
X143490425Y-95770500D01*
X143595875Y-95770500D01*
X143595877Y-95770500D01*
X143697737Y-95743207D01*
X143775666Y-95698214D01*
X143843564Y-95681741D01*
X143861850Y-95683983D01*
X143919749Y-95695500D01*
X144546550Y-95695499D01*
X144623267Y-95680240D01*
X144710262Y-95622112D01*
X144768390Y-95535117D01*
X144783650Y-95458401D01*
X144783649Y-95281600D01*
X144768390Y-95204883D01*
X144768389Y-95204881D01*
X144768388Y-95204878D01*
X144757705Y-95188891D01*
X144736826Y-95122214D01*
X144755310Y-95054833D01*
X144757667Y-95051164D01*
X144768390Y-95035117D01*
X144783650Y-94958401D01*
X144783649Y-94781600D01*
X144768390Y-94704883D01*
X144768389Y-94704881D01*
X144768388Y-94704878D01*
X144757705Y-94688891D01*
X144736826Y-94622214D01*
X144755310Y-94554833D01*
X144757667Y-94551164D01*
X144768390Y-94535117D01*
X144783650Y-94458401D01*
X144783649Y-94281600D01*
X144768390Y-94204883D01*
X144768389Y-94204881D01*
X144768388Y-94204878D01*
X144757705Y-94188891D01*
X144736826Y-94122214D01*
X144755310Y-94054833D01*
X144757667Y-94051164D01*
X144768390Y-94035117D01*
X144783650Y-93958401D01*
X144783649Y-93781600D01*
X144768390Y-93704883D01*
X144768389Y-93704881D01*
X144768388Y-93704879D01*
X144733155Y-93652150D01*
X144710262Y-93617888D01*
X144623267Y-93559760D01*
X144623265Y-93559759D01*
X144623262Y-93559758D01*
X144546554Y-93544500D01*
X143919752Y-93544500D01*
X143843031Y-93559760D01*
X143843029Y-93559761D01*
X143756037Y-93617888D01*
X143745697Y-93633363D01*
X143692083Y-93678167D01*
X143622758Y-93686872D01*
X143559731Y-93656715D01*
X143554916Y-93652150D01*
X143500014Y-93597248D01*
X143500013Y-93597247D01*
X143398755Y-93555304D01*
X143264331Y-93555304D01*
X143247683Y-93550415D01*
X143230333Y-93550552D01*
X143214855Y-93540776D01*
X143197292Y-93535619D01*
X143185727Y-93522378D01*
X143171260Y-93513241D01*
X143151947Y-93483704D01*
X143149825Y-93479155D01*
X143139339Y-93410078D01*
X143167863Y-93346296D01*
X143226342Y-93308060D01*
X143262212Y-93302759D01*
X143390197Y-93302759D01*
X143390200Y-93302759D01*
X143504777Y-93272058D01*
X143607504Y-93212748D01*
X143691380Y-93128872D01*
X143750690Y-93026145D01*
X143767300Y-92964154D01*
X143803664Y-92904496D01*
X143866511Y-92873967D01*
X143887074Y-92872250D01*
X144404820Y-92872250D01*
X144404821Y-92872249D01*
X144472194Y-92858848D01*
X144548597Y-92807797D01*
X144599648Y-92731394D01*
X144613050Y-92664018D01*
X144613050Y-92476282D01*
X144613050Y-92476279D01*
X144613049Y-92476277D01*
X144597266Y-92396927D01*
X144600943Y-92396195D01*
X144595768Y-92348128D01*
X144597448Y-92342403D01*
X144601405Y-92322513D01*
X144613050Y-92263968D01*
X144613050Y-92076232D01*
X144613050Y-92076229D01*
X144613049Y-92076227D01*
X144597266Y-91996877D01*
X144600943Y-91996145D01*
X144595768Y-91948078D01*
X144597448Y-91942353D01*
X144605752Y-91900609D01*
X144613050Y-91863918D01*
X144613050Y-91676182D01*
X144613050Y-91676179D01*
X144613049Y-91676177D01*
X144597266Y-91596827D01*
X144600943Y-91596095D01*
X144595768Y-91548028D01*
X144597448Y-91542303D01*
X144607511Y-91491716D01*
X144613050Y-91463868D01*
X144613050Y-91276132D01*
X144613050Y-91276129D01*
X144613049Y-91276127D01*
X144597266Y-91196777D01*
X144600943Y-91196045D01*
X144595768Y-91147978D01*
X144597448Y-91142253D01*
X144602215Y-91118291D01*
X144613050Y-91063818D01*
X144613050Y-90876082D01*
X144613050Y-90876079D01*
X144613049Y-90876077D01*
X144599649Y-90808710D01*
X144599648Y-90808707D01*
X144599648Y-90808706D01*
X144586072Y-90788389D01*
X144565196Y-90721712D01*
X144583681Y-90654332D01*
X144635660Y-90607643D01*
X144689176Y-90595500D01*
X146446150Y-90595500D01*
X146454835Y-90598050D01*
X146463797Y-90596762D01*
X146487837Y-90607740D01*
X146513189Y-90615185D01*
X146519116Y-90622025D01*
X146527353Y-90625787D01*
X146541642Y-90648021D01*
X146558944Y-90667989D01*
X146561231Y-90678503D01*
X146565127Y-90684565D01*
X146570150Y-90719500D01*
X146570150Y-90943900D01*
X146550465Y-91010939D01*
X146497661Y-91056694D01*
X146446150Y-91067900D01*
X146020477Y-91067900D01*
X145953110Y-91081300D01*
X145953106Y-91081302D01*
X145876703Y-91132353D01*
X145825652Y-91208756D01*
X145825650Y-91208760D01*
X145812250Y-91276127D01*
X145812250Y-91463872D01*
X145828034Y-91543222D01*
X145824361Y-91543952D01*
X145829521Y-91592079D01*
X145827839Y-91597804D01*
X145812250Y-91676177D01*
X145812250Y-91863922D01*
X145828034Y-91943272D01*
X145824361Y-91944002D01*
X145829521Y-91992129D01*
X145827839Y-91997854D01*
X145812250Y-92076227D01*
X145812250Y-92263972D01*
X145828034Y-92343322D01*
X145824361Y-92344052D01*
X145829521Y-92392179D01*
X145827839Y-92397904D01*
X145812250Y-92476277D01*
X145812250Y-92664022D01*
X145825650Y-92731389D01*
X145825651Y-92731392D01*
X145825652Y-92731394D01*
X145876703Y-92807797D01*
X145953106Y-92858848D01*
X145953109Y-92858848D01*
X145953110Y-92858849D01*
X146020477Y-92872249D01*
X146020480Y-92872250D01*
X146020482Y-92872250D01*
X146430380Y-92872250D01*
X146497419Y-92891935D01*
X146537766Y-92934249D01*
X146579991Y-93007384D01*
X146580179Y-93007710D01*
X146580181Y-93007713D01*
X146706772Y-93134304D01*
X146740257Y-93195627D01*
X146738866Y-93254076D01*
X146730150Y-93286603D01*
X146730150Y-93286608D01*
X146730150Y-93418392D01*
X146739818Y-93454472D01*
X146764258Y-93545687D01*
X146772384Y-93559761D01*
X146830150Y-93659814D01*
X146923336Y-93753000D01*
X147037464Y-93818892D01*
X147164758Y-93853000D01*
X147237939Y-93853000D01*
X147296540Y-93853000D01*
X147296542Y-93853000D01*
X147423836Y-93818892D01*
X147537964Y-93753000D01*
X147631150Y-93659814D01*
X147697042Y-93545686D01*
X147723224Y-93447972D01*
X147759588Y-93388313D01*
X147822435Y-93357784D01*
X147891810Y-93366078D01*
X147930679Y-93392386D01*
X148437010Y-93898717D01*
X148435779Y-93899947D01*
X148471149Y-93948391D01*
X148475301Y-94018138D01*
X148442139Y-94078015D01*
X147905663Y-94614492D01*
X147844340Y-94647977D01*
X147774649Y-94642993D01*
X147730301Y-94614492D01*
X147245350Y-94129541D01*
X147245342Y-94129535D01*
X147187372Y-94096066D01*
X147187369Y-94096065D01*
X147176827Y-94089979D01*
X147100400Y-94069500D01*
X147021034Y-94069500D01*
X146671447Y-94069500D01*
X146623992Y-94060060D01*
X146623264Y-94059758D01*
X146546554Y-94044500D01*
X145919752Y-94044500D01*
X145843031Y-94059760D01*
X145843029Y-94059761D01*
X145756038Y-94117888D01*
X145697910Y-94204883D01*
X145697908Y-94204887D01*
X145682650Y-94281595D01*
X145682650Y-94458398D01*
X145697910Y-94535119D01*
X145708596Y-94551111D01*
X145729473Y-94617788D01*
X145710987Y-94685168D01*
X145708596Y-94688889D01*
X145697909Y-94704882D01*
X145682650Y-94781596D01*
X145682650Y-94958398D01*
X145697910Y-95035118D01*
X145697911Y-95035120D01*
X145730487Y-95083872D01*
X145756038Y-95122112D01*
X145843033Y-95180240D01*
X145843036Y-95180240D01*
X145843037Y-95180241D01*
X145881391Y-95187870D01*
X145919749Y-95195500D01*
X146546550Y-95195499D01*
X146623267Y-95180240D01*
X146623270Y-95180238D01*
X146623999Y-95179937D01*
X146671447Y-95170500D01*
X147248839Y-95170500D01*
X147315878Y-95190185D01*
X147361633Y-95242989D01*
X147372839Y-95294500D01*
X147372839Y-95372400D01*
X147379366Y-95421987D01*
X147379367Y-95421989D01*
X147379367Y-95421990D01*
X147400917Y-95468203D01*
X147430114Y-95530816D01*
X147515022Y-95615724D01*
X147623851Y-95666472D01*
X147673437Y-95673000D01*
X148033238Y-95672999D01*
X148082825Y-95666472D01*
X148191654Y-95615724D01*
X148276562Y-95530816D01*
X148327310Y-95421987D01*
X148333838Y-95372401D01*
X148333837Y-95229043D01*
X148353521Y-95162004D01*
X148370151Y-95141367D01*
X149301119Y-94210401D01*
X149347264Y-94130476D01*
X149354364Y-94103977D01*
X149371150Y-94041332D01*
X149371150Y-93839642D01*
X149387765Y-93777639D01*
X149393855Y-93767090D01*
X149393857Y-93767087D01*
X149421150Y-93665227D01*
X149421150Y-93559773D01*
X149393857Y-93457913D01*
X149341130Y-93366587D01*
X149266563Y-93292020D01*
X149175237Y-93239293D01*
X149073377Y-93212000D01*
X148967923Y-93212000D01*
X148967921Y-93212000D01*
X148858622Y-93241286D01*
X148788773Y-93239623D01*
X148738849Y-93209192D01*
X148370156Y-92840499D01*
X148336671Y-92779176D01*
X148333837Y-92752818D01*
X148333837Y-92609468D01*
X148333837Y-92609463D01*
X148327310Y-92559876D01*
X148276562Y-92451047D01*
X148242054Y-92416539D01*
X148237869Y-92408876D01*
X148230852Y-92403679D01*
X148221379Y-92378677D01*
X148208569Y-92355216D01*
X148209191Y-92346507D01*
X148206098Y-92338341D01*
X148211646Y-92312189D01*
X148213553Y-92285524D01*
X148219166Y-92276739D01*
X148220598Y-92269993D01*
X148240911Y-92242711D01*
X148241603Y-92241630D01*
X148241699Y-92241532D01*
X148257828Y-92225404D01*
X148257975Y-92225087D01*
X148265631Y-92217353D01*
X148287355Y-92205344D01*
X148306740Y-92189843D01*
X148317400Y-92188737D01*
X148326781Y-92183552D01*
X148351551Y-92185195D01*
X148376237Y-92182635D01*
X148385801Y-92187467D01*
X148396497Y-92188177D01*
X148416445Y-92202950D01*
X148438598Y-92214143D01*
X148441856Y-92217903D01*
X148442027Y-92217733D01*
X148449698Y-92225404D01*
X148533359Y-92309065D01*
X148640590Y-92359068D01*
X148689446Y-92365500D01*
X148689447Y-92365500D01*
X149038080Y-92365500D01*
X149054364Y-92363356D01*
X149086936Y-92359068D01*
X149194167Y-92309065D01*
X149277828Y-92225404D01*
X149293360Y-92192094D01*
X149304822Y-92179076D01*
X149312029Y-92163297D01*
X149327432Y-92153397D01*
X149339532Y-92139656D01*
X149356417Y-92134770D01*
X149370807Y-92125523D01*
X149405742Y-92120500D01*
X149411645Y-92120500D01*
X149478684Y-92140185D01*
X149524439Y-92192989D01*
X149529242Y-92209288D01*
X149530275Y-92208970D01*
X149533116Y-92218167D01*
X149584128Y-92322513D01*
X149666249Y-92404634D01*
X149666250Y-92404634D01*
X149666252Y-92404636D01*
X149770593Y-92455645D01*
X149838235Y-92465500D01*
X149838241Y-92465500D01*
X150199285Y-92465500D01*
X150199291Y-92465500D01*
X150266933Y-92455645D01*
X150371274Y-92404636D01*
X150404559Y-92371351D01*
X150465881Y-92337865D01*
X150535573Y-92342849D01*
X150591507Y-92384719D01*
X150615925Y-92450183D01*
X150612016Y-92491124D01*
X150601517Y-92530307D01*
X150588263Y-92579773D01*
X150588263Y-92685227D01*
X150615556Y-92787087D01*
X150668283Y-92878413D01*
X150742850Y-92952980D01*
X150834176Y-93005707D01*
X150936036Y-93033000D01*
X150936038Y-93033000D01*
X151041488Y-93033000D01*
X151041490Y-93033000D01*
X151143350Y-93005707D01*
X151234676Y-92952980D01*
X151309243Y-92878413D01*
X151361970Y-92787087D01*
X151389263Y-92685227D01*
X151389263Y-92579773D01*
X151361970Y-92477913D01*
X151361967Y-92477908D01*
X151360639Y-92472951D01*
X151362302Y-92403101D01*
X151392731Y-92353178D01*
X151423399Y-92322511D01*
X151474408Y-92218170D01*
X151474408Y-92218168D01*
X151477249Y-92212358D01*
X151524377Y-92160775D01*
X151591911Y-92142861D01*
X151658410Y-92164302D01*
X151702760Y-92218291D01*
X151712650Y-92266818D01*
X151712650Y-112445500D01*
X151692965Y-112512539D01*
X151640161Y-112558294D01*
X151588650Y-112569500D01*
X122437650Y-112569500D01*
X122370611Y-112549815D01*
X122324856Y-112497011D01*
X122313650Y-112445500D01*
X122313650Y-99984000D01*
X122333335Y-99916961D01*
X122386139Y-99871206D01*
X122437650Y-99860000D01*
X132493150Y-99860000D01*
X132493150Y-99277765D01*
X132512835Y-99210726D01*
X132565639Y-99164971D01*
X132634797Y-99155027D01*
X132698353Y-99184052D01*
X132727632Y-99221466D01*
X132735708Y-99237315D01*
X132742601Y-99250843D01*
X132742604Y-99250847D01*
X132832302Y-99340545D01*
X132832304Y-99340546D01*
X132832308Y-99340550D01*
X132931665Y-99391175D01*
X132945348Y-99398147D01*
X133039125Y-99412999D01*
X133039131Y-99413000D01*
X133515526Y-99412999D01*
X133582565Y-99432683D01*
X133603207Y-99449318D01*
X133948753Y-99794864D01*
X134040822Y-99833000D01*
X134136150Y-99833000D01*
X134203189Y-99852685D01*
X134248944Y-99905489D01*
X134260150Y-99957000D01*
X134260150Y-100286816D01*
X134266581Y-100335671D01*
X134316674Y-100443095D01*
X134327166Y-100512173D01*
X134298646Y-100575957D01*
X134240170Y-100614196D01*
X134204292Y-100619500D01*
X134187157Y-100619500D01*
X134087528Y-100635279D01*
X134087524Y-100635280D01*
X134087524Y-100635281D01*
X134071152Y-100643623D01*
X133967428Y-100696473D01*
X133967424Y-100696476D01*
X133872126Y-100791774D01*
X133872123Y-100791778D01*
X133810929Y-100911878D01*
X133795150Y-101011506D01*
X133795150Y-101578493D01*
X133810929Y-101678121D01*
X133810930Y-101678124D01*
X133810931Y-101678126D01*
X133872122Y-101798220D01*
X133967430Y-101893528D01*
X133967433Y-101893529D01*
X133974036Y-101898327D01*
X133977376Y-101902659D01*
X133982353Y-101904932D01*
X133998485Y-101930034D01*
X134016701Y-101953658D01*
X134017953Y-101960328D01*
X134020127Y-101963710D01*
X134025150Y-101998645D01*
X134025150Y-102126228D01*
X134005465Y-102193267D01*
X133988831Y-102213909D01*
X133913496Y-102289243D01*
X133913493Y-102289248D01*
X133853197Y-102407582D01*
X133837650Y-102505748D01*
X133837650Y-103068034D01*
X133817965Y-103135073D01*
X133765161Y-103180828D01*
X133696003Y-103190772D01*
X133632447Y-103161747D01*
X133625969Y-103155715D01*
X133024018Y-102553764D01*
X133025455Y-102552326D01*
X132990695Y-102504709D01*
X132984916Y-102482173D01*
X132973102Y-102407582D01*
X132972975Y-102407333D01*
X132912808Y-102289249D01*
X132912804Y-102289245D01*
X132912803Y-102289243D01*
X132818906Y-102195346D01*
X132818903Y-102195344D01*
X132818901Y-102195342D01*
X132700570Y-102135049D01*
X132700569Y-102135048D01*
X132700566Y-102135047D01*
X132700567Y-102135047D01*
X132602401Y-102119500D01*
X132602396Y-102119500D01*
X132098904Y-102119500D01*
X132098899Y-102119500D01*
X132000732Y-102135047D01*
X131930373Y-102170898D01*
X131882399Y-102195342D01*
X131882398Y-102195343D01*
X131882393Y-102195346D01*
X131788496Y-102289243D01*
X131788493Y-102289248D01*
X131728197Y-102407582D01*
X131712650Y-102505748D01*
X131712650Y-103334251D01*
X131728197Y-103432417D01*
X131747514Y-103470329D01*
X131788492Y-103550751D01*
X131788494Y-103550753D01*
X131788496Y-103550756D01*
X131882393Y-103644653D01*
X131882395Y-103644654D01*
X131882399Y-103644658D01*
X132000730Y-103704951D01*
X132000731Y-103704951D01*
X132000733Y-103704952D01*
X132000732Y-103704952D01*
X132098899Y-103720500D01*
X132098904Y-103720500D01*
X132602401Y-103720500D01*
X132700567Y-103704952D01*
X132700568Y-103704951D01*
X132700570Y-103704951D01*
X132753074Y-103678198D01*
X132821741Y-103665302D01*
X132886481Y-103691577D01*
X132897049Y-103701002D01*
X133216331Y-104020284D01*
X133249816Y-104081607D01*
X133252650Y-104107965D01*
X133252650Y-104475528D01*
X133261050Y-104533181D01*
X133262505Y-104543171D01*
X133313515Y-104647513D01*
X133395636Y-104729634D01*
X133395637Y-104729634D01*
X133395639Y-104729636D01*
X133499980Y-104780645D01*
X133567622Y-104790500D01*
X133567628Y-104790500D01*
X133928672Y-104790500D01*
X133928678Y-104790500D01*
X133996320Y-104780645D01*
X134100661Y-104729636D01*
X134116783Y-104713514D01*
X134145469Y-104684829D01*
X134153414Y-104680490D01*
X134158840Y-104673243D01*
X134183599Y-104664008D01*
X134206792Y-104651344D01*
X134215821Y-104651989D01*
X134224304Y-104648826D01*
X134250124Y-104654442D01*
X134276484Y-104656328D01*
X134285537Y-104662146D01*
X134292577Y-104663678D01*
X134320831Y-104684829D01*
X134323625Y-104687623D01*
X134357110Y-104748946D01*
X134352126Y-104818638D01*
X134323625Y-104862985D01*
X134309926Y-104876683D01*
X134259177Y-104985514D01*
X134252650Y-105035098D01*
X134252650Y-105454894D01*
X134259179Y-105504491D01*
X134271031Y-105529906D01*
X134282650Y-105582313D01*
X134282650Y-105862035D01*
X134274005Y-105891475D01*
X134267482Y-105921462D01*
X134263727Y-105926477D01*
X134262965Y-105929074D01*
X134246331Y-105949716D01*
X134170366Y-106025681D01*
X134109043Y-106059166D01*
X134082685Y-106062000D01*
X133370150Y-106062000D01*
X133303111Y-106042315D01*
X133257356Y-105989511D01*
X133246150Y-105938000D01*
X133246150Y-105779006D01*
X133230370Y-105679378D01*
X133230369Y-105679376D01*
X133230369Y-105679374D01*
X133169178Y-105559280D01*
X133169176Y-105559278D01*
X133169173Y-105559274D01*
X133073875Y-105463976D01*
X133073871Y-105463973D01*
X133073870Y-105463972D01*
X132953776Y-105402781D01*
X132953774Y-105402780D01*
X132953771Y-105402779D01*
X132854143Y-105387000D01*
X132854138Y-105387000D01*
X132287162Y-105387000D01*
X132287157Y-105387000D01*
X132187528Y-105402779D01*
X132067428Y-105463973D01*
X132067424Y-105463976D01*
X131980720Y-105550681D01*
X131919397Y-105584166D01*
X131893039Y-105587000D01*
X131761341Y-105587000D01*
X131646764Y-105617701D01*
X131646762Y-105617701D01*
X131646762Y-105617702D01*
X131544037Y-105677011D01*
X131544034Y-105677013D01*
X131460163Y-105760884D01*
X131460161Y-105760887D01*
X131401763Y-105862035D01*
X131400851Y-105863614D01*
X131370150Y-105978191D01*
X131370150Y-106096809D01*
X131400851Y-106211386D01*
X131460161Y-106314113D01*
X131544037Y-106397989D01*
X131646764Y-106457299D01*
X131761341Y-106488000D01*
X131893039Y-106488000D01*
X131960078Y-106507685D01*
X131980720Y-106524319D01*
X132067424Y-106611023D01*
X132067428Y-106611026D01*
X132067430Y-106611028D01*
X132187524Y-106672219D01*
X132187526Y-106672219D01*
X132187528Y-106672220D01*
X132287157Y-106688000D01*
X132287162Y-106688000D01*
X132532685Y-106688000D01*
X132562125Y-106696644D01*
X132592112Y-106703168D01*
X132597127Y-106706922D01*
X132599724Y-106707685D01*
X132620366Y-106724319D01*
X132623866Y-106727819D01*
X132657351Y-106789142D01*
X132652367Y-106858834D01*
X132610495Y-106914767D01*
X132545031Y-106939184D01*
X132536186Y-106939500D01*
X132295473Y-106939500D01*
X132295464Y-106939501D01*
X132270863Y-106942354D01*
X132270859Y-106942355D01*
X132170228Y-106986788D01*
X132170227Y-106986789D01*
X132166336Y-106990681D01*
X132105013Y-107024166D01*
X132089138Y-107025872D01*
X132089147Y-107025939D01*
X132081087Y-107027000D01*
X132004659Y-107047478D01*
X131936138Y-107087039D01*
X131886093Y-107137085D01*
X131837427Y-107185749D01*
X131776106Y-107219233D01*
X131706414Y-107214249D01*
X131662067Y-107185748D01*
X130130860Y-105654541D01*
X130130859Y-105654540D01*
X130109246Y-105642062D01*
X130109246Y-105642060D01*
X130109243Y-105642060D01*
X130062342Y-105614981D01*
X130062339Y-105614979D01*
X130024123Y-105604739D01*
X129985910Y-105594500D01*
X129985908Y-105594500D01*
X129645150Y-105594500D01*
X129578111Y-105574815D01*
X129532356Y-105522011D01*
X129521150Y-105470500D01*
X129521150Y-105072939D01*
X129521149Y-105072935D01*
X129520229Y-105069500D01*
X129517558Y-105059531D01*
X129500672Y-104996512D01*
X129500669Y-104996507D01*
X129499130Y-104990762D01*
X129500793Y-104920912D01*
X129539955Y-104863049D01*
X129604183Y-104835544D01*
X129635085Y-104835727D01*
X129671334Y-104840500D01*
X129671336Y-104840500D01*
X130119967Y-104840500D01*
X130136251Y-104838356D01*
X130168823Y-104834068D01*
X130276054Y-104784065D01*
X130359715Y-104700404D01*
X130409718Y-104593173D01*
X130416150Y-104544316D01*
X130416150Y-104195684D01*
X130409718Y-104146827D01*
X130359715Y-104039596D01*
X130276054Y-103955935D01*
X130168823Y-103905932D01*
X130168821Y-103905931D01*
X130168822Y-103905931D01*
X130119967Y-103899500D01*
X130119966Y-103899500D01*
X129671334Y-103899500D01*
X129671333Y-103899500D01*
X129622478Y-103905931D01*
X129515245Y-103955935D01*
X129431585Y-104039595D01*
X129431585Y-104039596D01*
X129427710Y-104047904D01*
X129416248Y-104060922D01*
X129409042Y-104076703D01*
X129393638Y-104086602D01*
X129381540Y-104100343D01*
X129364655Y-104105228D01*
X129350264Y-104114477D01*
X129315329Y-104119500D01*
X129177281Y-104119500D01*
X129110242Y-104099815D01*
X129064487Y-104047011D01*
X129054543Y-103977853D01*
X129055470Y-103972438D01*
X129055498Y-103972141D01*
X129055500Y-103972133D01*
X129055499Y-103767868D01*
X129039515Y-103687505D01*
X129021617Y-103660720D01*
X129000740Y-103594044D01*
X129013319Y-103537370D01*
X129045573Y-103471393D01*
X129055500Y-103403260D01*
X129055500Y-103036740D01*
X129045573Y-102968607D01*
X128994198Y-102863517D01*
X128994196Y-102863515D01*
X128994196Y-102863514D01*
X128911485Y-102780803D01*
X128806391Y-102729426D01*
X128738261Y-102719500D01*
X128738260Y-102719500D01*
X127841372Y-102719500D01*
X127774333Y-102699815D01*
X127728578Y-102647011D01*
X127721599Y-102627600D01*
X127694688Y-102527164D01*
X127631305Y-102417381D01*
X127625507Y-102407338D01*
X127625503Y-102407333D01*
X127527666Y-102309496D01*
X127527661Y-102309492D01*
X127407838Y-102240313D01*
X127407837Y-102240312D01*
X127407836Y-102240312D01*
X127274183Y-102204500D01*
X127135817Y-102204500D01*
X127002164Y-102240312D01*
X127002161Y-102240313D01*
X126882338Y-102309492D01*
X126882333Y-102309496D01*
X126784496Y-102407333D01*
X126784492Y-102407338D01*
X126715313Y-102527161D01*
X126715312Y-102527164D01*
X126679500Y-102660817D01*
X126679500Y-102799183D01*
X126711172Y-102917383D01*
X126715312Y-102932835D01*
X126715313Y-102932838D01*
X126784492Y-103052661D01*
X126784494Y-103052664D01*
X126784495Y-103052665D01*
X126882335Y-103150505D01*
X126882336Y-103150506D01*
X126882338Y-103150507D01*
X126915235Y-103169500D01*
X127002164Y-103219688D01*
X127014097Y-103222885D01*
X127073757Y-103259246D01*
X127104289Y-103322092D01*
X127095997Y-103391468D01*
X127069688Y-103430341D01*
X126186139Y-104313891D01*
X126130191Y-104369838D01*
X126130185Y-104369846D01*
X126090632Y-104438355D01*
X126090629Y-104438360D01*
X126085452Y-104457681D01*
X126070150Y-104514789D01*
X126070150Y-106536910D01*
X126077412Y-106564012D01*
X126090629Y-106613338D01*
X126090630Y-106613339D01*
X126112066Y-106650468D01*
X126130190Y-106681859D01*
X127221150Y-107772819D01*
X127254635Y-107834142D01*
X127249651Y-107903834D01*
X127207779Y-107959767D01*
X127142315Y-107984184D01*
X127136693Y-107984384D01*
X127135817Y-107984500D01*
X127002164Y-108020312D01*
X127002161Y-108020313D01*
X126882338Y-108089492D01*
X126882333Y-108089496D01*
X126784496Y-108187333D01*
X126784492Y-108187338D01*
X126715313Y-108307161D01*
X126715312Y-108307164D01*
X126679500Y-108440817D01*
X126679500Y-108579183D01*
X126714947Y-108711471D01*
X126715312Y-108712835D01*
X126715313Y-108712838D01*
X126784492Y-108832661D01*
X126784494Y-108832664D01*
X126784495Y-108832665D01*
X126882335Y-108930505D01*
X126882336Y-108930506D01*
X126882338Y-108930507D01*
X126925027Y-108955153D01*
X127002164Y-108999688D01*
X127135817Y-109035500D01*
X127135819Y-109035500D01*
X127274181Y-109035500D01*
X127274183Y-109035500D01*
X127407836Y-108999688D01*
X127527665Y-108930505D01*
X127625505Y-108832665D01*
X127694688Y-108712836D01*
X127721598Y-108612404D01*
X127757962Y-108552746D01*
X127820809Y-108522217D01*
X127841372Y-108520500D01*
X128738261Y-108520500D01*
X128761685Y-108517087D01*
X128806393Y-108510573D01*
X128911483Y-108459198D01*
X128994198Y-108376483D01*
X129036457Y-108290039D01*
X129083585Y-108238457D01*
X129147858Y-108220500D01*
X130734855Y-108220500D01*
X130801894Y-108240185D01*
X130822536Y-108256819D01*
X131540228Y-108974511D01*
X131596177Y-109030460D01*
X131596179Y-109030461D01*
X131596183Y-109030464D01*
X131644593Y-109058413D01*
X131664699Y-109070021D01*
X131741126Y-109090500D01*
X132981089Y-109090500D01*
X133060213Y-109090500D01*
X133280895Y-109090500D01*
X133347934Y-109110185D01*
X133368576Y-109126819D01*
X133374737Y-109132980D01*
X133466063Y-109185707D01*
X133567923Y-109213000D01*
X133567925Y-109213000D01*
X133673375Y-109213000D01*
X133673377Y-109213000D01*
X133775237Y-109185707D01*
X133866563Y-109132980D01*
X133941130Y-109058413D01*
X133993857Y-108967087D01*
X134016547Y-108882404D01*
X134052912Y-108822745D01*
X134115759Y-108792216D01*
X134136322Y-108790499D01*
X134395826Y-108790499D01*
X134395834Y-108790499D01*
X134420436Y-108787646D01*
X134521072Y-108743211D01*
X134524964Y-108739319D01*
X134586287Y-108705834D01*
X134602162Y-108704127D01*
X134602154Y-108704061D01*
X134610210Y-108703000D01*
X134610213Y-108703000D01*
X134686640Y-108682521D01*
X134755162Y-108642960D01*
X134811111Y-108587011D01*
X134971303Y-108426819D01*
X135032626Y-108393334D01*
X135058984Y-108390500D01*
X136475908Y-108390500D01*
X136475910Y-108390500D01*
X136552337Y-108370021D01*
X136620859Y-108330460D01*
X136676808Y-108274511D01*
X137205969Y-107745350D01*
X137267292Y-107711865D01*
X137336984Y-107716849D01*
X137392917Y-107758721D01*
X137417334Y-107824185D01*
X137417650Y-107833031D01*
X137417650Y-108721346D01*
X137397965Y-108788385D01*
X137355652Y-108828731D01*
X137336873Y-108839574D01*
X137328303Y-108844522D01*
X137328300Y-108844524D01*
X137217674Y-108955150D01*
X137217672Y-108955153D01*
X137151353Y-109070021D01*
X137139444Y-109090647D01*
X137098950Y-109241772D01*
X137098950Y-109241774D01*
X137098950Y-109347427D01*
X137079265Y-109414466D01*
X137026461Y-109460221D01*
X136957303Y-109470165D01*
X136893747Y-109441140D01*
X136887269Y-109435108D01*
X136866700Y-109414539D01*
X136866696Y-109414536D01*
X136752741Y-109338393D01*
X136752728Y-109338386D01*
X136626111Y-109285940D01*
X136626099Y-109285937D01*
X136491684Y-109259200D01*
X136491680Y-109259200D01*
X136354620Y-109259200D01*
X136354615Y-109259200D01*
X136220200Y-109285937D01*
X136220188Y-109285940D01*
X136093571Y-109338386D01*
X136093558Y-109338393D01*
X135979603Y-109414536D01*
X135979599Y-109414539D01*
X135882689Y-109511449D01*
X135882686Y-109511453D01*
X135806543Y-109625408D01*
X135806536Y-109625421D01*
X135754090Y-109752038D01*
X135754087Y-109752050D01*
X135727350Y-109886465D01*
X135727350Y-110023534D01*
X135754087Y-110157949D01*
X135754090Y-110157961D01*
X135806536Y-110284578D01*
X135806543Y-110284591D01*
X135882686Y-110398546D01*
X135882689Y-110398550D01*
X135979599Y-110495460D01*
X135979603Y-110495463D01*
X136093558Y-110571606D01*
X136093571Y-110571613D01*
X136191075Y-110612000D01*
X136220193Y-110624061D01*
X136354615Y-110650799D01*
X136354619Y-110650800D01*
X136458650Y-110650800D01*
X136525689Y-110670485D01*
X136571444Y-110723289D01*
X136581534Y-110769674D01*
X136581589Y-110769667D01*
X136581674Y-110770315D01*
X136582650Y-110774800D01*
X136582650Y-110777727D01*
X136609943Y-110879587D01*
X136662670Y-110970913D01*
X136737237Y-111045480D01*
X136828563Y-111098207D01*
X136930423Y-111125500D01*
X136930425Y-111125500D01*
X137035875Y-111125500D01*
X137035877Y-111125500D01*
X137137737Y-111098207D01*
X137199364Y-111062626D01*
X137267261Y-111046153D01*
X137323364Y-111062626D01*
X137328301Y-111065476D01*
X137328303Y-111065478D01*
X137463797Y-111143706D01*
X137614922Y-111184200D01*
X137614925Y-111184200D01*
X137771375Y-111184200D01*
X137771378Y-111184200D01*
X137922503Y-111143706D01*
X138057997Y-111065478D01*
X138168628Y-110954847D01*
X138220763Y-110864546D01*
X138271330Y-110816331D01*
X138339937Y-110803109D01*
X138404802Y-110829077D01*
X138435536Y-110864546D01*
X138487672Y-110954847D01*
X138598303Y-111065478D01*
X138733797Y-111143706D01*
X138884922Y-111184200D01*
X138884925Y-111184200D01*
X139041375Y-111184200D01*
X139041378Y-111184200D01*
X139068184Y-111177017D01*
X139138030Y-111178678D01*
X139195894Y-111217839D01*
X139207662Y-111234788D01*
X139250170Y-111308413D01*
X139324737Y-111382980D01*
X139416063Y-111435707D01*
X139517923Y-111463000D01*
X139517925Y-111463000D01*
X139623375Y-111463000D01*
X139623377Y-111463000D01*
X139725237Y-111435707D01*
X139816563Y-111382980D01*
X139891130Y-111308413D01*
X139943857Y-111217087D01*
X139971150Y-111115227D01*
X139971150Y-111009773D01*
X139943857Y-110907913D01*
X139940712Y-110902465D01*
X140807350Y-110902465D01*
X140807350Y-111039534D01*
X140834087Y-111173949D01*
X140834090Y-111173961D01*
X140886536Y-111300578D01*
X140886543Y-111300591D01*
X140962686Y-111414546D01*
X140962689Y-111414550D01*
X141059599Y-111511460D01*
X141059603Y-111511463D01*
X141173558Y-111587606D01*
X141173571Y-111587613D01*
X141300188Y-111640059D01*
X141300193Y-111640061D01*
X141434615Y-111666799D01*
X141434619Y-111666800D01*
X141434620Y-111666800D01*
X141571681Y-111666800D01*
X141571682Y-111666799D01*
X141706107Y-111640061D01*
X141832735Y-111587610D01*
X141946697Y-111511463D01*
X142043613Y-111414547D01*
X142119760Y-111300585D01*
X142172211Y-111173957D01*
X142198950Y-111039530D01*
X142198950Y-110959773D01*
X144620150Y-110959773D01*
X144620150Y-111065227D01*
X144647443Y-111167087D01*
X144700170Y-111258413D01*
X144774737Y-111332980D01*
X144866063Y-111385707D01*
X144967923Y-111413000D01*
X144967925Y-111413000D01*
X145073375Y-111413000D01*
X145073377Y-111413000D01*
X145175237Y-111385707D01*
X145266563Y-111332980D01*
X145341130Y-111258413D01*
X145393857Y-111167087D01*
X145421150Y-111065227D01*
X145421150Y-110959773D01*
X145393857Y-110857913D01*
X145341130Y-110766587D01*
X145266563Y-110692020D01*
X145178923Y-110641421D01*
X145175239Y-110639294D01*
X145175238Y-110639293D01*
X145175237Y-110639293D01*
X145127757Y-110626571D01*
X150032649Y-110626571D01*
X150057647Y-110752238D01*
X150057649Y-110752244D01*
X150106683Y-110870624D01*
X150106688Y-110870633D01*
X150177873Y-110977168D01*
X150177876Y-110977172D01*
X150268477Y-111067773D01*
X150268481Y-111067776D01*
X150375016Y-111138961D01*
X150375022Y-111138964D01*
X150375023Y-111138965D01*
X150493406Y-111188001D01*
X150493410Y-111188001D01*
X150493411Y-111188002D01*
X150619078Y-111213000D01*
X150619081Y-111213000D01*
X150747221Y-111213000D01*
X150831765Y-111196182D01*
X150872894Y-111188001D01*
X150991277Y-111138965D01*
X151097819Y-111067776D01*
X151188426Y-110977169D01*
X151259615Y-110870627D01*
X151308651Y-110752244D01*
X151317438Y-110708069D01*
X151333650Y-110626571D01*
X151333650Y-110498428D01*
X151308652Y-110372761D01*
X151308651Y-110372760D01*
X151308651Y-110372756D01*
X151259615Y-110254373D01*
X151259614Y-110254372D01*
X151259611Y-110254366D01*
X151188426Y-110147831D01*
X151188423Y-110147827D01*
X151097822Y-110057226D01*
X151097818Y-110057223D01*
X150991283Y-109986038D01*
X150991274Y-109986033D01*
X150872894Y-109936999D01*
X150872888Y-109936997D01*
X150747221Y-109912000D01*
X150747219Y-109912000D01*
X150619081Y-109912000D01*
X150619079Y-109912000D01*
X150493411Y-109936997D01*
X150493405Y-109936999D01*
X150375025Y-109986033D01*
X150375016Y-109986038D01*
X150268481Y-110057223D01*
X150268477Y-110057226D01*
X150177876Y-110147827D01*
X150177873Y-110147831D01*
X150106688Y-110254366D01*
X150106683Y-110254375D01*
X150057649Y-110372755D01*
X150057647Y-110372761D01*
X150032650Y-110498428D01*
X150032650Y-110498431D01*
X150032650Y-110626569D01*
X150032650Y-110626571D01*
X150032649Y-110626571D01*
X145127757Y-110626571D01*
X145073377Y-110612000D01*
X144967923Y-110612000D01*
X144866063Y-110639293D01*
X144866060Y-110639294D01*
X144774735Y-110692021D01*
X144700171Y-110766585D01*
X144647444Y-110857910D01*
X144647443Y-110857913D01*
X144620150Y-110959773D01*
X142198950Y-110959773D01*
X142198950Y-110902470D01*
X142172211Y-110768043D01*
X142160744Y-110740358D01*
X142119763Y-110641421D01*
X142119756Y-110641408D01*
X142043613Y-110527453D01*
X142043610Y-110527449D01*
X141946700Y-110430539D01*
X141946696Y-110430536D01*
X141832741Y-110354393D01*
X141832728Y-110354386D01*
X141706111Y-110301940D01*
X141706099Y-110301937D01*
X141571684Y-110275200D01*
X141571680Y-110275200D01*
X141434620Y-110275200D01*
X141434615Y-110275200D01*
X141300200Y-110301937D01*
X141300188Y-110301940D01*
X141173571Y-110354386D01*
X141173558Y-110354393D01*
X141059603Y-110430536D01*
X141059599Y-110430539D01*
X140962689Y-110527449D01*
X140962686Y-110527453D01*
X140886543Y-110641408D01*
X140886536Y-110641421D01*
X140834090Y-110768038D01*
X140834087Y-110768050D01*
X140807350Y-110902465D01*
X139940712Y-110902465D01*
X139891130Y-110816587D01*
X139864667Y-110790124D01*
X139856502Y-110775973D01*
X139851966Y-110757257D01*
X139842739Y-110740358D01*
X139843908Y-110724004D01*
X139840047Y-110708069D01*
X139846349Y-110689874D01*
X139847723Y-110670666D01*
X139857550Y-110657538D01*
X139862916Y-110642048D01*
X139878054Y-110630149D01*
X139889595Y-110614733D01*
X139904957Y-110609003D01*
X139917848Y-110598871D01*
X139937016Y-110597045D01*
X139955059Y-110590316D01*
X139963905Y-110590000D01*
X140233150Y-110590000D01*
X140233150Y-110030309D01*
X140252835Y-109963270D01*
X140305639Y-109917515D01*
X140325049Y-109910536D01*
X140462503Y-109873706D01*
X140597997Y-109795478D01*
X140708628Y-109684847D01*
X140786856Y-109549353D01*
X140803676Y-109486576D01*
X140840039Y-109426920D01*
X140902886Y-109396390D01*
X140972262Y-109404684D01*
X141011131Y-109430992D01*
X141059599Y-109479460D01*
X141059603Y-109479463D01*
X141173558Y-109555606D01*
X141173571Y-109555613D01*
X141300188Y-109608059D01*
X141300193Y-109608061D01*
X141434615Y-109634799D01*
X141434619Y-109634800D01*
X141434620Y-109634800D01*
X141571681Y-109634800D01*
X141571682Y-109634799D01*
X141706107Y-109608061D01*
X141832735Y-109555610D01*
X141946697Y-109479463D01*
X142043613Y-109382547D01*
X142119760Y-109268585D01*
X142172211Y-109141957D01*
X142198950Y-109007530D01*
X142198950Y-108870470D01*
X142172211Y-108736043D01*
X142170921Y-108732928D01*
X142119763Y-108609421D01*
X142119756Y-108609408D01*
X142043613Y-108495453D01*
X142043610Y-108495449D01*
X141946700Y-108398539D01*
X141946696Y-108398536D01*
X141832741Y-108322393D01*
X141832728Y-108322386D01*
X141706111Y-108269940D01*
X141706099Y-108269937D01*
X141571684Y-108243200D01*
X141571680Y-108243200D01*
X141434620Y-108243200D01*
X141434615Y-108243200D01*
X141300200Y-108269937D01*
X141300188Y-108269940D01*
X141173571Y-108322386D01*
X141173558Y-108322393D01*
X141059603Y-108398536D01*
X141059599Y-108398539D01*
X140962689Y-108495449D01*
X140962686Y-108495453D01*
X140886543Y-108609408D01*
X140886536Y-108609421D01*
X140834090Y-108736038D01*
X140834087Y-108736050D01*
X140822179Y-108795916D01*
X140789794Y-108857827D01*
X140729079Y-108892401D01*
X140659309Y-108888662D01*
X140630603Y-108874105D01*
X140621056Y-108867581D01*
X140597997Y-108844522D01*
X140529087Y-108804736D01*
X140525191Y-108802074D01*
X140505929Y-108778533D01*
X140484933Y-108756512D01*
X140483677Y-108751337D01*
X140480946Y-108747999D01*
X140479212Y-108732928D01*
X140471150Y-108699694D01*
X140471150Y-106597701D01*
X140471149Y-106597697D01*
X140463067Y-106578185D01*
X140461543Y-106564012D01*
X140455326Y-106551184D01*
X140457882Y-106529965D01*
X140455598Y-106508716D01*
X140461978Y-106495968D01*
X140463684Y-106481816D01*
X140477306Y-106465347D01*
X140486873Y-106446236D01*
X140499990Y-106437924D01*
X140508218Y-106427978D01*
X140530080Y-106418857D01*
X140539979Y-106412586D01*
X140554373Y-106407999D01*
X140559050Y-106407999D01*
X140635767Y-106392740D01*
X140666318Y-106372326D01*
X140683001Y-106367010D01*
X140701129Y-106366594D01*
X140718433Y-106361176D01*
X140735331Y-106365811D01*
X140752852Y-106365410D01*
X140768327Y-106374862D01*
X140785814Y-106379659D01*
X140789521Y-106382041D01*
X140789861Y-106382268D01*
X140805533Y-106392740D01*
X140805537Y-106392741D01*
X140830463Y-106397699D01*
X140882249Y-106408000D01*
X141059050Y-106407999D01*
X141135767Y-106392740D01*
X141151757Y-106382055D01*
X141218433Y-106361176D01*
X141285814Y-106379659D01*
X141289521Y-106382041D01*
X141289861Y-106382268D01*
X141305533Y-106392740D01*
X141305537Y-106392741D01*
X141330463Y-106397699D01*
X141382249Y-106408000D01*
X141559050Y-106407999D01*
X141635767Y-106392740D01*
X141651757Y-106382055D01*
X141718433Y-106361176D01*
X141785814Y-106379659D01*
X141789521Y-106382041D01*
X141789861Y-106382268D01*
X141805533Y-106392740D01*
X141805537Y-106392741D01*
X141830463Y-106397699D01*
X141882249Y-106408000D01*
X142046149Y-106407999D01*
X142054835Y-106410549D01*
X142063797Y-106409261D01*
X142087834Y-106420238D01*
X142113189Y-106427683D01*
X142119117Y-106434525D01*
X142127353Y-106438286D01*
X142141639Y-106460517D01*
X142158944Y-106480487D01*
X142161231Y-106491002D01*
X142165127Y-106497064D01*
X142170150Y-106531999D01*
X142170150Y-106606728D01*
X142165925Y-106638820D01*
X142145151Y-106716350D01*
X142145151Y-106808649D01*
X142169034Y-106897785D01*
X142169035Y-106897786D01*
X142169036Y-106897788D01*
X142173737Y-106905931D01*
X142215177Y-106977708D01*
X142215181Y-106977713D01*
X142573831Y-107336363D01*
X142607316Y-107397686D01*
X142610150Y-107424043D01*
X142610150Y-107637394D01*
X142610151Y-107637400D01*
X142616678Y-107686987D01*
X142616679Y-107686989D01*
X142616679Y-107686990D01*
X142628643Y-107712646D01*
X142667426Y-107795816D01*
X142752334Y-107880724D01*
X142861163Y-107931472D01*
X142910749Y-107938000D01*
X143330550Y-107937999D01*
X143380137Y-107931472D01*
X143488966Y-107880724D01*
X143520469Y-107849221D01*
X143581792Y-107815736D01*
X143651484Y-107820720D01*
X143695831Y-107849221D01*
X143727334Y-107880724D01*
X143836163Y-107931472D01*
X143885749Y-107938000D01*
X144305550Y-107937999D01*
X144355137Y-107931472D01*
X144463966Y-107880724D01*
X144463973Y-107880717D01*
X144469973Y-107876517D01*
X144536178Y-107854189D01*
X144603946Y-107871198D01*
X144651760Y-107922145D01*
X144659027Y-107939768D01*
X144660928Y-107945619D01*
X144660930Y-107945624D01*
X144660931Y-107945626D01*
X144722122Y-108065720D01*
X144722123Y-108065721D01*
X144722126Y-108065725D01*
X144817424Y-108161023D01*
X144817428Y-108161026D01*
X144817430Y-108161028D01*
X144937524Y-108222219D01*
X144937526Y-108222219D01*
X144937528Y-108222220D01*
X145037157Y-108238000D01*
X145607684Y-108238000D01*
X145637124Y-108246644D01*
X145667111Y-108253168D01*
X145672126Y-108256922D01*
X145674723Y-108257685D01*
X145695365Y-108274319D01*
X145756645Y-108335599D01*
X145788738Y-108391184D01*
X145800850Y-108436384D01*
X145800850Y-108436385D01*
X145825037Y-108478277D01*
X145860161Y-108539113D01*
X145944037Y-108622989D01*
X146046764Y-108682299D01*
X146161341Y-108713000D01*
X146161344Y-108713000D01*
X146279957Y-108713000D01*
X146279959Y-108713000D01*
X146285665Y-108711471D01*
X146355512Y-108713128D01*
X146413377Y-108752286D01*
X146440886Y-108816513D01*
X146429305Y-108885416D01*
X146391398Y-108931013D01*
X146311000Y-108990350D01*
X146230357Y-109099617D01*
X146230356Y-109099619D01*
X146185503Y-109227798D01*
X146185503Y-109227800D01*
X146182650Y-109258230D01*
X146182650Y-110066769D01*
X146185503Y-110097199D01*
X146185503Y-110097201D01*
X146230277Y-110225153D01*
X146230357Y-110225382D01*
X146311000Y-110334650D01*
X146420268Y-110415293D01*
X146462995Y-110430244D01*
X146548449Y-110460146D01*
X146578880Y-110463000D01*
X146578884Y-110463000D01*
X148387420Y-110463000D01*
X148417849Y-110460146D01*
X148417851Y-110460146D01*
X148502461Y-110430539D01*
X148546032Y-110415293D01*
X148655300Y-110334650D01*
X148735943Y-110225382D01*
X148763081Y-110147827D01*
X148780796Y-110097201D01*
X148780796Y-110097199D01*
X148783650Y-110066769D01*
X148783650Y-109258230D01*
X148780796Y-109227800D01*
X148780796Y-109227798D01*
X148745461Y-109126819D01*
X148735943Y-109099618D01*
X148655300Y-108990350D01*
X148546032Y-108909707D01*
X148546030Y-108909706D01*
X148417850Y-108864853D01*
X148387420Y-108862000D01*
X148387416Y-108862000D01*
X147852470Y-108862000D01*
X147785431Y-108842315D01*
X147739676Y-108789511D01*
X147737909Y-108785453D01*
X147711435Y-108721541D01*
X147695514Y-108683103D01*
X147625047Y-108612636D01*
X147552011Y-108539600D01*
X147518526Y-108478277D01*
X147519919Y-108419820D01*
X147521150Y-108415227D01*
X147521150Y-108309773D01*
X147493857Y-108207913D01*
X147459842Y-108148997D01*
X147443370Y-108081101D01*
X147466222Y-108015074D01*
X147521143Y-107971883D01*
X147567230Y-107963000D01*
X148387420Y-107963000D01*
X148417849Y-107960146D01*
X148417851Y-107960146D01*
X148481940Y-107937719D01*
X148546032Y-107915293D01*
X148655300Y-107834650D01*
X148735943Y-107725382D01*
X148779608Y-107600595D01*
X148780796Y-107597201D01*
X148780796Y-107597199D01*
X148783650Y-107566769D01*
X148783650Y-106758230D01*
X148780796Y-106727800D01*
X148780796Y-106727798D01*
X148746394Y-106629485D01*
X148735943Y-106599618D01*
X148655300Y-106490350D01*
X148546032Y-106409707D01*
X148546030Y-106409706D01*
X148417850Y-106364853D01*
X148387420Y-106362000D01*
X148387416Y-106362000D01*
X148367230Y-106362000D01*
X148300191Y-106342315D01*
X148254436Y-106289511D01*
X148244492Y-106220353D01*
X148259841Y-106176004D01*
X148293857Y-106117087D01*
X148321150Y-106015227D01*
X148321150Y-105909773D01*
X148293857Y-105807913D01*
X148241130Y-105716587D01*
X148166563Y-105642020D01*
X148075237Y-105589293D01*
X147973377Y-105562000D01*
X147867923Y-105562000D01*
X147766063Y-105589293D01*
X147766060Y-105589294D01*
X147674735Y-105642021D01*
X147600171Y-105716585D01*
X147547444Y-105807910D01*
X147547443Y-105807913D01*
X147520150Y-105909773D01*
X147520150Y-105957377D01*
X147500465Y-106024416D01*
X147483831Y-106045058D01*
X147270787Y-106258101D01*
X147270785Y-106258103D01*
X147259458Y-106285452D01*
X147215618Y-106339856D01*
X147149324Y-106361921D01*
X147144897Y-106362000D01*
X146578880Y-106362000D01*
X146548450Y-106364853D01*
X146548448Y-106364853D01*
X146420269Y-106409706D01*
X146420267Y-106409707D01*
X146311000Y-106490350D01*
X146230357Y-106599617D01*
X146230356Y-106599619D01*
X146185503Y-106727798D01*
X146185503Y-106727800D01*
X146182650Y-106758230D01*
X146182650Y-107109876D01*
X146162965Y-107176915D01*
X146110161Y-107222670D01*
X146041003Y-107232614D01*
X145977447Y-107203589D01*
X145948165Y-107166171D01*
X145919178Y-107109280D01*
X145919174Y-107109276D01*
X145919173Y-107109274D01*
X145823875Y-107013976D01*
X145823871Y-107013973D01*
X145823870Y-107013972D01*
X145703776Y-106952781D01*
X145703774Y-106952780D01*
X145703771Y-106952779D01*
X145604143Y-106937000D01*
X145604138Y-106937000D01*
X145525455Y-106937000D01*
X145458416Y-106917315D01*
X145412661Y-106864511D01*
X145402717Y-106795353D01*
X145423882Y-106741874D01*
X145426369Y-106738320D01*
X145426374Y-106738316D01*
X145477122Y-106629487D01*
X145483650Y-106579901D01*
X145483649Y-106160100D01*
X145477122Y-106110513D01*
X145426374Y-106001684D01*
X145389969Y-105965279D01*
X145375265Y-105938351D01*
X145358673Y-105912533D01*
X145357781Y-105906332D01*
X145356484Y-105903956D01*
X145353650Y-105877598D01*
X145353650Y-105694500D01*
X145373335Y-105627461D01*
X145426139Y-105581706D01*
X145477650Y-105570500D01*
X145706411Y-105570500D01*
X145729121Y-105567191D01*
X145774543Y-105560573D01*
X145879633Y-105509198D01*
X145962348Y-105426483D01*
X146013723Y-105321393D01*
X146023650Y-105253260D01*
X146023650Y-104886740D01*
X146013723Y-104818607D01*
X145962348Y-104713517D01*
X145962346Y-104713515D01*
X145962346Y-104713514D01*
X145879635Y-104630803D01*
X145877051Y-104629540D01*
X145774543Y-104579427D01*
X145774541Y-104579426D01*
X145706411Y-104569500D01*
X145706410Y-104569500D01*
X145248983Y-104569500D01*
X145219542Y-104560855D01*
X145189556Y-104554332D01*
X145184540Y-104550577D01*
X145181944Y-104549815D01*
X145161302Y-104533181D01*
X145085802Y-104457681D01*
X145052317Y-104396358D01*
X145057301Y-104326666D01*
X145085802Y-104282319D01*
X145161302Y-104206819D01*
X145222625Y-104173334D01*
X145248983Y-104170500D01*
X145706411Y-104170500D01*
X145729121Y-104167191D01*
X145774543Y-104160573D01*
X145879633Y-104109198D01*
X145962348Y-104026483D01*
X146013723Y-103921393D01*
X146023650Y-103853260D01*
X146023650Y-103826571D01*
X150032649Y-103826571D01*
X150057647Y-103952238D01*
X150057649Y-103952244D01*
X150106683Y-104070624D01*
X150106688Y-104070633D01*
X150177873Y-104177168D01*
X150177876Y-104177172D01*
X150268477Y-104267773D01*
X150268481Y-104267776D01*
X150375016Y-104338961D01*
X150375022Y-104338964D01*
X150375023Y-104338965D01*
X150493406Y-104388001D01*
X150493410Y-104388001D01*
X150493411Y-104388002D01*
X150619078Y-104413000D01*
X150619081Y-104413000D01*
X150747221Y-104413000D01*
X150831765Y-104396182D01*
X150872894Y-104388001D01*
X150991277Y-104338965D01*
X151097819Y-104267776D01*
X151188426Y-104177169D01*
X151259615Y-104070627D01*
X151308651Y-103952244D01*
X151317863Y-103905932D01*
X151333650Y-103826571D01*
X151333650Y-103698428D01*
X151308652Y-103572761D01*
X151308651Y-103572760D01*
X151308651Y-103572756D01*
X151259615Y-103454373D01*
X151259614Y-103454372D01*
X151259611Y-103454366D01*
X151188426Y-103347831D01*
X151188423Y-103347827D01*
X151097822Y-103257226D01*
X151097818Y-103257223D01*
X150991283Y-103186038D01*
X150991274Y-103186033D01*
X150872894Y-103136999D01*
X150872888Y-103136997D01*
X150747221Y-103112000D01*
X150747219Y-103112000D01*
X150619081Y-103112000D01*
X150619079Y-103112000D01*
X150493411Y-103136997D01*
X150493405Y-103136999D01*
X150375025Y-103186033D01*
X150375016Y-103186038D01*
X150268481Y-103257223D01*
X150268477Y-103257226D01*
X150177876Y-103347827D01*
X150177873Y-103347831D01*
X150106688Y-103454366D01*
X150106683Y-103454375D01*
X150057649Y-103572755D01*
X150057647Y-103572761D01*
X150032650Y-103698428D01*
X150032650Y-103698431D01*
X150032650Y-103826569D01*
X150032650Y-103826571D01*
X150032649Y-103826571D01*
X146023650Y-103826571D01*
X146023650Y-103486740D01*
X146013723Y-103418607D01*
X145962348Y-103313517D01*
X145962346Y-103313515D01*
X145962346Y-103313514D01*
X145879635Y-103230803D01*
X145774541Y-103179426D01*
X145706411Y-103169500D01*
X145706410Y-103169500D01*
X145477650Y-103169500D01*
X145468964Y-103166949D01*
X145460003Y-103168238D01*
X145435962Y-103157259D01*
X145410611Y-103149815D01*
X145404683Y-103142974D01*
X145396447Y-103139213D01*
X145382157Y-103116978D01*
X145364856Y-103097011D01*
X145362568Y-103086496D01*
X145358673Y-103080435D01*
X145353650Y-103045500D01*
X145353650Y-102902402D01*
X145373335Y-102835363D01*
X145389969Y-102814721D01*
X145405508Y-102799182D01*
X145426374Y-102778316D01*
X145477122Y-102669487D01*
X145483650Y-102619901D01*
X145483649Y-102200100D01*
X145477122Y-102150513D01*
X145426374Y-102041684D01*
X145426373Y-102041683D01*
X145425311Y-102039405D01*
X145414819Y-101970328D01*
X145443338Y-101906544D01*
X145501815Y-101868304D01*
X145537693Y-101863000D01*
X146102976Y-101863000D01*
X146102978Y-101863000D01*
X146195047Y-101824864D01*
X146440592Y-101579317D01*
X146467519Y-101564614D01*
X146493338Y-101548022D01*
X146499538Y-101547130D01*
X146501915Y-101545833D01*
X146528273Y-101542999D01*
X146546150Y-101542999D01*
X146613189Y-101562684D01*
X146658944Y-101615488D01*
X146670150Y-101666999D01*
X146670150Y-102895245D01*
X146650465Y-102962284D01*
X146633831Y-102982926D01*
X146600171Y-103016585D01*
X146547444Y-103107910D01*
X146547443Y-103107913D01*
X146520150Y-103209773D01*
X146520150Y-103315227D01*
X146540579Y-103391468D01*
X146547443Y-103417086D01*
X146547444Y-103417089D01*
X146548321Y-103418608D01*
X146600170Y-103508413D01*
X146674737Y-103582980D01*
X146766063Y-103635707D01*
X146867923Y-103663000D01*
X146867925Y-103663000D01*
X146973375Y-103663000D01*
X146973377Y-103663000D01*
X147075237Y-103635707D01*
X147166563Y-103582980D01*
X147241130Y-103508413D01*
X147293857Y-103417087D01*
X147321150Y-103315227D01*
X147321150Y-103209773D01*
X147293857Y-103107913D01*
X147241130Y-103016587D01*
X147207469Y-102982926D01*
X147173984Y-102921603D01*
X147171150Y-102895245D01*
X147171150Y-102124551D01*
X147190835Y-102057512D01*
X147243639Y-102011757D01*
X147312797Y-102001813D01*
X147357149Y-102017163D01*
X147377464Y-102028892D01*
X147504758Y-102063000D01*
X147504760Y-102063000D01*
X147636540Y-102063000D01*
X147636542Y-102063000D01*
X147763836Y-102028892D01*
X147877964Y-101963000D01*
X147971150Y-101869814D01*
X147971152Y-101869809D01*
X147971765Y-101869197D01*
X148033088Y-101835712D01*
X148102780Y-101840696D01*
X148115742Y-101846393D01*
X148119927Y-101848525D01*
X148119930Y-101848528D01*
X148240024Y-101909719D01*
X148240026Y-101909719D01*
X148240028Y-101909720D01*
X148339657Y-101925500D01*
X148339662Y-101925500D01*
X148856643Y-101925500D01*
X148956271Y-101909720D01*
X148956271Y-101909719D01*
X148956276Y-101909719D01*
X149076370Y-101848528D01*
X149171678Y-101753220D01*
X149232869Y-101633126D01*
X149235663Y-101615488D01*
X149248650Y-101533493D01*
X149248650Y-101075833D01*
X149268335Y-101008794D01*
X149284969Y-100988152D01*
X149487234Y-100785887D01*
X149693610Y-100579511D01*
X149733172Y-100510988D01*
X149753650Y-100434562D01*
X149753650Y-100355438D01*
X149753650Y-100250795D01*
X149763089Y-100203342D01*
X149763386Y-100202621D01*
X149763390Y-100202617D01*
X149778650Y-100125901D01*
X149778649Y-99294499D01*
X149798333Y-99227461D01*
X149851137Y-99181706D01*
X149902649Y-99170500D01*
X150695895Y-99170500D01*
X150762934Y-99190185D01*
X150783576Y-99206819D01*
X150792237Y-99215480D01*
X150883563Y-99268207D01*
X150985423Y-99295500D01*
X150985425Y-99295500D01*
X151090875Y-99295500D01*
X151090877Y-99295500D01*
X151192737Y-99268207D01*
X151284063Y-99215480D01*
X151358630Y-99140913D01*
X151411357Y-99049587D01*
X151438650Y-98947727D01*
X151438650Y-98842273D01*
X151411357Y-98740413D01*
X151358630Y-98649087D01*
X151284063Y-98574520D01*
X151197580Y-98524589D01*
X151192739Y-98521794D01*
X151192738Y-98521793D01*
X151192737Y-98521793D01*
X151090877Y-98494500D01*
X150985423Y-98494500D01*
X150985418Y-98494500D01*
X150934740Y-98508079D01*
X150864890Y-98506415D01*
X150807028Y-98467252D01*
X150779526Y-98403023D01*
X150778649Y-98388318D01*
X150778649Y-97654100D01*
X150763390Y-97577383D01*
X150763388Y-97577380D01*
X150763388Y-97577379D01*
X150763087Y-97576651D01*
X150753650Y-97529203D01*
X150753650Y-96990615D01*
X150767165Y-96934320D01*
X150772869Y-96923126D01*
X150772869Y-96923124D01*
X150772870Y-96923123D01*
X150788650Y-96823493D01*
X150788650Y-96256506D01*
X150772870Y-96156878D01*
X150772869Y-96156876D01*
X150772869Y-96156874D01*
X150711678Y-96036780D01*
X150711676Y-96036778D01*
X150711673Y-96036774D01*
X150616375Y-95941476D01*
X150616371Y-95941473D01*
X150616370Y-95941472D01*
X150496276Y-95880281D01*
X150496273Y-95880280D01*
X150496272Y-95880280D01*
X150492232Y-95879640D01*
X150487715Y-95877498D01*
X150486990Y-95877263D01*
X150487020Y-95877169D01*
X150429098Y-95849708D01*
X150392169Y-95790395D01*
X150393169Y-95720533D01*
X150404245Y-95695170D01*
X150427042Y-95655686D01*
X150461150Y-95528392D01*
X150461150Y-95396608D01*
X150427042Y-95269314D01*
X150361150Y-95155186D01*
X150267964Y-95062000D01*
X150178168Y-95010156D01*
X150153837Y-94996108D01*
X150090189Y-94979054D01*
X150026542Y-94962000D01*
X149894758Y-94962000D01*
X149767462Y-94996108D01*
X149653336Y-95062000D01*
X149653333Y-95062002D01*
X149560152Y-95155183D01*
X149560150Y-95155186D01*
X149494258Y-95269312D01*
X149474800Y-95341933D01*
X149460150Y-95396608D01*
X149460150Y-95528392D01*
X149461951Y-95535112D01*
X149494258Y-95655687D01*
X149508434Y-95680240D01*
X149560150Y-95769814D01*
X149560152Y-95769816D01*
X149573831Y-95783495D01*
X149588534Y-95810422D01*
X149605127Y-95836241D01*
X149606018Y-95842441D01*
X149607316Y-95844818D01*
X149610150Y-95871176D01*
X149610150Y-95939889D01*
X149590465Y-96006928D01*
X149573831Y-96027570D01*
X149564626Y-96036774D01*
X149564623Y-96036778D01*
X149503429Y-96156878D01*
X149487650Y-96256506D01*
X149487650Y-96823493D01*
X149503429Y-96923121D01*
X149503430Y-96923124D01*
X149503431Y-96923126D01*
X149544381Y-97003494D01*
X149564623Y-97043221D01*
X149616330Y-97094928D01*
X149631034Y-97121856D01*
X149647627Y-97147675D01*
X149648518Y-97153874D01*
X149649816Y-97156251D01*
X149652650Y-97182610D01*
X149652650Y-97293000D01*
X149632965Y-97360039D01*
X149580161Y-97405794D01*
X149528651Y-97417000D01*
X149364751Y-97417000D01*
X149288030Y-97432260D01*
X149272039Y-97442946D01*
X149205362Y-97463823D01*
X149137982Y-97445337D01*
X149134261Y-97442946D01*
X149118267Y-97432259D01*
X149041553Y-97417000D01*
X148864751Y-97417000D01*
X148788030Y-97432260D01*
X148772039Y-97442946D01*
X148705362Y-97463823D01*
X148637982Y-97445337D01*
X148634261Y-97442946D01*
X148618267Y-97432259D01*
X148541553Y-97417000D01*
X148364751Y-97417000D01*
X148288031Y-97432260D01*
X148288029Y-97432261D01*
X148201038Y-97490388D01*
X148142910Y-97577383D01*
X148142908Y-97577387D01*
X148127650Y-97654094D01*
X148127650Y-97939166D01*
X148119005Y-97968606D01*
X148112482Y-97998593D01*
X148108727Y-98003608D01*
X148107965Y-98006205D01*
X148091331Y-98026847D01*
X148025331Y-98092847D01*
X147964008Y-98126332D01*
X147894316Y-98121348D01*
X147838383Y-98079476D01*
X147813966Y-98014012D01*
X147813650Y-98005166D01*
X147813650Y-97890201D01*
X147813650Y-97890200D01*
X147771707Y-97788942D01*
X147694208Y-97711443D01*
X147544208Y-97561443D01*
X147544207Y-97561442D01*
X147540481Y-97559899D01*
X147540481Y-97559898D01*
X147442952Y-97519500D01*
X147442950Y-97519500D01*
X146943560Y-97519500D01*
X146914119Y-97510855D01*
X146884133Y-97504332D01*
X146879117Y-97500577D01*
X146876521Y-97499815D01*
X146855879Y-97483181D01*
X146834969Y-97462271D01*
X146801484Y-97400948D01*
X146798650Y-97374590D01*
X146798650Y-97145201D01*
X146798650Y-97145200D01*
X146756707Y-97043942D01*
X146679208Y-96966443D01*
X146519969Y-96807204D01*
X146486484Y-96745881D01*
X146483650Y-96719523D01*
X146483650Y-96465683D01*
X146477218Y-96416828D01*
X146475433Y-96413000D01*
X146427215Y-96309596D01*
X146343554Y-96225935D01*
X146236323Y-96175932D01*
X146236321Y-96175931D01*
X146236322Y-96175931D01*
X146187467Y-96169500D01*
X146187466Y-96169500D01*
X145838834Y-96169500D01*
X145838833Y-96169500D01*
X145789978Y-96175931D01*
X145682745Y-96225935D01*
X145591414Y-96317267D01*
X145588590Y-96314443D01*
X145550108Y-96345183D01*
X145480608Y-96352352D01*
X145418264Y-96320808D01*
X145415051Y-96317101D01*
X145414886Y-96317267D01*
X145323554Y-96225935D01*
X145300591Y-96215227D01*
X145216323Y-96175932D01*
X145216321Y-96175931D01*
X145216322Y-96175931D01*
X145167467Y-96169500D01*
X145167466Y-96169500D01*
X144818834Y-96169500D01*
X144818833Y-96169500D01*
X144769977Y-96175931D01*
X144769976Y-96175931D01*
X144728195Y-96195415D01*
X144659118Y-96205907D01*
X144613792Y-96190420D01*
X144525237Y-96139293D01*
X144423377Y-96112000D01*
X144317923Y-96112000D01*
X144216063Y-96139293D01*
X144216060Y-96139294D01*
X144124735Y-96192021D01*
X144050171Y-96266585D01*
X143997444Y-96357910D01*
X143997443Y-96357913D01*
X143970150Y-96459773D01*
X143970150Y-96565227D01*
X143997443Y-96667087D01*
X144044379Y-96748383D01*
X144050171Y-96758414D01*
X144083831Y-96792074D01*
X144117316Y-96853397D01*
X144120150Y-96879755D01*
X144120150Y-97887051D01*
X144100465Y-97954090D01*
X144047661Y-97999845D01*
X143978503Y-98009789D01*
X143954148Y-98003721D01*
X143943732Y-97999971D01*
X143925237Y-97989293D01*
X143881574Y-97977593D01*
X143876686Y-97975834D01*
X143859649Y-97963382D01*
X143831007Y-97946845D01*
X143163106Y-97278944D01*
X143163105Y-97278943D01*
X143163103Y-97278942D01*
X143151552Y-97274157D01*
X143061847Y-97237000D01*
X142425450Y-97237000D01*
X142315850Y-97237000D01*
X142315848Y-97237000D01*
X142315846Y-97237001D01*
X142214594Y-97278939D01*
X142214592Y-97278941D01*
X142051529Y-97442005D01*
X141990206Y-97475490D01*
X141920514Y-97470506D01*
X141876167Y-97442005D01*
X141613106Y-97178944D01*
X141613105Y-97178943D01*
X141589173Y-97169030D01*
X141511847Y-97137000D01*
X141029453Y-97137000D01*
X141029452Y-97137000D01*
X140995833Y-97150926D01*
X140960045Y-97165750D01*
X140960043Y-97165751D01*
X140928194Y-97178942D01*
X140456457Y-97650681D01*
X140395134Y-97684166D01*
X140368776Y-97687000D01*
X140083004Y-97687000D01*
X140050911Y-97682775D01*
X139981561Y-97664193D01*
X139973377Y-97662000D01*
X139867923Y-97662000D01*
X139865953Y-97662528D01*
X139859739Y-97664193D01*
X139789889Y-97662528D01*
X139732028Y-97623364D01*
X139704526Y-97559135D01*
X139703649Y-97544433D01*
X139703649Y-97217964D01*
X139723334Y-97150926D01*
X139739968Y-97130284D01*
X139827032Y-97043220D01*
X139967296Y-96902957D01*
X140026605Y-96800230D01*
X140057306Y-96685653D01*
X140057306Y-96454306D01*
X140029285Y-96349730D01*
X140026605Y-96339728D01*
X139967295Y-96237001D01*
X139883410Y-96153116D01*
X139812196Y-96112000D01*
X139780682Y-96093805D01*
X139775502Y-96091660D01*
X139721098Y-96047819D01*
X139699032Y-95981526D01*
X139716310Y-95913826D01*
X139735273Y-95889416D01*
X139736374Y-95888316D01*
X139787122Y-95779487D01*
X139793650Y-95729901D01*
X139793649Y-95310100D01*
X139787122Y-95260513D01*
X139736374Y-95151684D01*
X139736367Y-95151677D01*
X139731083Y-95144130D01*
X139708754Y-95077924D01*
X139725762Y-95010156D01*
X139744976Y-94985321D01*
X139772784Y-94957513D01*
X139772786Y-94957511D01*
X139823795Y-94853170D01*
X139833650Y-94785528D01*
X139833650Y-94424472D01*
X139823795Y-94356830D01*
X139772786Y-94252489D01*
X139772784Y-94252487D01*
X139772784Y-94252486D01*
X139727979Y-94207681D01*
X139694494Y-94146358D01*
X139699478Y-94076666D01*
X139727979Y-94032319D01*
X139772784Y-93987513D01*
X139772786Y-93987511D01*
X139823795Y-93883170D01*
X139833650Y-93815528D01*
X139833650Y-93454472D01*
X139823795Y-93386830D01*
X139772786Y-93282489D01*
X139772784Y-93282487D01*
X139772784Y-93282486D01*
X139744975Y-93254677D01*
X139711490Y-93193354D01*
X139716474Y-93123662D01*
X139731085Y-93095866D01*
X139736364Y-93088325D01*
X139736374Y-93088316D01*
X139787122Y-92979487D01*
X139793650Y-92929901D01*
X139793649Y-92510100D01*
X139787122Y-92460513D01*
X139736374Y-92351684D01*
X139680669Y-92295979D01*
X139665965Y-92269051D01*
X139649373Y-92243233D01*
X139648481Y-92237032D01*
X139647184Y-92234656D01*
X139644350Y-92208298D01*
X139644350Y-92120478D01*
X139664035Y-92053439D01*
X139664036Y-92053438D01*
X139699459Y-92017376D01*
X139788518Y-91957868D01*
X139788519Y-91957867D01*
X139848028Y-91868806D01*
X139863650Y-91790269D01*
X139863649Y-91599732D01*
X139848028Y-91521194D01*
X139810210Y-91464596D01*
X139788518Y-91432131D01*
X139722970Y-91388334D01*
X139699456Y-91372622D01*
X139699454Y-91372621D01*
X139699451Y-91372620D01*
X139620921Y-91357000D01*
X139005384Y-91357000D01*
X138926843Y-91372622D01*
X138837781Y-91432131D01*
X138778272Y-91521194D01*
X138778270Y-91521198D01*
X138762650Y-91599727D01*
X138762650Y-91790265D01*
X138778272Y-91868806D01*
X138823585Y-91936622D01*
X138837782Y-91957868D01*
X138926842Y-92017377D01*
X138931931Y-92023465D01*
X138939153Y-92026764D01*
X138954014Y-92049889D01*
X138971646Y-92070986D01*
X138973598Y-92080362D01*
X138976927Y-92085542D01*
X138981950Y-92120477D01*
X138981950Y-92208298D01*
X138962265Y-92275337D01*
X138945631Y-92295979D01*
X138889926Y-92351683D01*
X138839177Y-92460514D01*
X138832650Y-92510098D01*
X138832650Y-92929894D01*
X138832651Y-92929900D01*
X138839178Y-92979487D01*
X138839179Y-92979489D01*
X138839179Y-92979490D01*
X138889927Y-93088318D01*
X138895216Y-93095871D01*
X138917545Y-93162076D01*
X138900536Y-93229844D01*
X138881325Y-93254676D01*
X138853515Y-93282486D01*
X138802505Y-93386828D01*
X138799689Y-93406156D01*
X138792650Y-93454472D01*
X138792650Y-93815528D01*
X138800745Y-93871089D01*
X138802505Y-93883171D01*
X138853515Y-93987513D01*
X138898321Y-94032319D01*
X138931806Y-94093642D01*
X138926822Y-94163334D01*
X138898321Y-94207681D01*
X138853515Y-94252486D01*
X138802505Y-94356828D01*
X138802505Y-94356830D01*
X138792650Y-94424472D01*
X138792650Y-94424477D01*
X138792650Y-94439459D01*
X138772965Y-94506498D01*
X138720161Y-94552253D01*
X138651003Y-94562197D01*
X138587447Y-94533172D01*
X138561263Y-94501459D01*
X138541130Y-94466587D01*
X138466563Y-94392020D01*
X138394444Y-94350382D01*
X138375239Y-94339294D01*
X138375238Y-94339293D01*
X138375237Y-94339293D01*
X138273377Y-94312000D01*
X138167923Y-94312000D01*
X138167920Y-94312000D01*
X138161334Y-94312867D01*
X138092299Y-94302101D01*
X138040043Y-94255720D01*
X138021150Y-94189928D01*
X138021150Y-93816365D01*
X138021149Y-93816362D01*
X138017029Y-93806416D01*
X137983014Y-93724295D01*
X137912547Y-93653828D01*
X137586288Y-93327569D01*
X137552803Y-93266246D01*
X137549969Y-93239888D01*
X137549969Y-92685010D01*
X137569654Y-92617971D01*
X137622458Y-92572216D01*
X137673969Y-92561010D01*
X137769275Y-92561010D01*
X137769278Y-92561010D01*
X137883855Y-92530309D01*
X137986582Y-92470999D01*
X138070458Y-92387123D01*
X138129768Y-92284396D01*
X138160469Y-92169819D01*
X138160469Y-92051201D01*
X138129768Y-91936624D01*
X138070458Y-91833897D01*
X137986582Y-91750021D01*
X137883855Y-91690711D01*
X137769278Y-91660010D01*
X137769275Y-91660010D01*
X137491616Y-91660010D01*
X137439212Y-91648392D01*
X137349456Y-91606538D01*
X137349454Y-91606537D01*
X137349455Y-91606537D01*
X137299871Y-91600010D01*
X136940074Y-91600010D01*
X136924355Y-91602079D01*
X136890482Y-91606538D01*
X136890480Y-91606539D01*
X136890478Y-91606539D01*
X136781652Y-91657286D01*
X136696745Y-91742193D01*
X136645996Y-91851024D01*
X136639469Y-91900608D01*
X136639469Y-92320404D01*
X136639747Y-92322513D01*
X136645997Y-92369997D01*
X136645998Y-92369999D01*
X136645998Y-92370001D01*
X136653101Y-92385233D01*
X136656497Y-92407595D01*
X136664402Y-92428788D01*
X136661642Y-92441474D01*
X136663592Y-92454311D01*
X136654358Y-92474960D01*
X136649551Y-92497061D01*
X136636946Y-92513899D01*
X136635071Y-92518094D01*
X136628401Y-92525316D01*
X136599525Y-92554191D01*
X136538205Y-92587676D01*
X136511845Y-92590510D01*
X134865755Y-92590510D01*
X134798716Y-92570825D01*
X134752961Y-92518021D01*
X134743017Y-92448863D01*
X134753373Y-92414106D01*
X134773941Y-92369997D01*
X134773941Y-92369996D01*
X134774799Y-92363478D01*
X134780469Y-92320411D01*
X134780468Y-91900610D01*
X134773941Y-91851023D01*
X134723193Y-91742194D01*
X134638285Y-91657286D01*
X134529456Y-91606538D01*
X134529454Y-91606537D01*
X134529455Y-91606537D01*
X134479871Y-91600010D01*
X134120074Y-91600010D01*
X134104355Y-91602079D01*
X134070482Y-91606538D01*
X134070480Y-91606539D01*
X134070478Y-91606539D01*
X133961654Y-91657285D01*
X133905247Y-91713692D01*
X133843923Y-91747176D01*
X133817566Y-91750010D01*
X133560660Y-91750010D01*
X133471516Y-91773896D01*
X133471515Y-91773896D01*
X133446084Y-91780709D01*
X133446079Y-91780711D01*
X133343361Y-91840015D01*
X133343353Y-91840021D01*
X132909482Y-92273893D01*
X132909478Y-92273899D01*
X132850170Y-92376623D01*
X132850168Y-92376627D01*
X132846906Y-92388798D01*
X132846907Y-92388799D01*
X132819469Y-92491201D01*
X132819469Y-92690497D01*
X132810544Y-92720891D01*
X132803284Y-92751751D01*
X132800601Y-92754750D01*
X132799784Y-92757536D01*
X132781659Y-92779644D01*
X132771291Y-92789667D01*
X132766749Y-92791982D01*
X132704123Y-92854607D01*
X132703340Y-92855365D01*
X132673296Y-92871117D01*
X132643508Y-92887384D01*
X132642423Y-92887306D01*
X132641461Y-92887811D01*
X132607690Y-92884822D01*
X132573816Y-92882400D01*
X132572944Y-92881747D01*
X132571863Y-92881652D01*
X132545050Y-92860865D01*
X132517883Y-92840528D01*
X132517503Y-92839510D01*
X132516644Y-92838844D01*
X132505318Y-92806840D01*
X132493466Y-92775064D01*
X132493397Y-92773157D01*
X132493334Y-92772977D01*
X132493383Y-92772765D01*
X132493150Y-92766218D01*
X132493150Y-90858260D01*
X132512835Y-90791221D01*
X132565639Y-90745466D01*
X132634797Y-90735522D01*
X132679151Y-90750874D01*
X132764768Y-90800306D01*
X132764769Y-90800307D01*
X132764771Y-90800307D01*
X132764774Y-90800309D01*
X132879351Y-90831010D01*
X133232656Y-90831010D01*
X133285060Y-90842627D01*
X133310482Y-90854482D01*
X133360068Y-90861010D01*
X133779869Y-90861009D01*
X133829456Y-90854482D01*
X133938285Y-90803734D01*
X133938291Y-90803727D01*
X133943757Y-90799901D01*
X134009962Y-90777571D01*
X134077730Y-90794578D01*
X134125545Y-90845524D01*
X134134660Y-90869379D01*
X134147443Y-90917088D01*
X134147444Y-90917089D01*
X134200170Y-91008413D01*
X134274737Y-91082980D01*
X134366063Y-91135707D01*
X134467923Y-91163000D01*
X134467925Y-91163000D01*
X134573375Y-91163000D01*
X134573377Y-91163000D01*
X134675237Y-91135707D01*
X134766563Y-91082980D01*
X134838880Y-91010662D01*
X134900199Y-90977180D01*
X134969891Y-90982164D01*
X134988552Y-90990956D01*
X135066063Y-91035707D01*
X135167923Y-91063000D01*
X135167925Y-91063000D01*
X135273375Y-91063000D01*
X135273377Y-91063000D01*
X135375237Y-91035707D01*
X135466563Y-90982980D01*
X135541130Y-90908413D01*
X135593857Y-90817087D01*
X135593858Y-90817080D01*
X135596187Y-90813048D01*
X135614282Y-90795793D01*
X135629265Y-90775780D01*
X135639131Y-90772099D01*
X135646754Y-90764832D01*
X135671304Y-90760099D01*
X135694729Y-90751363D01*
X135705018Y-90753601D01*
X135715361Y-90751608D01*
X135738573Y-90760900D01*
X135763002Y-90766215D01*
X135775824Y-90775813D01*
X135780226Y-90777576D01*
X135791256Y-90787366D01*
X135901215Y-90897325D01*
X135901218Y-90897329D01*
X135908286Y-90904397D01*
X135978753Y-90974864D01*
X135998347Y-90982980D01*
X136028462Y-90995454D01*
X136047337Y-91010665D01*
X136082863Y-91039293D01*
X136095567Y-91062558D01*
X136097443Y-91067086D01*
X136097443Y-91067087D01*
X136150170Y-91158413D01*
X136224737Y-91232980D01*
X136316063Y-91285707D01*
X136417923Y-91313000D01*
X136417925Y-91313000D01*
X136523375Y-91313000D01*
X136523377Y-91313000D01*
X136625237Y-91285707D01*
X136716563Y-91232980D01*
X136791130Y-91158413D01*
X136843857Y-91067087D01*
X136871150Y-90965227D01*
X136871150Y-90859773D01*
X136843857Y-90757913D01*
X136791130Y-90666587D01*
X136716563Y-90592020D01*
X136625237Y-90539293D01*
X136523377Y-90512000D01*
X136417923Y-90512000D01*
X136409862Y-90513061D01*
X136409710Y-90511912D01*
X136391269Y-90514137D01*
X136374913Y-90513837D01*
X136370478Y-90512000D01*
X136274646Y-90512000D01*
X136273500Y-90511979D01*
X136241190Y-90501845D01*
X136208733Y-90492315D01*
X136207414Y-90491252D01*
X136206833Y-90491070D01*
X136206102Y-90490195D01*
X136188091Y-90475681D01*
X136087137Y-90374727D01*
X135999176Y-90286765D01*
X135965692Y-90225444D01*
X135970676Y-90155752D01*
X135979467Y-90137094D01*
X135985787Y-90126148D01*
X136007969Y-90043363D01*
X136007969Y-89957657D01*
X135985787Y-89874872D01*
X135980594Y-89865877D01*
X135975474Y-89857008D01*
X135959003Y-89789108D01*
X135981856Y-89723081D01*
X136036778Y-89679892D01*
X136082862Y-89671010D01*
X136419299Y-89671010D01*
X136486338Y-89690695D01*
X136531680Y-89742603D01*
X136539245Y-89758826D01*
X136624153Y-89843734D01*
X136732982Y-89894482D01*
X136782568Y-89901010D01*
X137202369Y-89901009D01*
X137251956Y-89894482D01*
X137360785Y-89843734D01*
X137445693Y-89758826D01*
X137496441Y-89649997D01*
X137502969Y-89600411D01*
X137502968Y-89240610D01*
X137496441Y-89191023D01*
X137445693Y-89082194D01*
X137360785Y-88997286D01*
X137251956Y-88946538D01*
X137251955Y-88946537D01*
X137243358Y-88942529D01*
X137244953Y-88939107D01*
X137238068Y-88934696D01*
X137213947Y-88923681D01*
X137209102Y-88916142D01*
X137201558Y-88911310D01*
X137190508Y-88887209D01*
X137176173Y-88864903D01*
X137174295Y-88851848D01*
X137172439Y-88847798D01*
X137171150Y-88829968D01*
X137171150Y-88730030D01*
X137173532Y-88705840D01*
X137186154Y-88642381D01*
X137186154Y-88437352D01*
X137186154Y-88437349D01*
X137170505Y-88358692D01*
X137154393Y-88319803D01*
X137109840Y-88253137D01*
X137060413Y-88203718D01*
X136956840Y-88100162D01*
X136952495Y-88092207D01*
X136945241Y-88086776D01*
X136936011Y-88062025D01*
X136923350Y-88038842D01*
X136923995Y-88029802D01*
X136920829Y-88021310D01*
X136926446Y-87995496D01*
X136928329Y-87969150D01*
X136934152Y-87960088D01*
X136935687Y-87953038D01*
X136956840Y-87924786D01*
X136963272Y-87918355D01*
X137062992Y-87818650D01*
X137124318Y-87785171D01*
X137194009Y-87790161D01*
X137238332Y-87818643D01*
X137346489Y-87926764D01*
X137346492Y-87926766D01*
X137346493Y-87926767D01*
X137413151Y-87971295D01*
X137452035Y-87987398D01*
X137530663Y-88003035D01*
X137530666Y-88003035D01*
X137585655Y-88003035D01*
X137585655Y-88003034D01*
X137664295Y-87987393D01*
X137703186Y-87971284D01*
X137706583Y-87969150D01*
X137732224Y-87953038D01*
X137761480Y-87934655D01*
X137814403Y-87860067D01*
X137830512Y-87821176D01*
X137846154Y-87742535D01*
X137846154Y-87382541D01*
X137830512Y-87303900D01*
X137814403Y-87265009D01*
X137814398Y-87265002D01*
X137814397Y-87264998D01*
X137777777Y-87206720D01*
X137777774Y-87206715D01*
X137705857Y-87155687D01*
X137703185Y-87153791D01*
X137664298Y-87137684D01*
X137664296Y-87137683D01*
X137664295Y-87137683D01*
X137664292Y-87137682D01*
X137664287Y-87137681D01*
X137585657Y-87122041D01*
X137585654Y-87122041D01*
X137445150Y-87122041D01*
X137378111Y-87102356D01*
X137332356Y-87049552D01*
X137321150Y-86998041D01*
X137321150Y-86896610D01*
X137321150Y-86896608D01*
X137287042Y-86769314D01*
X137221150Y-86655186D01*
X137127964Y-86562000D01*
X137055194Y-86519986D01*
X137013837Y-86496108D01*
X136950189Y-86479054D01*
X136886542Y-86462000D01*
X136754758Y-86462000D01*
X136627462Y-86496108D01*
X136513336Y-86562000D01*
X136513333Y-86562002D01*
X136420152Y-86655183D01*
X136420150Y-86655186D01*
X136354258Y-86769312D01*
X136320150Y-86896608D01*
X136320150Y-87028391D01*
X136354258Y-87155687D01*
X136372155Y-87186685D01*
X136420150Y-87269814D01*
X136420152Y-87269816D01*
X136421214Y-87270878D01*
X136421823Y-87271993D01*
X136425097Y-87276260D01*
X136424431Y-87276770D01*
X136454699Y-87332201D01*
X136455094Y-87376385D01*
X136455794Y-87376454D01*
X136455197Y-87382516D01*
X136455197Y-87742538D01*
X136470837Y-87821168D01*
X136470839Y-87821176D01*
X136486948Y-87860067D01*
X136486950Y-87860070D01*
X136486953Y-87860077D01*
X136523573Y-87918355D01*
X136523577Y-87918361D01*
X136523582Y-87918364D01*
X136531966Y-87927233D01*
X136528849Y-87930179D01*
X136557643Y-87966647D01*
X136564420Y-88036187D01*
X136543745Y-88084712D01*
X136539820Y-88090242D01*
X136539820Y-88090243D01*
X136534213Y-88098146D01*
X136486896Y-88164832D01*
X136470789Y-88203718D01*
X136470786Y-88203729D01*
X136455146Y-88282359D01*
X136455146Y-88642381D01*
X136467768Y-88705840D01*
X136470150Y-88730030D01*
X136470150Y-89046010D01*
X136467599Y-89054695D01*
X136468888Y-89063657D01*
X136457909Y-89087697D01*
X136450465Y-89113049D01*
X136443624Y-89118976D01*
X136439863Y-89127213D01*
X136417628Y-89141502D01*
X136397661Y-89158804D01*
X136387146Y-89161091D01*
X136381085Y-89164987D01*
X136346150Y-89170010D01*
X136106427Y-89170010D01*
X136039388Y-89150325D01*
X135993633Y-89097521D01*
X135986653Y-89078106D01*
X135985787Y-89074872D01*
X135969124Y-89046010D01*
X135942938Y-89000654D01*
X135942932Y-89000646D01*
X135882332Y-88940046D01*
X135882324Y-88940040D01*
X135808113Y-88897195D01*
X135808110Y-88897193D01*
X135808107Y-88897192D01*
X135808103Y-88897191D01*
X135800600Y-88894083D01*
X135801566Y-88891748D01*
X135752711Y-88861966D01*
X135722185Y-88799117D01*
X135720469Y-88778561D01*
X135720469Y-88473679D01*
X135740154Y-88406640D01*
X135792065Y-88361297D01*
X135808285Y-88353734D01*
X135893193Y-88268826D01*
X135943941Y-88159997D01*
X135950469Y-88110411D01*
X135950468Y-87690610D01*
X135943941Y-87641023D01*
X135893193Y-87532194D01*
X135808285Y-87447286D01*
X135699456Y-87396538D01*
X135699454Y-87396537D01*
X135699455Y-87396537D01*
X135649871Y-87390010D01*
X135290074Y-87390010D01*
X135274355Y-87392079D01*
X135240482Y-87396538D01*
X135240480Y-87396539D01*
X135240478Y-87396539D01*
X135131652Y-87447286D01*
X135046745Y-87532193D01*
X134995996Y-87641024D01*
X134989469Y-87690608D01*
X134989469Y-88110404D01*
X134989470Y-88110410D01*
X134995997Y-88159997D01*
X134995998Y-88159999D01*
X134995998Y-88160000D01*
X135039428Y-88253135D01*
X135046745Y-88268826D01*
X135131653Y-88353734D01*
X135147872Y-88361297D01*
X135200312Y-88407467D01*
X135219469Y-88473679D01*
X135219469Y-88789436D01*
X135199784Y-88856475D01*
X135157469Y-88896823D01*
X135082610Y-88940042D01*
X135082605Y-88940046D01*
X135022005Y-89000646D01*
X135021999Y-89000654D01*
X134979154Y-89074865D01*
X134979151Y-89074872D01*
X134956969Y-89157657D01*
X134955908Y-89165717D01*
X134952771Y-89165304D01*
X134937284Y-89218049D01*
X134884480Y-89263804D01*
X134847402Y-89271870D01*
X134847676Y-89273949D01*
X134839616Y-89275010D01*
X134756831Y-89297192D01*
X134756824Y-89297195D01*
X134682613Y-89340040D01*
X134682605Y-89340046D01*
X134622005Y-89400646D01*
X134621999Y-89400654D01*
X134579154Y-89474865D01*
X134579152Y-89474869D01*
X134560410Y-89544815D01*
X134528316Y-89600401D01*
X134142539Y-89986178D01*
X134081216Y-90019663D01*
X134011524Y-90014679D01*
X133967177Y-89986178D01*
X133938285Y-89957286D01*
X133920185Y-89948846D01*
X133829456Y-89906538D01*
X133829454Y-89906537D01*
X133829455Y-89906537D01*
X133779870Y-89900010D01*
X133360074Y-89900010D01*
X133344355Y-89902079D01*
X133310482Y-89906538D01*
X133310480Y-89906539D01*
X133310478Y-89906539D01*
X133285061Y-89918392D01*
X133232656Y-89930010D01*
X132879351Y-89930010D01*
X132777556Y-89957286D01*
X132764770Y-89960712D01*
X132679150Y-90010146D01*
X132611250Y-90026619D01*
X132545223Y-90003767D01*
X132502033Y-89948846D01*
X132493150Y-89902759D01*
X132493150Y-83979006D01*
X136670150Y-83979006D01*
X136670150Y-84545993D01*
X136685929Y-84645621D01*
X136685930Y-84645624D01*
X136685931Y-84645626D01*
X136732759Y-84737531D01*
X136747123Y-84765721D01*
X136747126Y-84765725D01*
X136833831Y-84852430D01*
X136867316Y-84913753D01*
X136870150Y-84940111D01*
X136870150Y-85521809D01*
X136900851Y-85636386D01*
X136960161Y-85739113D01*
X137044037Y-85822989D01*
X137146764Y-85882299D01*
X137261341Y-85913000D01*
X137261344Y-85913000D01*
X137379956Y-85913000D01*
X137379959Y-85913000D01*
X137494536Y-85882299D01*
X137597263Y-85822989D01*
X137681139Y-85739113D01*
X137740449Y-85636386D01*
X137771150Y-85521809D01*
X137771150Y-84940111D01*
X137779580Y-84911401D01*
X137785568Y-84882078D01*
X137789920Y-84876185D01*
X137790835Y-84873072D01*
X137806357Y-84853556D01*
X137806937Y-84852960D01*
X137894178Y-84765720D01*
X137896586Y-84760993D01*
X137906869Y-84750445D01*
X137929816Y-84737531D01*
X137950667Y-84721452D01*
X137962261Y-84719274D01*
X137967760Y-84716180D01*
X137976120Y-84716670D01*
X137995662Y-84713000D01*
X138679956Y-84713000D01*
X138679959Y-84713000D01*
X138794536Y-84682299D01*
X138897263Y-84622989D01*
X138981139Y-84539113D01*
X139040449Y-84436386D01*
X139071150Y-84321809D01*
X139071150Y-84203191D01*
X139040449Y-84088614D01*
X138981139Y-83985887D01*
X138897263Y-83902011D01*
X138794536Y-83842701D01*
X138679959Y-83812000D01*
X138679956Y-83812000D01*
X137995662Y-83812000D01*
X137928623Y-83792315D01*
X137895339Y-83760879D01*
X137894179Y-83759282D01*
X137894178Y-83759280D01*
X137894175Y-83759277D01*
X137894173Y-83759274D01*
X137798875Y-83663976D01*
X137798871Y-83663973D01*
X137798870Y-83663972D01*
X137678776Y-83602781D01*
X137678774Y-83602780D01*
X137678771Y-83602779D01*
X137579143Y-83587000D01*
X137579138Y-83587000D01*
X137062162Y-83587000D01*
X137062157Y-83587000D01*
X136962528Y-83602779D01*
X136842428Y-83663973D01*
X136842424Y-83663976D01*
X136747126Y-83759274D01*
X136747123Y-83759278D01*
X136685929Y-83879378D01*
X136670150Y-83979006D01*
X132493150Y-83979006D01*
X132493150Y-83294500D01*
X132512835Y-83227461D01*
X132565639Y-83181706D01*
X132617150Y-83170500D01*
X145389150Y-83170500D01*
X145456189Y-83190185D01*
G37*
%TD.AperFunction*%
%TA.AperFunction,Conductor*%
G36*
X139781416Y-106640442D02*
G01*
X139820285Y-106666750D01*
X139883831Y-106730296D01*
X139917316Y-106791619D01*
X139920150Y-106817977D01*
X139920150Y-108743587D01*
X139900465Y-108810626D01*
X139871643Y-108841958D01*
X139868306Y-108844518D01*
X139757671Y-108955153D01*
X139705537Y-109045453D01*
X139654969Y-109093668D01*
X139586362Y-109106890D01*
X139521498Y-109080922D01*
X139490763Y-109045453D01*
X139438628Y-108955153D01*
X139327997Y-108844522D01*
X139327994Y-108844520D01*
X139321548Y-108839574D01*
X139322539Y-108838281D01*
X139280877Y-108794580D01*
X139267661Y-108725972D01*
X139283710Y-108675773D01*
X139336357Y-108584587D01*
X139363650Y-108482727D01*
X139363650Y-108377273D01*
X139336357Y-108275413D01*
X139283630Y-108184087D01*
X139209063Y-108109520D01*
X139133199Y-108065720D01*
X139117739Y-108056794D01*
X139117738Y-108056793D01*
X139117737Y-108056793D01*
X139015877Y-108029500D01*
X138910423Y-108029500D01*
X138910421Y-108029500D01*
X138858078Y-108043525D01*
X138788228Y-108041862D01*
X138730366Y-108002698D01*
X138702863Y-107938469D01*
X138714450Y-107869567D01*
X138761450Y-107817868D01*
X138773578Y-107811369D01*
X138871466Y-107765724D01*
X138956374Y-107680816D01*
X139007122Y-107571987D01*
X139013650Y-107522401D01*
X139013649Y-107193999D01*
X139033333Y-107126961D01*
X139086137Y-107081206D01*
X139153843Y-107071062D01*
X139159155Y-107071761D01*
X139159160Y-107071763D01*
X139159165Y-107071763D01*
X139264612Y-107071763D01*
X139264614Y-107071763D01*
X139366474Y-107044470D01*
X139457800Y-106991743D01*
X139532367Y-106917176D01*
X139585094Y-106825850D01*
X139612387Y-106723990D01*
X139612387Y-106723987D01*
X139612829Y-106722338D01*
X139649194Y-106662677D01*
X139712040Y-106632148D01*
X139781416Y-106640442D01*
G37*
%TD.AperFunction*%
%TA.AperFunction,Conductor*%
G36*
X133714028Y-106982685D02*
G01*
X133759783Y-107035489D01*
X133769727Y-107104647D01*
X133760423Y-107137086D01*
X133748005Y-107165209D01*
X133748004Y-107165212D01*
X133745150Y-107189811D01*
X133745150Y-107465176D01*
X133745151Y-107465185D01*
X133748004Y-107489786D01*
X133748005Y-107489790D01*
X133758992Y-107514672D01*
X133768064Y-107583950D01*
X133738241Y-107647135D01*
X133733239Y-107652439D01*
X133133218Y-108252460D01*
X133071895Y-108285945D01*
X133002203Y-108280961D01*
X132946270Y-108239089D01*
X132932107Y-108214874D01*
X132898861Y-108139578D01*
X132821072Y-108061789D01*
X132779708Y-108043525D01*
X132720437Y-108017354D01*
X132695835Y-108014500D01*
X132295473Y-108014500D01*
X132295464Y-108014501D01*
X132270859Y-108017354D01*
X132261860Y-108019803D01*
X132261435Y-108018240D01*
X132250776Y-108019635D01*
X132230749Y-108027105D01*
X132216823Y-108024075D01*
X132202692Y-108025924D01*
X132183362Y-108016796D01*
X132162476Y-108012253D01*
X132143232Y-107997847D01*
X132139511Y-107996090D01*
X132134222Y-107991102D01*
X132095801Y-107952681D01*
X132062316Y-107891358D01*
X132067300Y-107821666D01*
X132095800Y-107777320D01*
X132134222Y-107738897D01*
X132195544Y-107705411D01*
X132265236Y-107710395D01*
X132270574Y-107712567D01*
X132270859Y-107712644D01*
X132270864Y-107712646D01*
X132295465Y-107715500D01*
X132695834Y-107715499D01*
X132720436Y-107712646D01*
X132821072Y-107668211D01*
X132898861Y-107590422D01*
X132943296Y-107489786D01*
X132946150Y-107465185D01*
X132946149Y-107189816D01*
X132943296Y-107165214D01*
X132930876Y-107137085D01*
X132921805Y-107067807D01*
X132951629Y-107004622D01*
X133010879Y-106967592D01*
X133044311Y-106963000D01*
X133646989Y-106963000D01*
X133714028Y-106982685D01*
G37*
%TD.AperFunction*%
%TA.AperFunction,Conductor*%
G36*
X136959427Y-96183515D02*
G01*
X137003772Y-96212015D01*
X137074737Y-96282980D01*
X137166063Y-96335707D01*
X137267923Y-96363000D01*
X137267925Y-96363000D01*
X137373375Y-96363000D01*
X137373377Y-96363000D01*
X137475237Y-96335707D01*
X137566563Y-96282980D01*
X137566564Y-96282978D01*
X137573601Y-96278916D01*
X137574320Y-96280162D01*
X137631245Y-96258149D01*
X137699691Y-96272180D01*
X137748962Y-96319718D01*
X137800170Y-96408413D01*
X137874737Y-96482980D01*
X137966063Y-96535707D01*
X138067923Y-96563000D01*
X138067925Y-96563000D01*
X138134214Y-96563000D01*
X138201253Y-96582685D01*
X138247008Y-96635489D01*
X138256952Y-96704647D01*
X138248775Y-96734453D01*
X138216035Y-96813492D01*
X138165124Y-97003494D01*
X138139451Y-97198505D01*
X138139450Y-97198521D01*
X138139450Y-98938605D01*
X138140924Y-98944105D01*
X138145150Y-98976201D01*
X138145150Y-99295898D01*
X138160410Y-99372618D01*
X138160411Y-99372620D01*
X138187392Y-99412999D01*
X138218538Y-99459612D01*
X138305533Y-99517740D01*
X138305536Y-99517740D01*
X138305537Y-99517741D01*
X138343891Y-99525370D01*
X138382249Y-99533000D01*
X138559050Y-99532999D01*
X138635767Y-99517740D01*
X138651757Y-99507055D01*
X138718433Y-99486176D01*
X138785814Y-99504659D01*
X138789521Y-99507041D01*
X138805530Y-99517738D01*
X138805533Y-99517740D01*
X138805537Y-99517741D01*
X138843891Y-99525370D01*
X138882249Y-99533000D01*
X139059050Y-99532999D01*
X139135767Y-99517740D01*
X139151757Y-99507055D01*
X139218433Y-99486176D01*
X139285814Y-99504659D01*
X139289521Y-99507041D01*
X139305530Y-99517738D01*
X139305533Y-99517740D01*
X139305537Y-99517741D01*
X139343891Y-99525370D01*
X139382249Y-99533000D01*
X139559050Y-99532999D01*
X139635767Y-99517740D01*
X139651757Y-99507055D01*
X139718433Y-99486176D01*
X139785814Y-99504659D01*
X139789521Y-99507041D01*
X139805530Y-99517738D01*
X139805533Y-99517740D01*
X139805537Y-99517741D01*
X139843891Y-99525370D01*
X139882249Y-99533000D01*
X140059050Y-99532999D01*
X140135767Y-99517740D01*
X140151757Y-99507055D01*
X140218433Y-99486176D01*
X140285814Y-99504659D01*
X140289521Y-99507041D01*
X140305530Y-99517738D01*
X140305533Y-99517740D01*
X140305537Y-99517741D01*
X140343891Y-99525370D01*
X140382249Y-99533000D01*
X140559050Y-99532999D01*
X140635767Y-99517740D01*
X140651757Y-99507055D01*
X140718433Y-99486176D01*
X140785814Y-99504659D01*
X140789521Y-99507041D01*
X140805530Y-99517738D01*
X140805533Y-99517740D01*
X140805537Y-99517741D01*
X140843891Y-99525370D01*
X140882249Y-99533000D01*
X141059050Y-99532999D01*
X141135767Y-99517740D01*
X141151757Y-99507055D01*
X141218433Y-99486176D01*
X141285814Y-99504659D01*
X141289521Y-99507041D01*
X141305530Y-99517738D01*
X141305533Y-99517740D01*
X141305537Y-99517741D01*
X141343891Y-99525370D01*
X141382249Y-99533000D01*
X141559050Y-99532999D01*
X141635767Y-99517740D01*
X141651757Y-99507055D01*
X141718433Y-99486176D01*
X141785814Y-99504659D01*
X141789521Y-99507041D01*
X141805530Y-99517738D01*
X141805533Y-99517740D01*
X141805537Y-99517741D01*
X141843891Y-99525370D01*
X141882249Y-99533000D01*
X142059050Y-99532999D01*
X142135767Y-99517740D01*
X142151757Y-99507055D01*
X142218433Y-99486176D01*
X142252628Y-99490350D01*
X142272465Y-99495644D01*
X142305533Y-99517740D01*
X142382249Y-99533000D01*
X142412417Y-99532999D01*
X142428128Y-99537193D01*
X142444640Y-99547236D01*
X142463184Y-99552680D01*
X142473874Y-99565016D01*
X142487823Y-99573500D01*
X142496284Y-99590875D01*
X142508942Y-99605482D01*
X142513420Y-99626066D01*
X142518413Y-99636318D01*
X142517438Y-99644532D01*
X142520150Y-99656993D01*
X142520150Y-99670897D01*
X142535410Y-99747619D01*
X142546096Y-99763611D01*
X142566973Y-99830288D01*
X142548487Y-99897668D01*
X142546096Y-99901389D01*
X142535409Y-99917382D01*
X142520150Y-99994096D01*
X142520150Y-100170898D01*
X142535410Y-100247619D01*
X142546096Y-100263611D01*
X142566973Y-100330288D01*
X142548487Y-100397668D01*
X142546096Y-100401389D01*
X142535409Y-100417382D01*
X142520150Y-100494096D01*
X142520150Y-100670898D01*
X142535410Y-100747619D01*
X142546096Y-100763611D01*
X142566973Y-100830288D01*
X142548487Y-100897668D01*
X142546096Y-100901389D01*
X142535409Y-100917382D01*
X142520150Y-100994096D01*
X142520150Y-101170898D01*
X142535410Y-101247619D01*
X142546096Y-101263611D01*
X142566973Y-101330288D01*
X142548487Y-101397668D01*
X142546096Y-101401389D01*
X142535409Y-101417382D01*
X142520150Y-101494096D01*
X142520150Y-101670898D01*
X142535410Y-101747619D01*
X142546096Y-101763611D01*
X142566973Y-101830288D01*
X142548487Y-101897668D01*
X142546096Y-101901389D01*
X142535409Y-101917382D01*
X142520150Y-101994096D01*
X142520150Y-102170898D01*
X142535410Y-102247619D01*
X142546096Y-102263611D01*
X142566973Y-102330288D01*
X142548487Y-102397668D01*
X142546096Y-102401389D01*
X142535409Y-102417382D01*
X142520150Y-102494096D01*
X142520150Y-102670898D01*
X142535410Y-102747619D01*
X142546096Y-102763611D01*
X142566973Y-102830288D01*
X142548487Y-102897668D01*
X142546096Y-102901389D01*
X142535409Y-102917382D01*
X142520150Y-102994096D01*
X142520150Y-103170898D01*
X142535410Y-103247619D01*
X142546096Y-103263611D01*
X142566973Y-103330288D01*
X142548487Y-103397668D01*
X142546096Y-103401389D01*
X142535409Y-103417382D01*
X142520150Y-103494096D01*
X142520150Y-103670898D01*
X142535410Y-103747619D01*
X142546096Y-103763611D01*
X142566973Y-103830288D01*
X142548487Y-103897668D01*
X142546096Y-103901389D01*
X142535409Y-103917382D01*
X142520150Y-103994096D01*
X142520150Y-104170898D01*
X142535410Y-104247619D01*
X142546096Y-104263611D01*
X142566973Y-104330288D01*
X142548487Y-104397668D01*
X142546096Y-104401389D01*
X142535409Y-104417382D01*
X142520150Y-104494096D01*
X142520150Y-104670898D01*
X142535410Y-104747619D01*
X142546096Y-104763611D01*
X142566973Y-104830288D01*
X142562799Y-104864478D01*
X142557503Y-104884316D01*
X142535410Y-104917383D01*
X142520150Y-104994099D01*
X142520150Y-105024264D01*
X142515956Y-105039978D01*
X142505910Y-105056495D01*
X142500465Y-105075039D01*
X142488131Y-105085725D01*
X142479649Y-105099673D01*
X142462268Y-105108136D01*
X142447661Y-105120794D01*
X142427081Y-105125271D01*
X142416831Y-105130263D01*
X142408616Y-105129288D01*
X142396156Y-105132000D01*
X142382252Y-105132000D01*
X142305530Y-105147260D01*
X142289539Y-105157946D01*
X142222862Y-105178823D01*
X142155482Y-105160337D01*
X142151761Y-105157946D01*
X142135767Y-105147259D01*
X142059053Y-105132000D01*
X141882251Y-105132000D01*
X141805530Y-105147260D01*
X141789539Y-105157946D01*
X141722862Y-105178823D01*
X141655482Y-105160337D01*
X141651761Y-105157946D01*
X141635767Y-105147259D01*
X141559053Y-105132000D01*
X141382251Y-105132000D01*
X141305530Y-105147260D01*
X141289539Y-105157946D01*
X141222862Y-105178823D01*
X141155482Y-105160337D01*
X141151761Y-105157946D01*
X141135767Y-105147259D01*
X141059053Y-105132000D01*
X140882251Y-105132000D01*
X140805530Y-105147260D01*
X140789539Y-105157946D01*
X140722862Y-105178823D01*
X140655482Y-105160337D01*
X140651761Y-105157946D01*
X140635767Y-105147259D01*
X140559053Y-105132000D01*
X140382251Y-105132000D01*
X140305530Y-105147260D01*
X140289539Y-105157946D01*
X140222862Y-105178823D01*
X140155482Y-105160337D01*
X140151761Y-105157946D01*
X140135767Y-105147259D01*
X140059053Y-105132000D01*
X139882251Y-105132000D01*
X139805530Y-105147260D01*
X139789539Y-105157946D01*
X139722862Y-105178823D01*
X139655482Y-105160337D01*
X139651761Y-105157946D01*
X139635767Y-105147259D01*
X139559053Y-105132000D01*
X139382251Y-105132000D01*
X139305530Y-105147260D01*
X139289539Y-105157946D01*
X139222862Y-105178823D01*
X139155482Y-105160337D01*
X139151761Y-105157946D01*
X139135767Y-105147259D01*
X139059053Y-105132000D01*
X138882251Y-105132000D01*
X138805530Y-105147260D01*
X138789539Y-105157946D01*
X138722862Y-105178823D01*
X138655482Y-105160337D01*
X138651761Y-105157946D01*
X138635767Y-105147259D01*
X138559053Y-105132000D01*
X138382251Y-105132000D01*
X138305530Y-105147260D01*
X138289539Y-105157946D01*
X138222862Y-105178823D01*
X138155482Y-105160337D01*
X138151761Y-105157946D01*
X138135767Y-105147259D01*
X138059053Y-105132000D01*
X137882251Y-105132000D01*
X137805530Y-105147260D01*
X137789539Y-105157946D01*
X137722862Y-105178823D01*
X137655482Y-105160337D01*
X137651761Y-105157946D01*
X137635767Y-105147259D01*
X137559053Y-105132000D01*
X137382251Y-105132000D01*
X137305530Y-105147260D01*
X137289539Y-105157946D01*
X137222862Y-105178823D01*
X137188673Y-105174649D01*
X137168832Y-105169353D01*
X137135767Y-105147260D01*
X137059051Y-105132000D01*
X137028885Y-105132000D01*
X137013172Y-105127806D01*
X136996655Y-105117760D01*
X136978110Y-105112315D01*
X136967422Y-105099981D01*
X136953476Y-105091499D01*
X136945012Y-105074118D01*
X136932355Y-105059511D01*
X136927878Y-105038933D01*
X136922886Y-105028681D01*
X136923860Y-105020463D01*
X136921149Y-105008000D01*
X136921149Y-104994102D01*
X136921149Y-104994100D01*
X136905890Y-104917383D01*
X136905889Y-104917381D01*
X136905888Y-104917378D01*
X136895205Y-104901391D01*
X136874326Y-104834714D01*
X136892810Y-104767333D01*
X136895167Y-104763664D01*
X136905890Y-104747617D01*
X136921150Y-104670901D01*
X136921149Y-104494100D01*
X136905890Y-104417383D01*
X136905889Y-104417381D01*
X136905888Y-104417378D01*
X136895205Y-104401391D01*
X136874326Y-104334714D01*
X136892810Y-104267333D01*
X136895167Y-104263664D01*
X136905890Y-104247617D01*
X136921150Y-104170901D01*
X136921149Y-103994100D01*
X136905890Y-103917383D01*
X136905889Y-103917381D01*
X136905888Y-103917378D01*
X136895205Y-103901391D01*
X136874326Y-103834714D01*
X136892810Y-103767333D01*
X136895167Y-103763664D01*
X136905890Y-103747617D01*
X136921150Y-103670901D01*
X136921149Y-103494100D01*
X136905890Y-103417383D01*
X136905889Y-103417381D01*
X136905888Y-103417379D01*
X136882390Y-103382213D01*
X136847762Y-103330388D01*
X136760767Y-103272260D01*
X136760765Y-103272259D01*
X136760762Y-103272258D01*
X136684054Y-103257000D01*
X135882252Y-103257000D01*
X135824971Y-103268393D01*
X135805533Y-103272260D01*
X135805532Y-103272260D01*
X135805529Y-103272261D01*
X135804801Y-103272563D01*
X135796626Y-103274188D01*
X135792288Y-103276977D01*
X135757353Y-103282000D01*
X135728438Y-103282000D01*
X135661399Y-103262315D01*
X135652948Y-103256373D01*
X135647258Y-103252006D01*
X135544543Y-103192705D01*
X135544539Y-103192703D01*
X135544537Y-103192702D01*
X135429959Y-103162001D01*
X135311340Y-103162001D01*
X135269743Y-103173147D01*
X135199893Y-103171484D01*
X135142031Y-103132321D01*
X135114527Y-103068093D01*
X135113650Y-103053372D01*
X135113650Y-103007000D01*
X135133335Y-102939961D01*
X135186139Y-102894206D01*
X135237650Y-102883000D01*
X135757353Y-102883000D01*
X135804808Y-102892440D01*
X135805535Y-102892741D01*
X135854106Y-102902402D01*
X135882249Y-102908000D01*
X136684050Y-102907999D01*
X136760767Y-102892740D01*
X136847762Y-102834612D01*
X136905890Y-102747617D01*
X136921150Y-102670901D01*
X136921149Y-102494100D01*
X136905890Y-102417383D01*
X136905889Y-102417381D01*
X136905888Y-102417378D01*
X136895205Y-102401391D01*
X136874326Y-102334714D01*
X136892810Y-102267333D01*
X136895167Y-102263664D01*
X136905890Y-102247617D01*
X136921150Y-102170901D01*
X136921149Y-101994100D01*
X136905890Y-101917383D01*
X136905889Y-101917381D01*
X136905888Y-101917378D01*
X136895205Y-101901391D01*
X136874326Y-101834714D01*
X136892810Y-101767333D01*
X136895167Y-101763664D01*
X136905890Y-101747617D01*
X136921150Y-101670901D01*
X136921149Y-101494100D01*
X136905890Y-101417383D01*
X136905889Y-101417381D01*
X136905888Y-101417378D01*
X136895205Y-101401391D01*
X136874326Y-101334714D01*
X136892810Y-101267333D01*
X136895167Y-101263664D01*
X136905890Y-101247617D01*
X136921150Y-101170901D01*
X136921149Y-100994100D01*
X136905890Y-100917383D01*
X136905889Y-100917381D01*
X136905888Y-100917378D01*
X136895205Y-100901391D01*
X136874326Y-100834714D01*
X136892810Y-100767333D01*
X136895167Y-100763664D01*
X136905890Y-100747617D01*
X136921150Y-100670901D01*
X136921149Y-100494100D01*
X136905890Y-100417383D01*
X136905889Y-100417381D01*
X136905888Y-100417378D01*
X136895205Y-100401391D01*
X136874326Y-100334714D01*
X136892810Y-100267333D01*
X136895167Y-100263664D01*
X136905890Y-100247617D01*
X136921150Y-100170901D01*
X136921149Y-99994100D01*
X136905890Y-99917383D01*
X136905889Y-99917381D01*
X136905888Y-99917378D01*
X136895205Y-99901391D01*
X136874326Y-99834714D01*
X136878500Y-99800521D01*
X136883794Y-99780685D01*
X136905890Y-99747617D01*
X136921150Y-99670901D01*
X136921149Y-99640734D01*
X136925344Y-99625021D01*
X136935389Y-99608504D01*
X136940835Y-99589960D01*
X136953168Y-99579272D01*
X136961652Y-99565325D01*
X136979032Y-99556861D01*
X136993639Y-99544205D01*
X137014216Y-99539728D01*
X137024469Y-99534736D01*
X137032686Y-99535710D01*
X137045150Y-99532999D01*
X137059048Y-99532999D01*
X137059050Y-99532999D01*
X137135767Y-99517740D01*
X137151757Y-99507055D01*
X137218433Y-99486176D01*
X137285814Y-99504659D01*
X137289521Y-99507041D01*
X137305530Y-99517738D01*
X137305533Y-99517740D01*
X137305537Y-99517741D01*
X137343891Y-99525370D01*
X137382249Y-99533000D01*
X137559050Y-99532999D01*
X137635767Y-99517740D01*
X137722762Y-99459612D01*
X137780890Y-99372617D01*
X137796150Y-99295901D01*
X137796149Y-98494100D01*
X137780890Y-98417383D01*
X137780888Y-98417380D01*
X137780888Y-98417379D01*
X137780587Y-98416651D01*
X137771150Y-98369203D01*
X137771150Y-98222940D01*
X137771150Y-98222938D01*
X137767124Y-98207913D01*
X137750672Y-98146512D01*
X137711110Y-98077989D01*
X137634276Y-98001155D01*
X137602182Y-97945565D01*
X137597265Y-97927215D01*
X137597264Y-97927213D01*
X137597264Y-97927212D01*
X137551120Y-97847288D01*
X137249968Y-97546136D01*
X137216483Y-97484813D01*
X137213649Y-97458455D01*
X137213649Y-97160105D01*
X137213649Y-97160100D01*
X137207122Y-97110513D01*
X137207119Y-97110507D01*
X137207119Y-97110505D01*
X137195268Y-97085090D01*
X137183650Y-97032686D01*
X137183650Y-96965693D01*
X137183650Y-96965691D01*
X137152949Y-96851114D01*
X137112157Y-96780460D01*
X137093639Y-96748386D01*
X136834653Y-96489400D01*
X136828083Y-96478876D01*
X136821146Y-96473392D01*
X136810471Y-96450661D01*
X136805053Y-96441981D01*
X136803665Y-96437938D01*
X136790449Y-96388614D01*
X136781280Y-96372734D01*
X136777384Y-96361383D01*
X136776327Y-96337981D01*
X136770806Y-96315218D01*
X136774782Y-96303730D01*
X136774234Y-96291585D01*
X136785997Y-96271328D01*
X136793659Y-96249192D01*
X136806980Y-96233444D01*
X136828412Y-96212013D01*
X136889736Y-96178529D01*
X136959427Y-96183515D01*
G37*
%TD.AperFunction*%
%TA.AperFunction,Conductor*%
G36*
X144769975Y-97204067D02*
G01*
X144769977Y-97204068D01*
X144818834Y-97210500D01*
X145102673Y-97210500D01*
X145169712Y-97230185D01*
X145190354Y-97246819D01*
X145486331Y-97542796D01*
X145519816Y-97604119D01*
X145522650Y-97630477D01*
X145522650Y-97879894D01*
X145522651Y-97879900D01*
X145529178Y-97929487D01*
X145529179Y-97929489D01*
X145529179Y-97929490D01*
X145579926Y-98038316D01*
X145612464Y-98070854D01*
X145645949Y-98132177D01*
X145640965Y-98201869D01*
X145612466Y-98246214D01*
X145599085Y-98259594D01*
X145549081Y-98366828D01*
X145542650Y-98415683D01*
X145542650Y-98864316D01*
X145549081Y-98913171D01*
X145599085Y-99020404D01*
X145649396Y-99070715D01*
X145682881Y-99132038D01*
X145677897Y-99201730D01*
X145669104Y-99220393D01*
X145647444Y-99257910D01*
X145647443Y-99257913D01*
X145620150Y-99359773D01*
X145620150Y-99465227D01*
X145640113Y-99539728D01*
X145647443Y-99567086D01*
X145647444Y-99567089D01*
X145654478Y-99579272D01*
X145700170Y-99658413D01*
X145774737Y-99732980D01*
X145866063Y-99785707D01*
X145967923Y-99813000D01*
X145967925Y-99813000D01*
X146073375Y-99813000D01*
X146073377Y-99813000D01*
X146175237Y-99785707D01*
X146266563Y-99732980D01*
X146341130Y-99658413D01*
X146393857Y-99567087D01*
X146421150Y-99465227D01*
X146421150Y-99359773D01*
X146393857Y-99257913D01*
X146366705Y-99210884D01*
X146350233Y-99142988D01*
X146373085Y-99076961D01*
X146386407Y-99061211D01*
X146427215Y-99020404D01*
X146477218Y-98913173D01*
X146483650Y-98864316D01*
X146483650Y-98415684D01*
X146477218Y-98366827D01*
X146427215Y-98259596D01*
X146403835Y-98236216D01*
X146400531Y-98230166D01*
X146394871Y-98226226D01*
X146384000Y-98199891D01*
X146370350Y-98174893D01*
X146370841Y-98168015D01*
X146368211Y-98161642D01*
X146373301Y-98133618D01*
X146375334Y-98105201D01*
X146379765Y-98098036D01*
X146380699Y-98092898D01*
X146396370Y-98071191D01*
X146400862Y-98063931D01*
X146402302Y-98062387D01*
X146426374Y-98038316D01*
X146427978Y-98034876D01*
X146437127Y-98025073D01*
X146460007Y-98011534D01*
X146480773Y-97994933D01*
X146489610Y-97994017D01*
X146497259Y-97989492D01*
X146523828Y-97990473D01*
X146550271Y-97987734D01*
X146558201Y-97991742D01*
X146567081Y-97992070D01*
X146588903Y-98007260D01*
X146612628Y-98019251D01*
X146615462Y-98021996D01*
X146622023Y-98028557D01*
X146622028Y-98028559D01*
X146644349Y-98037805D01*
X146644350Y-98037805D01*
X146723282Y-98070500D01*
X147042173Y-98070500D01*
X147109212Y-98090185D01*
X147154967Y-98142989D01*
X147164911Y-98212147D01*
X147161950Y-98226579D01*
X147137650Y-98317273D01*
X147137650Y-98422727D01*
X147164195Y-98521793D01*
X147164943Y-98524586D01*
X147164944Y-98524589D01*
X147179072Y-98549059D01*
X147217670Y-98615913D01*
X147292237Y-98690480D01*
X147383563Y-98743207D01*
X147485423Y-98770500D01*
X147485425Y-98770500D01*
X147588650Y-98770500D01*
X147655689Y-98790185D01*
X147701444Y-98842989D01*
X147712650Y-98894500D01*
X147712650Y-99289562D01*
X147727641Y-99345509D01*
X147733128Y-99365986D01*
X147733130Y-99365991D01*
X147736952Y-99372610D01*
X147736954Y-99372617D01*
X147736955Y-99372617D01*
X147772685Y-99434504D01*
X147772691Y-99434512D01*
X148091331Y-99753152D01*
X148124816Y-99814475D01*
X148127650Y-99840833D01*
X148127650Y-100125898D01*
X148142400Y-100200055D01*
X148142910Y-100202617D01*
X148142911Y-100202619D01*
X148143209Y-100203336D01*
X148144836Y-100211518D01*
X148147627Y-100215860D01*
X148152650Y-100250795D01*
X148152650Y-100387324D01*
X148132965Y-100454363D01*
X148080161Y-100500118D01*
X148011003Y-100510062D01*
X147947447Y-100481037D01*
X147940969Y-100475005D01*
X147877966Y-100412002D01*
X147877964Y-100412000D01*
X147820900Y-100379054D01*
X147763837Y-100346108D01*
X147700189Y-100329054D01*
X147636542Y-100312000D01*
X147504758Y-100312000D01*
X147377462Y-100346108D01*
X147263336Y-100412000D01*
X147263333Y-100412002D01*
X147170152Y-100505183D01*
X147170145Y-100505192D01*
X147123821Y-100585427D01*
X147073254Y-100633642D01*
X147004647Y-100646864D01*
X146964031Y-100635808D01*
X146862637Y-100588528D01*
X146862636Y-100588527D01*
X146813051Y-100582000D01*
X146393255Y-100582000D01*
X146377536Y-100584069D01*
X146343663Y-100588528D01*
X146343661Y-100588529D01*
X146343659Y-100588529D01*
X146234833Y-100639276D01*
X146149925Y-100724184D01*
X146143703Y-100733071D01*
X146141865Y-100731784D01*
X146105291Y-100773319D01*
X146038097Y-100792468D01*
X145971217Y-100772249D01*
X145951405Y-100756153D01*
X145897265Y-100702013D01*
X145897263Y-100702011D01*
X145794536Y-100642701D01*
X145679959Y-100612000D01*
X145679956Y-100612000D01*
X145350463Y-100612000D01*
X145298058Y-100600382D01*
X145272639Y-100588529D01*
X145272637Y-100588528D01*
X145272635Y-100588527D01*
X145272633Y-100588527D01*
X145223051Y-100582000D01*
X144803255Y-100582000D01*
X144787536Y-100584069D01*
X144753663Y-100588528D01*
X144753661Y-100588529D01*
X144753658Y-100588529D01*
X144740973Y-100594445D01*
X144729592Y-100596173D01*
X144719716Y-100602087D01*
X144695675Y-100601324D01*
X144671896Y-100604936D01*
X144661387Y-100600236D01*
X144649882Y-100599872D01*
X144630070Y-100586233D01*
X144608112Y-100576415D01*
X144600334Y-100565763D01*
X144592331Y-100560254D01*
X144583079Y-100542133D01*
X144574200Y-100529973D01*
X144570963Y-100522247D01*
X144546357Y-100430413D01*
X144495838Y-100342913D01*
X144492796Y-100335649D01*
X144489760Y-100308444D01*
X144483306Y-100281838D01*
X144485942Y-100274219D01*
X144485049Y-100266210D01*
X144497202Y-100241684D01*
X144506158Y-100215811D01*
X144515496Y-100204771D01*
X144516074Y-100203606D01*
X144516901Y-100203110D01*
X144519475Y-100200068D01*
X144541130Y-100178413D01*
X144593857Y-100087087D01*
X144621150Y-99985227D01*
X144621150Y-99879773D01*
X144593857Y-99777913D01*
X144541130Y-99686587D01*
X144466563Y-99612020D01*
X144421913Y-99586241D01*
X144373700Y-99535675D01*
X144360478Y-99467068D01*
X144386446Y-99402203D01*
X144396227Y-99391183D01*
X144583014Y-99204397D01*
X144621150Y-99112328D01*
X144621150Y-99012672D01*
X144621150Y-97325869D01*
X144640835Y-97258830D01*
X144693639Y-97213075D01*
X144761336Y-97202930D01*
X144769975Y-97204067D01*
G37*
%TD.AperFunction*%
%TA.AperFunction,Conductor*%
G36*
X132698353Y-93871089D02*
G01*
X132704831Y-93877121D01*
X132766743Y-93939033D01*
X132766747Y-93939036D01*
X132766749Y-93939038D01*
X132886843Y-94000229D01*
X132886845Y-94000229D01*
X132886847Y-94000230D01*
X132986476Y-94016010D01*
X133514846Y-94016010D01*
X133544286Y-94024654D01*
X133574273Y-94031178D01*
X133579288Y-94034932D01*
X133581885Y-94035695D01*
X133602527Y-94052329D01*
X133733831Y-94183633D01*
X133767316Y-94244956D01*
X133770150Y-94271314D01*
X133770150Y-94954320D01*
X133808286Y-95046388D01*
X134016150Y-95254252D01*
X134049635Y-95315575D01*
X134052469Y-95341933D01*
X134052469Y-95590510D01*
X134846150Y-95590510D01*
X134913189Y-95610195D01*
X134958944Y-95662999D01*
X134970150Y-95714510D01*
X134970150Y-96062329D01*
X134984957Y-96098076D01*
X135008286Y-96154397D01*
X135158286Y-96304397D01*
X135228753Y-96374864D01*
X135320822Y-96413000D01*
X135796150Y-96413000D01*
X135863189Y-96432685D01*
X135908944Y-96485489D01*
X135920150Y-96537000D01*
X135920150Y-96721809D01*
X135927272Y-96748389D01*
X135941163Y-96800230D01*
X135950851Y-96836388D01*
X135975890Y-96879755D01*
X136010161Y-96939114D01*
X136010163Y-96939116D01*
X136216331Y-97145284D01*
X136249816Y-97206607D01*
X136252650Y-97232965D01*
X136252650Y-97523377D01*
X136232965Y-97590416D01*
X136180161Y-97636171D01*
X136111003Y-97646115D01*
X136047447Y-97617090D01*
X136040969Y-97611058D01*
X135930047Y-97500136D01*
X135837979Y-97462000D01*
X135837978Y-97462000D01*
X135470397Y-97462000D01*
X135403358Y-97442315D01*
X135359912Y-97394295D01*
X135356296Y-97387198D01*
X135356296Y-97387196D01*
X135298700Y-97274158D01*
X135298698Y-97274156D01*
X135298695Y-97274152D01*
X135208997Y-97184454D01*
X135208994Y-97184452D01*
X135208992Y-97184450D01*
X135102686Y-97130284D01*
X135095951Y-97126852D01*
X135002174Y-97112000D01*
X134439132Y-97112000D01*
X134358169Y-97124823D01*
X134345346Y-97126854D01*
X134232308Y-97184450D01*
X134232307Y-97184451D01*
X134232302Y-97184454D01*
X134142604Y-97274152D01*
X134142602Y-97274156D01*
X134142600Y-97274158D01*
X134123401Y-97311837D01*
X134085002Y-97387198D01*
X134070150Y-97480975D01*
X134070150Y-97944017D01*
X134077508Y-97990473D01*
X134085004Y-98037804D01*
X134142600Y-98150842D01*
X134142602Y-98150844D01*
X134142604Y-98150847D01*
X134232302Y-98240545D01*
X134232304Y-98240546D01*
X134232308Y-98240550D01*
X134345344Y-98298145D01*
X134345348Y-98298147D01*
X134439125Y-98312999D01*
X134439131Y-98313000D01*
X135002168Y-98312999D01*
X135095954Y-98298146D01*
X135208992Y-98240550D01*
X135298700Y-98150842D01*
X135356296Y-98037804D01*
X135356296Y-98037803D01*
X135359913Y-98030705D01*
X135370362Y-98019640D01*
X135376685Y-98005797D01*
X135393865Y-97994755D01*
X135407888Y-97979909D01*
X135423567Y-97975667D01*
X135435463Y-97968023D01*
X135470398Y-97963000D01*
X135633027Y-97963000D01*
X135700066Y-97982685D01*
X135720708Y-97999319D01*
X136608831Y-98887441D01*
X136642316Y-98948764D01*
X136645150Y-98975122D01*
X136645150Y-99133000D01*
X136625465Y-99200039D01*
X136572661Y-99245794D01*
X136521150Y-99257000D01*
X135882252Y-99257000D01*
X135805531Y-99272260D01*
X135805529Y-99272261D01*
X135747402Y-99311102D01*
X135680725Y-99331980D01*
X135678511Y-99332000D01*
X134245773Y-99332000D01*
X134216332Y-99323355D01*
X134186346Y-99316832D01*
X134181330Y-99313077D01*
X134178734Y-99312315D01*
X134158092Y-99295681D01*
X134006849Y-99144438D01*
X133973364Y-99083115D01*
X133970913Y-99047014D01*
X133971146Y-99044043D01*
X133971150Y-99044019D01*
X133971149Y-98580982D01*
X133956296Y-98487196D01*
X133898700Y-98374158D01*
X133898696Y-98374154D01*
X133898695Y-98374152D01*
X133808997Y-98284454D01*
X133808994Y-98284452D01*
X133808992Y-98284450D01*
X133722824Y-98240545D01*
X133695951Y-98226852D01*
X133602174Y-98212000D01*
X133039132Y-98212000D01*
X132958169Y-98224823D01*
X132945346Y-98226854D01*
X132832308Y-98284450D01*
X132832307Y-98284451D01*
X132832302Y-98284454D01*
X132742604Y-98374152D01*
X132742599Y-98374159D01*
X132727634Y-98403530D01*
X132679660Y-98454325D01*
X132611838Y-98471120D01*
X132545704Y-98448582D01*
X132502253Y-98393867D01*
X132493150Y-98347234D01*
X132493150Y-93964802D01*
X132512835Y-93897763D01*
X132565639Y-93852008D01*
X132634797Y-93842064D01*
X132698353Y-93871089D01*
G37*
%TD.AperFunction*%
%TD*%
M02*
