%TF.GenerationSoftware,KiCad,Pcbnew,10.0.1*%
%TF.CreationDate,2026-06-12T14:10:23-05:00*%
%TF.ProjectId,wearable_IMU,77656172-6162-46c6-955f-494d552e6b69,rev?*%
%TF.SameCoordinates,Original*%
%TF.FileFunction,Copper,L2,Inr*%
%TF.FilePolarity,Positive*%
%FSLAX46Y46*%
G04 Gerber Fmt 4.6, Leading zero omitted, Abs format (unit mm)*
G04 Created by KiCad (PCBNEW 10.0.1) date 2026-06-12 14:10:23*
%MOMM*%
%LPD*%
G01*
G04 APERTURE LIST*
%TA.AperFunction,ComponentPad*%
%ADD10O,2.100000X1.000000*%
%TD*%
%TA.AperFunction,ComponentPad*%
%ADD11O,1.800000X1.000000*%
%TD*%
%TA.AperFunction,ViaPad*%
%ADD12C,0.400000*%
%TD*%
%TA.AperFunction,ViaPad*%
%ADD13C,0.600000*%
%TD*%
G04 APERTURE END LIST*
D10*
%TO.N,GND*%
%TO.C,J1*%
X127705000Y-101300000D03*
D11*
X123525000Y-101300000D03*
D10*
X127705000Y-109940000D03*
D11*
X123525000Y-109940000D03*
%TD*%
D12*
%TO.N,+VSYS*%
X147120650Y-108362500D03*
%TO.N,/EN*%
X147920650Y-105962500D03*
%TO.N,GND*%
X144920650Y-110012500D03*
X140270650Y-94812500D03*
X145013150Y-89870000D03*
X143395650Y-89207500D03*
X142020650Y-85662500D03*
X148820650Y-95712500D03*
X134420650Y-96412500D03*
X145212650Y-91770050D03*
X141163150Y-93270000D03*
X139913150Y-89226666D03*
X144120650Y-108962500D03*
X149013150Y-89870000D03*
X140270650Y-93362500D03*
X151013150Y-100970000D03*
X133770650Y-105862500D03*
D13*
X139720650Y-102332500D03*
D12*
X131770650Y-104462500D03*
X138670650Y-91012500D03*
X140913150Y-89870000D03*
D13*
X141720650Y-104332500D03*
D12*
X138713150Y-87983333D03*
X140338357Y-85715207D03*
X139913150Y-86740000D03*
X139913150Y-87983333D03*
X145013150Y-83870000D03*
X133919969Y-87900510D03*
X138713873Y-86710560D03*
X140563150Y-96470000D03*
X138908442Y-85742061D03*
X135469969Y-91500510D03*
X138713150Y-89226666D03*
X133269969Y-95700510D03*
X136169969Y-91550510D03*
X135720650Y-98912500D03*
X133070650Y-107862500D03*
X150013150Y-89870000D03*
D13*
X139720650Y-100332500D03*
D12*
X145013150Y-85870000D03*
X146045650Y-93107500D03*
X145013150Y-86870000D03*
X143120650Y-108962500D03*
D13*
X141720650Y-100332500D03*
D12*
X133120650Y-100062500D03*
X133020650Y-96362500D03*
X145645650Y-100007500D03*
X145013150Y-88870000D03*
X138570650Y-92762500D03*
X148013150Y-89870000D03*
X145233150Y-94620000D03*
X146520650Y-105862500D03*
D13*
X139720650Y-104332500D03*
X137720650Y-104332500D03*
D12*
X151013150Y-89870000D03*
X149290022Y-97060626D03*
X137470650Y-96562500D03*
X145638150Y-90895000D03*
X147013150Y-89870000D03*
X134120650Y-89412500D03*
X145013150Y-87870000D03*
X139520650Y-107912500D03*
X145670650Y-110012500D03*
X140013150Y-90870000D03*
X132120650Y-101312500D03*
X146520650Y-102412500D03*
X143595650Y-85662500D03*
D13*
X137720650Y-100332500D03*
D12*
X151013150Y-101670000D03*
D13*
X141720650Y-102332500D03*
X137720650Y-102332500D03*
D12*
X146013150Y-89870000D03*
D13*
%TO.N,+3V3*%
X136820650Y-86962500D03*
D12*
X132920650Y-90362500D03*
%TO.N,/SCL*%
X134520650Y-90762500D03*
%TO.N,/SDA*%
X135220650Y-90662500D03*
%TD*%
%TA.AperFunction,Conductor*%
%TO.N,GND*%
G36*
X145456189Y-83190185D02*
G01*
X145501944Y-83242989D01*
X145513150Y-83294500D01*
X145513150Y-89380000D01*
X151588650Y-89380000D01*
X151655689Y-89399685D01*
X151701444Y-89452489D01*
X151712650Y-89504000D01*
X151712650Y-112445500D01*
X151692965Y-112512539D01*
X151640161Y-112558294D01*
X151588650Y-112569500D01*
X122437650Y-112569500D01*
X122370611Y-112549815D01*
X122324856Y-112497011D01*
X122313650Y-112445500D01*
X122313650Y-110832551D01*
X122333335Y-110765512D01*
X122386139Y-110719757D01*
X122455297Y-110709813D01*
X122506541Y-110729449D01*
X122651316Y-110826185D01*
X122651328Y-110826192D01*
X122833306Y-110901569D01*
X122833318Y-110901572D01*
X123026504Y-110939999D01*
X123026508Y-110940000D01*
X123275000Y-110940000D01*
X123275000Y-110240000D01*
X123775000Y-110240000D01*
X123775000Y-110940000D01*
X124023492Y-110940000D01*
X124023495Y-110939999D01*
X124216681Y-110901572D01*
X124216693Y-110901569D01*
X124398671Y-110826192D01*
X124398684Y-110826185D01*
X124562462Y-110716751D01*
X124562466Y-110716748D01*
X124701748Y-110577466D01*
X124701751Y-110577462D01*
X124811185Y-110413684D01*
X124811192Y-110413671D01*
X124886569Y-110231692D01*
X124886569Y-110231690D01*
X124894862Y-110190000D01*
X124091988Y-110190000D01*
X124109205Y-110180060D01*
X124165060Y-110124205D01*
X124204556Y-110055796D01*
X124225000Y-109979496D01*
X124225000Y-109900504D01*
X124204556Y-109824204D01*
X124165060Y-109755795D01*
X124109205Y-109699940D01*
X124091988Y-109690000D01*
X124894862Y-109690000D01*
X126185138Y-109690000D01*
X126988012Y-109690000D01*
X126970795Y-109699940D01*
X126914940Y-109755795D01*
X126875444Y-109824204D01*
X126855000Y-109900504D01*
X126855000Y-109979496D01*
X126875444Y-110055796D01*
X126914940Y-110124205D01*
X126970795Y-110180060D01*
X126988012Y-110190000D01*
X126185138Y-110190000D01*
X126193430Y-110231690D01*
X126193430Y-110231692D01*
X126268807Y-110413671D01*
X126268814Y-110413684D01*
X126378248Y-110577462D01*
X126378251Y-110577466D01*
X126517533Y-110716748D01*
X126517537Y-110716751D01*
X126681315Y-110826185D01*
X126681328Y-110826192D01*
X126863306Y-110901569D01*
X126863318Y-110901572D01*
X127056504Y-110939999D01*
X127056508Y-110940000D01*
X127455000Y-110940000D01*
X127455000Y-110240000D01*
X127955000Y-110240000D01*
X127955000Y-110940000D01*
X128353492Y-110940000D01*
X128353495Y-110939999D01*
X128546681Y-110901572D01*
X128546693Y-110901569D01*
X128728671Y-110826192D01*
X128728684Y-110826185D01*
X128892462Y-110716751D01*
X128892466Y-110716748D01*
X129031748Y-110577466D01*
X129031751Y-110577462D01*
X129141185Y-110413684D01*
X129141192Y-110413671D01*
X129216569Y-110231692D01*
X129216569Y-110231690D01*
X129224862Y-110190000D01*
X128421988Y-110190000D01*
X128439205Y-110180060D01*
X128495060Y-110124205D01*
X128534556Y-110055796D01*
X128555000Y-109979496D01*
X128555000Y-109900504D01*
X128551238Y-109886465D01*
X135727350Y-109886465D01*
X135727350Y-110023534D01*
X135754087Y-110157949D01*
X135754090Y-110157961D01*
X135806536Y-110284578D01*
X135806543Y-110284591D01*
X135882686Y-110398546D01*
X135882689Y-110398550D01*
X135979599Y-110495460D01*
X135979603Y-110495463D01*
X136093558Y-110571606D01*
X136093571Y-110571613D01*
X136196316Y-110614171D01*
X136220193Y-110624061D01*
X136352237Y-110650326D01*
X136354615Y-110650799D01*
X136354619Y-110650800D01*
X136354620Y-110650800D01*
X136491679Y-110650800D01*
X136491680Y-110650800D01*
X136491680Y-110650799D01*
X136496489Y-110650326D01*
X136565136Y-110663341D01*
X136615849Y-110711403D01*
X136629842Y-110763313D01*
X136631589Y-110763084D01*
X136632650Y-110771142D01*
X136632650Y-110771144D01*
X136653054Y-110847294D01*
X136656537Y-110860290D01*
X136656538Y-110860293D01*
X136702676Y-110940205D01*
X136702679Y-110940209D01*
X136702681Y-110940212D01*
X136767938Y-111005469D01*
X136767941Y-111005470D01*
X136767944Y-111005473D01*
X136847856Y-111051611D01*
X136847857Y-111051611D01*
X136847862Y-111051614D01*
X136937006Y-111075500D01*
X136937008Y-111075500D01*
X137029292Y-111075500D01*
X137029294Y-111075500D01*
X137118438Y-111051614D01*
X137179506Y-111016356D01*
X139220150Y-111016356D01*
X139220150Y-111108644D01*
X139241413Y-111188000D01*
X139244037Y-111197790D01*
X139244038Y-111197793D01*
X139290176Y-111277705D01*
X139290179Y-111277709D01*
X139290181Y-111277712D01*
X139355438Y-111342969D01*
X139355441Y-111342970D01*
X139355444Y-111342973D01*
X139435356Y-111389111D01*
X139435357Y-111389111D01*
X139435362Y-111389114D01*
X139524506Y-111413000D01*
X139524508Y-111413000D01*
X139616792Y-111413000D01*
X139616794Y-111413000D01*
X139705938Y-111389114D01*
X139785862Y-111342969D01*
X139851119Y-111277712D01*
X139897264Y-111197788D01*
X139921150Y-111108644D01*
X139921150Y-111016356D01*
X139897264Y-110927212D01*
X139882979Y-110902470D01*
X139882976Y-110902465D01*
X140807350Y-110902465D01*
X140807350Y-111039534D01*
X140834087Y-111173949D01*
X140834090Y-111173961D01*
X140886536Y-111300578D01*
X140886543Y-111300591D01*
X140962686Y-111414546D01*
X140962689Y-111414550D01*
X141059599Y-111511460D01*
X141059603Y-111511463D01*
X141173558Y-111587606D01*
X141173571Y-111587613D01*
X141300188Y-111640059D01*
X141300193Y-111640061D01*
X141434615Y-111666799D01*
X141434619Y-111666800D01*
X141434620Y-111666800D01*
X141571681Y-111666800D01*
X141571682Y-111666799D01*
X141706107Y-111640061D01*
X141832735Y-111587610D01*
X141946697Y-111511463D01*
X142043613Y-111414547D01*
X142119760Y-111300585D01*
X142172211Y-111173957D01*
X142198950Y-111039530D01*
X142198950Y-110966356D01*
X144670150Y-110966356D01*
X144670150Y-111058644D01*
X144691672Y-111138966D01*
X144694037Y-111147790D01*
X144694038Y-111147793D01*
X144740176Y-111227705D01*
X144740179Y-111227709D01*
X144740181Y-111227712D01*
X144805438Y-111292969D01*
X144805441Y-111292970D01*
X144805444Y-111292973D01*
X144885356Y-111339111D01*
X144885357Y-111339111D01*
X144885362Y-111339114D01*
X144974506Y-111363000D01*
X144974508Y-111363000D01*
X145066792Y-111363000D01*
X145066794Y-111363000D01*
X145155938Y-111339114D01*
X145235862Y-111292969D01*
X145301119Y-111227712D01*
X145347264Y-111147788D01*
X145371150Y-111058644D01*
X145371150Y-110966356D01*
X145347264Y-110877212D01*
X145343466Y-110870633D01*
X145301123Y-110797294D01*
X145301120Y-110797291D01*
X145301119Y-110797288D01*
X145235862Y-110732031D01*
X145235859Y-110732029D01*
X145235855Y-110732026D01*
X145155943Y-110685888D01*
X145155940Y-110685887D01*
X145155939Y-110685886D01*
X145155938Y-110685886D01*
X145066794Y-110662000D01*
X144974506Y-110662000D01*
X144885362Y-110685886D01*
X144885361Y-110685886D01*
X144885359Y-110685887D01*
X144885356Y-110685888D01*
X144805444Y-110732026D01*
X144805435Y-110732033D01*
X144740183Y-110797285D01*
X144740176Y-110797294D01*
X144694038Y-110877206D01*
X144694037Y-110877209D01*
X144694036Y-110877211D01*
X144694036Y-110877212D01*
X144670150Y-110966356D01*
X142198950Y-110966356D01*
X142198950Y-110902470D01*
X142172211Y-110768043D01*
X142157295Y-110732033D01*
X142119763Y-110641421D01*
X142119756Y-110641408D01*
X142109842Y-110626571D01*
X150032649Y-110626571D01*
X150057647Y-110752238D01*
X150057649Y-110752244D01*
X150106683Y-110870624D01*
X150106688Y-110870633D01*
X150177873Y-110977168D01*
X150177876Y-110977172D01*
X150268477Y-111067773D01*
X150268481Y-111067776D01*
X150375016Y-111138961D01*
X150375025Y-111138966D01*
X150396328Y-111147790D01*
X150493406Y-111188001D01*
X150493410Y-111188001D01*
X150493411Y-111188002D01*
X150619078Y-111213000D01*
X150619081Y-111213000D01*
X150747221Y-111213000D01*
X150831765Y-111196182D01*
X150872894Y-111188001D01*
X150991277Y-111138965D01*
X151097819Y-111067776D01*
X151188426Y-110977169D01*
X151259615Y-110870627D01*
X151308651Y-110752244D01*
X151317091Y-110709813D01*
X151333650Y-110626571D01*
X151333650Y-110498428D01*
X151308652Y-110372761D01*
X151308651Y-110372760D01*
X151308651Y-110372756D01*
X151259615Y-110254373D01*
X151259614Y-110254372D01*
X151259611Y-110254366D01*
X151188426Y-110147831D01*
X151188423Y-110147827D01*
X151097822Y-110057226D01*
X151097818Y-110057223D01*
X150991283Y-109986038D01*
X150991274Y-109986033D01*
X150872894Y-109936999D01*
X150872888Y-109936997D01*
X150747221Y-109912000D01*
X150747219Y-109912000D01*
X150619081Y-109912000D01*
X150619079Y-109912000D01*
X150493411Y-109936997D01*
X150493405Y-109936999D01*
X150375025Y-109986033D01*
X150375016Y-109986038D01*
X150268481Y-110057223D01*
X150268477Y-110057226D01*
X150177876Y-110147827D01*
X150177873Y-110147831D01*
X150106688Y-110254366D01*
X150106683Y-110254375D01*
X150057649Y-110372755D01*
X150057647Y-110372761D01*
X150032650Y-110498428D01*
X150032650Y-110498431D01*
X150032650Y-110626569D01*
X150032650Y-110626571D01*
X150032649Y-110626571D01*
X142109842Y-110626571D01*
X142066183Y-110561230D01*
X142066182Y-110561229D01*
X142043615Y-110527455D01*
X142043610Y-110527449D01*
X141946700Y-110430539D01*
X141946696Y-110430536D01*
X141832741Y-110354393D01*
X141832728Y-110354386D01*
X141706111Y-110301940D01*
X141706099Y-110301937D01*
X141571684Y-110275200D01*
X141571680Y-110275200D01*
X141434620Y-110275200D01*
X141434615Y-110275200D01*
X141300200Y-110301937D01*
X141300188Y-110301940D01*
X141173571Y-110354386D01*
X141173558Y-110354393D01*
X141059603Y-110430536D01*
X141059599Y-110430539D01*
X140962689Y-110527449D01*
X140962686Y-110527453D01*
X140886543Y-110641408D01*
X140886536Y-110641421D01*
X140834090Y-110768038D01*
X140834087Y-110768050D01*
X140807350Y-110902465D01*
X139882976Y-110902465D01*
X139851123Y-110847294D01*
X139851120Y-110847291D01*
X139851119Y-110847288D01*
X139785862Y-110782031D01*
X139785859Y-110782029D01*
X139785855Y-110782026D01*
X139705943Y-110735888D01*
X139705940Y-110735887D01*
X139705939Y-110735886D01*
X139705938Y-110735886D01*
X139616794Y-110712000D01*
X139524506Y-110712000D01*
X139435362Y-110735886D01*
X139435361Y-110735886D01*
X139435359Y-110735887D01*
X139435356Y-110735888D01*
X139355444Y-110782026D01*
X139355435Y-110782033D01*
X139290183Y-110847285D01*
X139290176Y-110847294D01*
X139244038Y-110927206D01*
X139244037Y-110927209D01*
X139244036Y-110927211D01*
X139244036Y-110927212D01*
X139220150Y-111016356D01*
X137179506Y-111016356D01*
X137198362Y-111005469D01*
X137263619Y-110940212D01*
X137309764Y-110860288D01*
X137333650Y-110771144D01*
X137333650Y-110678856D01*
X137309764Y-110589712D01*
X137302694Y-110577466D01*
X137263623Y-110509794D01*
X137263620Y-110509791D01*
X137263619Y-110509788D01*
X137198362Y-110444531D01*
X137198359Y-110444529D01*
X137198355Y-110444526D01*
X137111399Y-110394321D01*
X137113125Y-110391330D01*
X137071101Y-110357365D01*
X137049134Y-110291038D01*
X137058499Y-110239343D01*
X137092211Y-110157957D01*
X137118950Y-110023530D01*
X137118950Y-109886470D01*
X137092211Y-109752043D01*
X137066512Y-109690000D01*
X137039763Y-109625421D01*
X137039756Y-109625408D01*
X136963613Y-109511453D01*
X136963610Y-109511449D01*
X136866700Y-109414539D01*
X136866696Y-109414536D01*
X136752741Y-109338393D01*
X136752728Y-109338386D01*
X136626111Y-109285940D01*
X136626099Y-109285937D01*
X136491684Y-109259200D01*
X136491680Y-109259200D01*
X136354620Y-109259200D01*
X136354615Y-109259200D01*
X136220200Y-109285937D01*
X136220188Y-109285940D01*
X136093571Y-109338386D01*
X136093558Y-109338393D01*
X135979603Y-109414536D01*
X135979599Y-109414539D01*
X135882689Y-109511449D01*
X135882686Y-109511453D01*
X135806543Y-109625408D01*
X135806536Y-109625421D01*
X135754090Y-109752038D01*
X135754087Y-109752050D01*
X135727350Y-109886465D01*
X128551238Y-109886465D01*
X128534556Y-109824204D01*
X128495060Y-109755795D01*
X128439205Y-109699940D01*
X128421988Y-109690000D01*
X129224862Y-109690000D01*
X129216569Y-109648309D01*
X129216569Y-109648307D01*
X129141192Y-109466328D01*
X129141185Y-109466315D01*
X129031751Y-109302537D01*
X129031748Y-109302533D01*
X128892466Y-109163251D01*
X128892462Y-109163248D01*
X128728684Y-109053814D01*
X128728671Y-109053807D01*
X128546693Y-108978430D01*
X128546681Y-108978427D01*
X128353495Y-108940000D01*
X127955000Y-108940000D01*
X127955000Y-109640000D01*
X127455000Y-109640000D01*
X127455000Y-109044049D01*
X127474685Y-108977010D01*
X127491870Y-108955820D01*
X127503203Y-108944627D01*
X127527665Y-108930505D01*
X127625505Y-108832665D01*
X127663788Y-108766356D01*
X133270150Y-108766356D01*
X133270150Y-108858644D01*
X133291949Y-108940000D01*
X133294037Y-108947790D01*
X133294038Y-108947793D01*
X133340176Y-109027705D01*
X133340179Y-109027709D01*
X133340181Y-109027712D01*
X133405438Y-109092969D01*
X133405441Y-109092970D01*
X133405444Y-109092973D01*
X133485356Y-109139111D01*
X133485357Y-109139111D01*
X133485362Y-109139114D01*
X133574506Y-109163000D01*
X133574508Y-109163000D01*
X133666792Y-109163000D01*
X133666794Y-109163000D01*
X133755938Y-109139114D01*
X133835862Y-109092969D01*
X133901119Y-109027712D01*
X133947264Y-108947788D01*
X133967983Y-108870465D01*
X140807350Y-108870465D01*
X140807350Y-109007534D01*
X140834087Y-109141949D01*
X140834090Y-109141961D01*
X140886536Y-109268578D01*
X140886543Y-109268591D01*
X140962686Y-109382546D01*
X140962689Y-109382550D01*
X141059599Y-109479460D01*
X141059603Y-109479463D01*
X141173558Y-109555606D01*
X141173571Y-109555613D01*
X141300188Y-109608059D01*
X141300193Y-109608061D01*
X141434615Y-109634799D01*
X141434619Y-109634800D01*
X141434620Y-109634800D01*
X141571681Y-109634800D01*
X141571682Y-109634799D01*
X141706107Y-109608061D01*
X141832735Y-109555610D01*
X141946697Y-109479463D01*
X142043613Y-109382547D01*
X142119760Y-109268585D01*
X142172211Y-109141957D01*
X142198950Y-109007530D01*
X142198950Y-108870470D01*
X142172211Y-108736043D01*
X142162599Y-108712838D01*
X142119763Y-108609421D01*
X142119756Y-108609408D01*
X142043613Y-108495453D01*
X142043610Y-108495449D01*
X141946700Y-108398539D01*
X141946696Y-108398536D01*
X141832741Y-108322393D01*
X141832729Y-108322387D01*
X141706111Y-108269940D01*
X141706099Y-108269937D01*
X141571684Y-108243200D01*
X141571680Y-108243200D01*
X141434620Y-108243200D01*
X141434615Y-108243200D01*
X141300200Y-108269937D01*
X141300188Y-108269940D01*
X141173571Y-108322386D01*
X141173558Y-108322393D01*
X141059603Y-108398536D01*
X141059599Y-108398539D01*
X140962689Y-108495449D01*
X140962686Y-108495453D01*
X140886543Y-108609408D01*
X140886536Y-108609421D01*
X140834090Y-108736038D01*
X140834087Y-108736050D01*
X140807350Y-108870465D01*
X133967983Y-108870465D01*
X133971150Y-108858644D01*
X133971150Y-108766356D01*
X133947264Y-108677212D01*
X133928790Y-108645214D01*
X133901123Y-108597294D01*
X133901120Y-108597291D01*
X133901119Y-108597288D01*
X133835862Y-108532031D01*
X133835859Y-108532029D01*
X133835855Y-108532026D01*
X133755943Y-108485888D01*
X133755940Y-108485887D01*
X133755939Y-108485886D01*
X133755938Y-108485886D01*
X133666794Y-108462000D01*
X133574506Y-108462000D01*
X133485362Y-108485886D01*
X133485361Y-108485886D01*
X133485359Y-108485887D01*
X133485356Y-108485888D01*
X133405444Y-108532026D01*
X133405435Y-108532033D01*
X133340183Y-108597285D01*
X133340176Y-108597294D01*
X133294038Y-108677206D01*
X133294037Y-108677209D01*
X133294036Y-108677211D01*
X133294036Y-108677212D01*
X133270150Y-108766356D01*
X127663788Y-108766356D01*
X127694688Y-108712836D01*
X127730500Y-108579183D01*
X127730500Y-108440817D01*
X127694688Y-108307164D01*
X127625505Y-108187335D01*
X127602026Y-108163856D01*
X137832650Y-108163856D01*
X137832650Y-108256144D01*
X137850401Y-108322393D01*
X137856537Y-108345290D01*
X137856538Y-108345293D01*
X137902676Y-108425205D01*
X137902679Y-108425209D01*
X137902681Y-108425212D01*
X137967938Y-108490469D01*
X137967941Y-108490470D01*
X137967944Y-108490473D01*
X138047856Y-108536611D01*
X138047857Y-108536611D01*
X138047862Y-108536614D01*
X138137006Y-108560500D01*
X138137008Y-108560500D01*
X138229292Y-108560500D01*
X138229294Y-108560500D01*
X138318438Y-108536614D01*
X138398362Y-108490469D01*
X138418526Y-108470304D01*
X138479845Y-108436821D01*
X138549536Y-108441804D01*
X138605471Y-108483675D01*
X138625979Y-108525892D01*
X138636535Y-108565286D01*
X138636538Y-108565293D01*
X138682676Y-108645205D01*
X138682679Y-108645209D01*
X138682681Y-108645212D01*
X138747938Y-108710469D01*
X138747941Y-108710470D01*
X138747944Y-108710473D01*
X138827856Y-108756611D01*
X138827857Y-108756611D01*
X138827862Y-108756614D01*
X138917006Y-108780500D01*
X138917008Y-108780500D01*
X139009292Y-108780500D01*
X139009294Y-108780500D01*
X139098438Y-108756614D01*
X139178362Y-108710469D01*
X139243619Y-108645212D01*
X139289764Y-108565288D01*
X139313650Y-108476144D01*
X139313650Y-108383856D01*
X139289764Y-108294712D01*
X139275462Y-108269940D01*
X139244525Y-108216356D01*
X145870150Y-108216356D01*
X145870150Y-108308644D01*
X145890303Y-108383858D01*
X145894037Y-108397790D01*
X145894038Y-108397793D01*
X145940176Y-108477705D01*
X145940179Y-108477709D01*
X145940181Y-108477712D01*
X146005438Y-108542969D01*
X146005441Y-108542970D01*
X146005444Y-108542973D01*
X146085356Y-108589111D01*
X146085357Y-108589111D01*
X146085362Y-108589114D01*
X146174506Y-108613000D01*
X146174508Y-108613000D01*
X146266792Y-108613000D01*
X146266794Y-108613000D01*
X146355938Y-108589114D01*
X146435862Y-108542969D01*
X146501119Y-108477712D01*
X146512475Y-108458042D01*
X146563040Y-108409829D01*
X146631647Y-108396605D01*
X146696512Y-108422573D01*
X146737041Y-108479487D01*
X146739632Y-108487938D01*
X146741646Y-108495453D01*
X146747444Y-108517089D01*
X146756068Y-108532026D01*
X146800170Y-108608413D01*
X146874737Y-108682980D01*
X146966063Y-108735707D01*
X147067923Y-108763000D01*
X147067925Y-108763000D01*
X147173375Y-108763000D01*
X147173377Y-108763000D01*
X147275237Y-108735707D01*
X147366563Y-108682980D01*
X147441130Y-108608413D01*
X147493857Y-108517087D01*
X147521150Y-108415227D01*
X147521150Y-108309773D01*
X147493857Y-108207913D01*
X147441130Y-108116587D01*
X147366563Y-108042020D01*
X147284755Y-107994788D01*
X147275239Y-107989294D01*
X147275238Y-107989293D01*
X147275237Y-107989293D01*
X147173377Y-107962000D01*
X147067923Y-107962000D01*
X146966063Y-107989293D01*
X146966060Y-107989294D01*
X146874735Y-108042021D01*
X146800171Y-108116585D01*
X146775167Y-108159893D01*
X146724599Y-108208107D01*
X146655992Y-108221329D01*
X146591128Y-108195360D01*
X146550600Y-108138446D01*
X146548010Y-108129997D01*
X146547264Y-108127212D01*
X146547262Y-108127209D01*
X146547262Y-108127207D01*
X146547261Y-108127206D01*
X146501123Y-108047294D01*
X146501120Y-108047291D01*
X146501119Y-108047288D01*
X146435862Y-107982031D01*
X146435859Y-107982029D01*
X146435855Y-107982026D01*
X146355943Y-107935888D01*
X146355940Y-107935887D01*
X146355939Y-107935886D01*
X146355938Y-107935886D01*
X146266794Y-107912000D01*
X146174506Y-107912000D01*
X146085362Y-107935886D01*
X146085361Y-107935886D01*
X146085359Y-107935887D01*
X146085356Y-107935888D01*
X146005444Y-107982026D01*
X146005435Y-107982033D01*
X145940183Y-108047285D01*
X145940176Y-108047294D01*
X145894038Y-108127206D01*
X145894037Y-108127209D01*
X145894036Y-108127211D01*
X145894036Y-108127212D01*
X145870150Y-108216356D01*
X139244525Y-108216356D01*
X139243623Y-108214794D01*
X139243620Y-108214791D01*
X139243619Y-108214788D01*
X139178362Y-108149531D01*
X139178359Y-108149529D01*
X139178355Y-108149526D01*
X139098443Y-108103388D01*
X139098440Y-108103387D01*
X139098439Y-108103386D01*
X139098438Y-108103386D01*
X139009294Y-108079500D01*
X138917006Y-108079500D01*
X138827862Y-108103386D01*
X138827861Y-108103386D01*
X138827859Y-108103387D01*
X138827856Y-108103388D01*
X138747944Y-108149526D01*
X138747938Y-108149531D01*
X138727774Y-108169695D01*
X138666450Y-108203179D01*
X138596758Y-108198193D01*
X138540825Y-108156321D01*
X138520320Y-108114108D01*
X138509764Y-108074712D01*
X138509762Y-108074709D01*
X138509762Y-108074707D01*
X138509761Y-108074706D01*
X138463623Y-107994794D01*
X138463620Y-107994791D01*
X138463619Y-107994788D01*
X138398362Y-107929531D01*
X138398359Y-107929529D01*
X138398355Y-107929526D01*
X138318443Y-107883388D01*
X138318440Y-107883387D01*
X138318439Y-107883386D01*
X138318438Y-107883386D01*
X138229294Y-107859500D01*
X138137006Y-107859500D01*
X138047862Y-107883386D01*
X138047861Y-107883386D01*
X138047859Y-107883387D01*
X138047856Y-107883388D01*
X137967944Y-107929526D01*
X137967935Y-107929533D01*
X137902683Y-107994785D01*
X137902676Y-107994794D01*
X137856538Y-108074706D01*
X137856537Y-108074709D01*
X137856536Y-108074711D01*
X137856536Y-108074712D01*
X137832650Y-108163856D01*
X127602026Y-108163856D01*
X127527665Y-108089495D01*
X127527664Y-108089494D01*
X127527661Y-108089492D01*
X127407838Y-108020313D01*
X127407837Y-108020312D01*
X127407836Y-108020312D01*
X127274183Y-107984500D01*
X127135817Y-107984500D01*
X127002164Y-108020312D01*
X127002161Y-108020313D01*
X126882338Y-108089492D01*
X126882333Y-108089496D01*
X126784496Y-108187333D01*
X126784492Y-108187338D01*
X126715313Y-108307161D01*
X126715312Y-108307164D01*
X126679500Y-108440817D01*
X126679500Y-108579183D01*
X126697193Y-108645212D01*
X126715312Y-108712835D01*
X126715313Y-108712838D01*
X126784492Y-108832661D01*
X126789441Y-108839110D01*
X126786813Y-108841125D01*
X126812911Y-108888919D01*
X126807927Y-108958611D01*
X126766055Y-109014544D01*
X126739197Y-109029838D01*
X126681328Y-109053807D01*
X126681315Y-109053814D01*
X126517537Y-109163248D01*
X126517533Y-109163251D01*
X126378251Y-109302533D01*
X126378248Y-109302537D01*
X126268814Y-109466315D01*
X126268807Y-109466328D01*
X126193430Y-109648307D01*
X126193430Y-109648309D01*
X126185138Y-109690000D01*
X124894862Y-109690000D01*
X124886569Y-109648309D01*
X124886569Y-109648307D01*
X124811192Y-109466328D01*
X124811185Y-109466315D01*
X124701751Y-109302537D01*
X124701748Y-109302533D01*
X124562466Y-109163251D01*
X124562462Y-109163248D01*
X124398684Y-109053814D01*
X124398671Y-109053807D01*
X124216693Y-108978430D01*
X124216681Y-108978427D01*
X124023495Y-108940000D01*
X123775000Y-108940000D01*
X123775000Y-109640000D01*
X123275000Y-109640000D01*
X123275000Y-108940000D01*
X123026504Y-108940000D01*
X122833318Y-108978427D01*
X122833306Y-108978430D01*
X122651328Y-109053807D01*
X122651315Y-109053814D01*
X122506541Y-109150550D01*
X122439863Y-109171428D01*
X122372483Y-109152943D01*
X122325793Y-109100965D01*
X122313650Y-109047448D01*
X122313650Y-106625119D01*
X138861387Y-106625119D01*
X138861387Y-106717406D01*
X138885274Y-106806553D01*
X138885275Y-106806556D01*
X138931413Y-106886468D01*
X138931416Y-106886472D01*
X138931418Y-106886475D01*
X138996675Y-106951732D01*
X138996678Y-106951733D01*
X138996681Y-106951736D01*
X139076593Y-106997874D01*
X139076594Y-106997874D01*
X139076599Y-106997877D01*
X139165743Y-107021763D01*
X139165745Y-107021763D01*
X139258029Y-107021763D01*
X139258031Y-107021763D01*
X139347175Y-106997877D01*
X139427099Y-106951732D01*
X139492356Y-106886475D01*
X139538501Y-106806551D01*
X139562387Y-106717407D01*
X139562387Y-106625119D01*
X139538501Y-106535975D01*
X139538498Y-106535969D01*
X139492360Y-106456057D01*
X139492357Y-106456054D01*
X139492356Y-106456051D01*
X139427099Y-106390794D01*
X139427096Y-106390792D01*
X139427092Y-106390789D01*
X139347180Y-106344651D01*
X139347177Y-106344650D01*
X139347176Y-106344649D01*
X139347175Y-106344649D01*
X139258031Y-106320763D01*
X139165743Y-106320763D01*
X139076599Y-106344649D01*
X139076598Y-106344649D01*
X139076596Y-106344650D01*
X139076593Y-106344651D01*
X138996681Y-106390789D01*
X138996672Y-106390796D01*
X138931420Y-106456048D01*
X138931413Y-106456057D01*
X138885275Y-106535969D01*
X138885274Y-106535972D01*
X138861387Y-106625119D01*
X122313650Y-106625119D01*
X122313650Y-105991356D01*
X131470150Y-105991356D01*
X131470150Y-106083643D01*
X131494037Y-106172790D01*
X131494038Y-106172793D01*
X131540176Y-106252705D01*
X131540179Y-106252709D01*
X131540181Y-106252712D01*
X131605438Y-106317969D01*
X131605441Y-106317970D01*
X131605444Y-106317973D01*
X131685356Y-106364111D01*
X131685357Y-106364111D01*
X131685362Y-106364114D01*
X131774506Y-106388000D01*
X131774508Y-106388000D01*
X131866792Y-106388000D01*
X131866794Y-106388000D01*
X131955938Y-106364114D01*
X132035862Y-106317969D01*
X132101119Y-106252712D01*
X132147264Y-106172788D01*
X132171150Y-106083644D01*
X132171150Y-105991356D01*
X132149290Y-105909773D01*
X147520150Y-105909773D01*
X147520150Y-106015227D01*
X147547443Y-106117087D01*
X147600170Y-106208413D01*
X147674737Y-106282980D01*
X147766063Y-106335707D01*
X147867923Y-106363000D01*
X147867925Y-106363000D01*
X147973375Y-106363000D01*
X147973377Y-106363000D01*
X148075237Y-106335707D01*
X148166563Y-106282980D01*
X148241130Y-106208413D01*
X148293857Y-106117087D01*
X148321150Y-106015227D01*
X148321150Y-105909773D01*
X148293857Y-105807913D01*
X148241130Y-105716587D01*
X148166563Y-105642020D01*
X148075237Y-105589293D01*
X147973377Y-105562000D01*
X147867923Y-105562000D01*
X147766063Y-105589293D01*
X147766060Y-105589294D01*
X147674735Y-105642021D01*
X147600171Y-105716585D01*
X147547444Y-105807910D01*
X147547443Y-105807913D01*
X147520150Y-105909773D01*
X132149290Y-105909773D01*
X132147264Y-105902212D01*
X132147261Y-105902206D01*
X132101123Y-105822294D01*
X132101120Y-105822291D01*
X132101119Y-105822288D01*
X132035862Y-105757031D01*
X132035859Y-105757029D01*
X132035855Y-105757026D01*
X131955943Y-105710888D01*
X131955940Y-105710887D01*
X131955939Y-105710886D01*
X131955938Y-105710886D01*
X131866794Y-105687000D01*
X131774506Y-105687000D01*
X131685362Y-105710886D01*
X131685361Y-105710886D01*
X131685359Y-105710887D01*
X131685356Y-105710888D01*
X131605444Y-105757026D01*
X131605435Y-105757033D01*
X131540183Y-105822285D01*
X131540176Y-105822294D01*
X131494038Y-105902206D01*
X131494037Y-105902209D01*
X131494036Y-105902211D01*
X131494036Y-105902212D01*
X131485588Y-105933740D01*
X131470150Y-105991356D01*
X122313650Y-105991356D01*
X122313650Y-102192551D01*
X122333335Y-102125512D01*
X122386139Y-102079757D01*
X122455297Y-102069813D01*
X122506541Y-102089449D01*
X122651316Y-102186185D01*
X122651328Y-102186192D01*
X122833306Y-102261569D01*
X122833318Y-102261572D01*
X123026504Y-102299999D01*
X123026508Y-102300000D01*
X123275000Y-102300000D01*
X123275000Y-101600000D01*
X123775000Y-101600000D01*
X123775000Y-102300000D01*
X124023492Y-102300000D01*
X124023495Y-102299999D01*
X124216681Y-102261572D01*
X124216693Y-102261569D01*
X124398671Y-102186192D01*
X124398684Y-102186185D01*
X124562462Y-102076751D01*
X124562466Y-102076748D01*
X124701748Y-101937466D01*
X124701751Y-101937462D01*
X124811185Y-101773684D01*
X124811192Y-101773671D01*
X124886569Y-101591692D01*
X124886569Y-101591690D01*
X124894862Y-101550000D01*
X124091988Y-101550000D01*
X124109205Y-101540060D01*
X124165060Y-101484205D01*
X124204556Y-101415796D01*
X124225000Y-101339496D01*
X124225000Y-101260504D01*
X124204556Y-101184204D01*
X124165060Y-101115795D01*
X124109205Y-101059940D01*
X124091988Y-101050000D01*
X124894862Y-101050000D01*
X126185138Y-101050000D01*
X126988012Y-101050000D01*
X126970795Y-101059940D01*
X126914940Y-101115795D01*
X126875444Y-101184204D01*
X126855000Y-101260504D01*
X126855000Y-101339496D01*
X126875444Y-101415796D01*
X126914940Y-101484205D01*
X126970795Y-101540060D01*
X126988012Y-101550000D01*
X126185138Y-101550000D01*
X126193430Y-101591690D01*
X126193430Y-101591692D01*
X126268807Y-101773671D01*
X126268814Y-101773684D01*
X126378248Y-101937462D01*
X126378251Y-101937466D01*
X126517533Y-102076748D01*
X126517537Y-102076751D01*
X126681315Y-102186185D01*
X126681322Y-102186189D01*
X126739196Y-102210160D01*
X126793600Y-102254000D01*
X126815666Y-102320294D01*
X126798388Y-102387994D01*
X126788774Y-102400378D01*
X126789441Y-102400890D01*
X126784492Y-102407338D01*
X126715313Y-102527161D01*
X126715312Y-102527164D01*
X126679500Y-102660817D01*
X126679500Y-102799182D01*
X126715312Y-102932835D01*
X126715313Y-102932838D01*
X126784492Y-103052661D01*
X126784494Y-103052664D01*
X126784495Y-103052665D01*
X126882335Y-103150505D01*
X127002164Y-103219688D01*
X127135817Y-103255500D01*
X127135819Y-103255500D01*
X127274181Y-103255500D01*
X127274183Y-103255500D01*
X127407836Y-103219688D01*
X127527665Y-103150505D01*
X127625505Y-103052665D01*
X127694688Y-102932836D01*
X127730500Y-102799183D01*
X127730500Y-102660817D01*
X127694688Y-102527164D01*
X127625505Y-102407335D01*
X127527665Y-102309495D01*
X127527664Y-102309494D01*
X127516999Y-102303337D01*
X127468784Y-102252769D01*
X127455000Y-102195950D01*
X127455000Y-101600000D01*
X127955000Y-101600000D01*
X127955000Y-102300000D01*
X128353492Y-102300000D01*
X128353495Y-102299999D01*
X128546681Y-102261572D01*
X128546693Y-102261569D01*
X128728671Y-102186192D01*
X128728684Y-102186185D01*
X128892462Y-102076751D01*
X128892466Y-102076748D01*
X129031748Y-101937466D01*
X129031751Y-101937462D01*
X129141185Y-101773684D01*
X129141192Y-101773671D01*
X129216569Y-101591692D01*
X129216569Y-101591690D01*
X129224862Y-101550000D01*
X128421988Y-101550000D01*
X128439205Y-101540060D01*
X128495060Y-101484205D01*
X128534556Y-101415796D01*
X128555000Y-101339496D01*
X128555000Y-101260504D01*
X128534556Y-101184204D01*
X128495060Y-101115795D01*
X128439205Y-101059940D01*
X128421988Y-101050000D01*
X129224862Y-101050000D01*
X129216569Y-101008309D01*
X129216569Y-101008307D01*
X129141192Y-100826328D01*
X129141185Y-100826315D01*
X129031751Y-100662537D01*
X129031748Y-100662533D01*
X128935571Y-100566356D01*
X135120150Y-100566356D01*
X135120150Y-100658644D01*
X135140847Y-100735888D01*
X135144037Y-100747790D01*
X135144038Y-100747793D01*
X135190176Y-100827705D01*
X135195128Y-100834158D01*
X135193199Y-100835637D01*
X135220777Y-100886163D01*
X135215780Y-100955854D01*
X135193900Y-100989900D01*
X135195128Y-100990842D01*
X135190176Y-100997294D01*
X135144038Y-101077206D01*
X135144037Y-101077209D01*
X135144036Y-101077211D01*
X135144036Y-101077212D01*
X135120150Y-101166356D01*
X135120150Y-101258644D01*
X135143901Y-101347285D01*
X135144037Y-101347790D01*
X135144038Y-101347793D01*
X135190176Y-101427705D01*
X135190183Y-101427714D01*
X135261185Y-101498716D01*
X135259017Y-101500883D01*
X135291637Y-101545570D01*
X135295781Y-101615317D01*
X135261559Y-101676232D01*
X135259147Y-101678321D01*
X135190183Y-101747285D01*
X135190176Y-101747294D01*
X135144038Y-101827206D01*
X135144037Y-101827209D01*
X135144036Y-101827211D01*
X135144036Y-101827212D01*
X135120150Y-101916356D01*
X135120150Y-102008644D01*
X135138399Y-102076751D01*
X135144037Y-102097790D01*
X135144038Y-102097793D01*
X135190176Y-102177705D01*
X135190179Y-102177709D01*
X135190181Y-102177712D01*
X135255438Y-102242969D01*
X135255441Y-102242970D01*
X135255444Y-102242973D01*
X135335356Y-102289111D01*
X135335357Y-102289111D01*
X135335362Y-102289114D01*
X135424506Y-102313000D01*
X135424508Y-102313000D01*
X135516792Y-102313000D01*
X135516794Y-102313000D01*
X135605938Y-102289114D01*
X135685862Y-102242969D01*
X135751119Y-102177712D01*
X135786544Y-102116356D01*
X143820150Y-102116356D01*
X143820150Y-102208644D01*
X143841711Y-102289112D01*
X143844037Y-102297790D01*
X143844038Y-102297793D01*
X143890176Y-102377705D01*
X143890183Y-102377714D01*
X143916038Y-102403569D01*
X143949523Y-102464892D01*
X143944539Y-102534584D01*
X143916038Y-102578931D01*
X143890183Y-102604785D01*
X143890176Y-102604794D01*
X143844038Y-102684706D01*
X143844037Y-102684709D01*
X143844036Y-102684711D01*
X143844036Y-102684712D01*
X143820150Y-102773856D01*
X143820150Y-102866144D01*
X143838837Y-102935886D01*
X143844037Y-102955290D01*
X143844038Y-102955293D01*
X143890176Y-103035205D01*
X143890183Y-103035214D01*
X143933538Y-103078569D01*
X143967023Y-103139892D01*
X143962039Y-103209584D01*
X143933538Y-103253931D01*
X143890183Y-103297285D01*
X143890176Y-103297294D01*
X143844038Y-103377206D01*
X143844037Y-103377209D01*
X143844036Y-103377211D01*
X143844036Y-103377212D01*
X143820150Y-103466356D01*
X143820150Y-103558644D01*
X143834714Y-103612999D01*
X143844037Y-103647790D01*
X143844038Y-103647793D01*
X143890176Y-103727705D01*
X143890179Y-103727709D01*
X143890181Y-103727712D01*
X143955438Y-103792969D01*
X143955441Y-103792970D01*
X143955444Y-103792973D01*
X144035356Y-103839111D01*
X144035357Y-103839111D01*
X144035362Y-103839114D01*
X144124506Y-103863000D01*
X144124508Y-103863000D01*
X144216792Y-103863000D01*
X144216794Y-103863000D01*
X144305938Y-103839114D01*
X144327663Y-103826571D01*
X150032649Y-103826571D01*
X150057647Y-103952238D01*
X150057649Y-103952244D01*
X150106683Y-104070624D01*
X150106688Y-104070633D01*
X150177873Y-104177168D01*
X150177876Y-104177172D01*
X150268477Y-104267773D01*
X150268481Y-104267776D01*
X150375016Y-104338961D01*
X150375022Y-104338964D01*
X150375023Y-104338965D01*
X150493406Y-104388001D01*
X150493410Y-104388001D01*
X150493411Y-104388002D01*
X150619078Y-104413000D01*
X150619081Y-104413000D01*
X150747221Y-104413000D01*
X150831765Y-104396182D01*
X150872894Y-104388001D01*
X150991277Y-104338965D01*
X151097819Y-104267776D01*
X151188426Y-104177169D01*
X151259615Y-104070627D01*
X151308651Y-103952244D01*
X151326403Y-103863000D01*
X151333650Y-103826571D01*
X151333650Y-103698428D01*
X151308652Y-103572761D01*
X151308651Y-103572760D01*
X151308651Y-103572756D01*
X151259615Y-103454373D01*
X151259614Y-103454372D01*
X151259611Y-103454366D01*
X151188426Y-103347831D01*
X151188423Y-103347827D01*
X151097822Y-103257226D01*
X151097818Y-103257223D01*
X150991283Y-103186038D01*
X150991274Y-103186033D01*
X150872894Y-103136999D01*
X150872888Y-103136997D01*
X150747221Y-103112000D01*
X150747219Y-103112000D01*
X150619081Y-103112000D01*
X150619079Y-103112000D01*
X150493411Y-103136997D01*
X150493405Y-103136999D01*
X150375025Y-103186033D01*
X150375016Y-103186038D01*
X150268481Y-103257223D01*
X150268477Y-103257226D01*
X150177876Y-103347827D01*
X150177873Y-103347831D01*
X150106688Y-103454366D01*
X150106683Y-103454375D01*
X150057649Y-103572755D01*
X150057647Y-103572761D01*
X150032650Y-103698428D01*
X150032650Y-103698431D01*
X150032650Y-103826569D01*
X150032650Y-103826571D01*
X150032649Y-103826571D01*
X144327663Y-103826571D01*
X144385862Y-103792969D01*
X144451119Y-103727712D01*
X144497264Y-103647788D01*
X144521150Y-103558644D01*
X144521150Y-103466356D01*
X144497264Y-103377212D01*
X144480301Y-103347831D01*
X144451123Y-103297294D01*
X144451120Y-103297291D01*
X144451119Y-103297288D01*
X144407762Y-103253931D01*
X144387244Y-103216356D01*
X146570150Y-103216356D01*
X146570150Y-103308644D01*
X146588521Y-103377206D01*
X146594037Y-103397790D01*
X146594038Y-103397793D01*
X146640176Y-103477705D01*
X146640179Y-103477709D01*
X146640181Y-103477712D01*
X146705438Y-103542969D01*
X146705441Y-103542970D01*
X146705444Y-103542973D01*
X146785356Y-103589111D01*
X146785357Y-103589111D01*
X146785362Y-103589114D01*
X146874506Y-103613000D01*
X146874508Y-103613000D01*
X146966792Y-103613000D01*
X146966794Y-103613000D01*
X147055938Y-103589114D01*
X147135862Y-103542969D01*
X147201119Y-103477712D01*
X147247264Y-103397788D01*
X147271150Y-103308644D01*
X147271150Y-103216356D01*
X147247264Y-103127212D01*
X147244784Y-103122916D01*
X147201123Y-103047294D01*
X147201120Y-103047291D01*
X147201119Y-103047288D01*
X147135862Y-102982031D01*
X147135859Y-102982029D01*
X147135855Y-102982026D01*
X147055943Y-102935888D01*
X147055940Y-102935887D01*
X147055939Y-102935886D01*
X147055938Y-102935886D01*
X146966794Y-102912000D01*
X146874506Y-102912000D01*
X146785362Y-102935886D01*
X146785361Y-102935886D01*
X146785359Y-102935887D01*
X146785356Y-102935888D01*
X146705444Y-102982026D01*
X146705435Y-102982033D01*
X146640183Y-103047285D01*
X146640176Y-103047294D01*
X146594038Y-103127206D01*
X146594037Y-103127209D01*
X146594036Y-103127211D01*
X146594036Y-103127212D01*
X146570150Y-103216356D01*
X144387244Y-103216356D01*
X144374277Y-103192608D01*
X144379261Y-103122916D01*
X144407762Y-103078569D01*
X144451119Y-103035212D01*
X144497264Y-102955288D01*
X144521150Y-102866144D01*
X144521150Y-102773856D01*
X144497264Y-102684712D01*
X144497261Y-102684706D01*
X144451123Y-102604794D01*
X144451120Y-102604791D01*
X144451119Y-102604788D01*
X144425262Y-102578931D01*
X144391777Y-102517608D01*
X144396761Y-102447916D01*
X144425262Y-102403569D01*
X144428453Y-102400378D01*
X144451119Y-102377712D01*
X144497264Y-102297788D01*
X144521150Y-102208644D01*
X144521150Y-102116356D01*
X144497264Y-102027212D01*
X144486542Y-102008641D01*
X144451123Y-101947294D01*
X144451120Y-101947291D01*
X144451119Y-101947288D01*
X144385862Y-101882031D01*
X144385859Y-101882029D01*
X144385855Y-101882026D01*
X144305943Y-101835888D01*
X144305940Y-101835887D01*
X144305939Y-101835886D01*
X144305938Y-101835886D01*
X144216794Y-101812000D01*
X144124506Y-101812000D01*
X144035362Y-101835886D01*
X144035361Y-101835886D01*
X144035359Y-101835887D01*
X144035356Y-101835888D01*
X143955444Y-101882026D01*
X143955435Y-101882033D01*
X143890183Y-101947285D01*
X143890176Y-101947294D01*
X143844038Y-102027206D01*
X143844037Y-102027209D01*
X143844036Y-102027211D01*
X143844036Y-102027212D01*
X143820150Y-102116356D01*
X135786544Y-102116356D01*
X135797264Y-102097788D01*
X135821150Y-102008644D01*
X135821150Y-101916356D01*
X135797264Y-101827212D01*
X135797261Y-101827206D01*
X135751123Y-101747294D01*
X135751120Y-101747291D01*
X135751119Y-101747288D01*
X135685862Y-101682031D01*
X135680115Y-101676284D01*
X135682286Y-101674112D01*
X135649676Y-101629469D01*
X135645509Y-101559724D01*
X135679710Y-101498797D01*
X135682136Y-101496694D01*
X135685859Y-101492970D01*
X135685862Y-101492969D01*
X135751119Y-101427712D01*
X135797264Y-101347788D01*
X135821150Y-101258644D01*
X135821150Y-101166356D01*
X135797264Y-101077212D01*
X135768681Y-101027705D01*
X135762129Y-101016356D01*
X145270150Y-101016356D01*
X145270150Y-101108644D01*
X145290396Y-101184204D01*
X145294037Y-101197790D01*
X145294038Y-101197793D01*
X145340176Y-101277705D01*
X145340179Y-101277709D01*
X145340181Y-101277712D01*
X145405438Y-101342969D01*
X145405441Y-101342970D01*
X145405444Y-101342973D01*
X145485356Y-101389111D01*
X145485357Y-101389111D01*
X145485362Y-101389114D01*
X145574506Y-101413000D01*
X145574508Y-101413000D01*
X145666792Y-101413000D01*
X145666794Y-101413000D01*
X145755938Y-101389114D01*
X145835862Y-101342969D01*
X145901119Y-101277712D01*
X145947264Y-101197788D01*
X145971150Y-101108644D01*
X145971150Y-101016356D01*
X145947264Y-100927212D01*
X145938770Y-100912500D01*
X145901123Y-100847294D01*
X145901120Y-100847291D01*
X145901119Y-100847288D01*
X145835862Y-100782031D01*
X145835859Y-100782029D01*
X145835855Y-100782026D01*
X145808714Y-100766356D01*
X147220150Y-100766356D01*
X147220150Y-100858644D01*
X147241643Y-100938858D01*
X147244037Y-100947790D01*
X147244038Y-100947793D01*
X147290176Y-101027705D01*
X147290183Y-101027714D01*
X147361185Y-101098716D01*
X147359017Y-101100883D01*
X147391637Y-101145570D01*
X147395781Y-101215317D01*
X147361559Y-101276232D01*
X147359147Y-101278321D01*
X147290183Y-101347285D01*
X147290176Y-101347294D01*
X147244038Y-101427206D01*
X147244037Y-101427209D01*
X147244036Y-101427211D01*
X147244036Y-101427212D01*
X147220150Y-101516356D01*
X147220150Y-101608644D01*
X147238260Y-101676232D01*
X147244037Y-101697790D01*
X147244038Y-101697793D01*
X147290176Y-101777705D01*
X147290179Y-101777709D01*
X147290181Y-101777712D01*
X147355438Y-101842969D01*
X147355441Y-101842970D01*
X147355444Y-101842973D01*
X147435356Y-101889111D01*
X147435357Y-101889111D01*
X147435362Y-101889114D01*
X147524506Y-101913000D01*
X147524508Y-101913000D01*
X147616792Y-101913000D01*
X147616794Y-101913000D01*
X147705938Y-101889114D01*
X147785862Y-101842969D01*
X147851119Y-101777712D01*
X147897264Y-101697788D01*
X147921150Y-101608644D01*
X147921150Y-101516356D01*
X147897264Y-101427212D01*
X147851408Y-101347788D01*
X147851123Y-101347294D01*
X147851120Y-101347291D01*
X147851119Y-101347288D01*
X147785862Y-101282031D01*
X147780115Y-101276284D01*
X147782286Y-101274112D01*
X147749676Y-101229469D01*
X147745509Y-101159724D01*
X147779710Y-101098797D01*
X147782136Y-101096694D01*
X147785859Y-101092970D01*
X147785862Y-101092969D01*
X147851119Y-101027712D01*
X147897264Y-100947788D01*
X147921150Y-100858644D01*
X147921150Y-100766356D01*
X147897264Y-100677212D01*
X147897261Y-100677206D01*
X147851123Y-100597294D01*
X147851120Y-100597291D01*
X147851119Y-100597288D01*
X147785862Y-100532031D01*
X147785859Y-100532029D01*
X147785855Y-100532026D01*
X147705943Y-100485888D01*
X147705940Y-100485887D01*
X147705939Y-100485886D01*
X147705938Y-100485886D01*
X147616794Y-100462000D01*
X147524506Y-100462000D01*
X147435362Y-100485886D01*
X147435361Y-100485886D01*
X147435359Y-100485887D01*
X147435356Y-100485888D01*
X147355444Y-100532026D01*
X147355435Y-100532033D01*
X147290183Y-100597285D01*
X147290176Y-100597294D01*
X147244038Y-100677206D01*
X147244037Y-100677209D01*
X147244036Y-100677211D01*
X147244036Y-100677212D01*
X147220150Y-100766356D01*
X145808714Y-100766356D01*
X145755943Y-100735888D01*
X145755940Y-100735887D01*
X145755939Y-100735886D01*
X145755938Y-100735886D01*
X145666794Y-100712000D01*
X145574506Y-100712000D01*
X145485362Y-100735886D01*
X145485361Y-100735886D01*
X145485359Y-100735887D01*
X145485356Y-100735888D01*
X145405444Y-100782026D01*
X145405435Y-100782033D01*
X145340183Y-100847285D01*
X145340176Y-100847294D01*
X145294038Y-100927206D01*
X145294037Y-100927209D01*
X145294036Y-100927211D01*
X145294036Y-100927212D01*
X145270150Y-101016356D01*
X135762129Y-101016356D01*
X135751123Y-100997294D01*
X135751120Y-100997291D01*
X135751119Y-100997288D01*
X135751116Y-100997285D01*
X135746172Y-100990842D01*
X135748103Y-100989360D01*
X135720527Y-100938858D01*
X135725511Y-100869166D01*
X135747402Y-100835102D01*
X135746172Y-100834158D01*
X135751113Y-100827717D01*
X135751119Y-100827712D01*
X135797264Y-100747788D01*
X135821150Y-100658644D01*
X135821150Y-100566356D01*
X135813781Y-100538856D01*
X143822650Y-100538856D01*
X143822650Y-100631144D01*
X143844315Y-100712000D01*
X143846537Y-100720290D01*
X143846538Y-100720293D01*
X143892676Y-100800205D01*
X143892679Y-100800209D01*
X143892681Y-100800212D01*
X143957938Y-100865469D01*
X143957941Y-100865470D01*
X143957944Y-100865473D01*
X144037856Y-100911611D01*
X144037857Y-100911611D01*
X144037862Y-100911614D01*
X144127006Y-100935500D01*
X144127008Y-100935500D01*
X144219292Y-100935500D01*
X144219294Y-100935500D01*
X144308438Y-100911614D01*
X144310695Y-100910310D01*
X144327095Y-100900843D01*
X144388355Y-100865473D01*
X144388354Y-100865473D01*
X144388362Y-100865469D01*
X144453619Y-100800212D01*
X144499764Y-100720288D01*
X144523650Y-100631144D01*
X144523650Y-100538856D01*
X144499764Y-100449712D01*
X144479034Y-100413807D01*
X144453623Y-100369794D01*
X144453620Y-100369791D01*
X144453619Y-100369788D01*
X144453616Y-100369785D01*
X144448672Y-100363342D01*
X144449803Y-100362473D01*
X144420527Y-100308858D01*
X144425511Y-100239166D01*
X144454012Y-100194819D01*
X144501119Y-100147712D01*
X144547264Y-100067788D01*
X144571150Y-99978644D01*
X144571150Y-99886356D01*
X144547264Y-99797212D01*
X144547261Y-99797206D01*
X144501123Y-99717294D01*
X144501120Y-99717291D01*
X144501119Y-99717288D01*
X144435862Y-99652031D01*
X144435859Y-99652029D01*
X144435855Y-99652026D01*
X144355943Y-99605888D01*
X144355940Y-99605887D01*
X144355939Y-99605886D01*
X144355938Y-99605886D01*
X144266794Y-99582000D01*
X144174506Y-99582000D01*
X144085362Y-99605886D01*
X144085361Y-99605886D01*
X144085359Y-99605887D01*
X144085356Y-99605888D01*
X144005444Y-99652026D01*
X144005435Y-99652033D01*
X143940183Y-99717285D01*
X143940176Y-99717294D01*
X143894038Y-99797206D01*
X143894037Y-99797209D01*
X143870150Y-99886356D01*
X143870150Y-99978643D01*
X143894037Y-100067790D01*
X143894038Y-100067793D01*
X143940176Y-100147705D01*
X143945128Y-100154158D01*
X143943996Y-100155026D01*
X143973273Y-100208642D01*
X143968289Y-100278334D01*
X143939788Y-100322681D01*
X143892683Y-100369785D01*
X143892676Y-100369794D01*
X143846538Y-100449706D01*
X143846537Y-100449709D01*
X143846536Y-100449711D01*
X143846536Y-100449712D01*
X143822650Y-100538856D01*
X135813781Y-100538856D01*
X135797264Y-100477212D01*
X135797262Y-100477209D01*
X135797262Y-100477207D01*
X135797261Y-100477206D01*
X135751123Y-100397294D01*
X135751120Y-100397291D01*
X135751119Y-100397288D01*
X135685862Y-100332031D01*
X135685859Y-100332029D01*
X135685855Y-100332026D01*
X135605943Y-100285888D01*
X135605940Y-100285887D01*
X135605939Y-100285886D01*
X135605938Y-100285886D01*
X135516794Y-100262000D01*
X135424506Y-100262000D01*
X135335362Y-100285886D01*
X135335361Y-100285886D01*
X135335359Y-100285887D01*
X135335356Y-100285888D01*
X135255444Y-100332026D01*
X135255435Y-100332033D01*
X135190183Y-100397285D01*
X135190176Y-100397294D01*
X135144038Y-100477206D01*
X135144037Y-100477209D01*
X135144036Y-100477211D01*
X135144036Y-100477212D01*
X135120150Y-100566356D01*
X128935571Y-100566356D01*
X128892466Y-100523251D01*
X128892462Y-100523248D01*
X128728684Y-100413814D01*
X128728671Y-100413807D01*
X128546693Y-100338430D01*
X128546681Y-100338427D01*
X128353495Y-100300000D01*
X127955000Y-100300000D01*
X127955000Y-101000000D01*
X127455000Y-101000000D01*
X127455000Y-100300000D01*
X127056504Y-100300000D01*
X126863318Y-100338427D01*
X126863306Y-100338430D01*
X126681328Y-100413807D01*
X126681315Y-100413814D01*
X126517537Y-100523248D01*
X126517533Y-100523251D01*
X126378251Y-100662533D01*
X126378248Y-100662537D01*
X126268814Y-100826315D01*
X126268807Y-100826328D01*
X126193430Y-101008307D01*
X126193430Y-101008309D01*
X126185138Y-101050000D01*
X124894862Y-101050000D01*
X124886569Y-101008309D01*
X124886569Y-101008307D01*
X124811192Y-100826328D01*
X124811185Y-100826315D01*
X124701751Y-100662537D01*
X124701748Y-100662533D01*
X124562466Y-100523251D01*
X124562462Y-100523248D01*
X124398684Y-100413814D01*
X124398671Y-100413807D01*
X124216693Y-100338430D01*
X124216681Y-100338427D01*
X124023495Y-100300000D01*
X123775000Y-100300000D01*
X123775000Y-101000000D01*
X123275000Y-101000000D01*
X123275000Y-100300000D01*
X123026504Y-100300000D01*
X122833318Y-100338427D01*
X122833306Y-100338430D01*
X122651328Y-100413807D01*
X122651315Y-100413814D01*
X122506541Y-100510550D01*
X122439863Y-100531428D01*
X122372483Y-100512943D01*
X122325793Y-100460965D01*
X122313650Y-100407448D01*
X122313650Y-99984000D01*
X122333335Y-99916961D01*
X122386139Y-99871206D01*
X122437650Y-99860000D01*
X132493150Y-99860000D01*
X132493150Y-99366356D01*
X145670150Y-99366356D01*
X145670150Y-99458643D01*
X145694037Y-99547790D01*
X145694038Y-99547793D01*
X145740176Y-99627705D01*
X145740179Y-99627709D01*
X145740181Y-99627712D01*
X145805438Y-99692969D01*
X145805441Y-99692970D01*
X145805444Y-99692973D01*
X145885356Y-99739111D01*
X145885357Y-99739111D01*
X145885362Y-99739114D01*
X145974506Y-99763000D01*
X145974508Y-99763000D01*
X146066792Y-99763000D01*
X146066794Y-99763000D01*
X146155938Y-99739114D01*
X146235862Y-99692969D01*
X146301119Y-99627712D01*
X146347264Y-99547788D01*
X146371150Y-99458644D01*
X146371150Y-99366356D01*
X146347264Y-99277212D01*
X146328955Y-99245500D01*
X146301123Y-99197294D01*
X146301120Y-99197291D01*
X146301119Y-99197288D01*
X146235862Y-99132031D01*
X146235859Y-99132029D01*
X146235855Y-99132026D01*
X146155943Y-99085888D01*
X146155940Y-99085887D01*
X146155939Y-99085886D01*
X146155938Y-99085886D01*
X146066794Y-99062000D01*
X145974506Y-99062000D01*
X145885362Y-99085886D01*
X145885361Y-99085886D01*
X145885359Y-99085887D01*
X145885356Y-99085888D01*
X145805444Y-99132026D01*
X145805435Y-99132033D01*
X145740183Y-99197285D01*
X145740176Y-99197294D01*
X145694038Y-99277206D01*
X145694037Y-99277209D01*
X145670150Y-99366356D01*
X132493150Y-99366356D01*
X132493150Y-98848856D01*
X150687650Y-98848856D01*
X150687650Y-98941143D01*
X150711537Y-99030290D01*
X150711538Y-99030293D01*
X150757676Y-99110205D01*
X150757679Y-99110209D01*
X150757681Y-99110212D01*
X150822938Y-99175469D01*
X150822941Y-99175470D01*
X150822944Y-99175473D01*
X150902856Y-99221611D01*
X150902857Y-99221611D01*
X150902862Y-99221614D01*
X150992006Y-99245500D01*
X150992008Y-99245500D01*
X151084292Y-99245500D01*
X151084294Y-99245500D01*
X151173438Y-99221614D01*
X151253362Y-99175469D01*
X151318619Y-99110212D01*
X151364764Y-99030288D01*
X151388650Y-98941144D01*
X151388650Y-98848856D01*
X151364764Y-98759712D01*
X151342124Y-98720499D01*
X151318623Y-98679794D01*
X151318620Y-98679791D01*
X151318619Y-98679788D01*
X151253362Y-98614531D01*
X151253359Y-98614529D01*
X151253355Y-98614526D01*
X151173443Y-98568388D01*
X151173440Y-98568387D01*
X151173439Y-98568386D01*
X151173438Y-98568386D01*
X151084294Y-98544500D01*
X150992006Y-98544500D01*
X150902862Y-98568386D01*
X150902861Y-98568386D01*
X150902859Y-98568387D01*
X150902856Y-98568388D01*
X150822944Y-98614526D01*
X150822935Y-98614533D01*
X150757683Y-98679785D01*
X150757676Y-98679794D01*
X150711538Y-98759706D01*
X150711537Y-98759709D01*
X150687650Y-98848856D01*
X132493150Y-98848856D01*
X132493150Y-98016356D01*
X139570150Y-98016356D01*
X139570150Y-98108644D01*
X139591711Y-98189112D01*
X139594037Y-98197790D01*
X139594038Y-98197793D01*
X139640176Y-98277705D01*
X139640179Y-98277709D01*
X139640181Y-98277712D01*
X139705438Y-98342969D01*
X139705441Y-98342970D01*
X139705444Y-98342973D01*
X139785356Y-98389111D01*
X139785357Y-98389111D01*
X139785362Y-98389114D01*
X139874506Y-98413000D01*
X139874508Y-98413000D01*
X139966792Y-98413000D01*
X139966794Y-98413000D01*
X140055938Y-98389114D01*
X140135862Y-98342969D01*
X140162475Y-98316356D01*
X143420150Y-98316356D01*
X143420150Y-98408644D01*
X143422159Y-98416143D01*
X143444037Y-98497790D01*
X143444038Y-98497793D01*
X143490176Y-98577705D01*
X143490179Y-98577709D01*
X143490181Y-98577712D01*
X143555438Y-98642969D01*
X143555441Y-98642970D01*
X143555444Y-98642973D01*
X143635356Y-98689111D01*
X143635357Y-98689111D01*
X143635362Y-98689114D01*
X143724506Y-98713000D01*
X143724508Y-98713000D01*
X143816792Y-98713000D01*
X143816794Y-98713000D01*
X143905938Y-98689114D01*
X143985862Y-98642969D01*
X144051119Y-98577712D01*
X144097264Y-98497788D01*
X144121150Y-98408644D01*
X144121150Y-98323856D01*
X147187650Y-98323856D01*
X147187650Y-98416144D01*
X147209526Y-98497788D01*
X147211537Y-98505290D01*
X147211538Y-98505293D01*
X147257676Y-98585205D01*
X147257679Y-98585209D01*
X147257681Y-98585212D01*
X147322938Y-98650469D01*
X147322941Y-98650470D01*
X147322944Y-98650473D01*
X147402856Y-98696611D01*
X147402857Y-98696611D01*
X147402862Y-98696614D01*
X147492006Y-98720500D01*
X147492008Y-98720500D01*
X147584292Y-98720500D01*
X147584294Y-98720500D01*
X147673438Y-98696614D01*
X147753362Y-98650469D01*
X147818619Y-98585212D01*
X147864764Y-98505288D01*
X147888650Y-98416144D01*
X147888650Y-98323856D01*
X147864764Y-98234712D01*
X147860434Y-98227212D01*
X147818623Y-98154794D01*
X147818620Y-98154791D01*
X147818619Y-98154788D01*
X147753362Y-98089531D01*
X147753359Y-98089529D01*
X147753355Y-98089526D01*
X147673443Y-98043388D01*
X147673440Y-98043387D01*
X147673439Y-98043386D01*
X147673438Y-98043386D01*
X147584294Y-98019500D01*
X147492006Y-98019500D01*
X147402862Y-98043386D01*
X147402861Y-98043386D01*
X147402859Y-98043387D01*
X147402856Y-98043388D01*
X147322944Y-98089526D01*
X147322935Y-98089533D01*
X147257683Y-98154785D01*
X147257676Y-98154794D01*
X147211538Y-98234706D01*
X147211537Y-98234709D01*
X147211536Y-98234711D01*
X147211536Y-98234712D01*
X147187650Y-98323856D01*
X144121150Y-98323856D01*
X144121150Y-98316356D01*
X144097264Y-98227212D01*
X144097261Y-98227206D01*
X144051123Y-98147294D01*
X144051120Y-98147291D01*
X144051119Y-98147288D01*
X143985862Y-98082031D01*
X143985859Y-98082029D01*
X143985855Y-98082026D01*
X143905943Y-98035888D01*
X143905940Y-98035887D01*
X143905939Y-98035886D01*
X143905938Y-98035886D01*
X143816794Y-98012000D01*
X143724506Y-98012000D01*
X143635362Y-98035886D01*
X143635361Y-98035886D01*
X143635359Y-98035887D01*
X143635356Y-98035888D01*
X143555444Y-98082026D01*
X143555435Y-98082033D01*
X143490183Y-98147285D01*
X143490176Y-98147294D01*
X143444038Y-98227206D01*
X143444037Y-98227209D01*
X143444036Y-98227211D01*
X143444036Y-98227212D01*
X143420150Y-98316356D01*
X140162475Y-98316356D01*
X140201119Y-98277712D01*
X140247264Y-98197788D01*
X140271150Y-98108644D01*
X140271150Y-98016356D01*
X140247264Y-97927212D01*
X140247263Y-97927211D01*
X140247263Y-97927209D01*
X140214365Y-97870231D01*
X140214364Y-97870229D01*
X140201122Y-97847294D01*
X140201119Y-97847288D01*
X140170187Y-97816356D01*
X140920150Y-97816356D01*
X140920150Y-97908644D01*
X140925125Y-97927212D01*
X140944037Y-97997790D01*
X140944038Y-97997793D01*
X140990176Y-98077705D01*
X140990179Y-98077709D01*
X140990181Y-98077712D01*
X141055438Y-98142969D01*
X141055441Y-98142970D01*
X141055444Y-98142973D01*
X141135356Y-98189111D01*
X141135357Y-98189111D01*
X141135362Y-98189114D01*
X141224506Y-98213000D01*
X141224508Y-98213000D01*
X141316792Y-98213000D01*
X141316794Y-98213000D01*
X141405938Y-98189114D01*
X141485862Y-98142969D01*
X141551119Y-98077712D01*
X141597264Y-97997788D01*
X141619084Y-97916356D01*
X142470150Y-97916356D01*
X142470150Y-98008644D01*
X142491824Y-98089533D01*
X142494037Y-98097790D01*
X142494038Y-98097793D01*
X142540176Y-98177705D01*
X142540179Y-98177709D01*
X142540181Y-98177712D01*
X142605438Y-98242969D01*
X142605441Y-98242970D01*
X142605444Y-98242973D01*
X142685356Y-98289111D01*
X142685357Y-98289111D01*
X142685362Y-98289114D01*
X142774506Y-98313000D01*
X142774508Y-98313000D01*
X142866792Y-98313000D01*
X142866794Y-98313000D01*
X142955938Y-98289114D01*
X143035862Y-98242969D01*
X143101119Y-98177712D01*
X143147264Y-98097788D01*
X143171150Y-98008644D01*
X143171150Y-97916356D01*
X143147264Y-97827212D01*
X143147261Y-97827206D01*
X143101123Y-97747294D01*
X143101120Y-97747291D01*
X143101119Y-97747288D01*
X143035862Y-97682031D01*
X143035859Y-97682029D01*
X143035855Y-97682026D01*
X142955943Y-97635888D01*
X142955940Y-97635887D01*
X142955939Y-97635886D01*
X142955938Y-97635886D01*
X142866794Y-97612000D01*
X142774506Y-97612000D01*
X142685362Y-97635886D01*
X142685361Y-97635886D01*
X142685359Y-97635887D01*
X142685356Y-97635888D01*
X142605444Y-97682026D01*
X142605435Y-97682033D01*
X142540183Y-97747285D01*
X142540176Y-97747294D01*
X142494038Y-97827206D01*
X142494037Y-97827209D01*
X142494036Y-97827211D01*
X142494036Y-97827212D01*
X142470150Y-97916356D01*
X141619084Y-97916356D01*
X141621150Y-97908644D01*
X141621150Y-97816356D01*
X141597264Y-97727212D01*
X141597261Y-97727206D01*
X141551123Y-97647294D01*
X141551120Y-97647291D01*
X141551119Y-97647288D01*
X141485862Y-97582031D01*
X141485859Y-97582029D01*
X141485855Y-97582026D01*
X141405943Y-97535888D01*
X141405940Y-97535887D01*
X141405939Y-97535886D01*
X141405938Y-97535886D01*
X141316794Y-97512000D01*
X141224506Y-97512000D01*
X141135362Y-97535886D01*
X141135361Y-97535886D01*
X141135359Y-97535887D01*
X141135356Y-97535888D01*
X141055444Y-97582026D01*
X141055435Y-97582033D01*
X140990183Y-97647285D01*
X140990176Y-97647294D01*
X140944038Y-97727206D01*
X140944037Y-97727209D01*
X140944036Y-97727211D01*
X140944036Y-97727212D01*
X140920150Y-97816356D01*
X140170187Y-97816356D01*
X140135862Y-97782031D01*
X140135859Y-97782029D01*
X140135855Y-97782026D01*
X140055943Y-97735888D01*
X140055940Y-97735887D01*
X140055939Y-97735886D01*
X140055938Y-97735886D01*
X139966794Y-97712000D01*
X139874506Y-97712000D01*
X139785362Y-97735886D01*
X139785361Y-97735886D01*
X139785359Y-97735887D01*
X139785356Y-97735888D01*
X139705444Y-97782026D01*
X139705435Y-97782033D01*
X139640183Y-97847285D01*
X139640176Y-97847294D01*
X139594038Y-97927206D01*
X139594037Y-97927209D01*
X139594036Y-97927211D01*
X139594036Y-97927212D01*
X139570150Y-98016356D01*
X132493150Y-98016356D01*
X132493150Y-95704366D01*
X135319469Y-95704366D01*
X135319469Y-95796654D01*
X135342346Y-95882034D01*
X135343356Y-95885800D01*
X135343357Y-95885803D01*
X135389495Y-95965715D01*
X135389498Y-95965719D01*
X135389500Y-95965722D01*
X135454757Y-96030979D01*
X135454760Y-96030980D01*
X135454763Y-96030983D01*
X135534675Y-96077121D01*
X135534676Y-96077121D01*
X135534681Y-96077124D01*
X135623825Y-96101010D01*
X135623827Y-96101010D01*
X135716111Y-96101010D01*
X135716113Y-96101010D01*
X135805257Y-96077124D01*
X135885181Y-96030979D01*
X135932288Y-95983872D01*
X135934593Y-95982613D01*
X135935946Y-95980360D01*
X135965096Y-95965957D01*
X135993611Y-95950387D01*
X135996230Y-95950574D01*
X135998587Y-95949410D01*
X136030890Y-95953053D01*
X136063303Y-95955371D01*
X136066209Y-95957036D01*
X136068017Y-95957240D01*
X136076411Y-95962881D01*
X136098276Y-95975407D01*
X136103175Y-95979397D01*
X136154757Y-96030979D01*
X136195120Y-96054283D01*
X136202821Y-96060555D01*
X136217199Y-96081495D01*
X136234730Y-96099881D01*
X136236644Y-96109815D01*
X136242370Y-96118154D01*
X136243144Y-96143543D01*
X136247952Y-96168488D01*
X136244192Y-96177878D01*
X136244501Y-96187991D01*
X136231424Y-96209771D01*
X136221984Y-96233353D01*
X136212151Y-96241873D01*
X136208537Y-96247894D01*
X136200782Y-96251725D01*
X136186517Y-96264087D01*
X136155438Y-96282031D01*
X136155435Y-96282033D01*
X136090183Y-96347285D01*
X136090176Y-96347294D01*
X136044038Y-96427206D01*
X136044037Y-96427209D01*
X136044036Y-96427211D01*
X136044036Y-96427212D01*
X136020150Y-96516356D01*
X136020150Y-96608644D01*
X136030935Y-96648895D01*
X136044037Y-96697790D01*
X136044038Y-96697793D01*
X136090176Y-96777705D01*
X136090179Y-96777709D01*
X136090181Y-96777712D01*
X136155438Y-96842969D01*
X136155441Y-96842970D01*
X136155444Y-96842973D01*
X136235356Y-96889111D01*
X136235357Y-96889111D01*
X136235362Y-96889114D01*
X136324506Y-96913000D01*
X136324508Y-96913000D01*
X136416792Y-96913000D01*
X136416794Y-96913000D01*
X136505938Y-96889114D01*
X136585862Y-96842969D01*
X136651119Y-96777712D01*
X136697264Y-96697788D01*
X136721150Y-96608644D01*
X136721150Y-96516356D01*
X136697264Y-96427212D01*
X136669034Y-96378317D01*
X136651123Y-96347294D01*
X136651120Y-96347291D01*
X136651119Y-96347288D01*
X136585862Y-96282031D01*
X136554102Y-96263694D01*
X136505888Y-96213127D01*
X136492666Y-96144520D01*
X136518634Y-96079655D01*
X136554105Y-96048921D01*
X136585181Y-96030979D01*
X136650438Y-95965722D01*
X136678940Y-95916356D01*
X136970150Y-95916356D01*
X136970150Y-96008644D01*
X136989670Y-96081495D01*
X136994037Y-96097790D01*
X136994038Y-96097793D01*
X137040176Y-96177705D01*
X137040179Y-96177709D01*
X137040181Y-96177712D01*
X137105438Y-96242969D01*
X137105441Y-96242970D01*
X137105444Y-96242973D01*
X137185356Y-96289111D01*
X137185357Y-96289111D01*
X137185362Y-96289114D01*
X137274506Y-96313000D01*
X137274508Y-96313000D01*
X137366792Y-96313000D01*
X137366794Y-96313000D01*
X137455938Y-96289114D01*
X137535862Y-96242969D01*
X137576025Y-96202805D01*
X137637346Y-96169321D01*
X137707037Y-96174305D01*
X137762971Y-96216175D01*
X137783479Y-96258392D01*
X137794035Y-96297786D01*
X137794038Y-96297793D01*
X137840176Y-96377705D01*
X137840178Y-96377707D01*
X137840181Y-96377712D01*
X137905438Y-96442969D01*
X137905441Y-96442970D01*
X137905444Y-96442973D01*
X137985356Y-96489111D01*
X137985357Y-96489111D01*
X137985362Y-96489114D01*
X138074506Y-96513000D01*
X138074508Y-96513000D01*
X138166792Y-96513000D01*
X138166794Y-96513000D01*
X138255938Y-96489114D01*
X138293441Y-96467461D01*
X139256296Y-96467461D01*
X139256296Y-96559749D01*
X139279887Y-96647793D01*
X139280183Y-96648895D01*
X139280184Y-96648898D01*
X139326322Y-96728810D01*
X139326325Y-96728814D01*
X139326327Y-96728817D01*
X139391584Y-96794074D01*
X139391587Y-96794075D01*
X139391590Y-96794078D01*
X139471502Y-96840216D01*
X139471503Y-96840216D01*
X139471508Y-96840219D01*
X139560652Y-96864105D01*
X139560654Y-96864105D01*
X139652938Y-96864105D01*
X139652940Y-96864105D01*
X139742084Y-96840219D01*
X139822008Y-96794074D01*
X139887265Y-96728817D01*
X139933410Y-96648893D01*
X139957296Y-96559749D01*
X139957296Y-96516356D01*
X141870150Y-96516356D01*
X141870150Y-96608644D01*
X141880935Y-96648895D01*
X141894037Y-96697790D01*
X141894038Y-96697793D01*
X141940176Y-96777705D01*
X141940179Y-96777709D01*
X141940181Y-96777712D01*
X142005438Y-96842969D01*
X142005441Y-96842970D01*
X142005444Y-96842973D01*
X142085356Y-96889111D01*
X142085357Y-96889111D01*
X142085362Y-96889114D01*
X142174506Y-96913000D01*
X142174508Y-96913000D01*
X142266792Y-96913000D01*
X142266794Y-96913000D01*
X142355938Y-96889114D01*
X142435862Y-96842969D01*
X142501119Y-96777712D01*
X142547264Y-96697788D01*
X142571150Y-96608644D01*
X142571150Y-96516356D01*
X142557753Y-96466356D01*
X144020150Y-96466356D01*
X144020150Y-96558644D01*
X144033547Y-96608644D01*
X144044037Y-96647790D01*
X144044038Y-96647793D01*
X144090176Y-96727705D01*
X144090179Y-96727709D01*
X144090181Y-96727712D01*
X144155438Y-96792969D01*
X144155441Y-96792970D01*
X144155444Y-96792973D01*
X144235356Y-96839111D01*
X144235357Y-96839111D01*
X144235362Y-96839114D01*
X144324506Y-96863000D01*
X144324508Y-96863000D01*
X144416792Y-96863000D01*
X144416794Y-96863000D01*
X144505938Y-96839114D01*
X144585862Y-96792969D01*
X144651119Y-96727712D01*
X144697264Y-96647788D01*
X144721150Y-96558644D01*
X144721150Y-96466356D01*
X144697264Y-96377212D01*
X144679991Y-96347294D01*
X144651123Y-96297294D01*
X144651120Y-96297291D01*
X144651119Y-96297288D01*
X144585862Y-96232031D01*
X144585859Y-96232029D01*
X144585855Y-96232026D01*
X144505943Y-96185888D01*
X144505940Y-96185887D01*
X144505939Y-96185886D01*
X144505938Y-96185886D01*
X144416794Y-96162000D01*
X144324506Y-96162000D01*
X144235362Y-96185886D01*
X144235361Y-96185886D01*
X144235359Y-96185887D01*
X144235356Y-96185888D01*
X144155444Y-96232026D01*
X144155435Y-96232033D01*
X144090183Y-96297285D01*
X144090176Y-96297294D01*
X144044038Y-96377206D01*
X144044037Y-96377209D01*
X144044036Y-96377211D01*
X144044036Y-96377212D01*
X144020150Y-96466356D01*
X142557753Y-96466356D01*
X142547264Y-96427212D01*
X142547262Y-96427209D01*
X142547262Y-96427207D01*
X142547261Y-96427206D01*
X142501123Y-96347294D01*
X142501120Y-96347291D01*
X142501119Y-96347288D01*
X142435862Y-96282031D01*
X142435859Y-96282029D01*
X142435855Y-96282026D01*
X142355943Y-96235888D01*
X142355940Y-96235887D01*
X142355939Y-96235886D01*
X142355938Y-96235886D01*
X142266794Y-96212000D01*
X142174506Y-96212000D01*
X142085362Y-96235886D01*
X142085361Y-96235886D01*
X142085359Y-96235887D01*
X142085356Y-96235888D01*
X142005444Y-96282026D01*
X142005435Y-96282033D01*
X141940183Y-96347285D01*
X141940176Y-96347294D01*
X141894038Y-96427206D01*
X141894037Y-96427209D01*
X141894036Y-96427211D01*
X141894036Y-96427212D01*
X141870150Y-96516356D01*
X139957296Y-96516356D01*
X139957296Y-96467461D01*
X139933410Y-96378317D01*
X139933062Y-96377714D01*
X139887269Y-96298399D01*
X139887266Y-96298396D01*
X139887265Y-96298393D01*
X139822008Y-96233136D01*
X139822005Y-96233134D01*
X139822001Y-96233131D01*
X139742089Y-96186993D01*
X139742086Y-96186992D01*
X139742085Y-96186991D01*
X139742084Y-96186991D01*
X139652940Y-96163105D01*
X139560652Y-96163105D01*
X139471508Y-96186991D01*
X139471507Y-96186991D01*
X139471505Y-96186992D01*
X139471502Y-96186993D01*
X139391590Y-96233131D01*
X139391581Y-96233138D01*
X139326329Y-96298390D01*
X139326322Y-96298399D01*
X139280184Y-96378311D01*
X139280183Y-96378314D01*
X139280182Y-96378316D01*
X139280182Y-96378317D01*
X139256296Y-96467461D01*
X138293441Y-96467461D01*
X138335862Y-96442969D01*
X138401119Y-96377712D01*
X138401410Y-96377209D01*
X138447261Y-96297793D01*
X138447260Y-96297793D01*
X138447264Y-96297788D01*
X138471150Y-96208644D01*
X138471150Y-96116356D01*
X138447264Y-96027212D01*
X138447262Y-96027209D01*
X138447262Y-96027207D01*
X138401123Y-95947294D01*
X138401120Y-95947291D01*
X138401119Y-95947288D01*
X138335862Y-95882031D01*
X138335859Y-95882029D01*
X138335855Y-95882026D01*
X138255943Y-95835888D01*
X138255940Y-95835887D01*
X138255939Y-95835886D01*
X138255938Y-95835886D01*
X138166794Y-95812000D01*
X138074506Y-95812000D01*
X137985362Y-95835886D01*
X137985361Y-95835886D01*
X137985359Y-95835887D01*
X137985356Y-95835888D01*
X137905444Y-95882026D01*
X137905434Y-95882034D01*
X137865274Y-95922194D01*
X137803951Y-95955678D01*
X137734259Y-95950693D01*
X137678326Y-95908821D01*
X137657820Y-95866608D01*
X137647264Y-95827212D01*
X137647262Y-95827209D01*
X137647262Y-95827207D01*
X137647261Y-95827206D01*
X137601123Y-95747294D01*
X137601120Y-95747291D01*
X137601119Y-95747288D01*
X137535862Y-95682031D01*
X137535859Y-95682029D01*
X137535855Y-95682026D01*
X137455943Y-95635888D01*
X137455940Y-95635887D01*
X137455939Y-95635886D01*
X137455938Y-95635886D01*
X137366794Y-95612000D01*
X137274506Y-95612000D01*
X137185362Y-95635886D01*
X137185361Y-95635886D01*
X137185359Y-95635887D01*
X137185356Y-95635888D01*
X137105444Y-95682026D01*
X137105435Y-95682033D01*
X137040183Y-95747285D01*
X137040176Y-95747294D01*
X136994038Y-95827206D01*
X136994037Y-95827209D01*
X136994036Y-95827211D01*
X136994036Y-95827212D01*
X136970150Y-95916356D01*
X136678940Y-95916356D01*
X136696583Y-95885798D01*
X136701726Y-95866606D01*
X136709956Y-95835888D01*
X136720469Y-95796654D01*
X136720469Y-95704366D01*
X136696583Y-95615222D01*
X136694723Y-95612000D01*
X136650442Y-95535304D01*
X136650439Y-95535301D01*
X136650438Y-95535298D01*
X136585181Y-95470041D01*
X136585178Y-95470039D01*
X136585174Y-95470036D01*
X136505262Y-95423898D01*
X136505259Y-95423897D01*
X136505258Y-95423896D01*
X136505257Y-95423896D01*
X136416113Y-95400010D01*
X136323825Y-95400010D01*
X136234681Y-95423896D01*
X136234680Y-95423896D01*
X136234678Y-95423897D01*
X136234675Y-95423898D01*
X136154763Y-95470036D01*
X136154754Y-95470043D01*
X136107650Y-95517148D01*
X136046327Y-95550633D01*
X135976635Y-95545649D01*
X135932288Y-95517148D01*
X135885183Y-95470043D01*
X135885181Y-95470041D01*
X135885178Y-95470039D01*
X135885174Y-95470036D01*
X135805262Y-95423898D01*
X135805259Y-95423897D01*
X135805258Y-95423896D01*
X135805257Y-95423896D01*
X135716113Y-95400010D01*
X135623825Y-95400010D01*
X135534681Y-95423896D01*
X135534680Y-95423896D01*
X135534678Y-95423897D01*
X135534675Y-95423898D01*
X135454763Y-95470036D01*
X135454754Y-95470043D01*
X135389502Y-95535295D01*
X135389495Y-95535304D01*
X135343357Y-95615216D01*
X135343356Y-95615219D01*
X135343355Y-95615221D01*
X135343355Y-95615222D01*
X135319469Y-95704366D01*
X132493150Y-95704366D01*
X132493150Y-94666356D01*
X137870150Y-94666356D01*
X137870150Y-94758644D01*
X137872216Y-94766356D01*
X137894037Y-94847790D01*
X137894038Y-94847793D01*
X137940176Y-94927705D01*
X137940179Y-94927709D01*
X137940181Y-94927712D01*
X138005438Y-94992969D01*
X138005441Y-94992970D01*
X138005444Y-94992973D01*
X138085356Y-95039111D01*
X138085357Y-95039111D01*
X138085362Y-95039114D01*
X138174506Y-95063000D01*
X138174508Y-95063000D01*
X138266792Y-95063000D01*
X138266794Y-95063000D01*
X138355938Y-95039114D01*
X138435862Y-94992969D01*
X138501119Y-94927712D01*
X138547264Y-94847788D01*
X138569084Y-94766356D01*
X140770150Y-94766356D01*
X140770150Y-94858644D01*
X140788657Y-94927714D01*
X140794037Y-94947790D01*
X140794038Y-94947793D01*
X140840176Y-95027705D01*
X140840179Y-95027709D01*
X140840181Y-95027712D01*
X140905438Y-95092969D01*
X140905441Y-95092970D01*
X140905444Y-95092973D01*
X140985356Y-95139111D01*
X140985357Y-95139111D01*
X140985362Y-95139114D01*
X141074506Y-95163000D01*
X141074508Y-95163000D01*
X141166792Y-95163000D01*
X141166794Y-95163000D01*
X141255938Y-95139114D01*
X141335862Y-95092969D01*
X141401119Y-95027712D01*
X141447264Y-94947788D01*
X141471150Y-94858644D01*
X141471150Y-94766356D01*
X141447264Y-94677212D01*
X141447261Y-94677206D01*
X141440997Y-94666356D01*
X143070150Y-94666356D01*
X143070150Y-94758644D01*
X143072216Y-94766356D01*
X143094037Y-94847790D01*
X143094038Y-94847793D01*
X143140176Y-94927705D01*
X143140179Y-94927709D01*
X143140181Y-94927712D01*
X143205438Y-94992969D01*
X143211052Y-94996210D01*
X143259267Y-95046776D01*
X143272491Y-95115382D01*
X143256439Y-95165597D01*
X143216537Y-95234708D01*
X143216537Y-95234709D01*
X143216536Y-95234711D01*
X143216536Y-95234712D01*
X143192650Y-95323856D01*
X143192650Y-95416144D01*
X143207092Y-95470043D01*
X143216537Y-95505290D01*
X143216538Y-95505293D01*
X143262676Y-95585205D01*
X143262679Y-95585209D01*
X143262681Y-95585212D01*
X143327938Y-95650469D01*
X143327941Y-95650470D01*
X143327944Y-95650473D01*
X143407856Y-95696611D01*
X143407857Y-95696611D01*
X143407862Y-95696614D01*
X143497006Y-95720500D01*
X143497008Y-95720500D01*
X143589292Y-95720500D01*
X143589294Y-95720500D01*
X143678438Y-95696614D01*
X143758362Y-95650469D01*
X143823619Y-95585212D01*
X143869764Y-95505288D01*
X143893593Y-95416356D01*
X149610150Y-95416356D01*
X149610150Y-95508644D01*
X149630666Y-95585212D01*
X149634037Y-95597790D01*
X149634038Y-95597793D01*
X149680176Y-95677705D01*
X149680179Y-95677709D01*
X149680181Y-95677712D01*
X149745438Y-95742969D01*
X149745441Y-95742970D01*
X149745444Y-95742973D01*
X149825356Y-95789111D01*
X149825357Y-95789111D01*
X149825362Y-95789114D01*
X149914506Y-95813000D01*
X149914508Y-95813000D01*
X150006792Y-95813000D01*
X150006794Y-95813000D01*
X150095938Y-95789114D01*
X150175862Y-95742969D01*
X150241119Y-95677712D01*
X150287264Y-95597788D01*
X150311150Y-95508644D01*
X150311150Y-95416356D01*
X150287264Y-95327212D01*
X150285328Y-95323858D01*
X150241123Y-95247294D01*
X150241120Y-95247291D01*
X150241119Y-95247288D01*
X150175862Y-95182031D01*
X150175859Y-95182029D01*
X150175855Y-95182026D01*
X150095943Y-95135888D01*
X150095940Y-95135887D01*
X150095939Y-95135886D01*
X150095938Y-95135886D01*
X150006794Y-95112000D01*
X149914506Y-95112000D01*
X149825362Y-95135886D01*
X149825361Y-95135886D01*
X149825359Y-95135887D01*
X149825356Y-95135888D01*
X149745444Y-95182026D01*
X149745435Y-95182033D01*
X149680183Y-95247285D01*
X149680176Y-95247294D01*
X149634038Y-95327206D01*
X149634037Y-95327209D01*
X149634036Y-95327211D01*
X149634036Y-95327212D01*
X149610150Y-95416356D01*
X143893593Y-95416356D01*
X143893650Y-95416144D01*
X143893650Y-95323856D01*
X143869764Y-95234712D01*
X143869761Y-95234706D01*
X143823623Y-95154794D01*
X143823620Y-95154791D01*
X143823619Y-95154788D01*
X143758362Y-95089531D01*
X143758359Y-95089529D01*
X143758355Y-95089526D01*
X143752746Y-95086288D01*
X143704531Y-95035721D01*
X143691309Y-94967114D01*
X143707361Y-94916900D01*
X143747263Y-94847790D01*
X143747264Y-94847788D01*
X143771150Y-94758644D01*
X143771150Y-94666356D01*
X143747264Y-94577212D01*
X143747261Y-94577206D01*
X143701123Y-94497294D01*
X143701120Y-94497291D01*
X143701119Y-94497288D01*
X143635862Y-94432031D01*
X143635859Y-94432029D01*
X143635855Y-94432026D01*
X143555943Y-94385888D01*
X143555940Y-94385887D01*
X143555939Y-94385886D01*
X143555938Y-94385886D01*
X143466794Y-94362000D01*
X143374506Y-94362000D01*
X143285362Y-94385886D01*
X143285361Y-94385886D01*
X143285359Y-94385887D01*
X143285356Y-94385888D01*
X143205444Y-94432026D01*
X143205435Y-94432033D01*
X143140183Y-94497285D01*
X143140176Y-94497294D01*
X143094038Y-94577206D01*
X143094037Y-94577209D01*
X143094036Y-94577211D01*
X143094036Y-94577212D01*
X143070150Y-94666356D01*
X141440997Y-94666356D01*
X141401123Y-94597294D01*
X141401120Y-94597291D01*
X141401119Y-94597288D01*
X141335862Y-94532031D01*
X141335859Y-94532029D01*
X141335855Y-94532026D01*
X141255943Y-94485888D01*
X141255940Y-94485887D01*
X141255939Y-94485886D01*
X141255938Y-94485886D01*
X141166794Y-94462000D01*
X141074506Y-94462000D01*
X140985362Y-94485886D01*
X140985361Y-94485886D01*
X140985359Y-94485887D01*
X140985356Y-94485888D01*
X140905444Y-94532026D01*
X140905435Y-94532033D01*
X140840183Y-94597285D01*
X140840176Y-94597294D01*
X140794038Y-94677206D01*
X140794037Y-94677209D01*
X140794036Y-94677211D01*
X140794036Y-94677212D01*
X140770150Y-94766356D01*
X138569084Y-94766356D01*
X138571150Y-94758644D01*
X138571150Y-94666356D01*
X138547264Y-94577212D01*
X138547261Y-94577206D01*
X138501123Y-94497294D01*
X138501120Y-94497291D01*
X138501119Y-94497288D01*
X138435862Y-94432031D01*
X138435859Y-94432029D01*
X138435855Y-94432026D01*
X138355943Y-94385888D01*
X138355940Y-94385887D01*
X138355939Y-94385886D01*
X138355938Y-94385886D01*
X138266794Y-94362000D01*
X138174506Y-94362000D01*
X138085362Y-94385886D01*
X138085361Y-94385886D01*
X138085359Y-94385887D01*
X138085356Y-94385888D01*
X138005444Y-94432026D01*
X138005435Y-94432033D01*
X137940183Y-94497285D01*
X137940176Y-94497294D01*
X137894038Y-94577206D01*
X137894037Y-94577209D01*
X137894036Y-94577211D01*
X137894036Y-94577212D01*
X137870150Y-94666356D01*
X132493150Y-94666356D01*
X132493150Y-93306356D01*
X146880150Y-93306356D01*
X146880150Y-93398644D01*
X146901202Y-93477212D01*
X146904037Y-93487790D01*
X146904038Y-93487793D01*
X146950176Y-93567705D01*
X146950179Y-93567709D01*
X146950181Y-93567712D01*
X147015438Y-93632969D01*
X147015441Y-93632970D01*
X147015444Y-93632973D01*
X147095356Y-93679111D01*
X147095357Y-93679111D01*
X147095362Y-93679114D01*
X147184506Y-93703000D01*
X147184508Y-93703000D01*
X147276792Y-93703000D01*
X147276794Y-93703000D01*
X147365938Y-93679114D01*
X147445862Y-93632969D01*
X147511119Y-93567712D01*
X147511902Y-93566356D01*
X148670150Y-93566356D01*
X148670150Y-93658644D01*
X148675634Y-93679112D01*
X148694037Y-93747790D01*
X148694038Y-93747793D01*
X148740176Y-93827705D01*
X148740179Y-93827709D01*
X148740181Y-93827712D01*
X148805438Y-93892969D01*
X148805441Y-93892970D01*
X148805444Y-93892973D01*
X148885356Y-93939111D01*
X148885357Y-93939111D01*
X148885362Y-93939114D01*
X148974506Y-93963000D01*
X148974508Y-93963000D01*
X149066792Y-93963000D01*
X149066794Y-93963000D01*
X149155938Y-93939114D01*
X149235862Y-93892969D01*
X149301119Y-93827712D01*
X149347264Y-93747788D01*
X149371150Y-93658644D01*
X149371150Y-93566356D01*
X149347264Y-93477212D01*
X149301902Y-93398644D01*
X149301123Y-93397294D01*
X149301120Y-93397291D01*
X149301119Y-93397288D01*
X149235862Y-93332031D01*
X149235859Y-93332029D01*
X149235855Y-93332026D01*
X149155943Y-93285888D01*
X149155940Y-93285887D01*
X149155939Y-93285886D01*
X149155938Y-93285886D01*
X149066794Y-93262000D01*
X148974506Y-93262000D01*
X148885362Y-93285886D01*
X148885361Y-93285886D01*
X148885359Y-93285887D01*
X148885356Y-93285888D01*
X148805444Y-93332026D01*
X148805435Y-93332033D01*
X148740183Y-93397285D01*
X148740176Y-93397294D01*
X148694038Y-93477206D01*
X148694037Y-93477209D01*
X148694036Y-93477211D01*
X148694036Y-93477212D01*
X148670150Y-93566356D01*
X147511902Y-93566356D01*
X147557264Y-93487788D01*
X147581150Y-93398644D01*
X147581150Y-93306356D01*
X147557264Y-93217212D01*
X147557261Y-93217206D01*
X147511123Y-93137294D01*
X147511120Y-93137291D01*
X147511119Y-93137288D01*
X147445862Y-93072031D01*
X147445859Y-93072029D01*
X147445855Y-93072026D01*
X147365943Y-93025888D01*
X147365940Y-93025887D01*
X147365939Y-93025886D01*
X147365938Y-93025886D01*
X147276794Y-93002000D01*
X147184506Y-93002000D01*
X147095362Y-93025886D01*
X147095361Y-93025886D01*
X147095359Y-93025887D01*
X147095356Y-93025888D01*
X147015444Y-93072026D01*
X147015435Y-93072033D01*
X146950183Y-93137285D01*
X146950176Y-93137294D01*
X146904038Y-93217206D01*
X146904037Y-93217209D01*
X146904036Y-93217211D01*
X146904036Y-93217212D01*
X146880150Y-93306356D01*
X132493150Y-93306356D01*
X132493150Y-92806115D01*
X142980391Y-92806115D01*
X142980391Y-92898403D01*
X143003058Y-92982999D01*
X143004278Y-92987549D01*
X143004279Y-92987552D01*
X143050417Y-93067464D01*
X143050420Y-93067468D01*
X143050422Y-93067471D01*
X143115679Y-93132728D01*
X143115682Y-93132729D01*
X143115685Y-93132732D01*
X143195597Y-93178870D01*
X143195598Y-93178870D01*
X143195603Y-93178873D01*
X143284747Y-93202759D01*
X143284749Y-93202759D01*
X143377032Y-93202759D01*
X143377035Y-93202759D01*
X143466179Y-93178873D01*
X143546103Y-93132728D01*
X143611360Y-93067471D01*
X143657505Y-92987547D01*
X143681391Y-92898403D01*
X143681391Y-92806115D01*
X143657505Y-92716971D01*
X143657504Y-92716970D01*
X143657504Y-92716968D01*
X143618823Y-92649973D01*
X143618822Y-92649972D01*
X143611360Y-92637047D01*
X143587832Y-92613519D01*
X143584588Y-92609703D01*
X143574190Y-92586356D01*
X150638263Y-92586356D01*
X150638263Y-92678643D01*
X150662150Y-92767790D01*
X150662151Y-92767793D01*
X150708289Y-92847705D01*
X150708292Y-92847709D01*
X150708294Y-92847712D01*
X150773551Y-92912969D01*
X150773554Y-92912970D01*
X150773557Y-92912973D01*
X150853469Y-92959111D01*
X150853470Y-92959111D01*
X150853475Y-92959114D01*
X150942619Y-92983000D01*
X150942621Y-92983000D01*
X151034905Y-92983000D01*
X151034907Y-92983000D01*
X151124051Y-92959114D01*
X151203975Y-92912969D01*
X151269232Y-92847712D01*
X151315377Y-92767788D01*
X151339263Y-92678644D01*
X151339263Y-92586356D01*
X151315377Y-92497212D01*
X151308935Y-92486054D01*
X151269236Y-92417294D01*
X151269233Y-92417291D01*
X151269232Y-92417288D01*
X151203975Y-92352031D01*
X151203972Y-92352029D01*
X151203968Y-92352026D01*
X151124056Y-92305888D01*
X151124053Y-92305887D01*
X151124052Y-92305886D01*
X151124051Y-92305886D01*
X151034907Y-92282000D01*
X150942619Y-92282000D01*
X150853475Y-92305886D01*
X150853474Y-92305886D01*
X150853472Y-92305887D01*
X150853469Y-92305888D01*
X150773557Y-92352026D01*
X150773548Y-92352033D01*
X150708296Y-92417285D01*
X150708289Y-92417294D01*
X150662151Y-92497206D01*
X150662150Y-92497209D01*
X150662149Y-92497211D01*
X150662149Y-92497212D01*
X150654135Y-92527121D01*
X150638263Y-92586356D01*
X143574190Y-92586356D01*
X143572330Y-92582179D01*
X143557897Y-92555746D01*
X143558265Y-92550595D01*
X143556164Y-92545877D01*
X143560732Y-92516098D01*
X143562881Y-92486054D01*
X143565985Y-92481856D01*
X143566759Y-92476815D01*
X143584945Y-92456222D01*
X143595064Y-92442541D01*
X143592994Y-92440471D01*
X143617750Y-92415715D01*
X143663998Y-92369467D01*
X143710143Y-92289543D01*
X143734029Y-92200399D01*
X143734029Y-92108111D01*
X143710143Y-92018967D01*
X143710140Y-92018961D01*
X143664002Y-91939049D01*
X143663999Y-91939046D01*
X143663998Y-91939043D01*
X143598741Y-91873786D01*
X143598738Y-91873784D01*
X143598734Y-91873781D01*
X143518822Y-91827643D01*
X143518819Y-91827642D01*
X143518818Y-91827641D01*
X143518817Y-91827641D01*
X143429673Y-91803755D01*
X143337385Y-91803755D01*
X143248241Y-91827641D01*
X143248240Y-91827641D01*
X143248238Y-91827642D01*
X143248235Y-91827643D01*
X143168323Y-91873781D01*
X143168314Y-91873788D01*
X143103062Y-91939040D01*
X143103055Y-91939049D01*
X143056917Y-92018961D01*
X143056916Y-92018964D01*
X143056915Y-92018966D01*
X143056915Y-92018967D01*
X143033029Y-92108111D01*
X143033029Y-92200399D01*
X143045422Y-92246652D01*
X143056916Y-92289545D01*
X143056917Y-92289548D01*
X143103055Y-92369460D01*
X143103062Y-92369469D01*
X143123037Y-92389444D01*
X143156522Y-92450767D01*
X143151538Y-92520459D01*
X143119367Y-92563984D01*
X143121426Y-92566043D01*
X143050424Y-92637044D01*
X143050417Y-92637053D01*
X143004279Y-92716965D01*
X143004278Y-92716968D01*
X143004277Y-92716970D01*
X143004277Y-92716971D01*
X142980391Y-92806115D01*
X132493150Y-92806115D01*
X132493150Y-92154366D01*
X133269469Y-92154366D01*
X133269469Y-92246654D01*
X133287976Y-92315724D01*
X133293356Y-92335800D01*
X133293357Y-92335803D01*
X133339495Y-92415715D01*
X133339498Y-92415719D01*
X133339500Y-92415722D01*
X133404757Y-92480979D01*
X133404760Y-92480980D01*
X133404763Y-92480983D01*
X133484675Y-92527121D01*
X133484676Y-92527121D01*
X133484681Y-92527124D01*
X133573825Y-92551010D01*
X133573827Y-92551010D01*
X133666111Y-92551010D01*
X133666113Y-92551010D01*
X133755257Y-92527124D01*
X133835181Y-92480979D01*
X133900438Y-92415722D01*
X133946583Y-92335798D01*
X133970469Y-92246654D01*
X133970469Y-92154366D01*
X133946583Y-92065222D01*
X133946580Y-92065216D01*
X133940316Y-92054366D01*
X137369469Y-92054366D01*
X137369469Y-92146654D01*
X137383869Y-92200397D01*
X137393356Y-92235800D01*
X137393357Y-92235803D01*
X137439495Y-92315715D01*
X137439498Y-92315719D01*
X137439500Y-92315722D01*
X137504757Y-92380979D01*
X137504760Y-92380980D01*
X137504763Y-92380983D01*
X137584675Y-92427121D01*
X137584676Y-92427121D01*
X137584681Y-92427124D01*
X137673825Y-92451010D01*
X137673827Y-92451010D01*
X137766111Y-92451010D01*
X137766113Y-92451010D01*
X137855257Y-92427124D01*
X137935181Y-92380979D01*
X138000438Y-92315722D01*
X138046583Y-92235798D01*
X138070469Y-92146654D01*
X138070469Y-92054366D01*
X138046583Y-91965222D01*
X138031472Y-91939049D01*
X138000442Y-91885304D01*
X138000439Y-91885301D01*
X138000438Y-91885298D01*
X137935181Y-91820041D01*
X137935178Y-91820039D01*
X137935174Y-91820036D01*
X137855262Y-91773898D01*
X137855259Y-91773897D01*
X137855258Y-91773896D01*
X137855257Y-91773896D01*
X137766113Y-91750010D01*
X137673825Y-91750010D01*
X137584681Y-91773896D01*
X137584680Y-91773896D01*
X137584678Y-91773897D01*
X137584675Y-91773898D01*
X137504763Y-91820036D01*
X137504754Y-91820043D01*
X137439502Y-91885295D01*
X137439495Y-91885304D01*
X137393357Y-91965216D01*
X137393356Y-91965219D01*
X137393355Y-91965221D01*
X137393355Y-91965222D01*
X137369469Y-92054366D01*
X133940316Y-92054366D01*
X133900442Y-91985304D01*
X133900439Y-91985301D01*
X133900438Y-91985298D01*
X133835181Y-91920041D01*
X133835178Y-91920039D01*
X133835174Y-91920036D01*
X133755262Y-91873898D01*
X133755259Y-91873897D01*
X133755258Y-91873896D01*
X133755257Y-91873896D01*
X133666113Y-91850010D01*
X133573825Y-91850010D01*
X133484681Y-91873896D01*
X133484680Y-91873896D01*
X133484678Y-91873897D01*
X133484675Y-91873898D01*
X133404763Y-91920036D01*
X133404754Y-91920043D01*
X133339502Y-91985295D01*
X133339495Y-91985304D01*
X133293357Y-92065216D01*
X133293356Y-92065219D01*
X133293355Y-92065221D01*
X133293355Y-92065222D01*
X133269469Y-92154366D01*
X132493150Y-92154366D01*
X132493150Y-90792914D01*
X132512835Y-90725875D01*
X132565639Y-90680120D01*
X132634797Y-90670176D01*
X132679144Y-90685524D01*
X132766063Y-90735707D01*
X132867923Y-90763000D01*
X132867925Y-90763000D01*
X132973375Y-90763000D01*
X132973377Y-90763000D01*
X133075237Y-90735707D01*
X133120156Y-90709773D01*
X134120150Y-90709773D01*
X134120150Y-90815227D01*
X134147443Y-90917087D01*
X134200170Y-91008413D01*
X134274737Y-91082980D01*
X134366063Y-91135707D01*
X134467923Y-91163000D01*
X134467925Y-91163000D01*
X134573375Y-91163000D01*
X134573377Y-91163000D01*
X134675237Y-91135707D01*
X134766563Y-91082980D01*
X134838880Y-91010662D01*
X134900199Y-90977180D01*
X134969891Y-90982164D01*
X134988552Y-90990956D01*
X135066063Y-91035707D01*
X135167923Y-91063000D01*
X135167925Y-91063000D01*
X135273375Y-91063000D01*
X135273377Y-91063000D01*
X135375237Y-91035707D01*
X135466563Y-90982980D01*
X135541130Y-90908413D01*
X135565412Y-90866356D01*
X136120150Y-90866356D01*
X136120150Y-90958644D01*
X136140798Y-91035705D01*
X136144037Y-91047790D01*
X136144038Y-91047793D01*
X136190176Y-91127705D01*
X136190179Y-91127709D01*
X136190181Y-91127712D01*
X136255438Y-91192969D01*
X136255441Y-91192970D01*
X136255444Y-91192973D01*
X136335356Y-91239111D01*
X136335357Y-91239111D01*
X136335362Y-91239114D01*
X136424506Y-91263000D01*
X136424508Y-91263000D01*
X136516792Y-91263000D01*
X136516794Y-91263000D01*
X136605938Y-91239114D01*
X136685862Y-91192969D01*
X136751119Y-91127712D01*
X136797264Y-91047788D01*
X136821150Y-90958644D01*
X136821150Y-90866356D01*
X136797264Y-90777212D01*
X136793389Y-90770500D01*
X136751123Y-90697294D01*
X136751120Y-90697291D01*
X136751119Y-90697288D01*
X136685862Y-90632031D01*
X136685859Y-90632029D01*
X136685855Y-90632026D01*
X136605943Y-90585888D01*
X136605940Y-90585887D01*
X136605939Y-90585886D01*
X136605938Y-90585886D01*
X136516794Y-90562000D01*
X136424506Y-90562000D01*
X136335362Y-90585886D01*
X136335361Y-90585886D01*
X136335359Y-90585887D01*
X136335356Y-90585888D01*
X136255444Y-90632026D01*
X136255435Y-90632033D01*
X136190183Y-90697285D01*
X136190176Y-90697294D01*
X136144038Y-90777206D01*
X136144037Y-90777209D01*
X136144036Y-90777211D01*
X136144036Y-90777212D01*
X136120150Y-90866356D01*
X135565412Y-90866356D01*
X135593857Y-90817087D01*
X135621150Y-90715227D01*
X135621150Y-90609773D01*
X135593857Y-90507913D01*
X135541130Y-90416587D01*
X135498399Y-90373856D01*
X146948843Y-90373856D01*
X146948843Y-90466144D01*
X146963623Y-90521305D01*
X146972730Y-90555290D01*
X146972731Y-90555293D01*
X147018869Y-90635205D01*
X147018872Y-90635209D01*
X147018874Y-90635212D01*
X147084131Y-90700469D01*
X147084134Y-90700470D01*
X147084137Y-90700473D01*
X147164049Y-90746611D01*
X147164050Y-90746611D01*
X147164055Y-90746614D01*
X147253199Y-90770500D01*
X147253201Y-90770500D01*
X147345485Y-90770500D01*
X147345487Y-90770500D01*
X147434631Y-90746614D01*
X147514555Y-90700469D01*
X147579812Y-90635212D01*
X147625957Y-90555288D01*
X147649843Y-90466144D01*
X147649843Y-90373856D01*
X147625957Y-90284712D01*
X147612844Y-90262000D01*
X147579816Y-90204794D01*
X147579813Y-90204791D01*
X147579812Y-90204788D01*
X147514555Y-90139531D01*
X147514552Y-90139529D01*
X147514548Y-90139526D01*
X147434636Y-90093388D01*
X147434633Y-90093387D01*
X147434632Y-90093386D01*
X147434631Y-90093386D01*
X147345487Y-90069500D01*
X147253199Y-90069500D01*
X147164055Y-90093386D01*
X147164054Y-90093386D01*
X147164052Y-90093387D01*
X147164049Y-90093388D01*
X147084137Y-90139526D01*
X147084128Y-90139533D01*
X147018876Y-90204785D01*
X147018869Y-90204794D01*
X146972731Y-90284706D01*
X146972730Y-90284709D01*
X146972729Y-90284711D01*
X146972729Y-90284712D01*
X146948843Y-90373856D01*
X135498399Y-90373856D01*
X135466563Y-90342020D01*
X135375237Y-90289293D01*
X135273377Y-90262000D01*
X135167923Y-90262000D01*
X135066063Y-90289293D01*
X135066060Y-90289294D01*
X134974737Y-90342020D01*
X134902422Y-90414335D01*
X134841098Y-90447819D01*
X134771407Y-90442834D01*
X134752741Y-90434040D01*
X134675239Y-90389294D01*
X134675238Y-90389293D01*
X134675237Y-90389293D01*
X134573377Y-90362000D01*
X134467923Y-90362000D01*
X134366063Y-90389293D01*
X134366060Y-90389294D01*
X134274735Y-90442021D01*
X134200171Y-90516585D01*
X134147444Y-90607910D01*
X134147443Y-90607913D01*
X134120150Y-90709773D01*
X133120156Y-90709773D01*
X133166563Y-90682980D01*
X133241130Y-90608413D01*
X133293857Y-90517087D01*
X133321150Y-90415227D01*
X133321150Y-90309773D01*
X133293857Y-90207913D01*
X133241130Y-90116587D01*
X133166563Y-90042020D01*
X133075237Y-89989293D01*
X132973377Y-89962000D01*
X132867923Y-89962000D01*
X132766063Y-89989293D01*
X132766060Y-89989294D01*
X132679150Y-90039472D01*
X132611250Y-90055945D01*
X132545223Y-90033092D01*
X132502032Y-89978171D01*
X132493150Y-89932085D01*
X132493150Y-88616356D01*
X141720150Y-88616356D01*
X141720150Y-88708643D01*
X141744037Y-88797790D01*
X141744038Y-88797793D01*
X141790176Y-88877705D01*
X141790179Y-88877709D01*
X141790181Y-88877712D01*
X141855438Y-88942969D01*
X141855441Y-88942970D01*
X141855444Y-88942973D01*
X141935356Y-88989111D01*
X141935357Y-88989111D01*
X141935362Y-88989114D01*
X142024506Y-89013000D01*
X142024508Y-89013000D01*
X142116792Y-89013000D01*
X142116794Y-89013000D01*
X142205938Y-88989114D01*
X142285862Y-88942969D01*
X142351119Y-88877712D01*
X142397264Y-88797788D01*
X142421150Y-88708644D01*
X142421150Y-88616356D01*
X142397264Y-88527212D01*
X142397261Y-88527206D01*
X142351123Y-88447294D01*
X142351120Y-88447291D01*
X142351119Y-88447288D01*
X142285862Y-88382031D01*
X142285859Y-88382029D01*
X142285855Y-88382026D01*
X142205943Y-88335888D01*
X142205940Y-88335887D01*
X142205939Y-88335886D01*
X142205938Y-88335886D01*
X142116794Y-88312000D01*
X142024506Y-88312000D01*
X141935362Y-88335886D01*
X141935361Y-88335886D01*
X141935359Y-88335887D01*
X141935356Y-88335888D01*
X141855444Y-88382026D01*
X141855435Y-88382033D01*
X141790183Y-88447285D01*
X141790176Y-88447294D01*
X141744038Y-88527206D01*
X141744037Y-88527209D01*
X141720150Y-88616356D01*
X132493150Y-88616356D01*
X132493150Y-86896608D01*
X136320150Y-86896608D01*
X136320150Y-87028391D01*
X136354258Y-87155687D01*
X136387204Y-87212750D01*
X136420150Y-87269814D01*
X136513336Y-87363000D01*
X136627464Y-87428892D01*
X136754758Y-87463000D01*
X136754760Y-87463000D01*
X136886540Y-87463000D01*
X136886542Y-87463000D01*
X137013836Y-87428892D01*
X137127964Y-87363000D01*
X137221150Y-87269814D01*
X137287042Y-87155686D01*
X137321150Y-87028392D01*
X137321150Y-86896608D01*
X137287042Y-86769314D01*
X137221150Y-86655186D01*
X137127964Y-86562000D01*
X137070900Y-86529054D01*
X137013837Y-86496108D01*
X136950189Y-86479054D01*
X136886542Y-86462000D01*
X136754758Y-86462000D01*
X136627462Y-86496108D01*
X136513336Y-86562000D01*
X136513333Y-86562002D01*
X136420152Y-86655183D01*
X136420150Y-86655186D01*
X136354258Y-86769312D01*
X136320150Y-86896608D01*
X132493150Y-86896608D01*
X132493150Y-85416356D01*
X136970150Y-85416356D01*
X136970150Y-85508643D01*
X136994037Y-85597790D01*
X136994038Y-85597793D01*
X137040176Y-85677705D01*
X137040179Y-85677709D01*
X137040181Y-85677712D01*
X137105438Y-85742969D01*
X137105441Y-85742970D01*
X137105444Y-85742973D01*
X137185356Y-85789111D01*
X137185357Y-85789111D01*
X137185362Y-85789114D01*
X137274506Y-85813000D01*
X137274508Y-85813000D01*
X137366792Y-85813000D01*
X137366794Y-85813000D01*
X137455938Y-85789114D01*
X137535862Y-85742969D01*
X137601119Y-85677712D01*
X137647264Y-85597788D01*
X137671150Y-85508644D01*
X137671150Y-85416356D01*
X137647264Y-85327212D01*
X137647261Y-85327206D01*
X137601123Y-85247294D01*
X137601120Y-85247291D01*
X137601119Y-85247288D01*
X137535862Y-85182031D01*
X137535859Y-85182029D01*
X137535855Y-85182026D01*
X137455943Y-85135888D01*
X137455940Y-85135887D01*
X137455939Y-85135886D01*
X137455938Y-85135886D01*
X137366794Y-85112000D01*
X137274506Y-85112000D01*
X137185362Y-85135886D01*
X137185361Y-85135886D01*
X137185359Y-85135887D01*
X137185356Y-85135888D01*
X137105444Y-85182026D01*
X137105435Y-85182033D01*
X137040183Y-85247285D01*
X137040176Y-85247294D01*
X136994038Y-85327206D01*
X136994037Y-85327209D01*
X136970150Y-85416356D01*
X132493150Y-85416356D01*
X132493150Y-84216356D01*
X138270150Y-84216356D01*
X138270150Y-84308643D01*
X138294037Y-84397790D01*
X138294038Y-84397793D01*
X138340176Y-84477705D01*
X138340179Y-84477709D01*
X138340181Y-84477712D01*
X138405438Y-84542969D01*
X138405441Y-84542970D01*
X138405444Y-84542973D01*
X138485356Y-84589111D01*
X138485357Y-84589111D01*
X138485362Y-84589114D01*
X138574506Y-84613000D01*
X138574508Y-84613000D01*
X138666792Y-84613000D01*
X138666794Y-84613000D01*
X138755938Y-84589114D01*
X138835862Y-84542969D01*
X138901119Y-84477712D01*
X138947264Y-84397788D01*
X138971150Y-84308644D01*
X138971150Y-84216356D01*
X138947264Y-84127212D01*
X138947261Y-84127206D01*
X138901123Y-84047294D01*
X138901120Y-84047291D01*
X138901119Y-84047288D01*
X138835862Y-83982031D01*
X138835859Y-83982029D01*
X138835855Y-83982026D01*
X138755943Y-83935888D01*
X138755940Y-83935887D01*
X138755939Y-83935886D01*
X138755938Y-83935886D01*
X138666794Y-83912000D01*
X138574506Y-83912000D01*
X138485362Y-83935886D01*
X138485361Y-83935886D01*
X138485359Y-83935887D01*
X138485356Y-83935888D01*
X138405444Y-83982026D01*
X138405435Y-83982033D01*
X138340183Y-84047285D01*
X138340176Y-84047294D01*
X138294038Y-84127206D01*
X138294037Y-84127209D01*
X138270150Y-84216356D01*
X132493150Y-84216356D01*
X132493150Y-83294500D01*
X132512835Y-83227461D01*
X132565639Y-83181706D01*
X132617150Y-83170500D01*
X145389150Y-83170500D01*
X145456189Y-83190185D01*
G37*
%TD.AperFunction*%
%TD*%
M02*
