%TF.GenerationSoftware,KiCad,Pcbnew,10.0.1*%
%TF.CreationDate,2026-06-12T14:10:23-05:00*%
%TF.ProjectId,wearable_IMU,77656172-6162-46c6-955f-494d552e6b69,rev?*%
%TF.SameCoordinates,Original*%
%TF.FileFunction,Copper,L4,Bot*%
%TF.FilePolarity,Positive*%
%FSLAX46Y46*%
G04 Gerber Fmt 4.6, Leading zero omitted, Abs format (unit mm)*
G04 Created by KiCad (PCBNEW 10.0.1) date 2026-06-12 14:10:23*
%MOMM*%
%LPD*%
G01*
G04 APERTURE LIST*
G04 Aperture macros list*
%AMRoundRect*
0 Rectangle with rounded corners*
0 $1 Rounding radius*
0 $2 $3 $4 $5 $6 $7 $8 $9 X,Y pos of 4 corners*
0 Add a 4 corners polygon primitive as box body*
4,1,4,$2,$3,$4,$5,$6,$7,$8,$9,$2,$3,0*
0 Add four circle primitives for the rounded corners*
1,1,$1+$1,$2,$3*
1,1,$1+$1,$4,$5*
1,1,$1+$1,$6,$7*
1,1,$1+$1,$8,$9*
0 Add four rect primitives between the rounded corners*
20,1,$1+$1,$2,$3,$4,$5,0*
20,1,$1+$1,$4,$5,$6,$7,0*
20,1,$1+$1,$6,$7,$8,$9,0*
20,1,$1+$1,$8,$9,$2,$3,0*%
%AMFreePoly0*
4,1,23,0.500000,-0.750000,0.000000,-0.750000,0.000000,-0.745722,-0.065263,-0.745722,-0.191342,-0.711940,-0.304381,-0.646677,-0.396677,-0.554381,-0.461940,-0.441342,-0.495722,-0.315263,-0.495722,-0.250000,-0.500000,-0.250000,-0.500000,0.250000,-0.495722,0.250000,-0.495722,0.315263,-0.461940,0.441342,-0.396677,0.554381,-0.304381,0.646677,-0.191342,0.711940,-0.065263,0.745722,0.000000,0.745722,
0.000000,0.750000,0.500000,0.750000,0.500000,-0.750000,0.500000,-0.750000,$1*%
%AMFreePoly1*
4,1,23,0.000000,0.745722,0.065263,0.745722,0.191342,0.711940,0.304381,0.646677,0.396677,0.554381,0.461940,0.441342,0.495722,0.315263,0.495722,0.250000,0.500000,0.250000,0.500000,-0.250000,0.495722,-0.250000,0.495722,-0.315263,0.461940,-0.441342,0.396677,-0.554381,0.304381,-0.646677,0.191342,-0.711940,0.065263,-0.745722,0.000000,-0.745722,0.000000,-0.750000,-0.500000,-0.750000,
-0.500000,0.750000,0.000000,0.750000,0.000000,0.745722,0.000000,0.745722,$1*%
G04 Aperture macros list end*
%TA.AperFunction,ComponentPad*%
%ADD10O,2.100000X1.000000*%
%TD*%
%TA.AperFunction,ComponentPad*%
%ADD11O,1.800000X1.000000*%
%TD*%
%TA.AperFunction,SMDPad,CuDef*%
%ADD12C,1.500000*%
%TD*%
%TA.AperFunction,SMDPad,CuDef*%
%ADD13FreePoly0,270.000000*%
%TD*%
%TA.AperFunction,SMDPad,CuDef*%
%ADD14FreePoly1,270.000000*%
%TD*%
%TA.AperFunction,SMDPad,CuDef*%
%ADD15RoundRect,0.150000X0.150000X0.625000X-0.150000X0.625000X-0.150000X-0.625000X0.150000X-0.625000X0*%
%TD*%
%TA.AperFunction,SMDPad,CuDef*%
%ADD16RoundRect,0.250000X0.350000X0.650000X-0.350000X0.650000X-0.350000X-0.650000X0.350000X-0.650000X0*%
%TD*%
%TA.AperFunction,SMDPad,CuDef*%
%ADD17RoundRect,0.250000X0.250000X0.550000X-0.250000X0.550000X-0.250000X-0.550000X0.250000X-0.550000X0*%
%TD*%
%TA.AperFunction,SMDPad,CuDef*%
%ADD18RoundRect,0.250000X-0.550000X0.250000X-0.550000X-0.250000X0.550000X-0.250000X0.550000X0.250000X0*%
%TD*%
%TA.AperFunction,ViaPad*%
%ADD19C,0.400000*%
%TD*%
%TA.AperFunction,ViaPad*%
%ADD20C,0.600000*%
%TD*%
%TA.AperFunction,Conductor*%
%ADD21C,0.100000*%
%TD*%
%TA.AperFunction,Conductor*%
%ADD22C,0.300000*%
%TD*%
%TA.AperFunction,Conductor*%
%ADD23C,0.500000*%
%TD*%
%TA.AperFunction,Conductor*%
%ADD24C,0.200000*%
%TD*%
%TA.AperFunction,Conductor*%
%ADD25C,0.150000*%
%TD*%
G04 APERTURE END LIST*
D10*
%TO.P,J1,SH,SHIELD_SH*%
%TO.N,GND*%
X127705000Y-101300000D03*
D11*
X123525000Y-101300000D03*
D10*
X127705000Y-109940000D03*
D11*
X123525000Y-109940000D03*
%TD*%
D12*
%TO.P,TP1,1,1_1*%
%TO.N,+3V3*%
X143620650Y-110812500D03*
%TD*%
D13*
%TO.P,JP1,1,A_1*%
%TO.N,Net-(JP1-A)*%
X148643150Y-98430000D03*
D14*
%TO.P,JP1,2,B_2*%
%TO.N,+3V3*%
X148643150Y-99730000D03*
%TD*%
D15*
%TO.P,J2,1,Pin_1_1*%
%TO.N,+B*%
X149810650Y-91567500D03*
%TO.P,J2,2,Pin_2_2*%
%TO.N,GND*%
X148810650Y-91567500D03*
D16*
%TO.P,J2,MP*%
%TO.N,N/C*%
X151110650Y-95442500D03*
X147510650Y-95442500D03*
%TD*%
D17*
%TO.P,DWM1,1,EXTON_1*%
%TO.N,unconnected-(DWM1-EXTON-Pad1)*%
X133014350Y-84245000D03*
%TO.P,DWM1,2,WAKEUP_2*%
%TO.N,/WAKEUP*%
X134414350Y-84245000D03*
%TO.P,DWM1,3,~{RST}_3*%
%TO.N,/RST*%
X135814350Y-84245000D03*
%TO.P,DWM1,4,GPIO7_4*%
%TO.N,unconnected-(DWM1-GPIO7-Pad4)*%
X137214350Y-84245000D03*
%TO.P,DWM1,5,VDDAON_5*%
%TO.N,+3V3*%
X138614350Y-84245000D03*
%TO.P,DWM1,6,VDD3V3_6*%
X140014350Y-84245000D03*
%TO.P,DWM1,7,VDD3V3_7*%
X141414350Y-84245000D03*
%TO.P,DWM1,8,VSS_8*%
%TO.N,GND*%
X142814350Y-84245000D03*
D18*
%TO.P,DWM1,16,VSS_16*%
X145509111Y-95864667D03*
D17*
%TO.P,DWM1,17,~{SPICS}_17*%
%TO.N,/SPI1_CS*%
X142813150Y-97695000D03*
%TO.P,DWM1,18,SPIMOSI_18*%
%TO.N,/SPI1_MOSI*%
X141413150Y-97695000D03*
%TO.P,DWM1,19,SPIMISO_19*%
%TO.N,/SPI1_MISO*%
X140014350Y-97695000D03*
%TO.P,DWM1,20,SPICLK_20*%
%TO.N,/SPI1_CLK*%
X138614350Y-97695000D03*
%TO.P,DWM1,21,VSS_21*%
%TO.N,GND*%
X137214350Y-97695000D03*
%TO.P,DWM1,22,IRQ/GPIO8_22*%
%TO.N,/IRQ*%
X135814350Y-97695000D03*
%TO.P,DWM1,23,VSS_23*%
%TO.N,GND*%
X134414350Y-97695000D03*
%TO.P,DWM1,24,VSS_24*%
X133014350Y-97695000D03*
%TD*%
D19*
%TO.N,+VSYS*%
X147120650Y-108362500D03*
D20*
X147230650Y-93352500D03*
X149960650Y-95462500D03*
D19*
%TO.N,/EN*%
X151038150Y-98895000D03*
X147920650Y-105962500D03*
%TO.N,GND*%
X144920650Y-110012500D03*
X140270650Y-94812500D03*
X145013150Y-89870000D03*
X143395650Y-89207500D03*
X142020650Y-85662500D03*
X148820650Y-95712500D03*
X134420650Y-96412500D03*
X145212650Y-91770050D03*
X141163150Y-93270000D03*
X139913150Y-89226666D03*
X144120650Y-108962500D03*
X149013150Y-89870000D03*
X140270650Y-93362500D03*
X151013150Y-100970000D03*
X133770650Y-105862500D03*
D20*
X139720650Y-102332500D03*
D19*
X131770650Y-104462500D03*
X138670650Y-91012500D03*
X140913150Y-89870000D03*
D20*
X141720650Y-104332500D03*
D19*
X138713150Y-87983333D03*
X140338357Y-85715207D03*
X139913150Y-86740000D03*
X139913150Y-87983333D03*
X145013150Y-83870000D03*
X133919969Y-87900510D03*
X138713873Y-86710560D03*
X140563150Y-96470000D03*
X138908442Y-85742061D03*
X135469969Y-91500510D03*
X138713150Y-89226666D03*
X133269969Y-95700510D03*
X136169969Y-91550510D03*
X135720650Y-98912500D03*
X133070650Y-107862500D03*
X150013150Y-89870000D03*
D20*
X139720650Y-100332500D03*
D19*
X145013150Y-85870000D03*
X146045650Y-93107500D03*
X145013150Y-86870000D03*
X143120650Y-108962500D03*
D20*
X141720650Y-100332500D03*
D19*
X133120650Y-100062500D03*
X133020650Y-96362500D03*
X145645650Y-100007500D03*
X145013150Y-88870000D03*
X138570650Y-92762500D03*
X148013150Y-89870000D03*
X145233150Y-94620000D03*
X146520650Y-105862500D03*
D20*
X139720650Y-104332500D03*
X137720650Y-104332500D03*
D19*
X151013150Y-89870000D03*
X149290022Y-97060626D03*
X137470650Y-96562500D03*
X145638150Y-90895000D03*
X147013150Y-89870000D03*
X134120650Y-89412500D03*
X145013150Y-87870000D03*
X139520650Y-107912500D03*
X145670650Y-110012500D03*
X140013150Y-90870000D03*
X132120650Y-101312500D03*
X146520650Y-102412500D03*
X143595650Y-85662500D03*
D20*
X137720650Y-100332500D03*
D19*
X151013150Y-101670000D03*
D20*
X141720650Y-102332500D03*
X137720650Y-102332500D03*
D19*
X146013150Y-89870000D03*
D20*
%TO.N,+3V3*%
X136820650Y-86962500D03*
D19*
X139606796Y-96513605D03*
X145020650Y-111012500D03*
X132920650Y-90362500D03*
X136370650Y-96562500D03*
X137719969Y-92100510D03*
X138183150Y-108210000D03*
X150988763Y-92632500D03*
D20*
X147570650Y-101562500D03*
D19*
X145620650Y-101062500D03*
X131820650Y-106037500D03*
X133619969Y-92200510D03*
D20*
X147570650Y-100812500D03*
D19*
X138620650Y-84262500D03*
X146220650Y-108262500D03*
X136983150Y-110725000D03*
X137320650Y-85462500D03*
X141120650Y-94812500D03*
%TO.N,/IMU_INT1*%
X144173150Y-100585000D03*
X137320650Y-95962500D03*
%TO.N,/SCL*%
X143420650Y-94712500D03*
X134520650Y-90762500D03*
X135669969Y-95750510D03*
X144170650Y-102820000D03*
X142220650Y-96562500D03*
%TO.N,/SDA*%
X144170650Y-102162500D03*
X135220650Y-90662500D03*
X143543150Y-95370000D03*
X136369969Y-95750510D03*
%TO.N,+VIN*%
X143330891Y-92852259D03*
X133620650Y-108812500D03*
%TO.N,/LED3*%
X142070650Y-88662500D03*
X144370650Y-96512500D03*
%TO.N,+B*%
X149020650Y-93612500D03*
%TO.N,/BOOT0*%
X146020650Y-99412500D03*
X144170650Y-103512500D03*
%TO.N,/IRQ*%
X135470650Y-101962500D03*
%TO.N,Net-(JP1-A)*%
X147538150Y-98370000D03*
%TO.N,/SWD_NRST*%
X139570650Y-111062500D03*
X146920650Y-103262500D03*
%TO.N,/SWD_CLK*%
X139211887Y-106671263D03*
X138963150Y-108430000D03*
%TO.N,/STAT1*%
X147299343Y-90420000D03*
X143383529Y-92154255D03*
%TO.N,/MAG_INT1*%
X138120650Y-96162500D03*
X136470650Y-90912500D03*
X144220650Y-99932500D03*
X138220650Y-94712500D03*
%TO.N,/SPI1_CS*%
X142820650Y-97962500D03*
%TO.N,/SPI1_CLK*%
X143770650Y-98362500D03*
%TO.N,/SPI1_MISO*%
X139920650Y-98062500D03*
%TO.N,/SPI1_MOSI*%
X141270650Y-97862500D03*
%TO.N,/RST*%
X135470650Y-100612500D03*
%TO.N,/WAKEUP*%
X135470650Y-101212500D03*
%TD*%
%TO.N,+VSYS*%
D21*
X149960650Y-101822500D02*
X147120650Y-104662500D01*
D22*
X149960650Y-95422500D02*
X149780650Y-95422500D01*
X147710650Y-93352500D02*
X147230650Y-93352500D01*
D21*
X147120650Y-104662500D02*
X147120650Y-108362500D01*
X149960650Y-95462500D02*
X149960650Y-101822500D01*
D22*
X149780650Y-95422500D02*
X147710650Y-93352500D01*
%TO.N,/EN*%
D21*
X151038150Y-98895000D02*
X150420650Y-99512500D01*
X148820650Y-103862500D02*
X148820650Y-105462500D01*
X150420650Y-99512500D02*
X150420650Y-102262500D01*
X148320650Y-105962500D02*
X147920650Y-105962500D01*
X150420650Y-102262500D02*
X148820650Y-103862500D01*
X148820650Y-105462500D02*
X148320650Y-105962500D01*
%TO.N,GND*%
D23*
X137470650Y-96562500D02*
X137470650Y-97438700D01*
X137470650Y-97438700D02*
X137214350Y-97695000D01*
%TO.N,+3V3*%
D21*
X147570650Y-100802500D02*
X147570650Y-100812500D01*
D22*
X140014350Y-84245000D02*
X141414350Y-84245000D01*
D24*
X143620650Y-110812500D02*
X144820650Y-110812500D01*
D21*
X148643150Y-99730000D02*
X147570650Y-100802500D01*
D24*
X144820650Y-110812500D02*
X145020650Y-111012500D01*
D22*
X138614350Y-84245000D02*
X140014350Y-84245000D01*
%TO.N,/IMU_INT1*%
D21*
X136770650Y-96766088D02*
X136564350Y-96972388D01*
X136564350Y-96972388D02*
X136564350Y-98417612D01*
X136564350Y-98417612D02*
X138029238Y-99882500D01*
X137320650Y-95962500D02*
X137320650Y-96062500D01*
X143470650Y-99882500D02*
X144173150Y-100585000D01*
X137320650Y-96062500D02*
X136770650Y-96612500D01*
X138029238Y-99882500D02*
X143470650Y-99882500D01*
X136770650Y-96612500D02*
X136770650Y-96766088D01*
%TO.N,/SCL*%
X143970650Y-95231814D02*
X143970650Y-96812500D01*
X143970650Y-96812500D02*
X144559111Y-97400961D01*
X143451336Y-94712500D02*
X143970650Y-95231814D01*
X134520650Y-90762500D02*
X134520650Y-92012500D01*
X141670650Y-95512500D02*
X137170650Y-95512500D01*
X144920650Y-99079658D02*
X144920650Y-102070000D01*
X144559111Y-98718119D02*
X144920650Y-99079658D01*
X136769969Y-95916196D02*
X136535655Y-96150510D01*
X136769969Y-95913181D02*
X136769969Y-95916196D01*
X142220650Y-96562500D02*
X142220650Y-96062500D01*
X134520650Y-92012500D02*
X135669969Y-93161819D01*
X137170650Y-95512500D02*
X136769969Y-95913181D01*
X144920650Y-102070000D02*
X144170650Y-102820000D01*
X142220650Y-96062500D02*
X141670650Y-95512500D01*
X144559111Y-97400961D02*
X144559111Y-98718119D01*
X135669969Y-93161819D02*
X135669969Y-95750510D01*
X136069969Y-96150510D02*
X135669969Y-95750510D01*
X143420650Y-94712500D02*
X143451336Y-94712500D01*
X136535655Y-96150510D02*
X136069969Y-96150510D01*
%TO.N,/SDA*%
X144620650Y-101712500D02*
X144620650Y-99062500D01*
X143385650Y-95212500D02*
X136907979Y-95212500D01*
X135226305Y-92256845D02*
X136369969Y-93400510D01*
X136369969Y-93400510D02*
X136369969Y-95750510D01*
X135020650Y-92051190D02*
X135226305Y-92256845D01*
X135220650Y-90662500D02*
X135020650Y-90862500D01*
X135020650Y-90862500D02*
X135020650Y-92051190D01*
X144620650Y-99062500D02*
X144270650Y-98712500D01*
X143543150Y-96985000D02*
X143543150Y-95370000D01*
X144270650Y-98712500D02*
X144270650Y-97712500D01*
X144170650Y-102162500D02*
X144620650Y-101712500D01*
X143543150Y-95370000D02*
X143385650Y-95212500D01*
X136907979Y-95212500D02*
X136369969Y-95750510D01*
X144270650Y-97712500D02*
X143543150Y-96985000D01*
%TO.N,+VIN*%
D22*
X146520650Y-96367162D02*
X146559111Y-96328701D01*
X146020650Y-102205393D02*
X146313543Y-101912500D01*
X146520650Y-95200393D02*
X144172516Y-92852259D01*
X146020650Y-102512500D02*
X146020650Y-102205393D01*
X146520650Y-95362172D02*
X146520650Y-95200393D01*
X133620650Y-108812500D02*
X134018468Y-108812500D01*
X146313543Y-101912500D02*
X146320650Y-101912500D01*
X146320650Y-101912500D02*
X146520650Y-101712500D01*
X146520650Y-101712500D02*
X146520650Y-96367162D01*
X143620650Y-104912500D02*
X146020650Y-102512500D01*
X134018468Y-108812500D02*
X137918468Y-104912500D01*
X144172516Y-92852259D02*
X143330891Y-92852259D01*
X146559111Y-96328701D02*
X146559111Y-95400633D01*
X137918468Y-104912500D02*
X143620650Y-104912500D01*
X146559111Y-95400633D02*
X146520650Y-95362172D01*
%TO.N,/LED3*%
D21*
X142070650Y-92157704D02*
X142070650Y-88662500D01*
X144370650Y-94457704D02*
X142070650Y-92157704D01*
X144370650Y-96512500D02*
X144370650Y-94457704D01*
%TO.N,+B*%
D22*
X149810650Y-93222500D02*
X149810650Y-91567500D01*
X149020650Y-93612500D02*
X149420650Y-93612500D01*
X149420650Y-93612500D02*
X149810650Y-93222500D01*
%TO.N,/BOOT0*%
D21*
X146020650Y-99412500D02*
X146070650Y-99462500D01*
X146070650Y-99462500D02*
X146070650Y-101612500D01*
X146070650Y-101612500D02*
X144170650Y-103512500D01*
%TO.N,/IRQ*%
X136170650Y-101262500D02*
X135470650Y-101962500D01*
X135814350Y-97695000D02*
X136170650Y-98051300D01*
X136170650Y-98051300D02*
X136170650Y-101262500D01*
%TO.N,Net-(JP1-A)*%
D25*
X147538150Y-98405000D02*
X147563150Y-98430000D01*
X147538150Y-98370000D02*
X147538150Y-98405000D01*
X147563150Y-98430000D02*
X148643150Y-98430000D01*
%TO.N,/SWD_NRST*%
D21*
X139570650Y-109862500D02*
X139570650Y-111062500D01*
X140757850Y-108675300D02*
X139570650Y-109862500D01*
X141194437Y-108193700D02*
X140757850Y-108630287D01*
X140757850Y-108630287D02*
X140757850Y-108675300D01*
X146920650Y-103262500D02*
X146170650Y-103262500D01*
X146170650Y-103262500D02*
X141239450Y-108193700D01*
X141239450Y-108193700D02*
X141194437Y-108193700D01*
%TO.N,/SWD_CLK*%
D25*
X139211887Y-106671263D02*
X139211887Y-106673403D01*
X138963150Y-106920000D02*
X138963150Y-108420000D01*
X139211887Y-106671263D02*
X138963150Y-106920000D01*
%TO.N,/STAT1*%
D21*
X143383529Y-92154255D02*
X143441774Y-92212500D01*
X143441774Y-92212500D02*
X145506843Y-92212500D01*
X145506843Y-92212500D02*
X147299343Y-90420000D01*
%TO.N,/MAG_INT1*%
X137220650Y-93712500D02*
X138220650Y-94712500D01*
X143700650Y-99412500D02*
X138959238Y-99412500D01*
X137220650Y-91662500D02*
X137220650Y-93712500D01*
X137964350Y-98417612D02*
X137964350Y-96318800D01*
X137964350Y-96318800D02*
X138120650Y-96162500D01*
X144220650Y-99932500D02*
X143700650Y-99412500D01*
X136470650Y-90912500D02*
X137220650Y-91662500D01*
X138959238Y-99412500D02*
X137964350Y-98417612D01*
%TO.N,/SPI1_CLK*%
D24*
X143770650Y-98362500D02*
X143320650Y-98812500D01*
X138532418Y-98169268D02*
X138532418Y-97279622D01*
X138614350Y-98256200D02*
X138614350Y-97695000D01*
X143320650Y-98812500D02*
X139170650Y-98812500D01*
X139170650Y-98812500D02*
X138614350Y-98256200D01*
%TO.N,/RST*%
D21*
X135314350Y-89118800D02*
X133520650Y-90912500D01*
X135814350Y-84245000D02*
X135314350Y-84745000D01*
X135070650Y-100212500D02*
X135470650Y-100612500D01*
X135314350Y-84745000D02*
X135314350Y-89118800D01*
X133520650Y-90912500D02*
X133520650Y-91512500D01*
X133520650Y-91512500D02*
X135070650Y-93062500D01*
X135070650Y-93062500D02*
X135070650Y-100212500D01*
%TO.N,/WAKEUP*%
X133420650Y-85238700D02*
X134414350Y-84245000D01*
X135320650Y-101212500D02*
X133764350Y-99656200D01*
X133219969Y-95084824D02*
X133219969Y-90713181D01*
X133764350Y-95629205D02*
X133219969Y-95084824D01*
X133764350Y-99656200D02*
X133764350Y-95629205D01*
X133219969Y-90713181D02*
X133420650Y-90512500D01*
X133420650Y-90512500D02*
X133420650Y-85238700D01*
X135470650Y-101212500D02*
X135320650Y-101212500D01*
%TD*%
%TA.AperFunction,Conductor*%
%TO.N,GND*%
G36*
X132633039Y-90670428D02*
G01*
X132634797Y-90670176D01*
X132641621Y-90672537D01*
X132663580Y-90677935D01*
X132673831Y-90682074D01*
X132674737Y-90682980D01*
X132766063Y-90735707D01*
X132867923Y-90763000D01*
X132874233Y-90763000D01*
X132891899Y-90770134D01*
X132946691Y-90813489D01*
X132969346Y-90879584D01*
X132969469Y-90885113D01*
X132969469Y-95134653D01*
X133007605Y-95226721D01*
X133477531Y-95696647D01*
X133511016Y-95757970D01*
X133513850Y-95784328D01*
X133513850Y-96480008D01*
X133494165Y-96547047D01*
X133441361Y-96592802D01*
X133375068Y-96603124D01*
X133307406Y-96595000D01*
X133214350Y-96595000D01*
X133214350Y-97495000D01*
X133389850Y-97495000D01*
X133398535Y-97497550D01*
X133407497Y-97496262D01*
X133431537Y-97507240D01*
X133456889Y-97514685D01*
X133462816Y-97521525D01*
X133471053Y-97525287D01*
X133485342Y-97547521D01*
X133502644Y-97567489D01*
X133504931Y-97578003D01*
X133508827Y-97584065D01*
X133513850Y-97619000D01*
X133513850Y-97771000D01*
X133494165Y-97838039D01*
X133441361Y-97883794D01*
X133389850Y-97895000D01*
X133214350Y-97895000D01*
X133214350Y-98795000D01*
X133307404Y-98795000D01*
X133375066Y-98786875D01*
X133443974Y-98798427D01*
X133495698Y-98845399D01*
X133513850Y-98909991D01*
X133513850Y-99606372D01*
X133513850Y-99706028D01*
X133551986Y-99798097D01*
X134320150Y-100566261D01*
X135065334Y-101311444D01*
X135080661Y-101330093D01*
X135092106Y-101347172D01*
X135097443Y-101367087D01*
X135150170Y-101458413D01*
X135200153Y-101508396D01*
X135206903Y-101518468D01*
X135213895Y-101540694D01*
X135225061Y-101561142D01*
X135224184Y-101573396D01*
X135227872Y-101585117D01*
X135221739Y-101607593D01*
X135220077Y-101630834D01*
X135211945Y-101643486D01*
X135209480Y-101652522D01*
X135201545Y-101659669D01*
X135191576Y-101675181D01*
X135150171Y-101716585D01*
X135097444Y-101807910D01*
X135097444Y-101807911D01*
X135097443Y-101807913D01*
X135070150Y-101909773D01*
X135070150Y-102015227D01*
X135095484Y-102109773D01*
X135097443Y-102117086D01*
X135097444Y-102117089D01*
X135099865Y-102121282D01*
X135150170Y-102208413D01*
X135224737Y-102282980D01*
X135316063Y-102335707D01*
X135417923Y-102363000D01*
X135417925Y-102363000D01*
X135523375Y-102363000D01*
X135523377Y-102363000D01*
X135625237Y-102335707D01*
X135716563Y-102282980D01*
X135791130Y-102208413D01*
X135843857Y-102117087D01*
X135871150Y-102015227D01*
X135871150Y-101967623D01*
X135890835Y-101900584D01*
X135907469Y-101879942D01*
X136143925Y-101643486D01*
X136383014Y-101404397D01*
X136421150Y-101312328D01*
X136421150Y-101212673D01*
X136421150Y-98928035D01*
X136440835Y-98860996D01*
X136493639Y-98815241D01*
X136562797Y-98805297D01*
X136626353Y-98834322D01*
X136632831Y-98840354D01*
X137816874Y-100024397D01*
X137887341Y-100094864D01*
X137979410Y-100133000D01*
X143315527Y-100133000D01*
X143382566Y-100152685D01*
X143403208Y-100169319D01*
X143736331Y-100502442D01*
X143769816Y-100563765D01*
X143772650Y-100590123D01*
X143772650Y-100637727D01*
X143788861Y-100698226D01*
X143799943Y-100739586D01*
X143799944Y-100739589D01*
X143803998Y-100746610D01*
X143852670Y-100830913D01*
X143927237Y-100905480D01*
X144018563Y-100958207D01*
X144120423Y-100985500D01*
X144120425Y-100985500D01*
X144225871Y-100985500D01*
X144225877Y-100985500D01*
X144225882Y-100985498D01*
X144229955Y-100984962D01*
X144233406Y-100985500D01*
X144234004Y-100985500D01*
X144234004Y-100985593D01*
X144298991Y-100995723D01*
X144351251Y-101042099D01*
X144370150Y-101107900D01*
X144370150Y-101557377D01*
X144361505Y-101586817D01*
X144354982Y-101616804D01*
X144351227Y-101621819D01*
X144350465Y-101624416D01*
X144333831Y-101645058D01*
X144253208Y-101725681D01*
X144191885Y-101759166D01*
X144165527Y-101762000D01*
X144117923Y-101762000D01*
X144016063Y-101789293D01*
X144016060Y-101789294D01*
X143924735Y-101842021D01*
X143850171Y-101916585D01*
X143797444Y-102007910D01*
X143797443Y-102007913D01*
X143770150Y-102109773D01*
X143770150Y-102215227D01*
X143797443Y-102317087D01*
X143849549Y-102407338D01*
X143850172Y-102408416D01*
X143855119Y-102414863D01*
X143852563Y-102416823D01*
X143878811Y-102464892D01*
X143873827Y-102534584D01*
X143853421Y-102566334D01*
X143855119Y-102567637D01*
X143850172Y-102574083D01*
X143797444Y-102665410D01*
X143797443Y-102665413D01*
X143770150Y-102767273D01*
X143770150Y-102872726D01*
X143797443Y-102974586D01*
X143797444Y-102974589D01*
X143806563Y-102990384D01*
X143842521Y-103052665D01*
X143850171Y-103065914D01*
X143862826Y-103078569D01*
X143896311Y-103139892D01*
X143891327Y-103209584D01*
X143862826Y-103253931D01*
X143850171Y-103266585D01*
X143797444Y-103357910D01*
X143797443Y-103357913D01*
X143770150Y-103459773D01*
X143770150Y-103565227D01*
X143797443Y-103667087D01*
X143850170Y-103758413D01*
X143924737Y-103832980D01*
X143962145Y-103854577D01*
X144010358Y-103905141D01*
X144023582Y-103973747D01*
X143997615Y-104038612D01*
X143987824Y-104049643D01*
X143511787Y-104525681D01*
X143450464Y-104559166D01*
X143424106Y-104562000D01*
X137872324Y-104562000D01*
X137783180Y-104585886D01*
X137783177Y-104585887D01*
X137703259Y-104632027D01*
X137703254Y-104632031D01*
X133919073Y-108416212D01*
X133857750Y-108449697D01*
X133788058Y-108444713D01*
X133782813Y-108442242D01*
X133782747Y-108442404D01*
X133775239Y-108439294D01*
X133775237Y-108439293D01*
X133673377Y-108412000D01*
X133567923Y-108412000D01*
X133466063Y-108439293D01*
X133466060Y-108439294D01*
X133374735Y-108492021D01*
X133300171Y-108566585D01*
X133247444Y-108657910D01*
X133247443Y-108657913D01*
X133220150Y-108759773D01*
X133220150Y-108865227D01*
X133237641Y-108930503D01*
X133247443Y-108967086D01*
X133247444Y-108967089D01*
X133261572Y-108991559D01*
X133300170Y-109058413D01*
X133374737Y-109132980D01*
X133466063Y-109185707D01*
X133567923Y-109213000D01*
X133567925Y-109213000D01*
X133673375Y-109213000D01*
X133673377Y-109213000D01*
X133775237Y-109185707D01*
X133785792Y-109179612D01*
X133847792Y-109163000D01*
X134064610Y-109163000D01*
X134064612Y-109163000D01*
X134153756Y-109139114D01*
X134164380Y-109132980D01*
X134233680Y-109092970D01*
X135169377Y-108157273D01*
X137782650Y-108157273D01*
X137782650Y-108262727D01*
X137809943Y-108364587D01*
X137862670Y-108455913D01*
X137937237Y-108530480D01*
X138028563Y-108583207D01*
X138130423Y-108610500D01*
X138130425Y-108610500D01*
X138235875Y-108610500D01*
X138235877Y-108610500D01*
X138337737Y-108583207D01*
X138418910Y-108536341D01*
X138486805Y-108519870D01*
X138552832Y-108542722D01*
X138588293Y-108581729D01*
X138589942Y-108584586D01*
X138589943Y-108584587D01*
X138642670Y-108675913D01*
X138717237Y-108750480D01*
X138808563Y-108803207D01*
X138910423Y-108830500D01*
X138910425Y-108830500D01*
X139015875Y-108830500D01*
X139015877Y-108830500D01*
X139117737Y-108803207D01*
X139209063Y-108750480D01*
X139283630Y-108675913D01*
X139336357Y-108584587D01*
X139363650Y-108482727D01*
X139363650Y-108377273D01*
X139336357Y-108275413D01*
X139283630Y-108184087D01*
X139274969Y-108175426D01*
X139241484Y-108114103D01*
X139238650Y-108087745D01*
X139238650Y-107173868D01*
X139258335Y-107106829D01*
X139311139Y-107061074D01*
X139330551Y-107054095D01*
X139366474Y-107044470D01*
X139457800Y-106991743D01*
X139532367Y-106917176D01*
X139585094Y-106825850D01*
X139612387Y-106723990D01*
X139612387Y-106618536D01*
X139585094Y-106516676D01*
X139532367Y-106425350D01*
X139457800Y-106350783D01*
X139366474Y-106298056D01*
X139264614Y-106270763D01*
X139159160Y-106270763D01*
X139057300Y-106298056D01*
X139057297Y-106298057D01*
X138965972Y-106350784D01*
X138891408Y-106425348D01*
X138838681Y-106516673D01*
X138838680Y-106516676D01*
X138811387Y-106618536D01*
X138811387Y-106630786D01*
X138791702Y-106697825D01*
X138775068Y-106718467D01*
X138729594Y-106763940D01*
X138687650Y-106865199D01*
X138687650Y-107848745D01*
X138667965Y-107915784D01*
X138615161Y-107961539D01*
X138546003Y-107971483D01*
X138482447Y-107942458D01*
X138475969Y-107936426D01*
X138429064Y-107889521D01*
X138429063Y-107889520D01*
X138337737Y-107836793D01*
X138235877Y-107809500D01*
X138130423Y-107809500D01*
X138028563Y-107836793D01*
X138028560Y-107836794D01*
X137937235Y-107889521D01*
X137862671Y-107964085D01*
X137809944Y-108055410D01*
X137809943Y-108055413D01*
X137782650Y-108157273D01*
X135169377Y-108157273D01*
X138027331Y-105299319D01*
X138088654Y-105265834D01*
X138115012Y-105263000D01*
X143516527Y-105263000D01*
X143583566Y-105282685D01*
X143629321Y-105335489D01*
X143639265Y-105404647D01*
X143610240Y-105468203D01*
X143604214Y-105474673D01*
X142988663Y-106090225D01*
X141146822Y-107932065D01*
X141106596Y-107958944D01*
X141052541Y-107981335D01*
X141052538Y-107981337D01*
X140545487Y-108488388D01*
X140545485Y-108488391D01*
X140523094Y-108542446D01*
X140496215Y-108582672D01*
X139428753Y-109650136D01*
X139358287Y-109720601D01*
X139358286Y-109720602D01*
X139320150Y-109812670D01*
X139320150Y-110695245D01*
X139300465Y-110762284D01*
X139283831Y-110782926D01*
X139250171Y-110816585D01*
X139197444Y-110907910D01*
X139197443Y-110907913D01*
X139170150Y-111009773D01*
X139170150Y-111115227D01*
X139197443Y-111217087D01*
X139250170Y-111308413D01*
X139324737Y-111382980D01*
X139416063Y-111435707D01*
X139517923Y-111463000D01*
X139517925Y-111463000D01*
X139623375Y-111463000D01*
X139623377Y-111463000D01*
X139725237Y-111435707D01*
X139816563Y-111382980D01*
X139891130Y-111308413D01*
X139943857Y-111217087D01*
X139971150Y-111115227D01*
X139971150Y-111009773D01*
X139943857Y-110907913D01*
X139940712Y-110902465D01*
X140807350Y-110902465D01*
X140807350Y-111039534D01*
X140834087Y-111173949D01*
X140834090Y-111173961D01*
X140886536Y-111300578D01*
X140886543Y-111300591D01*
X140962686Y-111414546D01*
X140962689Y-111414550D01*
X141059599Y-111511460D01*
X141059603Y-111511463D01*
X141173558Y-111587606D01*
X141173571Y-111587613D01*
X141300188Y-111640059D01*
X141300193Y-111640061D01*
X141434615Y-111666799D01*
X141434619Y-111666800D01*
X141434620Y-111666800D01*
X141571681Y-111666800D01*
X141571682Y-111666799D01*
X141706107Y-111640061D01*
X141832735Y-111587610D01*
X141946697Y-111511463D01*
X142043613Y-111414547D01*
X142119760Y-111300585D01*
X142172211Y-111173957D01*
X142198950Y-111039530D01*
X142198950Y-110902470D01*
X142172211Y-110768043D01*
X142151847Y-110718879D01*
X142670150Y-110718879D01*
X142670150Y-110906120D01*
X142706675Y-111089743D01*
X142706677Y-111089751D01*
X142778326Y-111262728D01*
X142778331Y-111262737D01*
X142882347Y-111418407D01*
X142882350Y-111418411D01*
X143014738Y-111550799D01*
X143014742Y-111550802D01*
X143170412Y-111654818D01*
X143170418Y-111654821D01*
X143170419Y-111654822D01*
X143343399Y-111726473D01*
X143527029Y-111762999D01*
X143527033Y-111763000D01*
X143527034Y-111763000D01*
X143714267Y-111763000D01*
X143714268Y-111762999D01*
X143897901Y-111726473D01*
X144070881Y-111654822D01*
X144226558Y-111550802D01*
X144358952Y-111418408D01*
X144462972Y-111262731D01*
X144466873Y-111253312D01*
X144510709Y-111198907D01*
X144577002Y-111176838D01*
X144644702Y-111194113D01*
X144688821Y-111238756D01*
X144700170Y-111258413D01*
X144774737Y-111332980D01*
X144866063Y-111385707D01*
X144967923Y-111413000D01*
X144967925Y-111413000D01*
X145073375Y-111413000D01*
X145073377Y-111413000D01*
X145175237Y-111385707D01*
X145266563Y-111332980D01*
X145341130Y-111258413D01*
X145393857Y-111167087D01*
X145421150Y-111065227D01*
X145421150Y-110959773D01*
X145393857Y-110857913D01*
X145341130Y-110766587D01*
X145266563Y-110692020D01*
X145178916Y-110641417D01*
X145175239Y-110639294D01*
X145175238Y-110639293D01*
X145175237Y-110639293D01*
X145127758Y-110626571D01*
X150032649Y-110626571D01*
X150057647Y-110752238D01*
X150057649Y-110752244D01*
X150106683Y-110870624D01*
X150106688Y-110870633D01*
X150177873Y-110977168D01*
X150177876Y-110977172D01*
X150268477Y-111067773D01*
X150268481Y-111067776D01*
X150375016Y-111138961D01*
X150375022Y-111138964D01*
X150375023Y-111138965D01*
X150493406Y-111188001D01*
X150493410Y-111188001D01*
X150493411Y-111188002D01*
X150619078Y-111213000D01*
X150619081Y-111213000D01*
X150747221Y-111213000D01*
X150842168Y-111194113D01*
X150872894Y-111188001D01*
X150991277Y-111138965D01*
X151097819Y-111067776D01*
X151188426Y-110977169D01*
X151259615Y-110870627D01*
X151308651Y-110752244D01*
X151319989Y-110695245D01*
X151333650Y-110626571D01*
X151333650Y-110498428D01*
X151308652Y-110372761D01*
X151308651Y-110372760D01*
X151308651Y-110372756D01*
X151259615Y-110254373D01*
X151259614Y-110254372D01*
X151259611Y-110254366D01*
X151188426Y-110147831D01*
X151188423Y-110147827D01*
X151097822Y-110057226D01*
X151097818Y-110057223D01*
X150991283Y-109986038D01*
X150991274Y-109986033D01*
X150872894Y-109936999D01*
X150872888Y-109936997D01*
X150747221Y-109912000D01*
X150747219Y-109912000D01*
X150619081Y-109912000D01*
X150619079Y-109912000D01*
X150493411Y-109936997D01*
X150493405Y-109936999D01*
X150375025Y-109986033D01*
X150375016Y-109986038D01*
X150268481Y-110057223D01*
X150268477Y-110057226D01*
X150177876Y-110147827D01*
X150177873Y-110147831D01*
X150106688Y-110254366D01*
X150106683Y-110254375D01*
X150057649Y-110372755D01*
X150057647Y-110372761D01*
X150032650Y-110498428D01*
X150032650Y-110498431D01*
X150032650Y-110626569D01*
X150032650Y-110626571D01*
X150032649Y-110626571D01*
X145127758Y-110626571D01*
X145073801Y-110612113D01*
X145073800Y-110612113D01*
X145066870Y-110610256D01*
X145011284Y-110578163D01*
X145005163Y-110572042D01*
X145005157Y-110572037D01*
X145002343Y-110570413D01*
X144936641Y-110532480D01*
X144936640Y-110532479D01*
X144911163Y-110525652D01*
X144860212Y-110512000D01*
X144860210Y-110512000D01*
X144607847Y-110512000D01*
X144540808Y-110492315D01*
X144495053Y-110439511D01*
X144493286Y-110435453D01*
X144462973Y-110362271D01*
X144462968Y-110362262D01*
X144358952Y-110206592D01*
X144358949Y-110206588D01*
X144226561Y-110074200D01*
X144226557Y-110074197D01*
X144070887Y-109970181D01*
X144070878Y-109970176D01*
X143897901Y-109898527D01*
X143897893Y-109898525D01*
X143714270Y-109862000D01*
X143714266Y-109862000D01*
X143527034Y-109862000D01*
X143527029Y-109862000D01*
X143343406Y-109898525D01*
X143343398Y-109898527D01*
X143170421Y-109970176D01*
X143170412Y-109970181D01*
X143014742Y-110074197D01*
X143014738Y-110074200D01*
X142882350Y-110206588D01*
X142882347Y-110206592D01*
X142778331Y-110362262D01*
X142778326Y-110362271D01*
X142706677Y-110535248D01*
X142706675Y-110535256D01*
X142670150Y-110718879D01*
X142151847Y-110718879D01*
X142122880Y-110648947D01*
X142119761Y-110641417D01*
X142119756Y-110641408D01*
X142043613Y-110527453D01*
X142043610Y-110527449D01*
X141946700Y-110430539D01*
X141946696Y-110430536D01*
X141832741Y-110354393D01*
X141832728Y-110354386D01*
X141706111Y-110301940D01*
X141706099Y-110301937D01*
X141571684Y-110275200D01*
X141571680Y-110275200D01*
X141434620Y-110275200D01*
X141434615Y-110275200D01*
X141300200Y-110301937D01*
X141300188Y-110301940D01*
X141173571Y-110354386D01*
X141173558Y-110354393D01*
X141059603Y-110430536D01*
X141059599Y-110430539D01*
X140962689Y-110527449D01*
X140962686Y-110527453D01*
X140886543Y-110641408D01*
X140886536Y-110641421D01*
X140834090Y-110768038D01*
X140834087Y-110768050D01*
X140807350Y-110902465D01*
X139940712Y-110902465D01*
X139891130Y-110816587D01*
X139847208Y-110772665D01*
X139839595Y-110760315D01*
X139834054Y-110740045D01*
X139823984Y-110721603D01*
X139821150Y-110695245D01*
X139821150Y-110017623D01*
X139840835Y-109950584D01*
X139857469Y-109929942D01*
X140231805Y-109555606D01*
X140647616Y-109139794D01*
X140708937Y-109106311D01*
X140778628Y-109111295D01*
X140834562Y-109153167D01*
X140849856Y-109180024D01*
X140886538Y-109268581D01*
X140886543Y-109268591D01*
X140962686Y-109382546D01*
X140962689Y-109382550D01*
X141059599Y-109479460D01*
X141059603Y-109479463D01*
X141173558Y-109555606D01*
X141173571Y-109555613D01*
X141300188Y-109608059D01*
X141300193Y-109608061D01*
X141434615Y-109634799D01*
X141434619Y-109634800D01*
X141434620Y-109634800D01*
X141571681Y-109634800D01*
X141571682Y-109634799D01*
X141706107Y-109608061D01*
X141832735Y-109555610D01*
X141946697Y-109479463D01*
X142043613Y-109382547D01*
X142119760Y-109268585D01*
X142172211Y-109141957D01*
X142198950Y-109007530D01*
X142198950Y-108870470D01*
X142172211Y-108736043D01*
X142162599Y-108712838D01*
X142119763Y-108609421D01*
X142119756Y-108609408D01*
X142043613Y-108495453D01*
X142043610Y-108495449D01*
X141946700Y-108398539D01*
X141946696Y-108398536D01*
X141832741Y-108322393D01*
X141832731Y-108322388D01*
X141744174Y-108285706D01*
X141689770Y-108241864D01*
X141667706Y-108175570D01*
X141684986Y-108107871D01*
X141703942Y-108083468D01*
X146238091Y-103549318D01*
X146265018Y-103534615D01*
X146290837Y-103518023D01*
X146297037Y-103517131D01*
X146299414Y-103515834D01*
X146325772Y-103513000D01*
X146553395Y-103513000D01*
X146620434Y-103532685D01*
X146641076Y-103549319D01*
X146674737Y-103582980D01*
X146766063Y-103635707D01*
X146867923Y-103663000D01*
X146867925Y-103663000D01*
X146973375Y-103663000D01*
X146973377Y-103663000D01*
X147075237Y-103635707D01*
X147166563Y-103582980D01*
X147241130Y-103508413D01*
X147293857Y-103417087D01*
X147321150Y-103315227D01*
X147321150Y-103209773D01*
X147293857Y-103107913D01*
X147241130Y-103016587D01*
X147166563Y-102942020D01*
X147075237Y-102889293D01*
X146973377Y-102862000D01*
X146867923Y-102862000D01*
X146766063Y-102889293D01*
X146766060Y-102889294D01*
X146674735Y-102942021D01*
X146641076Y-102975681D01*
X146614148Y-102990384D01*
X146588330Y-103006977D01*
X146582129Y-103007868D01*
X146579753Y-103009166D01*
X146553395Y-103012000D01*
X146316194Y-103012000D01*
X146249155Y-102992315D01*
X146203400Y-102939511D01*
X146193456Y-102870353D01*
X146222481Y-102806797D01*
X146228513Y-102800319D01*
X146261559Y-102767273D01*
X146301120Y-102727712D01*
X146347264Y-102647788D01*
X146371150Y-102558643D01*
X146371150Y-102466356D01*
X146371150Y-102401936D01*
X146379795Y-102372492D01*
X146386318Y-102342510D01*
X146390072Y-102337494D01*
X146390835Y-102334897D01*
X146407464Y-102314258D01*
X146507501Y-102214221D01*
X146533190Y-102194513D01*
X146534219Y-102193918D01*
X146535862Y-102192970D01*
X146801120Y-101927712D01*
X146847264Y-101847788D01*
X146857948Y-101807913D01*
X146868651Y-101767967D01*
X146894428Y-101725681D01*
X146905012Y-101708315D01*
X146905015Y-101708312D01*
X146937331Y-101692614D01*
X146967859Y-101677784D01*
X146967862Y-101677784D01*
X146996123Y-101681163D01*
X147037234Y-101686078D01*
X147037238Y-101686079D01*
X147069006Y-101712310D01*
X147091113Y-101730562D01*
X147102984Y-101752612D01*
X147104255Y-101755681D01*
X147105966Y-101758644D01*
X147170150Y-101869814D01*
X147263336Y-101963000D01*
X147377464Y-102028892D01*
X147504758Y-102063000D01*
X147504760Y-102063000D01*
X147636540Y-102063000D01*
X147636542Y-102063000D01*
X147763836Y-102028892D01*
X147877964Y-101963000D01*
X147971150Y-101869814D01*
X148037042Y-101755686D01*
X148071150Y-101628392D01*
X148071150Y-101496608D01*
X148037042Y-101369314D01*
X148030809Y-101358519D01*
X148025281Y-101348944D01*
X147971150Y-101255186D01*
X147971148Y-101255184D01*
X147967867Y-101249501D01*
X147951394Y-101181601D01*
X147967867Y-101125499D01*
X147971148Y-101119815D01*
X147971150Y-101119814D01*
X148037042Y-101005686D01*
X148071150Y-100878392D01*
X148071150Y-100746608D01*
X148070588Y-100744510D01*
X148070631Y-100742674D01*
X148070089Y-100738553D01*
X148070731Y-100738468D01*
X148070872Y-100732508D01*
X148066676Y-100721257D01*
X148071686Y-100698226D01*
X148072245Y-100674664D01*
X148079346Y-100663012D01*
X148081528Y-100652984D01*
X148102673Y-100624736D01*
X148255593Y-100471816D01*
X148316914Y-100438334D01*
X148343272Y-100435500D01*
X148958970Y-100435500D01*
X148958976Y-100435500D01*
X149012164Y-100428497D01*
X149139331Y-100394422D01*
X149188893Y-100373893D01*
X149302907Y-100308067D01*
X149345467Y-100275409D01*
X149438559Y-100182317D01*
X149471217Y-100139757D01*
X149478764Y-100126685D01*
X149529327Y-100078472D01*
X149597934Y-100065247D01*
X149662799Y-100091214D01*
X149703329Y-100148127D01*
X149710150Y-100188686D01*
X149710150Y-101667376D01*
X149690465Y-101734415D01*
X149673831Y-101755057D01*
X146961311Y-104467576D01*
X146961312Y-104467577D01*
X146908286Y-104520603D01*
X146870150Y-104612670D01*
X146870150Y-107995245D01*
X146861873Y-108023431D01*
X146856260Y-108052269D01*
X146851492Y-108058785D01*
X146850465Y-108062284D01*
X146835734Y-108080981D01*
X146834798Y-108081958D01*
X146800170Y-108116587D01*
X146797908Y-108120504D01*
X146789479Y-108129312D01*
X146764818Y-108143489D01*
X146741842Y-108160266D01*
X146734917Y-108160678D01*
X146728905Y-108164135D01*
X146700492Y-108162728D01*
X146672096Y-108164420D01*
X146666048Y-108161023D01*
X146659121Y-108160681D01*
X146635976Y-108144135D01*
X146611176Y-108130207D01*
X146604886Y-108121909D01*
X146602282Y-108120047D01*
X146600961Y-108116729D01*
X146592508Y-108105577D01*
X146541130Y-108016587D01*
X146466563Y-107942020D01*
X146375237Y-107889293D01*
X146273377Y-107862000D01*
X146167923Y-107862000D01*
X146066063Y-107889293D01*
X146066060Y-107889294D01*
X145974735Y-107942021D01*
X145900171Y-108016585D01*
X145847444Y-108107910D01*
X145847443Y-108107913D01*
X145820150Y-108209773D01*
X145820150Y-108315227D01*
X145847443Y-108417087D01*
X145900170Y-108508413D01*
X145974737Y-108582980D01*
X146066063Y-108635707D01*
X146167923Y-108663000D01*
X146167925Y-108663000D01*
X146273375Y-108663000D01*
X146273377Y-108663000D01*
X146375237Y-108635707D01*
X146466563Y-108582980D01*
X146541130Y-108508413D01*
X146541135Y-108508402D01*
X146543020Y-108505948D01*
X146545152Y-108504390D01*
X146546877Y-108502666D01*
X146547145Y-108502934D01*
X146599443Y-108464739D01*
X146669188Y-108460576D01*
X146730112Y-108494781D01*
X146748791Y-108519422D01*
X146800170Y-108608413D01*
X146874737Y-108682980D01*
X146966063Y-108735707D01*
X147067923Y-108763000D01*
X147067925Y-108763000D01*
X147173375Y-108763000D01*
X147173377Y-108763000D01*
X147275237Y-108735707D01*
X147366563Y-108682980D01*
X147441130Y-108608413D01*
X147493857Y-108517087D01*
X147521150Y-108415227D01*
X147521150Y-108309773D01*
X147493857Y-108207913D01*
X147441130Y-108116587D01*
X147407469Y-108082926D01*
X147373984Y-108021603D01*
X147371150Y-107995245D01*
X147371150Y-106274511D01*
X147390835Y-106207472D01*
X147443639Y-106161717D01*
X147512797Y-106151773D01*
X147576353Y-106180798D01*
X147594370Y-106202621D01*
X147595224Y-106201967D01*
X147600169Y-106208412D01*
X147600170Y-106208413D01*
X147674737Y-106282980D01*
X147766063Y-106335707D01*
X147867923Y-106363000D01*
X147867925Y-106363000D01*
X147973375Y-106363000D01*
X147973377Y-106363000D01*
X148075237Y-106335707D01*
X148166563Y-106282980D01*
X148200224Y-106249319D01*
X148261547Y-106215834D01*
X148287905Y-106213000D01*
X148370476Y-106213000D01*
X148370478Y-106213000D01*
X148462547Y-106174864D01*
X148962545Y-105674864D01*
X148962547Y-105674864D01*
X149033014Y-105604397D01*
X149044184Y-105577430D01*
X149071151Y-105512328D01*
X149071151Y-105412672D01*
X149071151Y-105402683D01*
X149071150Y-105402669D01*
X149071150Y-104017621D01*
X149090835Y-103950582D01*
X149107464Y-103929945D01*
X149210838Y-103826571D01*
X150032649Y-103826571D01*
X150057647Y-103952238D01*
X150057649Y-103952244D01*
X150106683Y-104070624D01*
X150106688Y-104070633D01*
X150177873Y-104177168D01*
X150177876Y-104177172D01*
X150268477Y-104267773D01*
X150268481Y-104267776D01*
X150375016Y-104338961D01*
X150375022Y-104338964D01*
X150375023Y-104338965D01*
X150493406Y-104388001D01*
X150493410Y-104388001D01*
X150493411Y-104388002D01*
X150619078Y-104413000D01*
X150619081Y-104413000D01*
X150747221Y-104413000D01*
X150831765Y-104396182D01*
X150872894Y-104388001D01*
X150991277Y-104338965D01*
X151097819Y-104267776D01*
X151188426Y-104177169D01*
X151259615Y-104070627D01*
X151308651Y-103952244D01*
X151318021Y-103905141D01*
X151333650Y-103826571D01*
X151333650Y-103698428D01*
X151308652Y-103572761D01*
X151308651Y-103572760D01*
X151308651Y-103572756D01*
X151259615Y-103454373D01*
X151259614Y-103454372D01*
X151259611Y-103454366D01*
X151188426Y-103347831D01*
X151188423Y-103347827D01*
X151097822Y-103257226D01*
X151097818Y-103257223D01*
X150991283Y-103186038D01*
X150991274Y-103186033D01*
X150872894Y-103136999D01*
X150872888Y-103136997D01*
X150747221Y-103112000D01*
X150747219Y-103112000D01*
X150619081Y-103112000D01*
X150619079Y-103112000D01*
X150493411Y-103136997D01*
X150493405Y-103136999D01*
X150375025Y-103186033D01*
X150375016Y-103186038D01*
X150268481Y-103257223D01*
X150268477Y-103257226D01*
X150177876Y-103347827D01*
X150177873Y-103347831D01*
X150106688Y-103454366D01*
X150106683Y-103454375D01*
X150057649Y-103572755D01*
X150057647Y-103572761D01*
X150032650Y-103698428D01*
X150032650Y-103698431D01*
X150032650Y-103826569D01*
X150032650Y-103826571D01*
X150032649Y-103826571D01*
X149210838Y-103826571D01*
X150562545Y-102474864D01*
X150562547Y-102474864D01*
X150633014Y-102404397D01*
X150661466Y-102335707D01*
X150671151Y-102312327D01*
X150671151Y-102212672D01*
X150671151Y-102202683D01*
X150671150Y-102202669D01*
X150671150Y-99667622D01*
X150690835Y-99600583D01*
X150707469Y-99579941D01*
X150955591Y-99331819D01*
X151016914Y-99298334D01*
X151043272Y-99295500D01*
X151090875Y-99295500D01*
X151090877Y-99295500D01*
X151192737Y-99268207D01*
X151284063Y-99215480D01*
X151358630Y-99140913D01*
X151411357Y-99049587D01*
X151438650Y-98947727D01*
X151438650Y-98842273D01*
X151411357Y-98740413D01*
X151358630Y-98649087D01*
X151284063Y-98574520D01*
X151197580Y-98524589D01*
X151192739Y-98521794D01*
X151192738Y-98521793D01*
X151192737Y-98521793D01*
X151090877Y-98494500D01*
X150985423Y-98494500D01*
X150883563Y-98521793D01*
X150883560Y-98521794D01*
X150792235Y-98574521D01*
X150717671Y-98649085D01*
X150664944Y-98740410D01*
X150664943Y-98740413D01*
X150637650Y-98842273D01*
X150637650Y-98889876D01*
X150617965Y-98956915D01*
X150601331Y-98977557D01*
X150422831Y-99156057D01*
X150361508Y-99189542D01*
X150291816Y-99184558D01*
X150235883Y-99142686D01*
X150211466Y-99077222D01*
X150211150Y-99068376D01*
X150211150Y-96483432D01*
X150230835Y-96416393D01*
X150283639Y-96370638D01*
X150352797Y-96360694D01*
X150416353Y-96389719D01*
X150434918Y-96409797D01*
X150438500Y-96414650D01*
X150547768Y-96495293D01*
X150589150Y-96509773D01*
X150675949Y-96540146D01*
X150706380Y-96543000D01*
X150706384Y-96543000D01*
X151514920Y-96543000D01*
X151528441Y-96541731D01*
X151545349Y-96540146D01*
X151547687Y-96539327D01*
X151549528Y-96539233D01*
X151552723Y-96538536D01*
X151552838Y-96539064D01*
X151617463Y-96535760D01*
X151678093Y-96570483D01*
X151710326Y-96632474D01*
X151712650Y-96656366D01*
X151712650Y-112445500D01*
X151692965Y-112512539D01*
X151640161Y-112558294D01*
X151588650Y-112569500D01*
X122437650Y-112569500D01*
X122370611Y-112549815D01*
X122324856Y-112497011D01*
X122313650Y-112445500D01*
X122313650Y-110559384D01*
X122333335Y-110492345D01*
X122386139Y-110446590D01*
X122455297Y-110436646D01*
X122518853Y-110465671D01*
X122525331Y-110471703D01*
X122615026Y-110561398D01*
X122615030Y-110561401D01*
X122746051Y-110648947D01*
X122746060Y-110648952D01*
X122891648Y-110709256D01*
X122891656Y-110709258D01*
X123046202Y-110739999D01*
X123046206Y-110740000D01*
X123325000Y-110740000D01*
X123325000Y-110240000D01*
X123725000Y-110240000D01*
X123725000Y-110740000D01*
X124003794Y-110740000D01*
X124003797Y-110739999D01*
X124158343Y-110709258D01*
X124158351Y-110709256D01*
X124303939Y-110648952D01*
X124303948Y-110648947D01*
X124434969Y-110561401D01*
X124434973Y-110561398D01*
X124546398Y-110449973D01*
X124546401Y-110449969D01*
X124633947Y-110318948D01*
X124633952Y-110318939D01*
X124694256Y-110173351D01*
X124694258Y-110173343D01*
X124700891Y-110140000D01*
X124149265Y-110140000D01*
X124165060Y-110124205D01*
X124204556Y-110055796D01*
X124225000Y-109979496D01*
X124225000Y-109900504D01*
X124204556Y-109824204D01*
X124165060Y-109755795D01*
X124149265Y-109740000D01*
X124700891Y-109740000D01*
X124700891Y-109739999D01*
X126379108Y-109739999D01*
X126379109Y-109740000D01*
X126930735Y-109740000D01*
X126914940Y-109755795D01*
X126875444Y-109824204D01*
X126855000Y-109900504D01*
X126855000Y-109979496D01*
X126875444Y-110055796D01*
X126914940Y-110124205D01*
X126930735Y-110140000D01*
X126379109Y-110140000D01*
X126385741Y-110173343D01*
X126385743Y-110173351D01*
X126446047Y-110318939D01*
X126446052Y-110318948D01*
X126533598Y-110449969D01*
X126533601Y-110449973D01*
X126645026Y-110561398D01*
X126645030Y-110561401D01*
X126776051Y-110648947D01*
X126776060Y-110648952D01*
X126921648Y-110709256D01*
X126921656Y-110709258D01*
X127076202Y-110739999D01*
X127076206Y-110740000D01*
X127505000Y-110740000D01*
X127505000Y-110240000D01*
X127905000Y-110240000D01*
X127905000Y-110740000D01*
X128333794Y-110740000D01*
X128333797Y-110739999D01*
X128488343Y-110709258D01*
X128488351Y-110709256D01*
X128633939Y-110648952D01*
X128633948Y-110648947D01*
X128764969Y-110561401D01*
X128764973Y-110561398D01*
X128876398Y-110449973D01*
X128876401Y-110449969D01*
X128963947Y-110318948D01*
X128963952Y-110318939D01*
X129024256Y-110173351D01*
X129024258Y-110173343D01*
X129030891Y-110140000D01*
X128479265Y-110140000D01*
X128495060Y-110124205D01*
X128534556Y-110055796D01*
X128555000Y-109979496D01*
X128555000Y-109900504D01*
X128551238Y-109886465D01*
X135727350Y-109886465D01*
X135727350Y-110023534D01*
X135754087Y-110157949D01*
X135754090Y-110157961D01*
X135806536Y-110284578D01*
X135806543Y-110284591D01*
X135882686Y-110398546D01*
X135882689Y-110398550D01*
X135979599Y-110495460D01*
X135979603Y-110495463D01*
X136093558Y-110571606D01*
X136093571Y-110571613D01*
X136191075Y-110612000D01*
X136220193Y-110624061D01*
X136354615Y-110650799D01*
X136354619Y-110650800D01*
X136458650Y-110650800D01*
X136525689Y-110670485D01*
X136571444Y-110723289D01*
X136581534Y-110769674D01*
X136581589Y-110769667D01*
X136581674Y-110770315D01*
X136582650Y-110774800D01*
X136582650Y-110777727D01*
X136609943Y-110879587D01*
X136662670Y-110970913D01*
X136737237Y-111045480D01*
X136828563Y-111098207D01*
X136930423Y-111125500D01*
X136930425Y-111125500D01*
X137035875Y-111125500D01*
X137035877Y-111125500D01*
X137137737Y-111098207D01*
X137229063Y-111045480D01*
X137303630Y-110970913D01*
X137356357Y-110879587D01*
X137383650Y-110777727D01*
X137383650Y-110672273D01*
X137356357Y-110570413D01*
X137303630Y-110479087D01*
X137229063Y-110404520D01*
X137137737Y-110351793D01*
X137130698Y-110347729D01*
X137132438Y-110344715D01*
X137090505Y-110310923D01*
X137068439Y-110244629D01*
X137077798Y-110192752D01*
X137092211Y-110157957D01*
X137118950Y-110023530D01*
X137118950Y-109886470D01*
X137092211Y-109752043D01*
X137070629Y-109699940D01*
X137039763Y-109625421D01*
X137039756Y-109625408D01*
X136963613Y-109511453D01*
X136963610Y-109511449D01*
X136866700Y-109414539D01*
X136866696Y-109414536D01*
X136752741Y-109338393D01*
X136752728Y-109338386D01*
X136626111Y-109285940D01*
X136626099Y-109285937D01*
X136491684Y-109259200D01*
X136491680Y-109259200D01*
X136354620Y-109259200D01*
X136354615Y-109259200D01*
X136220200Y-109285937D01*
X136220188Y-109285940D01*
X136093571Y-109338386D01*
X136093558Y-109338393D01*
X135979603Y-109414536D01*
X135979599Y-109414539D01*
X135882689Y-109511449D01*
X135882686Y-109511453D01*
X135806543Y-109625408D01*
X135806536Y-109625421D01*
X135754090Y-109752038D01*
X135754087Y-109752050D01*
X135727350Y-109886465D01*
X128551238Y-109886465D01*
X128534556Y-109824204D01*
X128495060Y-109755795D01*
X128479265Y-109740000D01*
X129030891Y-109740000D01*
X129030891Y-109739999D01*
X129024258Y-109706656D01*
X129024256Y-109706648D01*
X128963952Y-109561060D01*
X128963947Y-109561051D01*
X128876401Y-109430030D01*
X128876398Y-109430026D01*
X128764973Y-109318601D01*
X128764969Y-109318598D01*
X128633948Y-109231052D01*
X128633939Y-109231047D01*
X128488351Y-109170743D01*
X128488343Y-109170741D01*
X128333797Y-109140000D01*
X127905000Y-109140000D01*
X127905000Y-109640000D01*
X127505000Y-109640000D01*
X127505000Y-109140000D01*
X127494749Y-109129749D01*
X127461264Y-109068426D01*
X127466248Y-108998734D01*
X127508120Y-108942801D01*
X127520427Y-108934683D01*
X127527665Y-108930505D01*
X127625505Y-108832665D01*
X127694688Y-108712836D01*
X127730500Y-108579183D01*
X127730500Y-108440817D01*
X127694688Y-108307164D01*
X127625505Y-108187335D01*
X127527665Y-108089495D01*
X127527664Y-108089494D01*
X127527661Y-108089492D01*
X127407838Y-108020313D01*
X127407837Y-108020312D01*
X127407836Y-108020312D01*
X127274183Y-107984500D01*
X127135817Y-107984500D01*
X127002164Y-108020312D01*
X127002161Y-108020313D01*
X126882338Y-108089492D01*
X126882333Y-108089496D01*
X126784496Y-108187333D01*
X126784492Y-108187338D01*
X126715313Y-108307161D01*
X126715312Y-108307164D01*
X126679500Y-108440817D01*
X126679500Y-108579183D01*
X126701959Y-108662999D01*
X126715312Y-108712835D01*
X126715313Y-108712838D01*
X126784492Y-108832661D01*
X126784494Y-108832664D01*
X126784495Y-108832665D01*
X126882335Y-108930505D01*
X126923278Y-108954143D01*
X126971495Y-109004709D01*
X126984719Y-109073316D01*
X126958752Y-109138181D01*
X126908733Y-109176092D01*
X126776061Y-109231047D01*
X126776051Y-109231052D01*
X126645030Y-109318598D01*
X126645026Y-109318601D01*
X126533601Y-109430026D01*
X126533598Y-109430030D01*
X126446052Y-109561051D01*
X126446047Y-109561060D01*
X126385743Y-109706648D01*
X126385741Y-109706656D01*
X126379108Y-109739999D01*
X124700891Y-109739999D01*
X124694258Y-109706656D01*
X124694256Y-109706648D01*
X124633952Y-109561060D01*
X124633947Y-109561051D01*
X124546401Y-109430030D01*
X124546398Y-109430026D01*
X124434973Y-109318601D01*
X124434969Y-109318598D01*
X124303948Y-109231052D01*
X124303939Y-109231047D01*
X124158351Y-109170743D01*
X124158343Y-109170741D01*
X124003797Y-109140000D01*
X123725000Y-109140000D01*
X123725000Y-109640000D01*
X123325000Y-109640000D01*
X123325000Y-109140000D01*
X123046202Y-109140000D01*
X122891656Y-109170741D01*
X122891648Y-109170743D01*
X122746060Y-109231047D01*
X122746051Y-109231052D01*
X122615030Y-109318598D01*
X122615026Y-109318601D01*
X122525331Y-109408297D01*
X122464008Y-109441782D01*
X122394316Y-109436798D01*
X122338383Y-109394926D01*
X122313966Y-109329462D01*
X122313650Y-109320616D01*
X122313650Y-105984773D01*
X131420150Y-105984773D01*
X131420150Y-106090227D01*
X131439306Y-106161717D01*
X131447443Y-106192086D01*
X131447444Y-106192089D01*
X131456868Y-106208412D01*
X131500170Y-106283413D01*
X131574737Y-106357980D01*
X131666063Y-106410707D01*
X131767923Y-106438000D01*
X131767925Y-106438000D01*
X131873375Y-106438000D01*
X131873377Y-106438000D01*
X131975237Y-106410707D01*
X132066563Y-106357980D01*
X132141130Y-106283413D01*
X132193857Y-106192087D01*
X132221150Y-106090227D01*
X132221150Y-105984773D01*
X132193857Y-105882913D01*
X132141130Y-105791587D01*
X132066563Y-105717020D01*
X131975237Y-105664293D01*
X131873377Y-105637000D01*
X131767923Y-105637000D01*
X131666063Y-105664293D01*
X131666060Y-105664294D01*
X131574735Y-105717021D01*
X131500171Y-105791585D01*
X131447444Y-105882910D01*
X131447443Y-105882913D01*
X131420150Y-105984773D01*
X122313650Y-105984773D01*
X122313650Y-101919384D01*
X122333335Y-101852345D01*
X122386139Y-101806590D01*
X122455297Y-101796646D01*
X122518853Y-101825671D01*
X122525331Y-101831703D01*
X122615026Y-101921398D01*
X122615030Y-101921401D01*
X122746051Y-102008947D01*
X122746060Y-102008952D01*
X122891648Y-102069256D01*
X122891656Y-102069258D01*
X123046202Y-102099999D01*
X123046206Y-102100000D01*
X123325000Y-102100000D01*
X123325000Y-101600000D01*
X123725000Y-101600000D01*
X123725000Y-102100000D01*
X124003794Y-102100000D01*
X124003797Y-102099999D01*
X124158343Y-102069258D01*
X124158351Y-102069256D01*
X124303939Y-102008952D01*
X124303948Y-102008947D01*
X124434969Y-101921401D01*
X124434973Y-101921398D01*
X124546398Y-101809973D01*
X124546401Y-101809969D01*
X124633947Y-101678948D01*
X124633952Y-101678939D01*
X124694256Y-101533351D01*
X124694258Y-101533343D01*
X124700891Y-101500000D01*
X124149265Y-101500000D01*
X124165060Y-101484205D01*
X124204556Y-101415796D01*
X124225000Y-101339496D01*
X124225000Y-101260504D01*
X124204556Y-101184204D01*
X124165060Y-101115795D01*
X124149265Y-101100000D01*
X124700891Y-101100000D01*
X124700891Y-101099999D01*
X126379108Y-101099999D01*
X126379109Y-101100000D01*
X126930735Y-101100000D01*
X126914940Y-101115795D01*
X126875444Y-101184204D01*
X126855000Y-101260504D01*
X126855000Y-101339496D01*
X126875444Y-101415796D01*
X126914940Y-101484205D01*
X126930735Y-101500000D01*
X126379109Y-101500000D01*
X126385741Y-101533343D01*
X126385743Y-101533351D01*
X126446047Y-101678939D01*
X126446052Y-101678948D01*
X126533598Y-101809969D01*
X126533601Y-101809973D01*
X126645026Y-101921398D01*
X126645030Y-101921401D01*
X126776051Y-102008947D01*
X126776060Y-102008952D01*
X126908733Y-102063907D01*
X126963136Y-102107748D01*
X126985201Y-102174042D01*
X126967922Y-102241741D01*
X126923280Y-102285855D01*
X126882338Y-102309492D01*
X126882333Y-102309496D01*
X126784496Y-102407333D01*
X126784492Y-102407338D01*
X126715313Y-102527161D01*
X126715312Y-102527164D01*
X126679500Y-102660817D01*
X126679500Y-102799183D01*
X126679805Y-102800319D01*
X126715312Y-102932835D01*
X126715313Y-102932838D01*
X126784492Y-103052661D01*
X126784494Y-103052664D01*
X126784495Y-103052665D01*
X126882335Y-103150505D01*
X127002164Y-103219688D01*
X127135817Y-103255500D01*
X127135819Y-103255500D01*
X127274181Y-103255500D01*
X127274183Y-103255500D01*
X127407836Y-103219688D01*
X127527665Y-103150505D01*
X127625505Y-103052665D01*
X127694688Y-102932836D01*
X127730500Y-102799183D01*
X127730500Y-102660817D01*
X127694688Y-102527164D01*
X127630983Y-102416823D01*
X127625507Y-102407338D01*
X127625503Y-102407333D01*
X127527664Y-102309494D01*
X127523850Y-102307292D01*
X127520432Y-102305319D01*
X127472216Y-102254754D01*
X127458991Y-102186147D01*
X127484957Y-102121282D01*
X127494750Y-102110249D01*
X127505000Y-102099999D01*
X127505000Y-101600000D01*
X127905000Y-101600000D01*
X127905000Y-102100000D01*
X128333794Y-102100000D01*
X128333797Y-102099999D01*
X128488343Y-102069258D01*
X128488351Y-102069256D01*
X128633939Y-102008952D01*
X128633948Y-102008947D01*
X128764969Y-101921401D01*
X128764973Y-101921398D01*
X128876398Y-101809973D01*
X128876401Y-101809969D01*
X128963947Y-101678948D01*
X128963952Y-101678939D01*
X129024256Y-101533351D01*
X129024258Y-101533343D01*
X129030891Y-101500000D01*
X128479265Y-101500000D01*
X128495060Y-101484205D01*
X128534556Y-101415796D01*
X128555000Y-101339496D01*
X128555000Y-101260504D01*
X128534556Y-101184204D01*
X128495060Y-101115795D01*
X128479265Y-101100000D01*
X129030891Y-101100000D01*
X129030891Y-101099999D01*
X129024258Y-101066656D01*
X129024256Y-101066648D01*
X128963952Y-100921060D01*
X128963947Y-100921051D01*
X128876401Y-100790030D01*
X128876398Y-100790026D01*
X128764973Y-100678601D01*
X128764969Y-100678598D01*
X128633948Y-100591052D01*
X128633939Y-100591047D01*
X128488351Y-100530743D01*
X128488343Y-100530741D01*
X128333797Y-100500000D01*
X127905000Y-100500000D01*
X127905000Y-101000000D01*
X127505000Y-101000000D01*
X127505000Y-100500000D01*
X127076202Y-100500000D01*
X126921656Y-100530741D01*
X126921648Y-100530743D01*
X126776060Y-100591047D01*
X126776051Y-100591052D01*
X126645030Y-100678598D01*
X126645026Y-100678601D01*
X126533601Y-100790026D01*
X126533598Y-100790030D01*
X126446052Y-100921051D01*
X126446047Y-100921060D01*
X126385743Y-101066648D01*
X126385741Y-101066656D01*
X126379108Y-101099999D01*
X124700891Y-101099999D01*
X124694258Y-101066656D01*
X124694256Y-101066648D01*
X124633952Y-100921060D01*
X124633947Y-100921051D01*
X124546401Y-100790030D01*
X124546398Y-100790026D01*
X124434973Y-100678601D01*
X124434969Y-100678598D01*
X124303948Y-100591052D01*
X124303939Y-100591047D01*
X124158351Y-100530743D01*
X124158343Y-100530741D01*
X124003797Y-100500000D01*
X123725000Y-100500000D01*
X123725000Y-101000000D01*
X123325000Y-101000000D01*
X123325000Y-100500000D01*
X123046202Y-100500000D01*
X122891656Y-100530741D01*
X122891648Y-100530743D01*
X122746060Y-100591047D01*
X122746051Y-100591052D01*
X122615030Y-100678598D01*
X122615026Y-100678601D01*
X122525331Y-100768297D01*
X122464008Y-100801782D01*
X122394316Y-100796798D01*
X122338383Y-100754926D01*
X122313966Y-100689462D01*
X122313650Y-100680616D01*
X122313650Y-99984000D01*
X122333335Y-99916961D01*
X122386139Y-99871206D01*
X122437650Y-99860000D01*
X132493150Y-99860000D01*
X132493150Y-98907385D01*
X132512835Y-98840346D01*
X132565639Y-98794591D01*
X132631934Y-98784269D01*
X132721297Y-98795000D01*
X132814350Y-98795000D01*
X132814350Y-96595000D01*
X132721295Y-96595000D01*
X132631933Y-96605730D01*
X132563025Y-96594178D01*
X132511301Y-96547205D01*
X132493150Y-96482614D01*
X132493150Y-90792914D01*
X132502242Y-90761949D01*
X132509949Y-90730593D01*
X132512028Y-90728622D01*
X132512835Y-90725875D01*
X132537222Y-90704742D01*
X132560660Y-90682529D01*
X132563474Y-90681995D01*
X132565639Y-90680120D01*
X132597584Y-90675526D01*
X132629306Y-90669511D01*
X132633039Y-90670428D01*
G37*
%TD.AperFunction*%
%TA.AperFunction,Conductor*%
G36*
X144043011Y-93222444D02*
G01*
X144063653Y-93239078D01*
X145711495Y-94886920D01*
X145744980Y-94948243D01*
X145739996Y-95017935D01*
X145711496Y-95062281D01*
X145709111Y-95064666D01*
X145709111Y-96664667D01*
X146046150Y-96664667D01*
X146113189Y-96684352D01*
X146158944Y-96737156D01*
X146170150Y-96788667D01*
X146170150Y-98888000D01*
X146150465Y-98955039D01*
X146097661Y-99000794D01*
X146046150Y-99012000D01*
X145967923Y-99012000D01*
X145866063Y-99039293D01*
X145866060Y-99039294D01*
X145774735Y-99092021D01*
X145700171Y-99166585D01*
X145647444Y-99257910D01*
X145647443Y-99257913D01*
X145620150Y-99359773D01*
X145620150Y-99465227D01*
X145647443Y-99567087D01*
X145684920Y-99632000D01*
X145700171Y-99658414D01*
X145780484Y-99738727D01*
X145778799Y-99740411D01*
X145812837Y-99787023D01*
X145820150Y-99828976D01*
X145820150Y-100539928D01*
X145800465Y-100606967D01*
X145747661Y-100652722D01*
X145679966Y-100662867D01*
X145673380Y-100662000D01*
X145673377Y-100662000D01*
X145567923Y-100662000D01*
X145466063Y-100689293D01*
X145466060Y-100689294D01*
X145399205Y-100727893D01*
X145380890Y-100738468D01*
X145374734Y-100742022D01*
X145370633Y-100745169D01*
X145305463Y-100770361D01*
X145237019Y-100756321D01*
X145187031Y-100707505D01*
X145171150Y-100646791D01*
X145171150Y-99029831D01*
X145171149Y-99029828D01*
X145133014Y-98937761D01*
X145062547Y-98867294D01*
X144845930Y-98650677D01*
X144812445Y-98589354D01*
X144809611Y-98562996D01*
X144809611Y-97465231D01*
X144809612Y-97465222D01*
X144809612Y-97351135D01*
X144809611Y-97351131D01*
X144771475Y-97259065D01*
X144771474Y-97259063D01*
X144693943Y-97181532D01*
X144693936Y-97181526D01*
X144558914Y-97046504D01*
X144525429Y-96985181D01*
X144530413Y-96915489D01*
X144572285Y-96859556D01*
X144584586Y-96851441D01*
X144616563Y-96832980D01*
X144691130Y-96758413D01*
X144715410Y-96716357D01*
X144765975Y-96668144D01*
X144834582Y-96654920D01*
X144837580Y-96655244D01*
X144916049Y-96664667D01*
X145309111Y-96664667D01*
X145309111Y-95064667D01*
X144916057Y-95064667D01*
X144827664Y-95075281D01*
X144790638Y-95089882D01*
X144721051Y-95096163D01*
X144659116Y-95063825D01*
X144624495Y-95003135D01*
X144621150Y-94974527D01*
X144621150Y-94407877D01*
X144621149Y-94407874D01*
X144583014Y-94315807D01*
X144512547Y-94245340D01*
X143681647Y-93414440D01*
X143671034Y-93395003D01*
X143656534Y-93378270D01*
X143654617Y-93364938D01*
X143648162Y-93353117D01*
X143649741Y-93331030D01*
X143646590Y-93309112D01*
X143652185Y-93296860D01*
X143653146Y-93283425D01*
X143666416Y-93265698D01*
X143675615Y-93245556D01*
X143686946Y-93238273D01*
X143695018Y-93227492D01*
X143715763Y-93219754D01*
X143734393Y-93207782D01*
X143756311Y-93204630D01*
X143760482Y-93203075D01*
X143769328Y-93202759D01*
X143975972Y-93202759D01*
X144043011Y-93222444D01*
G37*
%TD.AperFunction*%
%TA.AperFunction,Conductor*%
G36*
X148516353Y-94654331D02*
G01*
X148522831Y-94660363D01*
X149462016Y-95599548D01*
X149490299Y-95648531D01*
X149491149Y-95648180D01*
X149493820Y-95654629D01*
X149494107Y-95655126D01*
X149494255Y-95655680D01*
X149494257Y-95655685D01*
X149494258Y-95655686D01*
X149560150Y-95769814D01*
X149653336Y-95863000D01*
X149653338Y-95863001D01*
X149659787Y-95867950D01*
X149657974Y-95870312D01*
X149696360Y-95910562D01*
X149710150Y-95967393D01*
X149710150Y-97971313D01*
X149690465Y-98038352D01*
X149637661Y-98084107D01*
X149568503Y-98094051D01*
X149504947Y-98065026D01*
X149478763Y-98033313D01*
X149471215Y-98020240D01*
X149438559Y-97977683D01*
X149345466Y-97884590D01*
X149302909Y-97851934D01*
X149188895Y-97786108D01*
X149188881Y-97786101D01*
X149139338Y-97765580D01*
X149139331Y-97765578D01*
X149012164Y-97731503D01*
X149012159Y-97731502D01*
X149012157Y-97731502D01*
X148958982Y-97724500D01*
X148958976Y-97724500D01*
X148327324Y-97724500D01*
X148327317Y-97724500D01*
X148274142Y-97731502D01*
X148274136Y-97731503D01*
X148146961Y-97765580D01*
X148097418Y-97786101D01*
X148097404Y-97786108D01*
X147983390Y-97851934D01*
X147940836Y-97884588D01*
X147846170Y-97979254D01*
X147784846Y-98012738D01*
X147715155Y-98007754D01*
X147696490Y-97998960D01*
X147692737Y-97996793D01*
X147664746Y-97989293D01*
X147590877Y-97969500D01*
X147485423Y-97969500D01*
X147383563Y-97996793D01*
X147383560Y-97996794D01*
X147292235Y-98049521D01*
X147217671Y-98124085D01*
X147164944Y-98215410D01*
X147164943Y-98215413D01*
X147137650Y-98317273D01*
X147137650Y-98422727D01*
X147164943Y-98524587D01*
X147217670Y-98615913D01*
X147292237Y-98690480D01*
X147383563Y-98743207D01*
X147485423Y-98770500D01*
X147485425Y-98770500D01*
X147563650Y-98770500D01*
X147630689Y-98790185D01*
X147676444Y-98842989D01*
X147684838Y-98868244D01*
X147687650Y-98881223D01*
X147687650Y-98930000D01*
X147692802Y-98975728D01*
X147720656Y-99033566D01*
X147723762Y-99047902D01*
X147722256Y-99068710D01*
X147725646Y-99089297D01*
X147719750Y-99103339D01*
X147718719Y-99117589D01*
X147711609Y-99127069D01*
X147714063Y-99128251D01*
X147708000Y-99140839D01*
X147687650Y-99229995D01*
X147687650Y-99795832D01*
X147694652Y-99849007D01*
X147694653Y-99849014D01*
X147712860Y-99916961D01*
X147728730Y-99976188D01*
X147749251Y-100025731D01*
X147749254Y-100025737D01*
X147749257Y-100025743D01*
X147790952Y-100097962D01*
X147797518Y-100125025D01*
X147807249Y-100151114D01*
X147805640Y-100158506D01*
X147807425Y-100165860D01*
X147798315Y-100192180D01*
X147792397Y-100219387D01*
X147785891Y-100228077D01*
X147784573Y-100231887D01*
X147771246Y-100247641D01*
X147741944Y-100276943D01*
X147680621Y-100310428D01*
X147644669Y-100311928D01*
X147644669Y-100312000D01*
X147642955Y-100312000D01*
X147638091Y-100312203D01*
X147636548Y-100312000D01*
X147636542Y-100312000D01*
X147504758Y-100312000D01*
X147377462Y-100346108D01*
X147263336Y-100412000D01*
X147263333Y-100412002D01*
X147170152Y-100505183D01*
X147170150Y-100505186D01*
X147102537Y-100622294D01*
X147051969Y-100670509D01*
X146983362Y-100683731D01*
X146918498Y-100657763D01*
X146877970Y-100600849D01*
X146871150Y-100560293D01*
X146871150Y-96643244D01*
X146890835Y-96576205D01*
X146943639Y-96530450D01*
X147012797Y-96520506D01*
X147036097Y-96526200D01*
X147075951Y-96540146D01*
X147082037Y-96540716D01*
X147106380Y-96543000D01*
X147106384Y-96543000D01*
X147914920Y-96543000D01*
X147945349Y-96540146D01*
X147945351Y-96540146D01*
X148009440Y-96517719D01*
X148073532Y-96495293D01*
X148182800Y-96414650D01*
X148263443Y-96305382D01*
X148286802Y-96238625D01*
X148308296Y-96177201D01*
X148308296Y-96177199D01*
X148311150Y-96146769D01*
X148311150Y-94748044D01*
X148330835Y-94681005D01*
X148383639Y-94635250D01*
X148452797Y-94625306D01*
X148516353Y-94654331D01*
G37*
%TD.AperFunction*%
%TA.AperFunction,Conductor*%
G36*
X135472175Y-98691501D02*
G01*
X135472277Y-98691036D01*
X135479650Y-98692646D01*
X135510080Y-98695500D01*
X135510084Y-98695500D01*
X135796150Y-98695500D01*
X135863189Y-98715185D01*
X135908944Y-98767989D01*
X135920150Y-98819500D01*
X135920150Y-100196791D01*
X135900465Y-100263830D01*
X135847661Y-100309585D01*
X135778503Y-100319529D01*
X135720667Y-100295169D01*
X135716565Y-100292022D01*
X135716563Y-100292020D01*
X135625237Y-100239293D01*
X135523377Y-100212000D01*
X135523376Y-100212000D01*
X135475773Y-100212000D01*
X135446332Y-100203355D01*
X135416346Y-100196832D01*
X135411330Y-100193077D01*
X135408734Y-100192315D01*
X135388092Y-100175681D01*
X135357469Y-100145058D01*
X135323984Y-100083735D01*
X135321150Y-100057377D01*
X135321150Y-98811946D01*
X135340835Y-98744907D01*
X135393639Y-98699152D01*
X135462797Y-98689208D01*
X135472175Y-98691501D01*
G37*
%TD.AperFunction*%
%TA.AperFunction,Conductor*%
G36*
X134063713Y-92425671D02*
G01*
X134108061Y-92454172D01*
X134783831Y-93129942D01*
X134817316Y-93191265D01*
X134820150Y-93217623D01*
X134820150Y-96471000D01*
X134800465Y-96538039D01*
X134747661Y-96583794D01*
X134696150Y-96595000D01*
X134614350Y-96595000D01*
X134614350Y-98795000D01*
X134696150Y-98795000D01*
X134763189Y-98814685D01*
X134808944Y-98867489D01*
X134820150Y-98919000D01*
X134820150Y-100058377D01*
X134800465Y-100125416D01*
X134747661Y-100171171D01*
X134678503Y-100181115D01*
X134614947Y-100152090D01*
X134608469Y-100146058D01*
X134051169Y-99588758D01*
X134017684Y-99527435D01*
X134014850Y-99501077D01*
X134014850Y-98919000D01*
X134034535Y-98851961D01*
X134087339Y-98806206D01*
X134138850Y-98795000D01*
X134214350Y-98795000D01*
X134214350Y-97895000D01*
X134138850Y-97895000D01*
X134130164Y-97892449D01*
X134121203Y-97893738D01*
X134097162Y-97882759D01*
X134071811Y-97875315D01*
X134065883Y-97868474D01*
X134057647Y-97864713D01*
X134043357Y-97842478D01*
X134026056Y-97822511D01*
X134023768Y-97811996D01*
X134019873Y-97805935D01*
X134014850Y-97771000D01*
X134014850Y-97619000D01*
X134034535Y-97551961D01*
X134087339Y-97506206D01*
X134138850Y-97495000D01*
X134214350Y-97495000D01*
X134214350Y-96595000D01*
X134138850Y-96595000D01*
X134071811Y-96575315D01*
X134026056Y-96522511D01*
X134014850Y-96471000D01*
X134014850Y-95579378D01*
X134014849Y-95579375D01*
X133977795Y-95489918D01*
X133976714Y-95487308D01*
X133906247Y-95416841D01*
X133506788Y-95017382D01*
X133473303Y-94956059D01*
X133470469Y-94929701D01*
X133470469Y-92725010D01*
X133490154Y-92657971D01*
X133542958Y-92612216D01*
X133594469Y-92601010D01*
X133672694Y-92601010D01*
X133672696Y-92601010D01*
X133774556Y-92573717D01*
X133865882Y-92520990D01*
X133932702Y-92454169D01*
X133994021Y-92420687D01*
X134063713Y-92425671D01*
G37*
%TD.AperFunction*%
%TA.AperFunction,Conductor*%
G36*
X141582566Y-95782685D02*
G01*
X141603208Y-95799319D01*
X141922642Y-96118753D01*
X141956127Y-96180076D01*
X141951143Y-96249768D01*
X141922642Y-96294115D01*
X141900171Y-96316585D01*
X141847444Y-96407910D01*
X141847443Y-96407913D01*
X141820150Y-96509773D01*
X141820150Y-96570500D01*
X141800465Y-96637539D01*
X141747661Y-96683294D01*
X141696150Y-96694500D01*
X141108880Y-96694500D01*
X141078450Y-96697353D01*
X141078448Y-96697353D01*
X140950269Y-96742206D01*
X140950267Y-96742207D01*
X140841000Y-96822850D01*
X140813520Y-96860084D01*
X140757872Y-96902335D01*
X140688216Y-96907792D01*
X140626666Y-96874725D01*
X140613980Y-96860084D01*
X140607597Y-96851436D01*
X140586500Y-96822850D01*
X140477232Y-96742207D01*
X140477230Y-96742206D01*
X140349050Y-96697353D01*
X140318620Y-96694500D01*
X140318616Y-96694500D01*
X140131296Y-96694500D01*
X140064257Y-96674815D01*
X140018502Y-96622011D01*
X140007296Y-96570500D01*
X140007296Y-96460880D01*
X140007296Y-96460878D01*
X139980003Y-96359018D01*
X139927276Y-96267692D01*
X139852709Y-96193125D01*
X139761383Y-96140398D01*
X139659523Y-96113105D01*
X139554069Y-96113105D01*
X139452209Y-96140398D01*
X139452206Y-96140399D01*
X139360881Y-96193126D01*
X139286317Y-96267690D01*
X139233590Y-96359015D01*
X139233589Y-96359018D01*
X139206296Y-96460878D01*
X139206296Y-96566336D01*
X139210926Y-96583614D01*
X139209262Y-96653464D01*
X139170099Y-96711325D01*
X139105870Y-96738828D01*
X139050197Y-96732747D01*
X138949049Y-96697354D01*
X138949048Y-96697353D01*
X138949046Y-96697353D01*
X138918620Y-96694500D01*
X138918616Y-96694500D01*
X138454405Y-96694500D01*
X138387366Y-96674815D01*
X138341611Y-96622011D01*
X138331667Y-96552853D01*
X138360692Y-96489297D01*
X138366724Y-96482819D01*
X138397649Y-96451894D01*
X138441130Y-96408413D01*
X138493857Y-96317087D01*
X138521150Y-96215227D01*
X138521150Y-96109773D01*
X138493857Y-96007913D01*
X138459842Y-95948997D01*
X138443370Y-95881101D01*
X138466222Y-95815074D01*
X138521143Y-95771883D01*
X138567230Y-95763000D01*
X141515527Y-95763000D01*
X141582566Y-95782685D01*
G37*
%TD.AperFunction*%
%TA.AperFunction,Conductor*%
G36*
X145456189Y-83190185D02*
G01*
X145501944Y-83242989D01*
X145513150Y-83294500D01*
X145513150Y-89380000D01*
X151588650Y-89380000D01*
X151655689Y-89399685D01*
X151701444Y-89452489D01*
X151712650Y-89504000D01*
X151712650Y-94228632D01*
X151692965Y-94295671D01*
X151640161Y-94341426D01*
X151571003Y-94351370D01*
X151547706Y-94345677D01*
X151545356Y-94344855D01*
X151545349Y-94344853D01*
X151514920Y-94342000D01*
X151514916Y-94342000D01*
X150706384Y-94342000D01*
X150706380Y-94342000D01*
X150675950Y-94344853D01*
X150675948Y-94344853D01*
X150547769Y-94389706D01*
X150547767Y-94389707D01*
X150438500Y-94470350D01*
X150357857Y-94579617D01*
X150357856Y-94579619D01*
X150313003Y-94707798D01*
X150313003Y-94707800D01*
X150310150Y-94738230D01*
X150310150Y-94876392D01*
X150290465Y-94943431D01*
X150237661Y-94989186D01*
X150168503Y-94999130D01*
X150154057Y-94996167D01*
X150073294Y-94974527D01*
X150026542Y-94962000D01*
X149894758Y-94962000D01*
X149894756Y-94962000D01*
X149886699Y-94963061D01*
X149886267Y-94959783D01*
X149831811Y-94958486D01*
X149781888Y-94928056D01*
X149062348Y-94208516D01*
X149061613Y-94207171D01*
X149060285Y-94206404D01*
X149044922Y-94176603D01*
X149028863Y-94147193D01*
X149028972Y-94145663D01*
X149028270Y-94144301D01*
X149031455Y-94110948D01*
X149033847Y-94077501D01*
X149034766Y-94076272D01*
X149034912Y-94074748D01*
X149055626Y-94048408D01*
X149075719Y-94021568D01*
X149077460Y-94020643D01*
X149078103Y-94019827D01*
X149086090Y-94016063D01*
X149109474Y-94003654D01*
X149113646Y-94002209D01*
X149175237Y-93985707D01*
X149196049Y-93973690D01*
X149207237Y-93969819D01*
X149225607Y-93968944D01*
X149247792Y-93963000D01*
X149466792Y-93963000D01*
X149466794Y-93963000D01*
X149555938Y-93939114D01*
X149566562Y-93932980D01*
X149635862Y-93892970D01*
X150091119Y-93437712D01*
X150137264Y-93357788D01*
X150139168Y-93350682D01*
X150161150Y-93268644D01*
X150161150Y-92579773D01*
X150588263Y-92579773D01*
X150588263Y-92685227D01*
X150615556Y-92787087D01*
X150668283Y-92878413D01*
X150742850Y-92952980D01*
X150834176Y-93005707D01*
X150936036Y-93033000D01*
X150936038Y-93033000D01*
X151041488Y-93033000D01*
X151041490Y-93033000D01*
X151143350Y-93005707D01*
X151234676Y-92952980D01*
X151309243Y-92878413D01*
X151361970Y-92787087D01*
X151389263Y-92685227D01*
X151389263Y-92579773D01*
X151361970Y-92477913D01*
X151309243Y-92386587D01*
X151234676Y-92312020D01*
X151143350Y-92259293D01*
X151041490Y-92232000D01*
X150936036Y-92232000D01*
X150834176Y-92259293D01*
X150834173Y-92259294D01*
X150742848Y-92312021D01*
X150668284Y-92386585D01*
X150615557Y-92477910D01*
X150615556Y-92477913D01*
X150588263Y-92579773D01*
X150161150Y-92579773D01*
X150161150Y-92539043D01*
X150180835Y-92472004D01*
X150197464Y-92451366D01*
X150249848Y-92398983D01*
X150301223Y-92293893D01*
X150311150Y-92225760D01*
X150311150Y-90909240D01*
X150301223Y-90841107D01*
X150249848Y-90736017D01*
X150249846Y-90736015D01*
X150249846Y-90736014D01*
X150167135Y-90653303D01*
X150062041Y-90601926D01*
X149993911Y-90592000D01*
X149993910Y-90592000D01*
X149627390Y-90592000D01*
X149627389Y-90592000D01*
X149559258Y-90601926D01*
X149444936Y-90657815D01*
X149443988Y-90655876D01*
X149390788Y-90674358D01*
X149322869Y-90657964D01*
X149284977Y-90624142D01*
X149282442Y-90620708D01*
X149173295Y-90540153D01*
X149045252Y-90495350D01*
X149014857Y-90492500D01*
X149010650Y-90492500D01*
X149010650Y-92642499D01*
X149014846Y-92642499D01*
X149045256Y-92639648D01*
X149173295Y-92594846D01*
X149262516Y-92528998D01*
X149328145Y-92505027D01*
X149396315Y-92520342D01*
X149445384Y-92570082D01*
X149460150Y-92628768D01*
X149460150Y-93025956D01*
X149451505Y-93055395D01*
X149444982Y-93085383D01*
X149441227Y-93090398D01*
X149440465Y-93092995D01*
X149423835Y-93113632D01*
X149371207Y-93166261D01*
X149320456Y-93217012D01*
X149259133Y-93250496D01*
X149189441Y-93245512D01*
X149182763Y-93242365D01*
X149182747Y-93242404D01*
X149175239Y-93239294D01*
X149175237Y-93239293D01*
X149073377Y-93212000D01*
X148967923Y-93212000D01*
X148866063Y-93239293D01*
X148866060Y-93239294D01*
X148774735Y-93292021D01*
X148700171Y-93366585D01*
X148647444Y-93457910D01*
X148647441Y-93457917D01*
X148632088Y-93515215D01*
X148595723Y-93574875D01*
X148532875Y-93605403D01*
X148463500Y-93597108D01*
X148424633Y-93570801D01*
X147925863Y-93072031D01*
X147925858Y-93072027D01*
X147845940Y-93025887D01*
X147845939Y-93025886D01*
X147845938Y-93025886D01*
X147756794Y-93002000D01*
X147756793Y-93002000D01*
X147639326Y-93002000D01*
X147572287Y-92982315D01*
X147551645Y-92965681D01*
X147537966Y-92952002D01*
X147537964Y-92952000D01*
X147480900Y-92919054D01*
X147423837Y-92886108D01*
X147360189Y-92869054D01*
X147296542Y-92852000D01*
X147164758Y-92852000D01*
X147037462Y-92886108D01*
X146923336Y-92952000D01*
X146923333Y-92952002D01*
X146830152Y-93045183D01*
X146830150Y-93045186D01*
X146764258Y-93159312D01*
X146730150Y-93286608D01*
X146730150Y-93418391D01*
X146764258Y-93545687D01*
X146793947Y-93597108D01*
X146830150Y-93659814D01*
X146923336Y-93753000D01*
X147037464Y-93818892D01*
X147164758Y-93853000D01*
X147164760Y-93853000D01*
X147296540Y-93853000D01*
X147296542Y-93853000D01*
X147423836Y-93818892D01*
X147504699Y-93772205D01*
X147572596Y-93755732D01*
X147638623Y-93778583D01*
X147654379Y-93791911D01*
X147992787Y-94130319D01*
X148026272Y-94191642D01*
X148021288Y-94261334D01*
X147979416Y-94317267D01*
X147913952Y-94341684D01*
X147905106Y-94342000D01*
X147106380Y-94342000D01*
X147075950Y-94344853D01*
X147075948Y-94344853D01*
X146947769Y-94389706D01*
X146947767Y-94389707D01*
X146838500Y-94470350D01*
X146757857Y-94579617D01*
X146729122Y-94661736D01*
X146688400Y-94718512D01*
X146623447Y-94744258D01*
X146554885Y-94730801D01*
X146524400Y-94708461D01*
X144490620Y-92674681D01*
X144457135Y-92613358D01*
X144462119Y-92543666D01*
X144503991Y-92487733D01*
X144569455Y-92463316D01*
X144578301Y-92463000D01*
X145556669Y-92463000D01*
X145556671Y-92463000D01*
X145648740Y-92424864D01*
X145826908Y-92246696D01*
X148210651Y-92246696D01*
X148213501Y-92277106D01*
X148258303Y-92405145D01*
X148338857Y-92514292D01*
X148448004Y-92594846D01*
X148576047Y-92639649D01*
X148606443Y-92642499D01*
X148610649Y-92642499D01*
X148610650Y-92642498D01*
X148610650Y-91767500D01*
X148210651Y-91767500D01*
X148210651Y-92246696D01*
X145826908Y-92246696D01*
X147185309Y-90888293D01*
X148210650Y-90888293D01*
X148210650Y-91367500D01*
X148610650Y-91367500D01*
X148610650Y-90492500D01*
X148606446Y-90492501D01*
X148606424Y-90492502D01*
X148576049Y-90495350D01*
X148576044Y-90495351D01*
X148448004Y-90540153D01*
X148338857Y-90620707D01*
X148258303Y-90729854D01*
X148213500Y-90857895D01*
X148213500Y-90857899D01*
X148210650Y-90888293D01*
X147185309Y-90888293D01*
X147216784Y-90856818D01*
X147274555Y-90824161D01*
X147289284Y-90820500D01*
X147352070Y-90820500D01*
X147453930Y-90793207D01*
X147545256Y-90740480D01*
X147619823Y-90665913D01*
X147672550Y-90574587D01*
X147699843Y-90472727D01*
X147699843Y-90367273D01*
X147672550Y-90265413D01*
X147619823Y-90174087D01*
X147545256Y-90099520D01*
X147453930Y-90046793D01*
X147352070Y-90019500D01*
X147246616Y-90019500D01*
X147144756Y-90046793D01*
X147144753Y-90046794D01*
X147053428Y-90099521D01*
X146978864Y-90174085D01*
X146926137Y-90265410D01*
X146926136Y-90265413D01*
X146898843Y-90367273D01*
X146898843Y-90414877D01*
X146879158Y-90481916D01*
X146862524Y-90502558D01*
X145439401Y-91925681D01*
X145378078Y-91959166D01*
X145351720Y-91962000D01*
X143806332Y-91962000D01*
X143739293Y-91942315D01*
X143707957Y-91913487D01*
X143704009Y-91908342D01*
X143629443Y-91833776D01*
X143629442Y-91833775D01*
X143538116Y-91781048D01*
X143436256Y-91753755D01*
X143330802Y-91753755D01*
X143228942Y-91781048D01*
X143228939Y-91781049D01*
X143137614Y-91833776D01*
X143063050Y-91908340D01*
X143010323Y-91999665D01*
X143010322Y-91999668D01*
X142983029Y-92101528D01*
X142983029Y-92206982D01*
X143010322Y-92308842D01*
X143063049Y-92400168D01*
X143063054Y-92400173D01*
X143063515Y-92400774D01*
X143063749Y-92401379D01*
X143063828Y-92401516D01*
X143064403Y-92401947D01*
X143064998Y-92403543D01*
X143067113Y-92407206D01*
X143066497Y-92407561D01*
X143076357Y-92433997D01*
X143088706Y-92465944D01*
X143088552Y-92466693D01*
X143088820Y-92467411D01*
X143081537Y-92500886D01*
X143074665Y-92534389D01*
X143074076Y-92535184D01*
X143073968Y-92535684D01*
X143052817Y-92563938D01*
X143029662Y-92587093D01*
X142968339Y-92620578D01*
X142898647Y-92615594D01*
X142854300Y-92587093D01*
X142357469Y-92090262D01*
X142323984Y-92028939D01*
X142321150Y-92002581D01*
X142321150Y-89029755D01*
X142340835Y-88962716D01*
X142357469Y-88942074D01*
X142391130Y-88908413D01*
X142443857Y-88817087D01*
X142471150Y-88715227D01*
X142471150Y-88609773D01*
X142443857Y-88507913D01*
X142391130Y-88416587D01*
X142316563Y-88342020D01*
X142225237Y-88289293D01*
X142123377Y-88262000D01*
X142017923Y-88262000D01*
X141916063Y-88289293D01*
X141916060Y-88289294D01*
X141824735Y-88342021D01*
X141750171Y-88416585D01*
X141697444Y-88507910D01*
X141697443Y-88507913D01*
X141670150Y-88609773D01*
X141670150Y-88715226D01*
X141697443Y-88817086D01*
X141697444Y-88817089D01*
X141750171Y-88908414D01*
X141783831Y-88942074D01*
X141817316Y-89003397D01*
X141820150Y-89029755D01*
X141820150Y-92207533D01*
X141858286Y-92299601D01*
X143688879Y-94130194D01*
X143722364Y-94191517D01*
X143717380Y-94261209D01*
X143675508Y-94317142D01*
X143610044Y-94341559D01*
X143569105Y-94337650D01*
X143473377Y-94312000D01*
X143367923Y-94312000D01*
X143266063Y-94339293D01*
X143266060Y-94339294D01*
X143174735Y-94392021D01*
X143100171Y-94466585D01*
X143047444Y-94557910D01*
X143047443Y-94557913D01*
X143020150Y-94659773D01*
X143020150Y-94765228D01*
X143031050Y-94805908D01*
X143029387Y-94875758D01*
X142990224Y-94933620D01*
X142925995Y-94961123D01*
X142911275Y-94962000D01*
X141645150Y-94962000D01*
X141578111Y-94942315D01*
X141532356Y-94889511D01*
X141521150Y-94838000D01*
X141521150Y-94759775D01*
X141521150Y-94759773D01*
X141493857Y-94657913D01*
X141441130Y-94566587D01*
X141366563Y-94492020D01*
X141275237Y-94439293D01*
X141173377Y-94412000D01*
X141067923Y-94412000D01*
X140966063Y-94439293D01*
X140966060Y-94439294D01*
X140874735Y-94492021D01*
X140800171Y-94566585D01*
X140747444Y-94657910D01*
X140747443Y-94657913D01*
X140720150Y-94759773D01*
X140720150Y-94838000D01*
X140700465Y-94905039D01*
X140647661Y-94950794D01*
X140596150Y-94962000D01*
X138730025Y-94962000D01*
X138662986Y-94942315D01*
X138617231Y-94889511D01*
X138607287Y-94820353D01*
X138610250Y-94805908D01*
X138613560Y-94793550D01*
X138621150Y-94765227D01*
X138621150Y-94659773D01*
X138593857Y-94557913D01*
X138541130Y-94466587D01*
X138466563Y-94392020D01*
X138396155Y-94351370D01*
X138375239Y-94339294D01*
X138375238Y-94339293D01*
X138375237Y-94339293D01*
X138273377Y-94312000D01*
X138273376Y-94312000D01*
X138225772Y-94312000D01*
X138158733Y-94292315D01*
X138138091Y-94275681D01*
X137507469Y-93645058D01*
X137473984Y-93583735D01*
X137471150Y-93557377D01*
X137471150Y-92610067D01*
X137490835Y-92543028D01*
X137543639Y-92497273D01*
X137612797Y-92487329D01*
X137627236Y-92490290D01*
X137667242Y-92501010D01*
X137667244Y-92501010D01*
X137772694Y-92501010D01*
X137772696Y-92501010D01*
X137874556Y-92473717D01*
X137965882Y-92420990D01*
X138040449Y-92346423D01*
X138093176Y-92255097D01*
X138120469Y-92153237D01*
X138120469Y-92047783D01*
X138093176Y-91945923D01*
X138040449Y-91854597D01*
X137965882Y-91780030D01*
X137874556Y-91727303D01*
X137772696Y-91700010D01*
X137667242Y-91700010D01*
X137641883Y-91706804D01*
X137625445Y-91711209D01*
X137555595Y-91709544D01*
X137497733Y-91670380D01*
X137471735Y-91615618D01*
X137471150Y-91612678D01*
X137471150Y-91612672D01*
X137433014Y-91520603D01*
X137362547Y-91450136D01*
X136907469Y-90995058D01*
X136873984Y-90933735D01*
X136871150Y-90907377D01*
X136871150Y-90859775D01*
X136871150Y-90859773D01*
X136843857Y-90757913D01*
X136791130Y-90666587D01*
X136716563Y-90592020D01*
X136625237Y-90539293D01*
X136523377Y-90512000D01*
X136417923Y-90512000D01*
X136316063Y-90539293D01*
X136316060Y-90539294D01*
X136224735Y-90592021D01*
X136150171Y-90666585D01*
X136097444Y-90757910D01*
X136097443Y-90757913D01*
X136070150Y-90859773D01*
X136070150Y-90965227D01*
X136089035Y-91035705D01*
X136097443Y-91067086D01*
X136097444Y-91067089D01*
X136111572Y-91091559D01*
X136150170Y-91158413D01*
X136224737Y-91232980D01*
X136316063Y-91285707D01*
X136417923Y-91313000D01*
X136465527Y-91313000D01*
X136532566Y-91332685D01*
X136553208Y-91349319D01*
X136933831Y-91729942D01*
X136967316Y-91791265D01*
X136970150Y-91817623D01*
X136970150Y-93762329D01*
X136993579Y-93818891D01*
X137008286Y-93854397D01*
X137399229Y-94245340D01*
X137783831Y-94629941D01*
X137794955Y-94650313D01*
X137809844Y-94668127D01*
X137813025Y-94683406D01*
X137817316Y-94691264D01*
X137819183Y-94702163D01*
X137820150Y-94709859D01*
X137820150Y-94765227D01*
X137833249Y-94814114D01*
X137834308Y-94822541D01*
X137830024Y-94848980D01*
X137829387Y-94875758D01*
X137824521Y-94882946D01*
X137823134Y-94891512D01*
X137805239Y-94911435D01*
X137790224Y-94933620D01*
X137782244Y-94937036D01*
X137776446Y-94943493D01*
X137750617Y-94950579D01*
X137725995Y-94961123D01*
X137711275Y-94962000D01*
X136858149Y-94962000D01*
X136805534Y-94983794D01*
X136791921Y-94989433D01*
X136722452Y-94996902D01*
X136659973Y-94965627D01*
X136624321Y-94905538D01*
X136620469Y-94874872D01*
X136620469Y-93350683D01*
X136620468Y-93350680D01*
X136603250Y-93309112D01*
X136582333Y-93258613D01*
X136511866Y-93188146D01*
X136504801Y-93181081D01*
X136504794Y-93181075D01*
X135368202Y-92044481D01*
X135307469Y-91983748D01*
X135273984Y-91922425D01*
X135271150Y-91896067D01*
X135271150Y-91158745D01*
X135290835Y-91091706D01*
X135343639Y-91045951D01*
X135363054Y-91038971D01*
X135375237Y-91035707D01*
X135466563Y-90982980D01*
X135541130Y-90908413D01*
X135593857Y-90817087D01*
X135621150Y-90715227D01*
X135621150Y-90609773D01*
X135593857Y-90507913D01*
X135541130Y-90416587D01*
X135466563Y-90342020D01*
X135375237Y-90289293D01*
X135273377Y-90262000D01*
X135167923Y-90262000D01*
X135066063Y-90289293D01*
X135066060Y-90289294D01*
X134974737Y-90342020D01*
X134902422Y-90414335D01*
X134880827Y-90426126D01*
X134861587Y-90441464D01*
X134850699Y-90442576D01*
X134841098Y-90447819D01*
X134816561Y-90446063D01*
X134792079Y-90448565D01*
X134777795Y-90443290D01*
X134771407Y-90442834D01*
X134758650Y-90437242D01*
X134755664Y-90435727D01*
X134675237Y-90389293D01*
X134651656Y-90382974D01*
X134640137Y-90377132D01*
X134623718Y-90361682D01*
X134604472Y-90349950D01*
X134598765Y-90338202D01*
X134589253Y-90329251D01*
X134583794Y-90307380D01*
X134573944Y-90287103D01*
X134575495Y-90274133D01*
X134572332Y-90261461D01*
X134579564Y-90240110D01*
X134582241Y-90217727D01*
X134592060Y-90203219D01*
X134594748Y-90195285D01*
X134600575Y-90190639D01*
X134608545Y-90178864D01*
X135438805Y-89348603D01*
X135438808Y-89348602D01*
X135456246Y-89331164D01*
X135456247Y-89331164D01*
X135526714Y-89260697D01*
X135564850Y-89168628D01*
X135564850Y-86896608D01*
X136320150Y-86896608D01*
X136320150Y-87028391D01*
X136354258Y-87155687D01*
X136387204Y-87212750D01*
X136420150Y-87269814D01*
X136513336Y-87363000D01*
X136627464Y-87428892D01*
X136754758Y-87463000D01*
X136754760Y-87463000D01*
X136886540Y-87463000D01*
X136886542Y-87463000D01*
X137013836Y-87428892D01*
X137127964Y-87363000D01*
X137221150Y-87269814D01*
X137287042Y-87155686D01*
X137321150Y-87028392D01*
X137321150Y-86896608D01*
X137287042Y-86769314D01*
X137221150Y-86655186D01*
X137127964Y-86562000D01*
X137070900Y-86529054D01*
X137013837Y-86496108D01*
X136950189Y-86479054D01*
X136886542Y-86462000D01*
X136754758Y-86462000D01*
X136627462Y-86496108D01*
X136513336Y-86562000D01*
X136513333Y-86562002D01*
X136420152Y-86655183D01*
X136420150Y-86655186D01*
X136354258Y-86769312D01*
X136320150Y-86896608D01*
X135564850Y-86896608D01*
X135564850Y-85369500D01*
X135584535Y-85302461D01*
X135637339Y-85256706D01*
X135688850Y-85245500D01*
X136118620Y-85245500D01*
X136149049Y-85242646D01*
X136149051Y-85242646D01*
X136213140Y-85220219D01*
X136277232Y-85197793D01*
X136386500Y-85117150D01*
X136414580Y-85079103D01*
X136470227Y-85036852D01*
X136539883Y-85031393D01*
X136601433Y-85064460D01*
X136614120Y-85079103D01*
X136642198Y-85117148D01*
X136642199Y-85117148D01*
X136642200Y-85117150D01*
X136751468Y-85197793D01*
X136791182Y-85211689D01*
X136849022Y-85231929D01*
X136905798Y-85272651D01*
X136931545Y-85337603D01*
X136927843Y-85381060D01*
X136924424Y-85393822D01*
X136920150Y-85409773D01*
X136920150Y-85515227D01*
X136947443Y-85617087D01*
X137000170Y-85708413D01*
X137074737Y-85782980D01*
X137166063Y-85835707D01*
X137267923Y-85863000D01*
X137267925Y-85863000D01*
X137373375Y-85863000D01*
X137373377Y-85863000D01*
X137475237Y-85835707D01*
X137566563Y-85782980D01*
X137641130Y-85708413D01*
X137693857Y-85617087D01*
X137721150Y-85515227D01*
X137721150Y-85409773D01*
X137693857Y-85307913D01*
X137693855Y-85307909D01*
X137692153Y-85303799D01*
X137689892Y-85282778D01*
X137682883Y-85262831D01*
X137686232Y-85248735D01*
X137684683Y-85234330D01*
X137694147Y-85215422D01*
X137699034Y-85194854D01*
X137711404Y-85180945D01*
X137715957Y-85171850D01*
X137720719Y-85167008D01*
X137726551Y-85161393D01*
X137786500Y-85117150D01*
X137820806Y-85070665D01*
X137828356Y-85063399D01*
X137850416Y-85051893D01*
X137870227Y-85036852D01*
X137880853Y-85036019D01*
X137890307Y-85031089D01*
X137915083Y-85033336D01*
X137939883Y-85031393D01*
X137949273Y-85036437D01*
X137959891Y-85037401D01*
X137979518Y-85052686D01*
X138001433Y-85064460D01*
X138014120Y-85079103D01*
X138042198Y-85117148D01*
X138042199Y-85117148D01*
X138042200Y-85117150D01*
X138151468Y-85197793D01*
X138192132Y-85212022D01*
X138279649Y-85242646D01*
X138310080Y-85245500D01*
X138310084Y-85245500D01*
X138918620Y-85245500D01*
X138949049Y-85242646D01*
X138949051Y-85242646D01*
X139013140Y-85220219D01*
X139077232Y-85197793D01*
X139186500Y-85117150D01*
X139214580Y-85079103D01*
X139270227Y-85036852D01*
X139339883Y-85031393D01*
X139401433Y-85064460D01*
X139414120Y-85079103D01*
X139442198Y-85117148D01*
X139442199Y-85117148D01*
X139442200Y-85117150D01*
X139551468Y-85197793D01*
X139592132Y-85212022D01*
X139679649Y-85242646D01*
X139710080Y-85245500D01*
X139710084Y-85245500D01*
X140318620Y-85245500D01*
X140349049Y-85242646D01*
X140349051Y-85242646D01*
X140413140Y-85220219D01*
X140477232Y-85197793D01*
X140586500Y-85117150D01*
X140614580Y-85079103D01*
X140670227Y-85036852D01*
X140739883Y-85031393D01*
X140801433Y-85064460D01*
X140814120Y-85079103D01*
X140842198Y-85117148D01*
X140842199Y-85117148D01*
X140842200Y-85117150D01*
X140951468Y-85197793D01*
X140992132Y-85212022D01*
X141079649Y-85242646D01*
X141110080Y-85245500D01*
X141110084Y-85245500D01*
X141718620Y-85245500D01*
X141749049Y-85242646D01*
X141749051Y-85242646D01*
X141813140Y-85220219D01*
X141877232Y-85197793D01*
X141972580Y-85127422D01*
X142038209Y-85103452D01*
X142106380Y-85118768D01*
X142145018Y-85152268D01*
X142171783Y-85187563D01*
X142292254Y-85278920D01*
X142432906Y-85334386D01*
X142521296Y-85345000D01*
X142614350Y-85345000D01*
X143014350Y-85345000D01*
X143107404Y-85345000D01*
X143195793Y-85334386D01*
X143336445Y-85278920D01*
X143456914Y-85187564D01*
X143548270Y-85067095D01*
X143603736Y-84926443D01*
X143614350Y-84838053D01*
X143614350Y-84445000D01*
X143014350Y-84445000D01*
X143014350Y-85345000D01*
X142614350Y-85345000D01*
X142614350Y-84369000D01*
X142634035Y-84301961D01*
X142686839Y-84256206D01*
X142738350Y-84245000D01*
X142814350Y-84245000D01*
X142814350Y-84169000D01*
X142834035Y-84101961D01*
X142886839Y-84056206D01*
X142938350Y-84045000D01*
X143614350Y-84045000D01*
X143614350Y-83651946D01*
X143603736Y-83563556D01*
X143548269Y-83422902D01*
X143507716Y-83369425D01*
X143482893Y-83304114D01*
X143497321Y-83235750D01*
X143546418Y-83186039D01*
X143606520Y-83170500D01*
X145389150Y-83170500D01*
X145456189Y-83190185D01*
G37*
%TD.AperFunction*%
%TA.AperFunction,Conductor*%
G36*
X135015504Y-85206704D02*
G01*
X135056611Y-85263203D01*
X135063850Y-85304951D01*
X135063850Y-88963677D01*
X135044165Y-89030716D01*
X135027531Y-89051358D01*
X133882831Y-90196058D01*
X133821508Y-90229543D01*
X133751816Y-90224559D01*
X133695883Y-90182687D01*
X133671466Y-90117223D01*
X133671150Y-90108377D01*
X133671150Y-85393822D01*
X133679793Y-85364385D01*
X133686317Y-85334396D01*
X133690072Y-85329378D01*
X133690835Y-85326783D01*
X133707460Y-85306150D01*
X133798013Y-85215597D01*
X133859331Y-85182115D01*
X133929023Y-85187099D01*
X133943635Y-85193653D01*
X133951466Y-85197791D01*
X133951468Y-85197793D01*
X134079651Y-85242646D01*
X134089795Y-85243597D01*
X134110080Y-85245500D01*
X134110084Y-85245500D01*
X134718620Y-85245500D01*
X134749049Y-85242646D01*
X134749051Y-85242646D01*
X134800322Y-85224704D01*
X134877232Y-85197793D01*
X134877239Y-85197787D01*
X134881910Y-85195320D01*
X134950378Y-85181399D01*
X135015504Y-85206704D01*
G37*
%TD.AperFunction*%
%TD*%
M02*
