M48
; DRILL file KiCad 10.0.1 date 2026-06-12T14:10:23
; FORMAT={-:-/ absolute / inch / decimal}
; #@! TF.CreationDate,2026-06-12T14:10:23-05:00
; #@! TF.GenerationSoftware,Kicad,Pcbnew,10.0.1
; #@! TF.FileFunction,Plated,1,4,PTH
FMAT,2
INCH
; #@! TA.AperFunction,Plated,PTH,ViaDrill
T1C0.0118
; #@! TA.AperFunction,Plated,PTH,ComponentDrill
T2C0.0236
%
G90
G05
T1
X5.1878Y-4.1127
X5.1898Y-4.1747
X5.2016Y-3.9887
X5.2331Y-3.5576
X5.237Y-3.7938
X5.239Y-4.2466
X5.241Y-3.9395
X5.2468Y-3.7677
X5.2606Y-3.6299
X5.2607Y-4.284
X5.2666Y-4.1678
X5.2724Y-3.4606
X5.2803Y-3.5202
X5.2922Y-3.7958
X5.2961Y-3.5733
X5.3236Y-3.5694
X5.3335Y-3.6024
X5.3335Y-3.9611
X5.3335Y-3.9847
X5.3335Y-4.0143
X5.3413Y-3.7697
X5.3433Y-3.8942
X5.361Y-3.6044
X5.3689Y-3.7697
X5.3689Y-3.8017
X5.3729Y-3.5792
X5.3866Y-3.4237
X5.393Y-4.3593
X5.4063Y-3.3647
X5.4063Y-3.7781
X5.4122Y-3.8017
X5.422Y-3.626
X5.4221Y-3.9501
X5.4221Y-4.0288
X5.4221Y-4.1076
X5.4378Y-3.7859
X5.4403Y-4.2602
X5.4418Y-3.7288
X5.4555Y-3.6521
X5.4575Y-3.3174
X5.4595Y-3.5832
X5.4611Y-3.4639
X5.4611Y-3.5129
X5.4612Y-3.4138
X5.4688Y-3.3757
X5.471Y-4.2689
X5.4808Y-4.1997
X5.4929Y-4.2485
X5.4949Y-4.3725
X5.4963Y-3.7997
X5.5008Y-3.9501
X5.5008Y-4.0288
X5.5008Y-4.1076
X5.5084Y-3.415
X5.5084Y-3.4639
X5.5084Y-3.5129
X5.5087Y-3.8607
X5.5123Y-3.5776
X5.5225Y-3.6757
X5.5225Y-3.7328
X5.5251Y-3.3746
X5.534Y-3.798
X5.5478Y-3.5382
X5.5559Y-3.7328
X5.5576Y-3.672
X5.5618Y-3.8529
X5.5796Y-3.9501
X5.5796Y-4.0288
X5.5796Y-4.1076
X5.5914Y-3.3725
X5.5933Y-3.4906
X5.5992Y-3.8017
X5.6229Y-3.8568
X5.6347Y-4.2899
X5.6429Y-3.6556
X5.645Y-3.6281
X5.6455Y-3.5121
X5.6465Y-3.7288
X5.6513Y-3.7547
X5.6534Y-3.3725
X5.6603Y-3.8725
X5.674Y-4.2899
X5.676Y-4.0221
X5.676Y-4.048
X5.676Y-4.0753
X5.6761Y-3.96
X5.678Y-3.9344
X5.6839Y-3.7997
X5.7055Y-4.3312
X5.7092Y-3.302
X5.7092Y-3.3807
X5.7092Y-3.4201
X5.7092Y-3.4594
X5.7092Y-3.4988
X5.7092Y-3.5382
X5.7095Y-4.3706
X5.717Y-3.613
X5.7178Y-3.7252
X5.7331Y-3.9788
X5.7338Y-3.5785
X5.7341Y-3.9373
X5.7351Y-4.3312
X5.7485Y-3.5382
X5.7488Y-3.9139
X5.7498Y-3.6656
X5.7567Y-4.2623
X5.7685Y-4.032
X5.7685Y-4.1678
X5.7843Y-4.0655
X5.7879Y-3.5382
X5.7922Y-4.2662
X5.7965Y-3.6753
X5.7992Y-3.5598
X5.8086Y-3.8728
X5.8099Y-3.969
X5.8099Y-3.9985
X5.8236Y-4.1718
X5.8273Y-3.5382
X5.8591Y-3.7682
X5.8667Y-3.5382
X5.867Y-3.6855
X5.8776Y-3.8213
X5.904Y-3.7584
X5.906Y-3.5382
X5.9444Y-3.6469
X5.9454Y-3.5382
X5.9454Y-3.9752
X5.9454Y-4.0028
X5.9464Y-3.8935
T2
G00X4.8789Y-3.9882
M15
G01X4.8474Y-3.9882
M16
G05
G00X4.8789Y-4.3283
M15
G01X4.8474Y-4.3283
M16
G05
G00X5.0494Y-3.9882
M15
G01X5.0061Y-3.9882
M16
G05
G00X5.0494Y-4.3283
M15
G01X5.0061Y-4.3283
M16
G05
M30
