%TF.GenerationSoftware,KiCad,Pcbnew,10.0.1*%
%TF.CreationDate,2026-06-12T14:10:23-05:00*%
%TF.ProjectId,wearable_IMU,77656172-6162-46c6-955f-494d552e6b69,rev?*%
%TF.SameCoordinates,Original*%
%TF.FileFunction,Soldermask,Bot*%
%TF.FilePolarity,Negative*%
%FSLAX46Y46*%
G04 Gerber Fmt 4.6, Leading zero omitted, Abs format (unit mm)*
G04 Created by KiCad (PCBNEW 10.0.1) date 2026-06-12 14:10:23*
%MOMM*%
%LPD*%
G01*
G04 APERTURE LIST*
G04 Aperture macros list*
%AMRoundRect*
0 Rectangle with rounded corners*
0 $1 Rounding radius*
0 $2 $3 $4 $5 $6 $7 $8 $9 X,Y pos of 4 corners*
0 Add a 4 corners polygon primitive as box body*
4,1,4,$2,$3,$4,$5,$6,$7,$8,$9,$2,$3,0*
0 Add four circle primitives for the rounded corners*
1,1,$1+$1,$2,$3*
1,1,$1+$1,$4,$5*
1,1,$1+$1,$6,$7*
1,1,$1+$1,$8,$9*
0 Add four rect primitives between the rounded corners*
20,1,$1+$1,$2,$3,$4,$5,0*
20,1,$1+$1,$4,$5,$6,$7,0*
20,1,$1+$1,$6,$7,$8,$9,0*
20,1,$1+$1,$8,$9,$2,$3,0*%
%AMFreePoly0*
4,1,23,0.500000,-0.750000,0.000000,-0.750000,0.000000,-0.745722,-0.065263,-0.745722,-0.191342,-0.711940,-0.304381,-0.646677,-0.396677,-0.554381,-0.461940,-0.441342,-0.495722,-0.315263,-0.495722,-0.250000,-0.500000,-0.250000,-0.500000,0.250000,-0.495722,0.250000,-0.495722,0.315263,-0.461940,0.441342,-0.396677,0.554381,-0.304381,0.646677,-0.191342,0.711940,-0.065263,0.745722,0.000000,0.745722,
0.000000,0.750000,0.500000,0.750000,0.500000,-0.750000,0.500000,-0.750000,$1*%
%AMFreePoly1*
4,1,23,0.000000,0.745722,0.065263,0.745722,0.191342,0.711940,0.304381,0.646677,0.396677,0.554381,0.461940,0.441342,0.495722,0.315263,0.495722,0.250000,0.500000,0.250000,0.500000,-0.250000,0.495722,-0.250000,0.495722,-0.315263,0.461940,-0.441342,0.396677,-0.554381,0.304381,-0.646677,0.191342,-0.711940,0.065263,-0.745722,0.000000,-0.745722,0.000000,-0.750000,-0.500000,-0.750000,
-0.500000,0.750000,0.000000,0.750000,0.000000,0.745722,0.000000,0.745722,$1*%
G04 Aperture macros list end*
%ADD10C,0.900000*%
%ADD11C,0.650000*%
%ADD12O,2.100000X1.000000*%
%ADD13O,1.800000X1.000000*%
%ADD14C,0.990600*%
%ADD15C,1.500000*%
%ADD16FreePoly0,270.000000*%
%ADD17FreePoly1,270.000000*%
%ADD18RoundRect,0.150000X0.150000X0.625000X-0.150000X0.625000X-0.150000X-0.625000X0.150000X-0.625000X0*%
%ADD19RoundRect,0.250000X0.350000X0.650000X-0.350000X0.650000X-0.350000X-0.650000X0.350000X-0.650000X0*%
%ADD20RoundRect,0.250000X0.250000X0.550000X-0.250000X0.550000X-0.250000X-0.550000X0.250000X-0.550000X0*%
%ADD21RoundRect,0.250000X-0.550000X0.250000X-0.550000X-0.250000X0.550000X-0.250000X0.550000X0.250000X0*%
G04 APERTURE END LIST*
%TO.C,JP1*%
G36*
X147893150Y-98930000D02*
G01*
X149393150Y-98930000D01*
X149393150Y-99230000D01*
X147893150Y-99230000D01*
X147893150Y-98930000D01*
G37*
%TD*%
D10*
%TO.C,SW1*%
X150683150Y-110562500D03*
X150683150Y-103762500D03*
%TD*%
D11*
%TO.C,J1*%
X127205000Y-102730000D03*
X127205000Y-108510000D03*
D12*
X127705000Y-101300000D03*
D13*
X123525000Y-101300000D03*
D12*
X127705000Y-109940000D03*
D13*
X123525000Y-109940000D03*
%TD*%
D14*
%TO.C,J3*%
X136423150Y-109955000D03*
X141503150Y-108939000D03*
X141503150Y-110971000D03*
%TD*%
D15*
%TO.C,TP1*%
X143620650Y-110812500D03*
%TD*%
D16*
%TO.C,JP1*%
X148643150Y-98430000D03*
D17*
X148643150Y-99730000D03*
%TD*%
D18*
%TO.C,J2*%
X149810650Y-91567500D03*
X148810650Y-91567500D03*
D19*
X151110650Y-95442500D03*
X147510650Y-95442500D03*
%TD*%
D20*
%TO.C,DWM1*%
X133014350Y-84245000D03*
X134414350Y-84245000D03*
X135814350Y-84245000D03*
X137214350Y-84245000D03*
X138614350Y-84245000D03*
X140014350Y-84245000D03*
X141414350Y-84245000D03*
X142814350Y-84245000D03*
D21*
X145509111Y-95864667D03*
D20*
X142813150Y-97695000D03*
X141413150Y-97695000D03*
X140014350Y-97695000D03*
X138614350Y-97695000D03*
X137214350Y-97695000D03*
X135814350Y-97695000D03*
X134414350Y-97695000D03*
X133014350Y-97695000D03*
%TD*%
M02*
