%TF.GenerationSoftware,KiCad,Pcbnew,10.0.1*%
%TF.CreationDate,2026-06-12T14:10:23-05:00*%
%TF.ProjectId,wearable_IMU,77656172-6162-46c6-955f-494d552e6b69,rev?*%
%TF.SameCoordinates,Original*%
%TF.FileFunction,Legend,Top*%
%TF.FilePolarity,Positive*%
%FSLAX46Y46*%
G04 Gerber Fmt 4.6, Leading zero omitted, Abs format (unit mm)*
G04 Created by KiCad (PCBNEW 10.0.1) date 2026-06-12 14:10:23*
%MOMM*%
%LPD*%
G01*
G04 APERTURE LIST*
G04 Aperture macros list*
%AMRoundRect*
0 Rectangle with rounded corners*
0 $1 Rounding radius*
0 $2 $3 $4 $5 $6 $7 $8 $9 X,Y pos of 4 corners*
0 Add a 4 corners polygon primitive as box body*
4,1,4,$2,$3,$4,$5,$6,$7,$8,$9,$2,$3,0*
0 Add four circle primitives for the rounded corners*
1,1,$1+$1,$2,$3*
1,1,$1+$1,$4,$5*
1,1,$1+$1,$6,$7*
1,1,$1+$1,$8,$9*
0 Add four rect primitives between the rounded corners*
20,1,$1+$1,$2,$3,$4,$5,0*
20,1,$1+$1,$4,$5,$6,$7,0*
20,1,$1+$1,$6,$7,$8,$9,0*
20,1,$1+$1,$8,$9,$2,$3,0*%
%AMRotRect*
0 Rectangle, with rotation*
0 The origin of the aperture is its center*
0 $1 length*
0 $2 width*
0 $3 Rotation angle, in degrees counterclockwise*
0 Add horizontal line*
21,1,$1,$2,0,0,$3*%
%AMFreePoly0*
4,1,14,-0.014661,0.215495,0.140356,0.060504,0.155004,0.025150,0.155004,-0.179883,0.140359,-0.215238,0.105004,-0.229883,-0.105004,-0.229883,-0.140359,-0.215238,-0.155004,-0.179883,-0.155004,0.180137,-0.140359,0.215492,-0.105004,0.230137,-0.050013,0.230137,-0.014661,0.215495,-0.014661,0.215495,$1*%
%AMFreePoly1*
4,1,14,0.140359,0.215492,0.155004,0.180137,0.155004,-0.179883,0.140359,-0.215238,0.105004,-0.229883,-0.105004,-0.229883,-0.140359,-0.215238,-0.155004,-0.179883,-0.155004,0.025146,-0.140359,0.060501,0.014661,0.215495,0.050013,0.230137,0.105004,0.230137,0.140359,0.215492,0.140359,0.215492,$1*%
%AMFreePoly2*
4,1,14,0.140359,0.215314,0.155004,0.179959,0.155004,-0.180035,0.140359,-0.215390,0.105004,-0.230035,0.050013,-0.230035,0.014664,-0.215396,-0.140353,-0.060431,-0.155004,-0.025078,-0.155004,0.179959,-0.140359,0.215314,-0.105004,0.229959,0.105004,0.229959,0.140359,0.215314,0.140359,0.215314,$1*%
%AMFreePoly3*
4,1,14,0.140409,0.215339,0.155054,0.179984,0.155054,-0.025044,0.140409,-0.060399,-0.014610,-0.215393,-0.049962,-0.230035,-0.104953,-0.230035,-0.140308,-0.215390,-0.154953,-0.180035,-0.154953,0.179984,-0.140308,0.215339,-0.104953,0.229984,0.105054,0.229984,0.140409,0.215339,0.140409,0.215339,$1*%
G04 Aperture macros list end*
%ADD10C,0.150000*%
%ADD11C,0.250000*%
%ADD12C,0.120000*%
%ADD13C,0.100000*%
%ADD14C,0.100001*%
%ADD15C,0.000000*%
%ADD16C,0.127000*%
%ADD17C,0.200000*%
%ADD18C,0.152400*%
%ADD19C,0.900000*%
%ADD20RoundRect,0.250000X0.850000X-0.350000X0.850000X0.350000X-0.850000X0.350000X-0.850000X-0.350000X0*%
%ADD21RoundRect,0.087500X0.225000X0.087500X-0.225000X0.087500X-0.225000X-0.087500X0.225000X-0.087500X0*%
%ADD22RoundRect,0.087500X0.087500X0.225000X-0.087500X0.225000X-0.087500X-0.225000X0.087500X-0.225000X0*%
%ADD23RoundRect,0.093750X-0.156250X-0.093750X0.156250X-0.093750X0.156250X0.093750X-0.156250X0.093750X0*%
%ADD24RoundRect,0.075000X-0.250000X-0.075000X0.250000X-0.075000X0.250000X0.075000X-0.250000X0.075000X0*%
%ADD25RoundRect,0.140000X-0.170000X0.140000X-0.170000X-0.140000X0.170000X-0.140000X0.170000X0.140000X0*%
%ADD26RoundRect,0.225000X-0.225000X-0.250000X0.225000X-0.250000X0.225000X0.250000X-0.225000X0.250000X0*%
%ADD27RoundRect,0.147500X-0.172500X0.147500X-0.172500X-0.147500X0.172500X-0.147500X0.172500X0.147500X0*%
%ADD28RoundRect,0.140000X-0.140000X-0.170000X0.140000X-0.170000X0.140000X0.170000X-0.140000X0.170000X0*%
%ADD29RoundRect,0.147500X-0.147500X-0.172500X0.147500X-0.172500X0.147500X0.172500X-0.147500X0.172500X0*%
%ADD30RoundRect,0.140000X0.140000X0.170000X-0.140000X0.170000X-0.140000X-0.170000X0.140000X-0.170000X0*%
%ADD31RoundRect,0.225000X-0.250000X0.225000X-0.250000X-0.225000X0.250000X-0.225000X0.250000X0.225000X0*%
%ADD32RoundRect,0.135000X-0.135000X-0.185000X0.135000X-0.185000X0.135000X0.185000X-0.135000X0.185000X0*%
%ADD33RoundRect,0.147500X0.147500X0.172500X-0.147500X0.172500X-0.147500X-0.172500X0.147500X-0.172500X0*%
%ADD34RoundRect,0.135000X0.135000X0.185000X-0.135000X0.185000X-0.135000X-0.185000X0.135000X-0.185000X0*%
%ADD35RoundRect,0.068750X0.281250X0.068750X-0.281250X0.068750X-0.281250X-0.068750X0.281250X-0.068750X0*%
%ADD36RoundRect,0.061250X-0.061250X0.163750X-0.061250X-0.163750X0.061250X-0.163750X0.061250X0.163750X0*%
%ADD37RoundRect,0.061250X0.061250X-0.163750X0.061250X0.163750X-0.061250X0.163750X-0.061250X-0.163750X0*%
%ADD38RoundRect,0.140000X0.170000X-0.140000X0.170000X0.140000X-0.170000X0.140000X-0.170000X-0.140000X0*%
%ADD39RoundRect,0.200000X0.250000X0.200000X-0.250000X0.200000X-0.250000X-0.200000X0.250000X-0.200000X0*%
%ADD40C,0.650000*%
%ADD41RoundRect,0.150000X-0.425000X0.150000X-0.425000X-0.150000X0.425000X-0.150000X0.425000X0.150000X0*%
%ADD42RoundRect,0.075000X-0.500000X0.075000X-0.500000X-0.075000X0.500000X-0.075000X0.500000X0.075000X0*%
%ADD43O,2.100000X1.000000*%
%ADD44O,1.800000X1.000000*%
%ADD45FreePoly0,0.000000*%
%ADD46FreePoly1,0.000000*%
%ADD47FreePoly2,0.000000*%
%ADD48FreePoly3,0.000000*%
%ADD49RotRect,0.480000X0.480000X135.000000*%
%ADD50RoundRect,0.135000X0.185000X-0.135000X0.185000X0.135000X-0.185000X0.135000X-0.185000X-0.135000X0*%
%ADD51RoundRect,0.218750X-0.218750X-0.381250X0.218750X-0.381250X0.218750X0.381250X-0.218750X0.381250X0*%
%ADD52RoundRect,0.225000X0.250000X-0.225000X0.250000X0.225000X-0.250000X0.225000X-0.250000X-0.225000X0*%
%ADD53RoundRect,0.200000X-0.200000X-0.800000X0.200000X-0.800000X0.200000X0.800000X-0.200000X0.800000X0*%
%ADD54RoundRect,0.147500X0.172500X-0.147500X0.172500X0.147500X-0.172500X0.147500X-0.172500X-0.147500X0*%
%ADD55RoundRect,0.150000X-0.400000X0.150000X-0.400000X-0.150000X0.400000X-0.150000X0.400000X0.150000X0*%
%ADD56RoundRect,0.135000X-0.185000X0.135000X-0.185000X-0.135000X0.185000X-0.135000X0.185000X0.135000X0*%
%ADD57C,0.990600*%
%ADD58C,0.787400*%
%ADD59RoundRect,0.225000X0.225000X0.250000X-0.225000X0.250000X-0.225000X-0.250000X0.225000X-0.250000X0*%
%ADD60RoundRect,0.030480X0.248920X0.071120X-0.248920X0.071120X-0.248920X-0.071120X0.248920X-0.071120X0*%
%ADD61RoundRect,0.148590X0.346710X0.651510X-0.346710X0.651510X-0.346710X-0.651510X0.346710X-0.651510X0*%
%ADD62RoundRect,0.062500X0.062500X0.410000X-0.062500X0.410000X-0.062500X-0.410000X0.062500X-0.410000X0*%
%ADD63RoundRect,0.062500X0.287500X0.062500X-0.287500X0.062500X-0.287500X-0.062500X0.287500X-0.062500X0*%
%ADD64R,0.900000X1.300000*%
%ADD65C,0.250000*%
%ADD66RoundRect,0.062500X0.375000X0.062500X-0.375000X0.062500X-0.375000X-0.062500X0.375000X-0.062500X0*%
%ADD67RoundRect,0.062500X0.062500X0.375000X-0.062500X0.375000X-0.062500X-0.375000X0.062500X-0.375000X0*%
%ADD68R,5.600000X5.600000*%
G04 APERTURE END LIST*
D10*
X122995524Y-97256795D02*
X123262191Y-98056795D01*
X123262191Y-98056795D02*
X123528857Y-97256795D01*
X124214571Y-98056795D02*
X123757428Y-98056795D01*
X123986000Y-98056795D02*
X123986000Y-97256795D01*
X123986000Y-97256795D02*
X123909809Y-97371080D01*
X123909809Y-97371080D02*
X123833619Y-97447271D01*
X123833619Y-97447271D02*
X123757428Y-97485366D01*
X124557429Y-97980604D02*
X124595524Y-98018700D01*
X124595524Y-98018700D02*
X124557429Y-98056795D01*
X124557429Y-98056795D02*
X124519333Y-98018700D01*
X124519333Y-98018700D02*
X124557429Y-97980604D01*
X124557429Y-97980604D02*
X124557429Y-98056795D01*
X125090762Y-97256795D02*
X125166952Y-97256795D01*
X125166952Y-97256795D02*
X125243143Y-97294890D01*
X125243143Y-97294890D02*
X125281238Y-97332985D01*
X125281238Y-97332985D02*
X125319333Y-97409176D01*
X125319333Y-97409176D02*
X125357428Y-97561557D01*
X125357428Y-97561557D02*
X125357428Y-97752033D01*
X125357428Y-97752033D02*
X125319333Y-97904414D01*
X125319333Y-97904414D02*
X125281238Y-97980604D01*
X125281238Y-97980604D02*
X125243143Y-98018700D01*
X125243143Y-98018700D02*
X125166952Y-98056795D01*
X125166952Y-98056795D02*
X125090762Y-98056795D01*
X125090762Y-98056795D02*
X125014571Y-98018700D01*
X125014571Y-98018700D02*
X124976476Y-97980604D01*
X124976476Y-97980604D02*
X124938381Y-97904414D01*
X124938381Y-97904414D02*
X124900285Y-97752033D01*
X124900285Y-97752033D02*
X124900285Y-97561557D01*
X124900285Y-97561557D02*
X124938381Y-97409176D01*
X124938381Y-97409176D02*
X124976476Y-97332985D01*
X124976476Y-97332985D02*
X125014571Y-97294890D01*
X125014571Y-97294890D02*
X125090762Y-97256795D01*
X123009810Y-93568840D02*
X123009810Y-92768840D01*
X123009810Y-92768840D02*
X123200286Y-92768840D01*
X123200286Y-92768840D02*
X123314572Y-92806935D01*
X123314572Y-92806935D02*
X123390762Y-92883125D01*
X123390762Y-92883125D02*
X123428857Y-92959316D01*
X123428857Y-92959316D02*
X123466953Y-93111697D01*
X123466953Y-93111697D02*
X123466953Y-93225983D01*
X123466953Y-93225983D02*
X123428857Y-93378364D01*
X123428857Y-93378364D02*
X123390762Y-93454554D01*
X123390762Y-93454554D02*
X123314572Y-93530745D01*
X123314572Y-93530745D02*
X123200286Y-93568840D01*
X123200286Y-93568840D02*
X123009810Y-93568840D01*
X124152667Y-93568840D02*
X124152667Y-93149792D01*
X124152667Y-93149792D02*
X124114572Y-93073602D01*
X124114572Y-93073602D02*
X124038381Y-93035506D01*
X124038381Y-93035506D02*
X123886000Y-93035506D01*
X123886000Y-93035506D02*
X123809810Y-93073602D01*
X124152667Y-93530745D02*
X124076476Y-93568840D01*
X124076476Y-93568840D02*
X123886000Y-93568840D01*
X123886000Y-93568840D02*
X123809810Y-93530745D01*
X123809810Y-93530745D02*
X123771714Y-93454554D01*
X123771714Y-93454554D02*
X123771714Y-93378364D01*
X123771714Y-93378364D02*
X123809810Y-93302173D01*
X123809810Y-93302173D02*
X123886000Y-93264078D01*
X123886000Y-93264078D02*
X124076476Y-93264078D01*
X124076476Y-93264078D02*
X124152667Y-93225983D01*
X124457429Y-93035506D02*
X124647905Y-93568840D01*
X124647905Y-93568840D02*
X124838382Y-93035506D01*
X125143144Y-93568840D02*
X125143144Y-93035506D01*
X125143144Y-92768840D02*
X125105048Y-92806935D01*
X125105048Y-92806935D02*
X125143144Y-92845030D01*
X125143144Y-92845030D02*
X125181239Y-92806935D01*
X125181239Y-92806935D02*
X125143144Y-92768840D01*
X125143144Y-92768840D02*
X125143144Y-92845030D01*
X125486000Y-93530745D02*
X125562191Y-93568840D01*
X125562191Y-93568840D02*
X125714572Y-93568840D01*
X125714572Y-93568840D02*
X125790762Y-93530745D01*
X125790762Y-93530745D02*
X125828858Y-93454554D01*
X125828858Y-93454554D02*
X125828858Y-93416459D01*
X125828858Y-93416459D02*
X125790762Y-93340268D01*
X125790762Y-93340268D02*
X125714572Y-93302173D01*
X125714572Y-93302173D02*
X125600286Y-93302173D01*
X125600286Y-93302173D02*
X125524096Y-93264078D01*
X125524096Y-93264078D02*
X125486000Y-93187887D01*
X125486000Y-93187887D02*
X125486000Y-93149792D01*
X125486000Y-93149792D02*
X125524096Y-93073602D01*
X125524096Y-93073602D02*
X125600286Y-93035506D01*
X125600286Y-93035506D02*
X125714572Y-93035506D01*
X125714572Y-93035506D02*
X125790762Y-93073602D01*
X126781239Y-93568840D02*
X126781239Y-92768840D01*
X126781239Y-92768840D02*
X127086001Y-92768840D01*
X127086001Y-92768840D02*
X127162191Y-92806935D01*
X127162191Y-92806935D02*
X127200286Y-92845030D01*
X127200286Y-92845030D02*
X127238382Y-92921221D01*
X127238382Y-92921221D02*
X127238382Y-93035506D01*
X127238382Y-93035506D02*
X127200286Y-93111697D01*
X127200286Y-93111697D02*
X127162191Y-93149792D01*
X127162191Y-93149792D02*
X127086001Y-93187887D01*
X127086001Y-93187887D02*
X126781239Y-93187887D01*
X127886001Y-93530745D02*
X127809810Y-93568840D01*
X127809810Y-93568840D02*
X127657429Y-93568840D01*
X127657429Y-93568840D02*
X127581239Y-93530745D01*
X127581239Y-93530745D02*
X127543143Y-93454554D01*
X127543143Y-93454554D02*
X127543143Y-93149792D01*
X127543143Y-93149792D02*
X127581239Y-93073602D01*
X127581239Y-93073602D02*
X127657429Y-93035506D01*
X127657429Y-93035506D02*
X127809810Y-93035506D01*
X127809810Y-93035506D02*
X127886001Y-93073602D01*
X127886001Y-93073602D02*
X127924096Y-93149792D01*
X127924096Y-93149792D02*
X127924096Y-93225983D01*
X127924096Y-93225983D02*
X127543143Y-93302173D01*
X128228857Y-93530745D02*
X128305048Y-93568840D01*
X128305048Y-93568840D02*
X128457429Y-93568840D01*
X128457429Y-93568840D02*
X128533619Y-93530745D01*
X128533619Y-93530745D02*
X128571715Y-93454554D01*
X128571715Y-93454554D02*
X128571715Y-93416459D01*
X128571715Y-93416459D02*
X128533619Y-93340268D01*
X128533619Y-93340268D02*
X128457429Y-93302173D01*
X128457429Y-93302173D02*
X128343143Y-93302173D01*
X128343143Y-93302173D02*
X128266953Y-93264078D01*
X128266953Y-93264078D02*
X128228857Y-93187887D01*
X128228857Y-93187887D02*
X128228857Y-93149792D01*
X128228857Y-93149792D02*
X128266953Y-93073602D01*
X128266953Y-93073602D02*
X128343143Y-93035506D01*
X128343143Y-93035506D02*
X128457429Y-93035506D01*
X128457429Y-93035506D02*
X128533619Y-93073602D01*
X129257429Y-93530745D02*
X129181238Y-93568840D01*
X129181238Y-93568840D02*
X129028857Y-93568840D01*
X129028857Y-93568840D02*
X128952667Y-93530745D01*
X128952667Y-93530745D02*
X128914572Y-93492649D01*
X128914572Y-93492649D02*
X128876476Y-93416459D01*
X128876476Y-93416459D02*
X128876476Y-93187887D01*
X128876476Y-93187887D02*
X128914572Y-93111697D01*
X128914572Y-93111697D02*
X128952667Y-93073602D01*
X128952667Y-93073602D02*
X129028857Y-93035506D01*
X129028857Y-93035506D02*
X129181238Y-93035506D01*
X129181238Y-93035506D02*
X129257429Y-93073602D01*
X129600286Y-93568840D02*
X129600286Y-92768840D01*
X129943143Y-93568840D02*
X129943143Y-93149792D01*
X129943143Y-93149792D02*
X129905048Y-93073602D01*
X129905048Y-93073602D02*
X129828857Y-93035506D01*
X129828857Y-93035506D02*
X129714571Y-93035506D01*
X129714571Y-93035506D02*
X129638381Y-93073602D01*
X129638381Y-93073602D02*
X129600286Y-93111697D01*
X130438381Y-93568840D02*
X130362191Y-93530745D01*
X130362191Y-93530745D02*
X130324096Y-93454554D01*
X130324096Y-93454554D02*
X130324096Y-92768840D01*
X123009810Y-94856795D02*
X123009810Y-94056795D01*
X123009810Y-94056795D02*
X123276476Y-94628223D01*
X123276476Y-94628223D02*
X123543143Y-94056795D01*
X123543143Y-94056795D02*
X123543143Y-94856795D01*
X124266953Y-94856795D02*
X124266953Y-94437747D01*
X124266953Y-94437747D02*
X124228858Y-94361557D01*
X124228858Y-94361557D02*
X124152667Y-94323461D01*
X124152667Y-94323461D02*
X124000286Y-94323461D01*
X124000286Y-94323461D02*
X123924096Y-94361557D01*
X124266953Y-94818700D02*
X124190762Y-94856795D01*
X124190762Y-94856795D02*
X124000286Y-94856795D01*
X124000286Y-94856795D02*
X123924096Y-94818700D01*
X123924096Y-94818700D02*
X123886000Y-94742509D01*
X123886000Y-94742509D02*
X123886000Y-94666319D01*
X123886000Y-94666319D02*
X123924096Y-94590128D01*
X123924096Y-94590128D02*
X124000286Y-94552033D01*
X124000286Y-94552033D02*
X124190762Y-94552033D01*
X124190762Y-94552033D02*
X124266953Y-94513938D01*
X124647906Y-94856795D02*
X124647906Y-94323461D01*
X124647906Y-94475842D02*
X124686001Y-94399652D01*
X124686001Y-94399652D02*
X124724096Y-94361557D01*
X124724096Y-94361557D02*
X124800287Y-94323461D01*
X124800287Y-94323461D02*
X124876477Y-94323461D01*
X125028858Y-94323461D02*
X125333620Y-94323461D01*
X125143144Y-94056795D02*
X125143144Y-94742509D01*
X125143144Y-94742509D02*
X125181239Y-94818700D01*
X125181239Y-94818700D02*
X125257429Y-94856795D01*
X125257429Y-94856795D02*
X125333620Y-94856795D01*
X125600287Y-94856795D02*
X125600287Y-94323461D01*
X125600287Y-94056795D02*
X125562191Y-94094890D01*
X125562191Y-94094890D02*
X125600287Y-94132985D01*
X125600287Y-94132985D02*
X125638382Y-94094890D01*
X125638382Y-94094890D02*
X125600287Y-94056795D01*
X125600287Y-94056795D02*
X125600287Y-94132985D01*
X125981239Y-94323461D02*
X125981239Y-94856795D01*
X125981239Y-94399652D02*
X126019334Y-94361557D01*
X126019334Y-94361557D02*
X126095524Y-94323461D01*
X126095524Y-94323461D02*
X126209810Y-94323461D01*
X126209810Y-94323461D02*
X126286001Y-94361557D01*
X126286001Y-94361557D02*
X126324096Y-94437747D01*
X126324096Y-94437747D02*
X126324096Y-94856795D01*
X127276477Y-94818700D02*
X127390763Y-94856795D01*
X127390763Y-94856795D02*
X127581239Y-94856795D01*
X127581239Y-94856795D02*
X127657430Y-94818700D01*
X127657430Y-94818700D02*
X127695525Y-94780604D01*
X127695525Y-94780604D02*
X127733620Y-94704414D01*
X127733620Y-94704414D02*
X127733620Y-94628223D01*
X127733620Y-94628223D02*
X127695525Y-94552033D01*
X127695525Y-94552033D02*
X127657430Y-94513938D01*
X127657430Y-94513938D02*
X127581239Y-94475842D01*
X127581239Y-94475842D02*
X127428858Y-94437747D01*
X127428858Y-94437747D02*
X127352668Y-94399652D01*
X127352668Y-94399652D02*
X127314573Y-94361557D01*
X127314573Y-94361557D02*
X127276477Y-94285366D01*
X127276477Y-94285366D02*
X127276477Y-94209176D01*
X127276477Y-94209176D02*
X127314573Y-94132985D01*
X127314573Y-94132985D02*
X127352668Y-94094890D01*
X127352668Y-94094890D02*
X127428858Y-94056795D01*
X127428858Y-94056795D02*
X127619335Y-94056795D01*
X127619335Y-94056795D02*
X127733620Y-94094890D01*
X128419335Y-94856795D02*
X128419335Y-94437747D01*
X128419335Y-94437747D02*
X128381240Y-94361557D01*
X128381240Y-94361557D02*
X128305049Y-94323461D01*
X128305049Y-94323461D02*
X128152668Y-94323461D01*
X128152668Y-94323461D02*
X128076478Y-94361557D01*
X128419335Y-94818700D02*
X128343144Y-94856795D01*
X128343144Y-94856795D02*
X128152668Y-94856795D01*
X128152668Y-94856795D02*
X128076478Y-94818700D01*
X128076478Y-94818700D02*
X128038382Y-94742509D01*
X128038382Y-94742509D02*
X128038382Y-94666319D01*
X128038382Y-94666319D02*
X128076478Y-94590128D01*
X128076478Y-94590128D02*
X128152668Y-94552033D01*
X128152668Y-94552033D02*
X128343144Y-94552033D01*
X128343144Y-94552033D02*
X128419335Y-94513938D01*
X128914573Y-94856795D02*
X128838383Y-94818700D01*
X128838383Y-94818700D02*
X128800288Y-94742509D01*
X128800288Y-94742509D02*
X128800288Y-94056795D01*
X129562193Y-94856795D02*
X129562193Y-94056795D01*
X129562193Y-94818700D02*
X129486002Y-94856795D01*
X129486002Y-94856795D02*
X129333621Y-94856795D01*
X129333621Y-94856795D02*
X129257431Y-94818700D01*
X129257431Y-94818700D02*
X129219336Y-94780604D01*
X129219336Y-94780604D02*
X129181240Y-94704414D01*
X129181240Y-94704414D02*
X129181240Y-94475842D01*
X129181240Y-94475842D02*
X129219336Y-94399652D01*
X129219336Y-94399652D02*
X129257431Y-94361557D01*
X129257431Y-94361557D02*
X129333621Y-94323461D01*
X129333621Y-94323461D02*
X129486002Y-94323461D01*
X129486002Y-94323461D02*
X129562193Y-94361557D01*
X130286003Y-94856795D02*
X130286003Y-94437747D01*
X130286003Y-94437747D02*
X130247908Y-94361557D01*
X130247908Y-94361557D02*
X130171717Y-94323461D01*
X130171717Y-94323461D02*
X130019336Y-94323461D01*
X130019336Y-94323461D02*
X129943146Y-94361557D01*
X130286003Y-94818700D02*
X130209812Y-94856795D01*
X130209812Y-94856795D02*
X130019336Y-94856795D01*
X130019336Y-94856795D02*
X129943146Y-94818700D01*
X129943146Y-94818700D02*
X129905050Y-94742509D01*
X129905050Y-94742509D02*
X129905050Y-94666319D01*
X129905050Y-94666319D02*
X129943146Y-94590128D01*
X129943146Y-94590128D02*
X130019336Y-94552033D01*
X130019336Y-94552033D02*
X130209812Y-94552033D01*
X130209812Y-94552033D02*
X130286003Y-94513938D01*
X130666956Y-94323461D02*
X130666956Y-94856795D01*
X130666956Y-94399652D02*
X130705051Y-94361557D01*
X130705051Y-94361557D02*
X130781241Y-94323461D01*
X130781241Y-94323461D02*
X130895527Y-94323461D01*
X130895527Y-94323461D02*
X130971718Y-94361557D01*
X130971718Y-94361557D02*
X131009813Y-94437747D01*
X131009813Y-94437747D02*
X131009813Y-94856795D01*
X130628860Y-94132985D02*
X130666956Y-94094890D01*
X130666956Y-94094890D02*
X130743146Y-94056795D01*
X130743146Y-94056795D02*
X130895527Y-94132985D01*
X130895527Y-94132985D02*
X130971718Y-94094890D01*
X130971718Y-94094890D02*
X131009813Y-94056795D01*
X131733623Y-94856795D02*
X131733623Y-94437747D01*
X131733623Y-94437747D02*
X131695528Y-94361557D01*
X131695528Y-94361557D02*
X131619337Y-94323461D01*
X131619337Y-94323461D02*
X131466956Y-94323461D01*
X131466956Y-94323461D02*
X131390766Y-94361557D01*
X131733623Y-94818700D02*
X131657432Y-94856795D01*
X131657432Y-94856795D02*
X131466956Y-94856795D01*
X131466956Y-94856795D02*
X131390766Y-94818700D01*
X131390766Y-94818700D02*
X131352670Y-94742509D01*
X131352670Y-94742509D02*
X131352670Y-94666319D01*
X131352670Y-94666319D02*
X131390766Y-94590128D01*
X131390766Y-94590128D02*
X131466956Y-94552033D01*
X131466956Y-94552033D02*
X131657432Y-94552033D01*
X131657432Y-94552033D02*
X131733623Y-94513938D01*
%TO.C,SW1*%
D11*
X148933150Y-111712500D02*
X148933150Y-102612500D01*
%TO.C,U6*%
D12*
X134189969Y-92760510D02*
X134864969Y-92760510D01*
X134189969Y-92935510D02*
X134189969Y-92760510D01*
X134189969Y-95480510D02*
X134189969Y-95305510D01*
X134864969Y-95480510D02*
X134189969Y-95480510D01*
X136734969Y-92760510D02*
X137409969Y-92760510D01*
X137409969Y-92760510D02*
X137409969Y-92935510D01*
X137409969Y-95305510D02*
X137409969Y-95480510D01*
X137409969Y-95480510D02*
X136734969Y-95480510D01*
X137869969Y-95110510D02*
X137539969Y-94870510D01*
X137869969Y-94630510D01*
X137869969Y-95110510D01*
G36*
X137869969Y-95110510D02*
G01*
X137539969Y-94870510D01*
X137869969Y-94630510D01*
X137869969Y-95110510D01*
G37*
%TO.C,U1*%
X133995650Y-106875000D02*
X132945650Y-106875000D01*
X133995650Y-108855000D02*
X132695650Y-108855000D01*
X132575650Y-106875000D02*
X132295650Y-106875000D01*
X132575650Y-106595000D01*
X132575650Y-106875000D01*
G36*
X132575650Y-106875000D02*
G01*
X132295650Y-106875000D01*
X132575650Y-106595000D01*
X132575650Y-106875000D01*
G37*
%TO.C,C31*%
X141003150Y-85062164D02*
X141003150Y-85277836D01*
X141723150Y-85062164D02*
X141723150Y-85277836D01*
%TO.C,C4*%
X149232570Y-100740000D02*
X149513730Y-100740000D01*
X149232570Y-101760000D02*
X149513730Y-101760000D01*
%TO.C,D3*%
D13*
X142120650Y-86267500D02*
G75*
G02*
X142020650Y-86267500I-50000J0D01*
G01*
X142020650Y-86267500D02*
G75*
G02*
X142120650Y-86267500I50000J0D01*
G01*
%TO.C,C14*%
D12*
X137105314Y-97010000D02*
X137320986Y-97010000D01*
X137105314Y-97730000D02*
X137320986Y-97730000D01*
%TO.C,C28*%
X143735650Y-107829664D02*
X143735650Y-108045336D01*
X144455650Y-107829664D02*
X144455650Y-108045336D01*
%TO.C,D1*%
D13*
X149463763Y-90845000D02*
G75*
G02*
X149363763Y-90845000I-50000J0D01*
G01*
X149363763Y-90845000D02*
G75*
G02*
X149463763Y-90845000I50000J0D01*
G01*
%TO.C,C10*%
D12*
X136747805Y-91750510D02*
X136532133Y-91750510D01*
X136747805Y-92470510D02*
X136532133Y-92470510D01*
%TO.C,C9*%
X132759969Y-93999930D02*
X132759969Y-94281090D01*
X133779969Y-93999930D02*
X133779969Y-94281090D01*
%TO.C,R8*%
X148200122Y-91465000D02*
X148507404Y-91465000D01*
X148200122Y-92225000D02*
X148507404Y-92225000D01*
%TO.C,C5*%
X148225502Y-94802500D02*
X148441174Y-94802500D01*
X148225502Y-95522500D02*
X148441174Y-95522500D01*
%TO.C,R13*%
X145656791Y-98260000D02*
X145349509Y-98260000D01*
X145656791Y-99020000D02*
X145349509Y-99020000D01*
%TO.C,C19*%
X139595314Y-96990000D02*
X139810986Y-96990000D01*
X139595314Y-97710000D02*
X139810986Y-97710000D01*
%TO.C,C2*%
X148225502Y-92459363D02*
X148441174Y-92459363D01*
X148225502Y-93179363D02*
X148441174Y-93179363D01*
%TO.C,C6*%
X135097805Y-87540510D02*
X134882133Y-87540510D01*
X135097805Y-88260510D02*
X134882133Y-88260510D01*
%TO.C,FLT1*%
D13*
X138863150Y-90232500D02*
X139763150Y-90232500D01*
X138863150Y-91932500D02*
X138863150Y-90232500D01*
X138863150Y-91932500D02*
X139013150Y-91932500D01*
X139763150Y-90232500D02*
X139763150Y-91932500D01*
X139763150Y-91932500D02*
X139613150Y-91932500D01*
D14*
X139363150Y-92082500D02*
G75*
G02*
X139263150Y-92082500I-50000J0D01*
G01*
X139263150Y-92082500D02*
G75*
G02*
X139363150Y-92082500I50000J0D01*
G01*
%TO.C,C7*%
D12*
X133209969Y-90008346D02*
X133209969Y-89792674D01*
X133929969Y-90008346D02*
X133929969Y-89792674D01*
%TO.C,D2*%
D13*
X149463763Y-91945000D02*
G75*
G02*
X149363763Y-91945000I-50000J0D01*
G01*
X149363763Y-91945000D02*
G75*
G02*
X149463763Y-91945000I50000J0D01*
G01*
%TO.C,C13*%
D12*
X134360986Y-104885000D02*
X134145314Y-104885000D01*
X134360986Y-105605000D02*
X134145314Y-105605000D01*
%TO.C,R15*%
X134067009Y-99682500D02*
X134374291Y-99682500D01*
X134067009Y-100442500D02*
X134374291Y-100442500D01*
%TO.C,X2*%
X135430650Y-97052500D02*
X132610650Y-97052500D01*
X135430650Y-99472500D02*
X135430650Y-97052500D01*
%TO.C,C1*%
X142340188Y-92492259D02*
X142124516Y-92492259D01*
X142340188Y-93212259D02*
X142124516Y-93212259D01*
%TO.C,R10*%
X142058711Y-94432500D02*
X142365993Y-94432500D01*
X142058711Y-95192500D02*
X142365993Y-95192500D01*
%TO.C,C23*%
X139685314Y-92360000D02*
X139900986Y-92360000D01*
X139685314Y-93080000D02*
X139900986Y-93080000D01*
%TO.C,J1*%
X124700000Y-100950000D02*
X126400000Y-100950000D01*
X124700000Y-110290000D02*
X126400000Y-110290000D01*
%TO.C,C20*%
X139685314Y-95160000D02*
X139900986Y-95160000D01*
X139685314Y-95880000D02*
X139900986Y-95880000D01*
%TO.C,U8*%
D13*
X136570650Y-88522500D02*
X136570650Y-87522500D01*
X137730650Y-87502500D02*
X137730650Y-88502500D01*
X136520650Y-88662500D02*
G75*
G02*
X136480650Y-88662500I-20000J0D01*
G01*
X136480650Y-88662500D02*
G75*
G02*
X136520650Y-88662500I20000J0D01*
G01*
%TO.C,C17*%
D12*
X144653150Y-100690336D02*
X144653150Y-100474664D01*
X145373150Y-100690336D02*
X145373150Y-100474664D01*
%TO.C,R2*%
X129515650Y-104013641D02*
X129515650Y-103706359D01*
X130275650Y-104013641D02*
X130275650Y-103706359D01*
%TO.C,C8*%
X136632469Y-89792674D02*
X136632469Y-90008346D01*
X137352469Y-89792674D02*
X137352469Y-90008346D01*
%TO.C,L2*%
X133013528Y-102360000D02*
X133812772Y-102360000D01*
X133013528Y-103480000D02*
X133812772Y-103480000D01*
D15*
%TO.C,G1*%
G36*
X130125334Y-84893679D02*
G01*
X130257698Y-84911782D01*
X130407155Y-84938708D01*
X130556772Y-84971620D01*
X130689617Y-85007677D01*
X130731502Y-85021377D01*
X130980157Y-85136459D01*
X131192566Y-85291348D01*
X131361562Y-85476885D01*
X131479977Y-85683905D01*
X131540643Y-85903247D01*
X131544767Y-86060997D01*
X131534095Y-86190289D01*
X131426215Y-86079367D01*
X131333605Y-86003944D01*
X131217477Y-85953827D01*
X131100287Y-85925547D01*
X130981265Y-85898980D01*
X130919545Y-85874762D01*
X130902898Y-85846549D01*
X130908886Y-85826262D01*
X130938955Y-85686444D01*
X130913636Y-85532505D01*
X130837012Y-85387375D01*
X130828869Y-85376932D01*
X130701662Y-85251149D01*
X130538814Y-85135828D01*
X130365613Y-85046323D01*
X130207353Y-84997987D01*
X130203753Y-84997431D01*
X130081630Y-84971696D01*
X130000896Y-84939746D01*
X129973437Y-84906997D01*
X129979610Y-84895304D01*
X130026993Y-84887240D01*
X130125334Y-84893679D01*
G37*
G36*
X128226540Y-84458039D02*
G01*
X128598299Y-84560802D01*
X128611952Y-84565937D01*
X128771367Y-84622806D01*
X128893735Y-84654736D01*
X129005399Y-84666642D01*
X129132704Y-84663435D01*
X129134233Y-84663337D01*
X129607536Y-84645577D01*
X130024082Y-84657394D01*
X130391059Y-84699713D01*
X130715653Y-84773459D01*
X131005049Y-84879556D01*
X131076888Y-84913279D01*
X131329533Y-85074635D01*
X131533477Y-85282130D01*
X131684965Y-85528151D01*
X131780244Y-85805083D01*
X131815559Y-86105314D01*
X131795882Y-86371549D01*
X131753151Y-86575863D01*
X131698904Y-86742039D01*
X131637716Y-86865607D01*
X131574161Y-86942103D01*
X131512815Y-86967058D01*
X131458251Y-86936006D01*
X131415045Y-86844480D01*
X131396870Y-86761157D01*
X131356360Y-86597335D01*
X131295361Y-86458926D01*
X131222974Y-86364632D01*
X131193825Y-86343961D01*
X131142003Y-86333247D01*
X131073882Y-86352445D01*
X130984101Y-86405580D01*
X130867302Y-86496677D01*
X130718123Y-86629759D01*
X130531204Y-86808852D01*
X130395240Y-86943531D01*
X129981252Y-87380893D01*
X129605209Y-87826020D01*
X129273929Y-88269844D01*
X128994232Y-88703297D01*
X128794730Y-89071934D01*
X128722329Y-89224227D01*
X128676232Y-89337383D01*
X128650539Y-89434497D01*
X128639347Y-89538661D01*
X128636757Y-89672969D01*
X128636744Y-89690205D01*
X128646313Y-89881457D01*
X128679121Y-90052273D01*
X128741318Y-90214535D01*
X128839057Y-90380124D01*
X128978487Y-90560921D01*
X129165760Y-90768807D01*
X129229822Y-90835780D01*
X129598841Y-91217738D01*
X129424375Y-91217738D01*
X129296871Y-91219792D01*
X129136104Y-91225156D01*
X128990623Y-91231962D01*
X128843403Y-91235424D01*
X128654872Y-91233333D01*
X128453521Y-91226240D01*
X128328440Y-91219154D01*
X128090024Y-91198372D01*
X127877897Y-91167494D01*
X127669481Y-91121566D01*
X127442196Y-91055634D01*
X127181339Y-90967531D01*
X127004102Y-90898998D01*
X126799800Y-90810582D01*
X126587430Y-90711423D01*
X126385992Y-90610659D01*
X126214481Y-90517430D01*
X126103751Y-90449122D01*
X125996506Y-90386208D01*
X125927997Y-90376854D01*
X125890613Y-90425641D01*
X125876742Y-90537152D01*
X125876027Y-90586241D01*
X125876027Y-90795572D01*
X125762164Y-90773514D01*
X125538209Y-90710250D01*
X125322151Y-90613332D01*
X125131469Y-90493008D01*
X124983641Y-90359524D01*
X124926614Y-90283691D01*
X124871047Y-90211119D01*
X124822974Y-90176615D01*
X124812368Y-90176547D01*
X124785862Y-90216134D01*
X124763092Y-90302230D01*
X124754923Y-90359944D01*
X124737406Y-90530235D01*
X124517542Y-90326346D01*
X124309657Y-90088465D01*
X124140012Y-89799212D01*
X124016622Y-89474772D01*
X123979457Y-89382639D01*
X123938160Y-89330757D01*
X123923898Y-89325876D01*
X123867821Y-89340091D01*
X123771632Y-89377041D01*
X123675443Y-89419832D01*
X123496980Y-89526634D01*
X123310313Y-89675949D01*
X123137621Y-89847305D01*
X123001087Y-90020230D01*
X122969122Y-90071737D01*
X122873020Y-90239530D01*
X122849543Y-90010385D01*
X122843586Y-89728121D01*
X122872795Y-89439394D01*
X123108302Y-89439394D01*
X123112319Y-89482787D01*
X123132986Y-89475798D01*
X123177705Y-89422266D01*
X123276231Y-89327192D01*
X123416929Y-89228030D01*
X123574726Y-89140394D01*
X123724553Y-89079896D01*
X123730164Y-89078221D01*
X123820606Y-89048229D01*
X123864146Y-89012591D01*
X123877932Y-88947469D01*
X123879061Y-88871241D01*
X123912994Y-88591918D01*
X124014360Y-88297331D01*
X124182511Y-87988784D01*
X124416799Y-87667579D01*
X124561500Y-87499357D01*
X124678469Y-87366788D01*
X124774549Y-87252054D01*
X124841696Y-87165222D01*
X124871868Y-87116359D01*
X124872343Y-87110287D01*
X124831968Y-87097811D01*
X124739516Y-87088468D01*
X124612964Y-87083882D01*
X124577683Y-87083669D01*
X124448056Y-87080446D01*
X124350635Y-87071886D01*
X124302058Y-87059651D01*
X124299475Y-87055869D01*
X124325075Y-87023270D01*
X124396356Y-86953127D01*
X124505040Y-86852594D01*
X124642847Y-86728827D01*
X124801500Y-86588980D01*
X124972718Y-86440207D01*
X125148223Y-86289663D01*
X125319738Y-86144504D01*
X125478982Y-86011884D01*
X125617677Y-85898956D01*
X125727544Y-85812877D01*
X125790854Y-85766985D01*
X125930040Y-85683311D01*
X126076999Y-85617148D01*
X126206614Y-85577186D01*
X127163076Y-85577186D01*
X127182641Y-85723049D01*
X127238803Y-85904460D01*
X127345964Y-86049317D01*
X127491533Y-86150494D01*
X127662918Y-86200862D01*
X127847529Y-86193294D01*
X127954581Y-86160019D01*
X128052170Y-86101153D01*
X128147343Y-86015234D01*
X128221863Y-85922059D01*
X128257493Y-85841422D01*
X128258371Y-85830250D01*
X128248753Y-85793745D01*
X128216330Y-85815420D01*
X128130710Y-85857423D01*
X128026376Y-85850855D01*
X127923607Y-85805363D01*
X127842680Y-85730593D01*
X127803873Y-85636192D01*
X127802923Y-85618751D01*
X127798854Y-85569161D01*
X127775055Y-85546376D01*
X127714141Y-85544323D01*
X127618992Y-85554484D01*
X127481113Y-85567812D01*
X127346215Y-85575848D01*
X127299069Y-85576881D01*
X127163076Y-85577186D01*
X126206614Y-85577186D01*
X126243200Y-85565906D01*
X126440113Y-85526995D01*
X126476727Y-85522528D01*
X128006251Y-85522528D01*
X128024523Y-85587971D01*
X128049667Y-85623690D01*
X128115911Y-85696763D01*
X128159989Y-85706908D01*
X128194821Y-85651847D01*
X128214179Y-85594703D01*
X128235607Y-85513995D01*
X128225955Y-85479922D01*
X128176201Y-85472609D01*
X128158747Y-85472619D01*
X128050306Y-85485028D01*
X128006251Y-85522528D01*
X126476727Y-85522528D01*
X126679208Y-85497825D01*
X126971954Y-85475808D01*
X127115037Y-85468002D01*
X127456254Y-85446380D01*
X127737775Y-85417900D01*
X127969775Y-85380966D01*
X128162428Y-85333980D01*
X128316119Y-85279480D01*
X128418464Y-85245690D01*
X128465233Y-85253644D01*
X128457447Y-85303782D01*
X128440976Y-85333062D01*
X128416366Y-85406651D01*
X128400940Y-85518463D01*
X128398314Y-85585469D01*
X128380291Y-85812996D01*
X128323314Y-85993586D01*
X128222211Y-86141691D01*
X128185952Y-86178677D01*
X128023765Y-86290826D01*
X127833202Y-86355413D01*
X127628617Y-86374473D01*
X127424368Y-86350039D01*
X127234813Y-86284147D01*
X127074308Y-86178831D01*
X126957211Y-86036127D01*
X126939692Y-86002056D01*
X126872281Y-85893799D01*
X126780429Y-85823091D01*
X126647613Y-85780459D01*
X126521538Y-85762261D01*
X126314074Y-85767992D01*
X126090044Y-85819260D01*
X125878232Y-85908189D01*
X125787783Y-85963017D01*
X125703868Y-86027672D01*
X125589593Y-86125100D01*
X125456263Y-86244597D01*
X125315186Y-86375455D01*
X125177667Y-86506969D01*
X125055012Y-86628433D01*
X124958528Y-86729139D01*
X124899519Y-86798381D01*
X124889644Y-86813514D01*
X124873340Y-86850521D01*
X124883437Y-86869415D01*
X124932840Y-86873279D01*
X125034456Y-86865196D01*
X125084730Y-86860116D01*
X125223071Y-86844416D01*
X125348106Y-86827637D01*
X125421062Y-86815558D01*
X125503986Y-86811509D01*
X125544526Y-86847184D01*
X125546716Y-86852477D01*
X125538642Y-86900091D01*
X125486631Y-86979943D01*
X125387111Y-87096876D01*
X125290045Y-87200492D01*
X124955877Y-87581058D01*
X124691098Y-87954425D01*
X124495444Y-88321019D01*
X124368651Y-88681263D01*
X124367156Y-88687072D01*
X124308053Y-89035738D01*
X124313480Y-89364201D01*
X124383098Y-89669221D01*
X124495434Y-89912684D01*
X124592373Y-90078098D01*
X124656725Y-89816304D01*
X124714452Y-89635164D01*
X124788233Y-89483283D01*
X124870449Y-89372396D01*
X124953481Y-89314238D01*
X124986510Y-89308358D01*
X125019391Y-89316100D01*
X125041186Y-89348257D01*
X125055698Y-89418230D01*
X125066735Y-89539418D01*
X125071086Y-89606151D01*
X125107362Y-89875408D01*
X125181680Y-90091961D01*
X125297483Y-90264037D01*
X125379155Y-90341918D01*
X125492449Y-90420099D01*
X125575016Y-90444903D01*
X125621933Y-90415815D01*
X125630981Y-90368151D01*
X125645928Y-90239582D01*
X125684443Y-90112489D01*
X125737950Y-90005372D01*
X125797871Y-89936727D01*
X125838090Y-89921462D01*
X125876281Y-89940787D01*
X125957452Y-89992867D01*
X126068197Y-90068862D01*
X126150892Y-90127761D01*
X126500256Y-90355878D01*
X126875497Y-90557585D01*
X127258837Y-90724935D01*
X127632502Y-90849979D01*
X127908027Y-90913425D01*
X128082253Y-90937546D01*
X128290712Y-90956661D01*
X128497595Y-90967747D01*
X128569167Y-90969234D01*
X128932514Y-90972496D01*
X128704461Y-90730749D01*
X128494348Y-90478315D01*
X128350166Y-90234572D01*
X128269231Y-89993990D01*
X128248164Y-89789584D01*
X128257015Y-89637984D01*
X128280037Y-89488134D01*
X128304518Y-89396444D01*
X128332836Y-89299330D01*
X128340870Y-89230538D01*
X128335788Y-89214106D01*
X128302357Y-89227480D01*
X128225049Y-89280099D01*
X128112831Y-89365190D01*
X127974668Y-89475983D01*
X127837799Y-89590167D01*
X127682326Y-89720100D01*
X127543316Y-89832497D01*
X127430227Y-89920012D01*
X127352513Y-89975300D01*
X127321199Y-89991471D01*
X127286327Y-89980452D01*
X127281715Y-89944628D01*
X127310118Y-89880043D01*
X127374290Y-89782746D01*
X127476987Y-89648784D01*
X127620962Y-89474202D01*
X127808970Y-89255049D01*
X127934302Y-89111623D01*
X128181754Y-88830989D01*
X128394879Y-88592493D01*
X128584599Y-88384775D01*
X128761836Y-88196471D01*
X128937509Y-88016220D01*
X129122541Y-87832660D01*
X129327852Y-87634428D01*
X129564364Y-87410163D01*
X129620866Y-87356957D01*
X129818678Y-87167557D01*
X129963264Y-87021537D01*
X130055585Y-86917852D01*
X130096601Y-86855457D01*
X130097546Y-86838208D01*
X130063746Y-86817127D01*
X129988612Y-86807088D01*
X129861782Y-86807390D01*
X129733534Y-86813563D01*
X129376698Y-86859394D01*
X129067292Y-86951551D01*
X128859967Y-87055746D01*
X128738065Y-87138769D01*
X128580251Y-87257303D01*
X128401696Y-87398895D01*
X128217569Y-87551094D01*
X128043041Y-87701449D01*
X127893281Y-87837508D01*
X127816763Y-87912018D01*
X127683854Y-88039620D01*
X127584272Y-88116576D01*
X127516844Y-88140693D01*
X127480396Y-88109775D01*
X127473758Y-88021629D01*
X127495756Y-87874062D01*
X127521422Y-87765514D01*
X127703740Y-87765514D01*
X127715032Y-87787712D01*
X127765498Y-87757436D01*
X127857482Y-87674552D01*
X127979108Y-87553434D01*
X128285819Y-87269684D01*
X128635231Y-86995691D01*
X129012451Y-86740532D01*
X129402587Y-86513279D01*
X129790746Y-86323006D01*
X130162035Y-86178787D01*
X130307889Y-86134537D01*
X130508103Y-86090866D01*
X130720425Y-86063705D01*
X130925803Y-86053841D01*
X131105185Y-86062060D01*
X131239518Y-86089147D01*
X131255902Y-86095429D01*
X131376009Y-86183441D01*
X131465290Y-86329958D01*
X131509727Y-86475581D01*
X131538370Y-86610703D01*
X131588784Y-86523117D01*
X131616105Y-86441687D01*
X131632580Y-86307142D01*
X131639036Y-86112005D01*
X131639199Y-86067669D01*
X131637728Y-85897893D01*
X131630856Y-85778326D01*
X131614896Y-85689129D01*
X131586158Y-85610463D01*
X131540955Y-85522488D01*
X131536265Y-85513999D01*
X131376641Y-85292042D01*
X131162961Y-85106929D01*
X130892534Y-84956897D01*
X130562671Y-84840180D01*
X130473601Y-84816741D01*
X130358636Y-84796490D01*
X130199716Y-84779571D01*
X130012199Y-84766422D01*
X129811446Y-84757482D01*
X129612817Y-84753187D01*
X129431674Y-84753976D01*
X129283375Y-84760287D01*
X129183282Y-84772558D01*
X129160039Y-84779291D01*
X129130358Y-84799396D01*
X129131992Y-84833499D01*
X129169898Y-84895947D01*
X129226571Y-84971922D01*
X129331228Y-85124493D01*
X129420679Y-85284769D01*
X129485833Y-85433937D01*
X129517598Y-85553183D01*
X129519270Y-85577645D01*
X129506275Y-85631128D01*
X129460853Y-85693455D01*
X129373962Y-85774558D01*
X129248143Y-85875438D01*
X128912646Y-86157708D01*
X128592782Y-86471062D01*
X128299999Y-86802249D01*
X128045745Y-87138017D01*
X127841466Y-87465115D01*
X127789302Y-87564228D01*
X127729278Y-87690975D01*
X127703740Y-87765514D01*
X127521422Y-87765514D01*
X127545217Y-87664879D01*
X127592322Y-87492054D01*
X127657047Y-87263352D01*
X127704546Y-87093128D01*
X127735633Y-86972152D01*
X127751124Y-86891196D01*
X127751833Y-86841030D01*
X127738576Y-86812426D01*
X127712166Y-86796154D01*
X127673419Y-86782985D01*
X127655469Y-86776817D01*
X127558267Y-86734265D01*
X127450685Y-86676166D01*
X127348557Y-86612763D01*
X127267716Y-86554300D01*
X127223998Y-86511021D01*
X127222240Y-86496536D01*
X127265614Y-86487135D01*
X127361057Y-86482162D01*
X127490669Y-86482343D01*
X127538800Y-86483688D01*
X127705806Y-86485279D01*
X127828942Y-86474017D01*
X127933788Y-86446327D01*
X128001576Y-86419011D01*
X128203078Y-86302883D01*
X128357021Y-86149645D01*
X128470370Y-85950082D01*
X128550094Y-85694980D01*
X128550556Y-85692952D01*
X128595714Y-85494115D01*
X128672284Y-85570685D01*
X128733293Y-85670546D01*
X128748854Y-85752358D01*
X128759980Y-85834319D01*
X128786367Y-85853129D01*
X128817531Y-85810806D01*
X128838709Y-85735071D01*
X128845940Y-85574061D01*
X128800085Y-85418500D01*
X128722246Y-85285103D01*
X128575690Y-85125652D01*
X128378971Y-84989343D01*
X128150533Y-84885068D01*
X127908818Y-84821724D01*
X127729733Y-84806427D01*
X127630829Y-84800449D01*
X127568621Y-84785190D01*
X127557682Y-84773754D01*
X127590311Y-84732803D01*
X127681142Y-84705030D01*
X127819588Y-84690275D01*
X127995063Y-84688374D01*
X128196982Y-84699166D01*
X128414758Y-84722489D01*
X128637806Y-84758180D01*
X128801406Y-84792784D01*
X128845476Y-84798549D01*
X128835504Y-84784074D01*
X128782652Y-84754771D01*
X128698084Y-84716050D01*
X128592962Y-84673323D01*
X128478450Y-84631999D01*
X128451061Y-84622972D01*
X128332460Y-84588370D01*
X128219242Y-84565684D01*
X128091894Y-84552824D01*
X127930900Y-84547696D01*
X127750371Y-84547880D01*
X127474675Y-84558647D01*
X127225622Y-84588781D01*
X126985497Y-84642960D01*
X126736587Y-84725860D01*
X126461174Y-84842157D01*
X126243889Y-84945567D01*
X126107173Y-85016524D01*
X125941179Y-85108490D01*
X125754598Y-85216046D01*
X125556121Y-85333775D01*
X125354439Y-85456260D01*
X125158244Y-85578081D01*
X124976226Y-85693822D01*
X124817077Y-85798064D01*
X124689488Y-85885391D01*
X124602150Y-85950383D01*
X124563754Y-85987623D01*
X124563477Y-85993089D01*
X124607239Y-86006734D01*
X124700485Y-86021073D01*
X124818737Y-86032634D01*
X124954937Y-86047739D01*
X125031681Y-86069651D01*
X125059481Y-86101426D01*
X125059689Y-86102703D01*
X125035433Y-86142766D01*
X124961492Y-86217049D01*
X124845153Y-86318984D01*
X124693704Y-86442004D01*
X124615857Y-86502633D01*
X124354936Y-86707080D01*
X124140220Y-86883112D01*
X123974142Y-87028510D01*
X123859134Y-87141057D01*
X123797628Y-87218538D01*
X123789605Y-87255816D01*
X123834878Y-87275395D01*
X123931385Y-87288972D01*
X124056301Y-87293876D01*
X124176615Y-87296591D01*
X124263562Y-87303731D01*
X124299344Y-87313790D01*
X124299475Y-87314469D01*
X124278717Y-87347956D01*
X124221939Y-87424923D01*
X124137381Y-87534531D01*
X124033284Y-87665942D01*
X124013410Y-87690699D01*
X123836740Y-87915064D01*
X123696193Y-88106009D01*
X123579983Y-88281243D01*
X123476323Y-88458477D01*
X123379806Y-88642703D01*
X123306558Y-88801780D01*
X123236657Y-88976960D01*
X123176373Y-89149850D01*
X123131972Y-89302058D01*
X123109722Y-89415192D01*
X123108302Y-89439394D01*
X122872795Y-89439394D01*
X122875674Y-89410935D01*
X122941498Y-89079719D01*
X123036746Y-88755371D01*
X123157108Y-88458783D01*
X123178688Y-88414746D01*
X123288793Y-88224533D01*
X123431225Y-88018324D01*
X123585559Y-87823875D01*
X123718511Y-87681141D01*
X123791081Y-87606116D01*
X123836409Y-87549211D01*
X123844026Y-87532244D01*
X123812070Y-87517902D01*
X123728458Y-87507759D01*
X123616302Y-87504082D01*
X123493860Y-87502502D01*
X123425658Y-87493773D01*
X123395876Y-87471915D01*
X123388696Y-87430945D01*
X123388578Y-87417979D01*
X123407594Y-87356105D01*
X123466841Y-87269979D01*
X123569618Y-87156222D01*
X123719224Y-87011456D01*
X123918958Y-86832299D01*
X124171510Y-86615886D01*
X124551545Y-86295393D01*
X124434269Y-86265404D01*
X124320281Y-86235259D01*
X124256516Y-86213220D01*
X124225163Y-86190619D01*
X124208412Y-86158792D01*
X124206845Y-86154745D01*
X124202212Y-86116343D01*
X124220990Y-86072175D01*
X124269294Y-86016995D01*
X124353237Y-85945560D01*
X124478934Y-85852624D01*
X124652499Y-85732944D01*
X124860027Y-85594502D01*
X125318174Y-85300772D01*
X125732982Y-85054508D01*
X126109939Y-84852920D01*
X126454531Y-84693218D01*
X126772246Y-84572612D01*
X127004404Y-84504020D01*
X127417181Y-84429170D01*
X127828697Y-84414003D01*
X128226540Y-84458039D01*
G37*
%TO.C,C12*%
D12*
X132060650Y-105403080D02*
X132060650Y-105121920D01*
X133080650Y-105403080D02*
X133080650Y-105121920D01*
%TO.C,AE1*%
D16*
X148563150Y-83880000D02*
X149763150Y-83880000D01*
X148563150Y-85480000D02*
X149763150Y-85480000D01*
D17*
X146705150Y-84680000D02*
G75*
G02*
X146505150Y-84680000I-100000J0D01*
G01*
X146505150Y-84680000D02*
G75*
G02*
X146705150Y-84680000I100000J0D01*
G01*
%TO.C,R14*%
D12*
X145349509Y-96310000D02*
X145656791Y-96310000D01*
X145349509Y-97070000D02*
X145656791Y-97070000D01*
%TO.C,C27*%
X146243150Y-100690336D02*
X146243150Y-100474664D01*
X146963150Y-100690336D02*
X146963150Y-100474664D01*
%TO.C,C18*%
X145375314Y-102050000D02*
X145590986Y-102050000D01*
X145375314Y-102770000D02*
X145590986Y-102770000D01*
%TO.C,C25*%
X145630986Y-97310000D02*
X145415314Y-97310000D01*
X145630986Y-98030000D02*
X145415314Y-98030000D01*
%TO.C,R6*%
X143583150Y-89423641D02*
X143583150Y-89116359D01*
X144343150Y-89423641D02*
X144343150Y-89116359D01*
%TO.C,R9*%
X142365993Y-93450804D02*
X142058711Y-93450804D01*
X142365993Y-94210804D02*
X142058711Y-94210804D01*
%TO.C,X1*%
X144413150Y-103110000D02*
X144413150Y-105630000D01*
X146133150Y-103110000D02*
X144413150Y-103110000D01*
X146133150Y-105630000D02*
X146133150Y-103110000D01*
%TO.C,R1*%
X129515650Y-107726359D02*
X129515650Y-108033641D01*
X130275650Y-107726359D02*
X130275650Y-108033641D01*
%TO.C,R11*%
X142067009Y-95532500D02*
X142374291Y-95532500D01*
X142067009Y-96292500D02*
X142374291Y-96292500D01*
%TO.C,J3*%
X137058150Y-111225000D02*
X137058150Y-110590000D01*
X137693150Y-111225000D02*
X137058150Y-111225000D01*
%TO.C,C22*%
X142760650Y-107829664D02*
X142760650Y-108045336D01*
X143480650Y-107829664D02*
X143480650Y-108045336D01*
%TO.C,R3*%
X142366791Y-90501405D02*
X142059509Y-90501405D01*
X142366791Y-91261405D02*
X142059509Y-91261405D01*
%TO.C,C30*%
X136686230Y-83752500D02*
X136405070Y-83752500D01*
X136686230Y-84772500D02*
X136405070Y-84772500D01*
%TO.C,R4*%
X142365993Y-91492209D02*
X142058711Y-91492209D01*
X142365993Y-92252209D02*
X142058711Y-92252209D01*
%TO.C,U2*%
D18*
X144593247Y-92951150D02*
X145832053Y-92951150D01*
X145832053Y-90588950D02*
X144593247Y-90588950D01*
D13*
X146641219Y-93270050D02*
X146641219Y-92970050D01*
X146941219Y-92970050D01*
X146641219Y-93270050D01*
G36*
X146641219Y-93270050D02*
G01*
X146641219Y-92970050D01*
X146941219Y-92970050D01*
X146641219Y-93270050D01*
G37*
%TO.C,U3*%
X148093150Y-97790000D02*
X148223150Y-97790000D01*
X148093150Y-99990000D02*
X148093150Y-97790000D01*
X148213150Y-100000000D02*
X148093150Y-100000000D01*
X150813150Y-97770000D02*
X150683150Y-97770000D01*
X150813150Y-97790000D02*
X150813150Y-99990000D01*
X150813150Y-99990000D02*
X150683150Y-99990000D01*
D12*
X151153150Y-98250000D02*
X150963150Y-98110000D01*
X151153150Y-97970000D01*
X151153150Y-98250000D01*
G36*
X151153150Y-98250000D02*
G01*
X150963150Y-98110000D01*
X151153150Y-97970000D01*
X151153150Y-98250000D01*
G37*
%TO.C,C21*%
X145375314Y-106010000D02*
X145590986Y-106010000D01*
X145375314Y-106730000D02*
X145590986Y-106730000D01*
%TO.C,C24*%
X133811230Y-100785000D02*
X133530070Y-100785000D01*
X133811230Y-101805000D02*
X133530070Y-101805000D01*
%TO.C,U4*%
X144123150Y-93485000D02*
X146343150Y-93485000D01*
X145938718Y-95755000D02*
X144123150Y-95755000D01*
X146373150Y-95950000D02*
X146093150Y-95950000D01*
X146233150Y-95760000D01*
X146373150Y-95950000D01*
G36*
X146373150Y-95950000D02*
G01*
X146093150Y-95950000D01*
X146233150Y-95760000D01*
X146373150Y-95950000D01*
G37*
%TO.C,R12*%
X140740650Y-87536141D02*
X140740650Y-87228859D01*
X141500650Y-87536141D02*
X141500650Y-87228859D01*
%TO.C,U5*%
X134522469Y-88840510D02*
X136042469Y-88840510D01*
X134522469Y-90360510D02*
X134522469Y-88840510D01*
X135717469Y-90360510D02*
X134522469Y-90360510D01*
X136042469Y-88840510D02*
X136042469Y-90035510D01*
X136042469Y-90860510D02*
X136042469Y-90360510D01*
X136542469Y-90360510D01*
X136042469Y-90860510D01*
G36*
X136042469Y-90860510D02*
G01*
X136042469Y-90360510D01*
X136542469Y-90360510D01*
X136042469Y-90860510D01*
G37*
%TO.C,U7*%
X136110650Y-98722500D02*
X136585650Y-98722500D01*
X136110650Y-99197500D02*
X136110650Y-98722500D01*
X136110650Y-105942500D02*
X136110650Y-105467500D01*
X136585650Y-105942500D02*
X136110650Y-105942500D01*
X142855650Y-98722500D02*
X143330650Y-98722500D01*
X143330650Y-98722500D02*
X143330650Y-99197500D01*
X143330650Y-105467500D02*
X143330650Y-105942500D01*
X143330650Y-105942500D02*
X142855650Y-105942500D01*
X144190650Y-105322500D02*
X143860650Y-105082500D01*
X144190650Y-104842500D01*
X144190650Y-105322500D01*
G36*
X144190650Y-105322500D02*
G01*
X143860650Y-105082500D01*
X144190650Y-104842500D01*
X144190650Y-105322500D01*
G37*
%TO.C,C11*%
X134672133Y-91750510D02*
X134887805Y-91750510D01*
X134672133Y-92470510D02*
X134887805Y-92470510D01*
%TO.C,C29*%
X144810650Y-108221920D02*
X144810650Y-108503080D01*
X145830650Y-108221920D02*
X145830650Y-108503080D01*
%TO.C,R7*%
X148200122Y-90465000D02*
X148507404Y-90465000D01*
X148200122Y-91225000D02*
X148507404Y-91225000D01*
%TO.C,C3*%
X149503730Y-96030000D02*
X149222570Y-96030000D01*
X149503730Y-97050000D02*
X149222570Y-97050000D01*
%TO.C,R5*%
X142366791Y-89511405D02*
X142059509Y-89511405D01*
X142366791Y-90271405D02*
X142059509Y-90271405D01*
%TO.C,C16*%
X138905314Y-106952500D02*
X139120986Y-106952500D01*
X138905314Y-107672500D02*
X139120986Y-107672500D01*
%TD*%
%LPC*%
D19*
%TO.C,SW1*%
X150683150Y-110562500D03*
X150683150Y-103762500D03*
D20*
X147483150Y-109662500D03*
X147483150Y-107162500D03*
X147483150Y-104662500D03*
%TD*%
D21*
%TO.C,U6*%
X136962469Y-94870510D03*
X136962469Y-94370510D03*
X136962469Y-93870510D03*
X136962469Y-93370510D03*
D22*
X136299969Y-93208010D03*
X135799969Y-93208010D03*
X135299969Y-93208010D03*
D21*
X134637469Y-93370510D03*
X134637469Y-93870510D03*
X134637469Y-94370510D03*
X134637469Y-94870510D03*
D22*
X135299969Y-95033010D03*
X135799969Y-95033010D03*
X136299969Y-95033010D03*
%TD*%
D23*
%TO.C,U1*%
X132495650Y-107327500D03*
D24*
X132420650Y-107865000D03*
D23*
X132495650Y-108402500D03*
X134195650Y-108402500D03*
D24*
X134270650Y-107865000D03*
D23*
X134195650Y-107327500D03*
%TD*%
D25*
%TO.C,C31*%
X141363150Y-84690000D03*
X141363150Y-85650000D03*
%TD*%
D26*
%TO.C,C4*%
X148598150Y-101250000D03*
X150148150Y-101250000D03*
%TD*%
D27*
%TO.C,D3*%
X142070650Y-86872500D03*
X142070650Y-87842500D03*
%TD*%
D28*
%TO.C,C14*%
X136733150Y-97370000D03*
X137693150Y-97370000D03*
%TD*%
D25*
%TO.C,C28*%
X144095650Y-107457500D03*
X144095650Y-108417500D03*
%TD*%
D29*
%TO.C,D1*%
X150018763Y-90845000D03*
X150988763Y-90845000D03*
%TD*%
D30*
%TO.C,C10*%
X137119969Y-92110510D03*
X136159969Y-92110510D03*
%TD*%
D31*
%TO.C,C9*%
X133269969Y-93365510D03*
X133269969Y-94915510D03*
%TD*%
D32*
%TO.C,R8*%
X147843763Y-91845000D03*
X148863763Y-91845000D03*
%TD*%
D28*
%TO.C,C5*%
X147853338Y-95162500D03*
X148813338Y-95162500D03*
%TD*%
D33*
%TO.C,L1*%
X134718150Y-104270000D03*
X133748150Y-104270000D03*
%TD*%
D34*
%TO.C,R13*%
X146013150Y-98640000D03*
X144993150Y-98640000D03*
%TD*%
D28*
%TO.C,C19*%
X139223150Y-97350000D03*
X140183150Y-97350000D03*
%TD*%
%TO.C,C2*%
X147853338Y-92819363D03*
X148813338Y-92819363D03*
%TD*%
D30*
%TO.C,C6*%
X135469969Y-87900510D03*
X134509969Y-87900510D03*
%TD*%
D35*
%TO.C,FLT1*%
X139313150Y-91695000D03*
D36*
X139540650Y-91082500D03*
D35*
X139313150Y-90470000D03*
D37*
X139085650Y-91082500D03*
%TD*%
D38*
%TO.C,C7*%
X133569969Y-90380510D03*
X133569969Y-89420510D03*
%TD*%
D29*
%TO.C,D2*%
X150018763Y-91945000D03*
X150988763Y-91945000D03*
%TD*%
D30*
%TO.C,C13*%
X134733150Y-105245000D03*
X133773150Y-105245000D03*
%TD*%
D32*
%TO.C,R15*%
X133710650Y-100062500D03*
X134730650Y-100062500D03*
%TD*%
D39*
%TO.C,X2*%
X134720650Y-97712500D03*
X133320650Y-97712500D03*
X133320650Y-98812500D03*
X134720650Y-98812500D03*
%TD*%
D30*
%TO.C,C1*%
X142712352Y-92852259D03*
X141752352Y-92852259D03*
%TD*%
D32*
%TO.C,R10*%
X141702352Y-94812500D03*
X142722352Y-94812500D03*
%TD*%
D28*
%TO.C,C23*%
X139313150Y-92720000D03*
X140273150Y-92720000D03*
%TD*%
D40*
%TO.C,J1*%
X127205000Y-102730000D03*
X127205000Y-108510000D03*
D41*
X128280000Y-102420000D03*
X128280000Y-103220000D03*
D42*
X128280000Y-104370000D03*
X128280000Y-105370000D03*
X128280000Y-105870000D03*
X128280000Y-106870000D03*
D41*
X128280000Y-108020000D03*
X128280000Y-108820000D03*
X128280000Y-108820000D03*
X128280000Y-108020000D03*
D42*
X128280000Y-107370000D03*
X128280000Y-106370000D03*
X128280000Y-104870000D03*
X128280000Y-103870000D03*
D41*
X128280000Y-103220000D03*
X128280000Y-102420000D03*
D43*
X127705000Y-101300000D03*
D44*
X123525000Y-101300000D03*
D43*
X127705000Y-109940000D03*
D44*
X123525000Y-109940000D03*
%TD*%
D28*
%TO.C,C20*%
X139313150Y-95520000D03*
X140273150Y-95520000D03*
%TD*%
D45*
%TO.C,U8*%
X136820650Y-88462500D03*
D46*
X137480650Y-88462500D03*
D47*
X137480650Y-87562500D03*
D48*
X136820650Y-87562500D03*
D49*
X137150650Y-88012500D03*
%TD*%
D38*
%TO.C,C17*%
X145013150Y-101062500D03*
X145013150Y-100102500D03*
%TD*%
D50*
%TO.C,R2*%
X129895650Y-104370000D03*
X129895650Y-103350000D03*
%TD*%
D25*
%TO.C,C8*%
X136992469Y-89420510D03*
X136992469Y-90380510D03*
%TD*%
D51*
%TO.C,L2*%
X132350650Y-102920000D03*
X134475650Y-102920000D03*
%TD*%
D52*
%TO.C,C12*%
X132570650Y-106037500D03*
X132570650Y-104487500D03*
%TD*%
D53*
%TO.C,AE1*%
X147802510Y-84677091D03*
X150513150Y-84680000D03*
%TD*%
D54*
%TO.C,L3*%
X139313150Y-94605000D03*
X139313150Y-93635000D03*
%TD*%
D32*
%TO.C,R14*%
X144993150Y-96690000D03*
X146013150Y-96690000D03*
%TD*%
D38*
%TO.C,C27*%
X146603150Y-101062500D03*
X146603150Y-100102500D03*
%TD*%
D28*
%TO.C,C18*%
X145003150Y-102410000D03*
X145963150Y-102410000D03*
%TD*%
D30*
%TO.C,C25*%
X146003150Y-97670000D03*
X145043150Y-97670000D03*
%TD*%
D50*
%TO.C,R6*%
X143963150Y-89780000D03*
X143963150Y-88760000D03*
%TD*%
D34*
%TO.C,R9*%
X142722352Y-93830804D03*
X141702352Y-93830804D03*
%TD*%
D55*
%TO.C,X1*%
X145273150Y-103670000D03*
X145273150Y-105070000D03*
%TD*%
D56*
%TO.C,R1*%
X129895650Y-107370000D03*
X129895650Y-108390000D03*
%TD*%
D32*
%TO.C,R11*%
X141710650Y-95912500D03*
X142730650Y-95912500D03*
%TD*%
D57*
%TO.C,J3*%
X136423150Y-109955000D03*
X141503150Y-108939000D03*
X141503150Y-110971000D03*
D58*
X137693150Y-110590000D03*
X137693150Y-109320000D03*
X138963150Y-110590000D03*
X138963150Y-109320000D03*
X140233150Y-110590000D03*
X140233150Y-109320000D03*
%TD*%
D25*
%TO.C,C22*%
X143120650Y-107457500D03*
X143120650Y-108417500D03*
%TD*%
D27*
%TO.C,L5*%
X144213150Y-84690000D03*
X144213150Y-85660000D03*
%TD*%
D34*
%TO.C,R3*%
X142723150Y-90881405D03*
X141703150Y-90881405D03*
%TD*%
D59*
%TO.C,C30*%
X137320650Y-84262500D03*
X135770650Y-84262500D03*
%TD*%
D34*
%TO.C,R4*%
X142722352Y-91872209D03*
X141702352Y-91872209D03*
%TD*%
D60*
%TO.C,U2*%
X146292150Y-92570150D03*
X146292150Y-92170100D03*
X146292150Y-91770050D03*
X146292150Y-91370000D03*
X146292150Y-90969950D03*
X144133150Y-90969950D03*
X144133150Y-91370000D03*
X144133150Y-91770050D03*
X144133150Y-92170100D03*
X144133150Y-92570150D03*
D61*
X145212650Y-91770050D03*
%TD*%
D29*
%TO.C,L4*%
X142298150Y-84690000D03*
X143268150Y-84690000D03*
%TD*%
D62*
%TO.C,U3*%
X150453150Y-98090000D03*
X149953150Y-98090000D03*
X149453150Y-98090000D03*
X148953150Y-98090000D03*
X148453150Y-98090000D03*
X148453150Y-99690000D03*
X148953150Y-99690000D03*
X149453150Y-99690000D03*
X149953150Y-99690000D03*
X150453150Y-99690000D03*
%TD*%
D28*
%TO.C,C21*%
X145003150Y-106370000D03*
X145963150Y-106370000D03*
%TD*%
D59*
%TO.C,C24*%
X134445650Y-101295000D03*
X132895650Y-101295000D03*
%TD*%
D63*
%TO.C,U4*%
X146233150Y-95370000D03*
X146233150Y-94870000D03*
X146233150Y-94370000D03*
X146233150Y-93870000D03*
X144233150Y-93870000D03*
X144233150Y-94370000D03*
X144233150Y-94870000D03*
X144233150Y-95370000D03*
D64*
X145233150Y-94620000D03*
%TD*%
D50*
%TO.C,R12*%
X141120650Y-87892500D03*
X141120650Y-86872500D03*
%TD*%
D65*
%TO.C,U5*%
X135682469Y-90000510D03*
X135282469Y-90000510D03*
X134882469Y-90000510D03*
X135682469Y-89600510D03*
X135282469Y-89600510D03*
X134882469Y-89600510D03*
X135682469Y-89200510D03*
X135282469Y-89200510D03*
X134882469Y-89200510D03*
%TD*%
D66*
%TO.C,U7*%
X143158150Y-105082500D03*
X143158150Y-104582500D03*
X143158150Y-104082500D03*
X143158150Y-103582500D03*
X143158150Y-103082500D03*
X143158150Y-102582500D03*
X143158150Y-102082500D03*
X143158150Y-101582500D03*
X143158150Y-101082500D03*
X143158150Y-100582500D03*
X143158150Y-100082500D03*
X143158150Y-99582500D03*
D67*
X142470650Y-98895000D03*
X141970650Y-98895000D03*
X141470650Y-98895000D03*
X140970650Y-98895000D03*
X140470650Y-98895000D03*
X139970650Y-98895000D03*
X139470650Y-98895000D03*
X138970650Y-98895000D03*
X138470650Y-98895000D03*
X137970650Y-98895000D03*
X137470650Y-98895000D03*
X136970650Y-98895000D03*
D66*
X136283150Y-99582500D03*
X136283150Y-100082500D03*
X136283150Y-100582500D03*
X136283150Y-101082500D03*
X136283150Y-101582500D03*
X136283150Y-102082500D03*
X136283150Y-102582500D03*
X136283150Y-103082500D03*
X136283150Y-103582500D03*
X136283150Y-104082500D03*
X136283150Y-104582500D03*
X136283150Y-105082500D03*
D67*
X136970650Y-105770000D03*
X137470650Y-105770000D03*
X137970650Y-105770000D03*
X138470650Y-105770000D03*
X138970650Y-105770000D03*
X139470650Y-105770000D03*
X139970650Y-105770000D03*
X140470650Y-105770000D03*
X140970650Y-105770000D03*
X141470650Y-105770000D03*
X141970650Y-105770000D03*
X142470650Y-105770000D03*
D68*
X139720650Y-102332500D03*
%TD*%
D28*
%TO.C,C11*%
X134299969Y-92110510D03*
X135259969Y-92110510D03*
%TD*%
D31*
%TO.C,C29*%
X145320650Y-107587500D03*
X145320650Y-109137500D03*
%TD*%
D32*
%TO.C,R7*%
X147843763Y-90845000D03*
X148863763Y-90845000D03*
%TD*%
D59*
%TO.C,C3*%
X150138150Y-96540000D03*
X148588150Y-96540000D03*
%TD*%
D34*
%TO.C,R5*%
X142723150Y-89891405D03*
X141703150Y-89891405D03*
%TD*%
D28*
%TO.C,C16*%
X138533150Y-107312500D03*
X139493150Y-107312500D03*
%TD*%
%LPD*%
M02*
